<svg width="16" height="16" viewBox="0 0 16 16" fill="none" xmlns="http://www.w3.org/2000/svg">
<path d="M7.99998 14.6666C11.6819 14.6666 14.6666 11.6819 14.6666 7.99998C14.6666 4.31808 11.6819 1.33331 7.99998 1.33331C4.31808 1.33331 1.33331 4.31808 1.33331 7.99998C1.33331 11.6819 4.31808 14.6666 7.99998 14.6666Z" stroke="#1F1F1F" stroke-linecap="round" stroke-linejoin="round"/>
<path d="M6.06 5.99983C6.21673 5.55428 6.5261 5.17857 6.9333 4.93925C7.3405 4.69994 7.81926 4.61246 8.28478 4.69231C8.7503 4.77215 9.17254 5.01418 9.47672 5.37552C9.78089 5.73685 9.94737 6.19418 9.94666 6.6665C9.94666 7.99983 7.94666 8.6665 7.94666 8.6665" stroke="#1F1F1F" stroke-linecap="round" stroke-linejoin="round"/>
<path d="M8 11.3333H8.00667" stroke="#1F1F1F" stroke-linecap="round" stroke-linejoin="round"/>
</svg>
