<svg width="121" height="120" viewBox="0 0 121 120" fill="none" xmlns="http://www.w3.org/2000/svg">
<path d="M38.0408 106.714C38.0408 106.714 38.347 107.735 38.551 108.755C38.6531 109.265 38.8572 109.776 38.9592 110.184C39.0612 110.592 39.1633 110.796 39.1633 110.796C38.8572 110.592 38.449 110.388 38.1429 110.082C37.8367 109.776 37.5306 109.572 37.2245 109.265C36.9184 108.959 36.7143 108.653 36.5102 108.347C36.3061 108.041 36.1021 107.633 36 107.327C35.7959 106.918 35.6939 106.408 35.5919 105.898C35.4898 105.388 35.4898 104.878 35.4898 104.367C35.5918 103.449 35.7959 102.633 36.3061 102.225C37.0204 102.735 37.8367 103.551 38.551 104.572C39.2653 105.49 39.8776 106.612 40.2857 107.327C40.898 108.653 40.898 109.98 40.3878 110.898C40.3878 110.898 39.6735 109.878 39.0612 108.857C38.7551 108.347 38.449 107.837 38.1429 107.429C38.2449 107.021 38.0408 106.714 38.0408 106.714Z" fill="#EEBF2F"/>
<path d="M30.6939 98.3472C31 98.6533 31.3061 98.9594 31.6122 99.4696C31.7143 99.6737 31.9184 99.8778 32.0204 100.184C32.1224 100.388 32.3265 100.694 32.4286 100.898C32.7347 101.408 32.9388 101.919 33.1428 102.429C33.3469 102.939 33.551 103.449 33.653 103.857C33.8571 104.572 33.9592 105.184 33.8571 105.796C33.7551 106.408 33.6531 106.919 33.2449 107.327C33.2449 107.327 33.1428 107.021 32.9388 106.612C32.7347 106.204 32.5306 105.592 32.2245 105.082C32.0204 104.572 31.7143 103.959 31.6122 103.551C31.4082 103.143 31.3061 102.837 31.3061 102.837C31.3061 102.837 31.3061 103.143 31.4082 103.449C31.4082 103.857 31.5102 104.368 31.6122 104.878C31.7143 105.898 31.9184 107.021 31.9184 107.021C31.3061 106.51 30.7959 105.898 30.3877 105.286C29.9796 104.572 29.6735 103.959 29.4694 103.245C29.2653 102.327 29.2653 101.306 29.4694 100.388C29.7755 99.3676 30.1837 98.6533 30.6939 98.3472Z" fill="#EEBF2F"/>
<path d="M25.6939 93.6533C26 93.9594 26.2041 94.3676 26.4081 94.8778C26.6122 95.388 26.8163 95.8982 27.0204 96.4084C27.2245 96.9186 27.4286 97.5309 27.5306 98.0411C27.6326 98.5513 27.7347 99.0615 27.8367 99.4696C28.0408 100.898 27.7347 102.021 27.0204 102.735C27.0204 102.735 26.9184 102.429 26.8163 102.021C26.7143 101.613 26.5102 101 26.4081 100.49C26.3061 99.8778 26.102 99.3676 26 98.9594C25.8979 98.5513 25.7959 98.2452 25.7959 98.2452C25.7959 98.2452 25.7959 98.5513 25.7959 98.8574C25.7959 99.2656 25.7959 99.7758 25.7959 100.286C25.7959 100.796 25.7959 101.306 25.7959 101.715C25.7959 102.123 25.7959 102.327 25.7959 102.327C25.2857 101.715 24.8775 101.102 24.5714 100.388C24.2653 99.6737 24.0612 98.9594 24.0612 98.2452C23.9592 97.4288 24.1633 96.3064 24.4694 95.4901C24.6735 94.5717 25.1837 93.8574 25.6939 93.6533Z" fill="#EEBF2F"/>
<path d="M21.5102 88.3467C21.9184 89.061 22.2245 90.0814 22.4286 91.2038C22.6327 92.2242 22.7347 93.4487 22.7347 94.265C22.7347 94.9793 22.6327 95.5916 22.3266 96.1018C22.1225 96.612 21.8163 97.0202 21.4082 97.3263C21.4082 97.3263 21.3061 97.0202 21.3061 96.612C21.2041 96.2038 21.2041 95.5916 21.1021 95.0814C21 94.5712 21 93.9589 21 93.5508C21 93.1426 20.898 92.8365 20.898 92.8365C20.898 92.8365 20.6939 93.7548 20.4898 94.7753C20.3878 95.2855 20.2857 95.7957 20.2857 96.1018C20.1837 96.51 20.1837 96.714 20.1837 96.714C19.9796 96.4079 19.7755 96.1018 19.6735 95.6936C19.5715 95.3875 19.3674 94.9793 19.2653 94.6732C19.1633 94.3671 19.0612 93.9589 19.0612 93.6528C19.0612 93.2446 19.0612 92.9385 19.0612 92.6324C19.2653 90.7957 20.3878 88.6528 21.5102 88.3467Z" fill="#EEBF2F"/>
<path d="M18.0408 82.6323C18.3469 83.3466 18.551 84.4691 18.6531 85.4895C18.7551 86.6119 18.7551 87.6323 18.551 88.4487C18.3469 89.7752 17.7347 90.6936 16.9184 91.1017C16.9184 91.1017 16.9184 90.7956 16.9184 90.3874C16.9184 89.9793 16.9184 89.367 16.9184 88.8568C16.9184 88.3466 16.9184 87.7344 17.0204 87.3262C17.0204 86.918 17.0204 86.6119 17.0204 86.6119C17.0204 86.6119 16.7143 87.5303 16.4082 88.4487C16.102 89.367 15.7959 90.3874 15.7959 90.3874C15.4898 89.6731 15.2857 88.9589 15.1837 88.2446C15.0816 87.5303 15.0816 86.816 15.2857 86.2038C15.6939 84.6731 16.9184 82.8364 18.0408 82.6323Z" fill="#EEBF2F"/>
<path d="M15.4898 76.7144C15.5918 76.9184 15.5918 77.1225 15.5918 77.3266C15.5918 77.5307 15.6939 77.7348 15.6939 78.0409C15.6939 78.5511 15.6939 79.0613 15.6939 79.5715C15.6939 80.5919 15.4898 81.7144 15.2857 82.4286C14.8775 83.6531 14.1633 84.5715 13.3469 84.7756C13.3469 84.7756 13.449 83.6531 13.653 82.6327C13.7551 82.1225 13.8571 81.6123 13.8571 81.2041C13.9592 80.796 13.9592 80.5919 13.9592 80.5919C13.9592 80.5919 13.551 81.4082 13.1428 82.3266C12.9388 82.7348 12.7347 83.1429 12.6326 83.5511C12.5306 83.8572 12.4286 84.0613 12.4286 84.0613C12.3265 83.7552 12.2245 83.347 12.2245 83.0409C12.2245 82.7348 12.1224 82.3266 12.1224 82.0205C12.1224 81.3062 12.2245 80.5919 12.4286 79.9797C12.9388 78.347 14.3673 76.7144 15.4898 76.7144Z" fill="#EEBF2F"/>
<path d="M13.551 70.5918C13.653 71 13.653 71.4081 13.653 71.9183C13.653 72.4285 13.551 72.9387 13.449 73.4489C13.2449 74.4693 13.0408 75.4898 12.7347 76.204C12.2245 77.3265 11.5102 78.1428 10.5918 78.2449C10.5918 78.2449 10.6939 77.9387 10.7959 77.6326C10.8979 77.2244 11 76.7142 11.2041 76.204C11.3061 75.6938 11.5102 75.1836 11.6122 74.7755C11.7143 74.3673 11.8163 74.1632 11.8163 74.1632C11.8163 74.1632 11.7143 74.3673 11.5102 74.6734C11.2041 74.9796 11 75.3877 10.7959 75.7959C10.5918 76.204 10.2857 76.6122 10.1837 76.9183C9.97958 77.2245 9.87754 77.4285 9.87754 77.4285C9.67346 76.102 9.7755 74.5714 10.2857 73.4489C10.5918 72.7347 11.2041 72.0204 11.8163 71.5102C12.4286 70.8979 13.0408 70.5918 13.551 70.5918Z" fill="#EEBF2F"/>
<path d="M12.3265 64.4697C12.4286 66.0003 11.7143 68.4493 11 69.7758C10.3877 70.8983 9.57141 71.5105 8.75509 71.6125C8.75509 71.6125 9.06121 70.5921 9.46937 69.6738C9.67346 69.1636 9.87754 68.7554 9.97958 68.3472C10.0816 68.0411 10.1837 67.837 10.1837 67.837C10.1837 67.837 9.67345 68.4493 9.16325 69.1636C8.65305 69.8778 8.0408 70.5921 8.0408 70.5921C8.0408 69.8778 8.0408 69.2656 8.14284 68.5513C8.24488 67.9391 8.55101 67.3268 8.85713 66.7146C9.67345 65.5921 11.3061 64.2656 12.3265 64.4697Z" fill="#EEBF2F"/>
<path d="M11.7143 58.4489C11.7143 58.857 11.7143 59.2652 11.5102 59.6733C11.4081 60.0815 11.3061 60.5917 11.102 60.9999C10.7959 61.9182 10.2857 62.8366 9.87753 63.4489C9.16324 64.4693 8.34692 64.9795 7.53059 64.9795C7.53059 64.9795 7.63263 64.7754 7.83671 64.3672C8.04079 64.0611 8.24488 63.5509 8.44896 63.1427C8.65304 62.7346 8.85712 62.2244 9.0612 61.9182C9.26528 61.6121 9.36732 61.408 9.36732 61.408C9.36732 61.408 8.75508 62.0203 8.14283 62.7346C7.53059 63.3468 7.02039 64.0611 7.02039 64.0611C7.02039 63.4489 7.12243 62.7346 7.32651 62.1223C7.53059 61.5101 7.83671 60.8978 8.14283 60.4897C8.95916 59.1631 10.6939 58.0407 11.7143 58.4489Z" fill="#EEBF2F"/>
<path d="M11.6122 52.6326C11.6122 52.9388 11.5102 53.3469 11.3061 53.7551C11.2041 54.1632 11 54.5714 10.7959 54.9796C10.6939 55.1836 10.5918 55.3877 10.4898 55.5918C10.3878 55.7959 10.2857 56 10.1837 56.2041C9.97959 56.6122 9.67347 56.9183 9.46939 57.2245C8.7551 58.1428 7.83673 58.551 7.02041 58.551C7.02041 58.551 7.12245 58.3469 7.32653 58.0408C7.53061 57.7347 7.73469 57.3265 8.04082 56.9183C8.2449 56.5102 8.55102 56.102 8.7551 55.7959C8.95918 55.4898 9.06122 55.2857 9.06122 55.2857C9.06122 55.2857 8.85714 55.3877 8.65306 55.5918C8.44898 55.7959 8.14286 56.102 7.83673 56.4081C7.22449 57.0204 6.61224 57.5306 6.61224 57.5306C6.71428 56.9183 6.81633 56.3061 7.02041 55.6939C7.22449 55.0816 7.53061 54.5714 7.93877 54.1632C8.95918 53.0408 10.6939 52.2245 11.6122 52.6326Z" fill="#EEBF2F"/>
<path d="M12.2245 47.1227C11.9184 48.4492 10.5919 50.2859 9.57145 51.2043C9.16328 51.6125 8.75512 51.9186 8.34696 52.1227C7.93879 52.3268 7.53063 52.3268 7.12247 52.2247C7.12247 52.2247 7.22451 52.0206 7.42859 51.7145C7.63267 51.4084 7.93879 51.1023 8.24492 50.6941C8.55104 50.2859 8.85716 49.9798 9.06124 49.6737C9.26533 49.3676 9.46941 49.2655 9.46941 49.2655C9.46941 49.2655 8.75512 49.6737 8.14288 50.1839C7.53063 50.6941 6.81635 51.1023 6.81635 51.1023C7.12247 49.8778 7.73471 48.7553 8.55104 48.041C9.06124 47.6329 9.77553 47.2247 10.4898 47.0206C11.1021 46.9186 11.8163 46.9186 12.2245 47.1227Z" fill="#EEBF2F"/>
<path d="M13.449 41.9187C13.2449 42.5309 12.7347 43.2452 12.2245 43.9595C11.7143 44.6738 11 45.286 10.4898 45.6942C9.67349 46.3064 8.75512 46.5105 8.04083 46.3064C8.04083 46.3064 8.65308 45.6942 9.26532 44.9799C9.87757 44.2656 10.4898 43.7554 10.4898 43.7554C10.4898 43.7554 9.77553 44.0615 9.16328 44.4697C8.75512 44.5717 8.449 44.7758 8.14287 44.9799C7.83675 45.0819 7.73471 45.184 7.73471 45.184C7.93879 44.6738 8.24491 44.0615 8.55104 43.6534C8.85716 43.1431 9.26532 42.735 9.77553 42.5309C10.2857 42.1227 11.1021 41.8166 11.7143 41.7146C12.4286 41.5105 13.0408 41.6125 13.449 41.9187Z" fill="#EEBF2F"/>
<path d="M15.0816 36.9184C14.7755 37.5307 14.2653 38.1429 13.6531 38.7551C13.0408 39.3674 12.3265 39.8776 11.8163 40.1837C10.898 40.6939 10.0816 40.796 9.36735 40.4898C9.36735 40.4898 10.0816 39.8776 10.6939 39.3674C11.4082 38.8572 12.0204 38.347 12.0204 38.347C12.0204 38.347 11.3061 38.6531 10.5918 38.8572C9.87755 39.1633 9.16327 39.4694 9.16327 39.4694C9.36735 38.9592 9.77551 38.449 10.0816 38.0409C10.4898 37.6327 10.898 37.3266 11.3061 37.0204C11.9184 36.7143 12.6327 36.5102 13.2449 36.4082C14.1633 36.5102 14.7755 36.6123 15.0816 36.9184Z" fill="#EEBF2F"/>
<path d="M17.2245 32.3267C16.9184 32.837 16.3061 33.4492 15.6939 33.9594C15.0816 34.4696 14.3674 34.8778 13.7551 35.1839C12.8367 35.5921 12.0204 35.5921 11.4082 35.2859C11.4082 35.2859 12.1225 34.8778 12.8367 34.3676C13.551 33.9594 14.2653 33.5512 14.2653 33.5512C14.2653 33.5512 13.551 33.7553 12.8367 33.9594C12.5306 34.0614 12.1225 34.1635 11.9184 34.2655C11.6123 34.3676 11.5102 34.3676 11.5102 34.3676C11.8163 33.8574 12.1225 33.4492 12.5306 33.1431C12.9388 32.7349 13.3469 32.5308 13.8572 32.3267C14.4694 32.1227 15.1837 31.9186 15.7959 32.0206C16.4082 31.8165 17.0204 32.0206 17.2245 32.3267Z" fill="#EEBF2F"/>
<path d="M19.7755 28.1431C19.0612 29.0615 17.3265 30.0819 16.2041 30.49C15.2857 30.7961 14.4694 30.6941 13.9592 30.2859C13.9592 30.2859 14.6735 29.8778 15.3878 29.5717C15.6939 29.3676 16.1021 29.2655 16.4082 29.0615C16.7143 28.9594 16.8163 28.8574 16.8163 28.8574C16.8163 28.8574 16.1021 28.9594 15.3878 29.0615C14.6735 29.1635 13.9592 29.3676 13.9592 29.3676C14.1633 29.1635 14.2653 28.9594 14.4694 28.7553C14.6735 28.5512 14.8776 28.4492 15.0816 28.2451C15.4898 27.939 16 27.7349 16.4082 27.5308C17.6327 27.3268 19.2653 27.4288 19.7755 28.1431Z" fill="#EEBF2F"/>
<path d="M22.5306 24.3672C22.3265 24.5713 22.1224 24.7754 21.8163 24.9794C21.5102 25.1835 21.2041 25.3876 20.8979 25.4896C20.1837 25.7958 19.4694 26.1019 18.9592 26.2039C18.0408 26.408 17.3265 26.306 16.8163 25.7958C16.8163 25.7958 17.0204 25.6937 17.2245 25.5917C17.5306 25.4896 17.8367 25.3876 18.2449 25.1835C18.9592 24.8774 19.6735 24.6733 19.6735 24.6733C19.6735 24.6733 19.4694 24.6733 19.2653 24.6733C19.0612 24.6733 18.653 24.6733 18.3469 24.7754C17.6326 24.8774 17.0204 24.8774 17.0204 24.8774C17.4286 24.4692 17.7347 24.1631 18.2449 23.959C18.653 23.7549 19.1633 23.5509 19.5714 23.4488C20.5918 23.3468 22.1224 23.6529 22.5306 24.3672Z" fill="#EEBF2F"/>
<path d="M25.4898 20.9999C25.0816 21.306 24.4694 21.7142 23.7551 21.9183C23.0408 22.2244 22.3265 22.4285 21.8163 22.4285C20.898 22.5305 20.1837 22.3264 19.7755 21.9183C19.7755 21.9183 19.9796 21.8162 20.1837 21.8162C20.4898 21.7142 20.7959 21.6122 21.2041 21.5101C21.9184 21.306 22.6327 21.204 22.6327 21.204C22.6327 21.204 22.0204 21.204 21.3061 21.204C20.6939 21.204 19.9796 21.204 19.9796 21.204C20.6939 20.5917 21.6122 20.1836 22.5306 20.0815C23.0408 20.0815 23.7551 20.0815 24.2653 20.2856C24.8776 20.3877 25.3878 20.6938 25.4898 20.9999Z" fill="#EEBF2F"/>
<path d="M28.653 18.1429C27.8367 18.7552 26.102 19.0613 25.0816 19.1634C24.2653 19.1634 23.551 18.9593 23.2449 18.4491C23.2449 18.4491 23.9592 18.347 24.6734 18.245C25.3877 18.1429 26.102 18.0409 26.102 18.0409C26.102 18.0409 25.4898 17.9389 24.8775 17.8368C24.5714 17.8368 24.2653 17.7348 24.0612 17.7348C23.8571 17.7348 23.653 17.7348 23.653 17.7348C24.0612 17.4287 24.4694 17.2246 24.8775 17.1225C25.2857 17.0205 25.7959 16.9185 26.2041 16.9185C27.1224 16.9185 28.449 17.4287 28.653 18.1429Z" fill="#EEBF2F"/>
<path d="M31.9184 15.7961C31.102 16.2043 29.3673 16.4084 28.3469 16.3063C27.5306 16.2043 26.9184 15.8982 26.6122 15.388C26.6122 15.388 26.8163 15.388 27.0204 15.388C27.2245 15.388 27.6327 15.388 27.9388 15.388C28.2449 15.388 28.6531 15.388 28.8571 15.388C29.0612 15.388 29.2653 15.388 29.2653 15.388C29.2653 15.388 29.1633 15.388 28.9592 15.2859C28.8571 15.1839 28.551 15.1839 28.2449 15.0818C27.6327 14.9798 27.1224 14.7757 27.1224 14.7757C27.5306 14.5716 27.9388 14.3675 28.3469 14.3675C28.7551 14.2655 29.1633 14.2655 29.5714 14.3675C30.5918 14.4696 31.8163 15.1839 31.9184 15.7961Z" fill="#EEBF2F"/>
<path d="M35.2857 13.9593C34.4694 14.2654 32.8367 14.2654 31.9184 14.0613C31.2041 13.8573 30.5918 13.5511 30.3878 13.0409C30.3878 13.0409 31 13.0409 31.7143 13.143C32.3265 13.245 32.9388 13.245 32.9388 13.245C32.9388 13.245 32.4286 13.0409 31.9184 12.8368C31.6122 12.7348 31.4082 12.6328 31.2041 12.5307C31 12.4287 30.898 12.4287 30.898 12.4287C31.3061 12.2246 31.7143 12.1226 32.1225 12.1226C32.5306 12.1226 32.9388 12.1226 33.3469 12.2246C34.2653 12.5307 35.2857 13.347 35.2857 13.9593Z" fill="#EEBF2F"/>
<path d="M36.6122 11.6124C36.6122 11.6124 36.2041 11.3062 35.6939 11.1022C35.1837 10.8981 34.6735 10.694 34.6735 10.694C35.4898 10.4899 36.3061 10.4899 37.0204 10.796C37.8367 11.1022 38.7551 11.9185 38.6531 12.6328C38.2449 12.7348 37.6326 12.7348 37.0204 12.6328C36.4082 12.6328 35.7959 12.4287 35.3877 12.3266C34.6735 12.1226 34.2653 11.7144 34.0612 11.2042C34.0612 11.2042 34.6735 11.3062 35.2857 11.4083C36 11.5103 36.6122 11.6124 36.6122 11.6124Z" fill="#EEBF2F"/>
<path d="M34.8776 112.939C34.8776 112.939 36 112.531 37.0204 112.224C37.5306 112.02 38.0408 111.816 38.449 111.612C38.8572 111.408 39.0612 111.306 39.0612 111.306C38.6531 111.204 38.2449 111.102 37.8367 111C37.4286 110.898 37.0204 110.898 36.6123 110.796C36.2041 110.796 35.7959 110.796 35.3878 110.796C34.9796 110.796 34.5714 110.796 34.1633 110.898C33.6531 111 33.1429 111.102 32.6327 111.306C32.1225 111.51 31.6123 111.714 31.2041 111.918C30.2857 112.429 29.6735 112.939 29.5714 113.653C30.4898 114.265 32.0204 114.571 33.347 114.775C34.7755 114.878 36.1021 114.878 37.1225 114.673C38.6531 114.265 39.6735 113.449 39.8776 112.429C39.8776 112.429 38.6531 112.633 37.3265 112.735C36.2041 112.837 34.8776 112.939 34.8776 112.939Z" fill="#EEBF2F"/>
<path d="M22.4286 108.245C22.8367 108.653 23.449 108.857 23.9592 109.163C24.2653 109.265 24.5714 109.469 24.8775 109.571C25.1837 109.674 25.4898 109.776 25.8979 109.878C26.6122 110.082 27.2245 110.184 27.8367 110.286C28.449 110.388 29.0612 110.388 29.4694 110.388C30.2857 110.388 30.8979 110.184 31.4081 109.878C31.9184 109.571 32.3265 109.163 32.5306 108.755C32.5306 108.755 32.2245 108.755 31.7143 108.755C31.2041 108.755 30.5918 108.755 29.9796 108.653C28.653 108.653 27.4286 108.449 27.4286 108.449C27.4286 108.449 27.7347 108.449 28.1428 108.347C28.551 108.245 29.0612 108.143 29.6735 108.041C30.7959 107.837 31.8163 107.531 31.8163 107.531C31.102 107.122 30.2857 106.918 29.5714 106.714C28.7551 106.51 28.0408 106.408 27.2245 106.408C26.3061 106.408 25.1837 106.612 24.2653 106.918C23.3469 107.122 22.6326 107.633 22.4286 108.245Z" fill="#EEBF2F"/>
<path d="M16.2041 102.021C16.6122 102.429 17.0204 102.837 17.5306 103.143C18.0408 103.551 18.6531 103.857 19.2653 104.061C19.8775 104.367 20.4898 104.572 21.102 104.674C21.7143 104.878 22.2245 104.98 22.7347 104.98C24.2653 105.082 25.3877 104.572 25.8979 103.755C25.8979 103.755 25.5918 103.755 25.1837 103.653C24.7755 103.551 24.0612 103.449 23.551 103.347C22.9388 103.245 22.3265 103.041 21.9184 102.939C21.4082 102.837 21.2041 102.735 21.2041 102.735C21.2041 102.735 21.5102 102.735 21.9184 102.735C22.3265 102.735 22.8367 102.735 23.3469 102.633C23.8571 102.633 24.3673 102.531 24.7755 102.531C25.1837 102.531 25.3877 102.429 25.3877 102.429C24.7755 102.021 24.0612 101.612 23.3469 101.306C22.6326 101 21.9184 100.796 21.102 100.694C20.1837 100.592 19.1633 100.592 18.2449 100.796C17.3265 101.102 16.5102 101.408 16.2041 102.021Z" fill="#EEBF2F"/>
<path d="M11.2041 95.0817C11.8163 95.8981 12.8367 96.8164 13.8571 97.5307C14.9796 98.245 16.102 98.7552 17.0204 98.9593C17.7347 99.1634 18.3469 99.1634 18.9592 98.9593C19.4694 98.8573 19.9796 98.5511 20.2857 98.245C20.2857 98.245 19.9796 98.143 19.5714 98.0409C19.1633 97.9389 18.551 97.7348 18.0408 97.5307C17.4286 97.3266 16.9184 97.1226 16.5102 96.9185C16.102 96.7144 15.7959 96.6124 15.7959 96.6124C15.7959 96.6124 16.8163 96.7144 17.8367 96.8164C18.3469 96.9185 18.8571 96.9185 19.2653 96.9185C19.6735 96.9185 19.8775 96.9185 19.8775 96.9185C19.5714 96.6124 19.2653 96.4083 18.9592 96.2042C18.6531 96.0001 18.3469 95.796 18.0408 95.592C17.7347 95.3879 17.3265 95.1838 17.0204 95.0817C16.7143 94.8777 16.3061 94.7756 16 94.6736C14.3673 94.1634 11.9184 94.0613 11.2041 95.0817Z" fill="#EEBF2F"/>
<path d="M7.32654 87.8366C7.83674 88.755 8.65307 89.6734 9.57144 90.4897C10.4898 91.306 11.6123 91.9182 12.4286 92.2244C13.7551 92.7346 14.8776 92.5305 15.5918 92.0203C15.5918 92.0203 15.2857 91.9182 14.9796 91.7142C14.5714 91.5101 14.0612 91.306 13.551 90.9999C13.0408 90.6938 12.5306 90.4897 12.1225 90.1836C11.7143 89.9795 11.5102 89.7754 11.5102 89.7754C11.5102 89.7754 12.5306 90.0815 13.449 90.2856C14.4694 90.4897 15.3878 90.6938 15.3878 90.6938C14.8776 90.0815 14.3674 89.5713 13.7551 89.1631C13.1429 88.6529 12.5306 88.3468 11.9184 88.0407C10.4898 87.3264 8.04082 87.0203 7.32654 87.8366Z" fill="#EEBF2F"/>
<path d="M4.46939 80.4895C4.57143 80.6936 4.67347 80.9997 4.77551 81.2038C4.87755 81.4079 5.08164 81.714 5.18368 81.9181C5.4898 82.4283 5.89796 82.8364 6.30613 83.3466C7.12245 84.265 8.04082 84.9793 8.85715 85.3875C10.0816 85.9997 11.2041 85.9997 11.9184 85.5915C11.9184 85.5915 11 84.9793 10.0816 84.3671C9.67347 83.9589 9.16327 83.5507 8.85715 83.3466C8.55102 83.0405 8.2449 82.9385 8.2449 82.9385C8.2449 82.9385 9.16327 83.3466 10.0816 83.6528C10.4898 83.8568 11 83.9589 11.3061 84.0609C11.6122 84.163 11.9184 84.265 11.9184 84.265C11.7143 83.9589 11.5102 83.6528 11.3061 83.3466C11.102 83.0405 10.898 82.7344 10.5918 82.5303C10.0816 82.0201 9.57143 81.6119 8.95919 81.2038C8.2449 80.7956 7.32653 80.3875 6.51021 80.2854C5.69388 80.0813 4.87755 80.0813 4.46939 80.4895Z" fill="#EEBF2F"/>
<path d="M2.53061 73.1427C2.63265 73.5509 2.83673 74.0611 3.14285 74.5713C3.44898 75.0815 3.7551 75.5917 4.06122 75.9999C4.77551 76.9182 5.59183 77.7346 6.30612 78.2448C7.42857 79.0611 8.44898 79.1631 9.2653 78.755C9.2653 78.755 9.06122 78.5509 8.7551 78.3468C8.44898 78.0407 8.04081 77.7345 7.63265 77.3264C7.22449 76.9182 6.81632 76.6121 6.5102 76.306C6.20408 75.9999 6 75.7958 6 75.7958C6 75.7958 6.20408 75.8978 6.5102 76.1019C6.81632 76.306 7.22449 76.5101 7.63265 76.7141C8.04081 76.9182 8.44898 77.1223 8.7551 77.3264C9.16326 77.4284 9.36734 77.5305 9.36734 77.5305C8.7551 76.306 7.93877 75.0815 6.81632 74.2652C6.20408 73.755 5.28571 73.3468 4.57143 73.0407C3.7551 72.8366 2.93877 72.8366 2.53061 73.1427Z" fill="#EEBF2F"/>
<path d="M1.40814 65.8978C1.61222 67.6325 3.24488 70.1835 4.46937 71.2039C5.48977 72.0202 6.51018 72.3263 7.32651 72.0202C7.32651 72.0202 6.61222 71.3059 5.89794 70.4896C5.48977 70.0815 5.18365 69.6733 4.87753 69.3672C4.57141 69.061 4.46937 68.857 4.46937 68.857C4.46937 68.857 5.18365 69.3672 5.99998 69.8774C6.81631 70.3876 7.53059 70.7957 7.53059 70.7957C7.32651 70.1835 7.02039 69.5712 6.61222 68.959C6.3061 68.3468 5.89794 67.8366 5.38773 67.4284C4.26529 66.3059 2.32651 65.2855 1.40814 65.8978Z" fill="#EEBF2F"/>
<path d="M1 58.8571C1 59.2653 1.10204 59.7755 1.30612 60.2857C1.40816 60.7959 1.71429 61.3061 1.91837 61.8163C2.42857 62.8367 3.04082 63.6531 3.55102 64.2653C4.36735 65.1837 5.38775 65.4898 6.20408 65.2857C6.20408 65.2857 6 65.0816 5.79592 64.7755C5.59184 64.4694 5.28571 64.0612 4.97959 63.6531C4.57143 63.1429 4.26531 62.7347 4.06122 62.4286C3.85714 62.1225 3.65306 61.9184 3.65306 61.9184C3.65306 61.9184 4.36735 62.5306 5.08163 63.0408C5.79592 63.551 6.5102 64.0612 6.5102 64.0612C6.40816 63.449 6.10204 62.8367 5.79592 62.2245C5.4898 61.6122 5.18367 61.102 4.77551 60.5918C3.7551 59.4694 1.91837 58.3469 1 58.8571Z" fill="#EEBF2F"/>
<path d="M1.2041 51.8166C1.2041 52.2247 1.2041 52.7349 1.30614 53.2451C1.40818 53.7553 1.61226 54.2655 1.71431 54.7758C1.81635 55.0819 1.91839 55.286 2.02043 55.49C2.12247 55.6941 2.22451 55.8982 2.32655 56.2043C2.53063 56.6125 2.83675 57.0206 3.04084 57.3268C3.75512 58.2451 4.67349 58.6533 5.48982 58.5513C5.48982 58.5513 5.38777 58.3472 5.18369 58.0411C4.97961 57.7349 4.67349 57.3268 4.46941 56.9186C4.26533 56.5104 4.06124 56.0002 3.85716 55.6941C3.65308 55.388 3.55104 55.1839 3.55104 55.1839C3.55104 55.1839 3.75512 55.388 3.9592 55.5921C4.16329 55.7962 4.46941 56.1023 4.87757 56.4084C5.48982 57.0207 6.10206 57.5309 6.10206 57.5309C6.00002 56.9186 5.79594 56.3064 5.59186 55.6941C5.38778 55.0819 5.08165 54.5717 4.67349 54.0615C3.75512 52.837 2.22451 51.5104 1.2041 51.8166Z" fill="#EEBF2F"/>
<path d="M2.32653 45.1838C2.02041 46.8165 2.7347 49.4696 3.44898 50.694C4.06123 51.7144 4.87755 52.2247 5.69388 52.1226C5.69388 52.1226 5.59184 51.9185 5.38776 51.6124C5.18368 51.3063 4.97959 50.8981 4.77551 50.3879C4.57143 49.9798 4.36735 49.4696 4.26531 49.1634C4.16327 48.8573 4.06123 48.5512 4.06123 48.5512C4.06123 48.5512 4.57143 49.2655 5.08164 49.8777C5.59184 50.49 6.20408 51.1022 6.20408 51.1022C6.10204 49.8777 5.89796 48.6532 5.28572 47.6328C4.97959 47.0206 4.46939 46.3063 3.85715 45.7961C3.34694 45.3879 2.83674 45.0818 2.32653 45.1838Z" fill="#EEBF2F"/>
<path d="M4.16324 38.8574C3.85712 39.6737 3.85712 40.6942 3.95916 41.7146C4.0612 42.735 4.26528 43.6533 4.57141 44.2656C5.08161 45.286 5.7959 45.8982 6.51018 45.8982C6.51018 45.8982 6.20406 44.9799 5.89794 44.1635C5.59181 43.2452 5.38773 42.3268 5.38773 42.3268C5.38773 42.3268 5.7959 43.0411 6.20406 43.6533C6.40814 43.9595 6.61222 44.3676 6.8163 44.5717C7.02038 44.7758 7.12243 44.9799 7.12243 44.9799C7.12243 44.3676 7.12243 43.7554 7.12243 43.1431C7.12243 42.735 7.02038 42.1227 6.8163 41.6125C6.51018 41.0003 6.10202 40.286 5.69385 39.7758C5.18365 39.1635 4.57141 38.8574 4.16324 38.8574Z" fill="#EEBF2F"/>
<path d="M6.51021 33.1431C6.20409 33.8574 6.10205 34.7757 6.10205 35.7961C6.10205 36.8165 6.20409 37.7349 6.51021 38.3471C6.91838 39.3676 7.53062 39.9798 8.24491 40.1839C8.24491 40.1839 8.04083 39.3676 7.83674 38.4492C7.63266 37.4288 7.42858 36.6125 7.42858 36.6125C7.42858 36.6125 7.7347 37.3267 8.14287 38.041C8.44899 38.7553 8.85715 39.3676 8.85715 39.3676C8.95919 38.7553 9.06123 38.2451 9.06123 37.6329C9.06123 37.0206 8.95919 36.5104 8.85715 36.0002C8.65307 35.388 8.34695 34.6737 7.93879 34.0614C7.42858 33.5512 7.02042 33.1431 6.51021 33.1431Z" fill="#EEBF2F"/>
<path d="M9.36737 27.8364C9.06125 28.4487 8.75513 29.367 8.65309 30.2854C8.55104 31.2038 8.55104 32.1221 8.75513 32.7344C8.95921 33.7548 9.57145 34.367 10.1837 34.6732C10.1837 34.6732 10.0817 33.8568 9.97962 32.9385C9.87758 32.0201 9.87758 31.2038 9.87758 31.2038C9.87758 31.2038 10.1837 31.9181 10.3878 32.6323C10.4898 32.9385 10.6939 33.3466 10.7959 33.5507C10.898 33.8568 11 33.9589 11 33.9589C11.2041 33.4487 11.3061 32.8364 11.3061 32.3262C11.3061 31.816 11.3061 31.2038 11.2041 30.6936C11.1021 30.0813 10.7959 29.367 10.4898 28.7548C10.1837 28.3466 9.77553 27.8364 9.36737 27.8364Z" fill="#EEBF2F"/>
<path d="M12.5306 23.041C11.7143 24.1635 11.3061 26.5104 11.5102 27.7349C11.6122 28.7553 12.1224 29.3675 12.7347 29.6737C12.7347 29.6737 12.7347 28.8573 12.7347 28.041C12.7347 27.6329 12.7347 27.2247 12.7347 26.9186C12.7347 26.6124 12.7347 26.4084 12.7347 26.4084C12.7347 26.4084 12.9388 27.1226 13.0408 27.8369C13.2449 28.5512 13.449 29.2655 13.449 29.2655C13.551 29.0614 13.6531 28.7553 13.7551 28.5512C13.8571 28.2451 13.8571 28.041 13.9592 27.7349C14.0612 27.2247 14.0612 26.7145 14.0612 26.2043C13.9592 24.8777 13.3469 23.2451 12.5306 23.041Z" fill="#EEBF2F"/>
<path d="M16.102 18.7549C15.898 19.061 15.6939 19.3671 15.4898 19.6732C15.2857 20.0814 15.1837 20.4896 15.0816 20.8977C14.7755 21.7141 14.6735 22.5304 14.6735 23.1426C14.6735 24.163 15.0816 24.7753 15.6939 25.0814C15.6939 25.0814 15.6939 24.8773 15.6939 24.5712C15.6939 24.2651 15.7959 23.8569 15.7959 23.4488C15.898 22.6324 16 21.8161 16 21.8161C16 21.8161 16 22.0202 16.102 22.2243C16.102 22.5304 16.2041 22.8365 16.2041 23.1426C16.3061 23.8569 16.4082 24.4692 16.4082 24.4692C16.6122 24.061 16.8163 23.5508 17.0204 23.0406C17.1224 22.5304 17.2245 22.0202 17.2245 21.612C17.3265 20.5916 16.9184 19.061 16.102 18.7549Z" fill="#EEBF2F"/>
<path d="M19.9796 15.0815C19.4694 15.4897 19.0612 16.306 18.7551 17.0203C18.449 17.7346 18.2449 18.5509 18.1429 19.1632C18.0408 20.0815 18.347 20.7958 18.8572 21.102C18.8572 21.102 18.8572 20.8979 18.9592 20.5917C18.9592 20.2856 19.0612 19.9795 19.1633 19.5713C19.3674 18.8571 19.4694 18.0407 19.4694 18.0407C19.4694 18.0407 19.4694 18.755 19.5714 19.3673C19.5714 19.9795 19.6735 20.6938 19.6735 20.6938C20.2857 19.8775 20.5919 18.9591 20.7959 18.0407C20.898 17.4285 20.7959 16.8162 20.6939 16.204C20.5919 15.6938 20.2857 15.1836 19.9796 15.0815Z" fill="#EEBF2F"/>
<path d="M23.9592 11.918C22.9388 12.6323 22.0204 14.469 21.8163 15.5914C21.6123 16.5098 21.9184 17.1221 22.3265 17.5302C22.3265 17.5302 22.5306 16.8159 22.7347 16.1016C22.9388 15.3874 23.2449 14.6731 23.2449 14.6731C23.2449 14.6731 23.2449 15.2853 23.1429 15.8976C23.1429 16.2037 23.1429 16.5098 23.1429 16.8159C23.1429 17.02 23.1429 17.2241 23.1429 17.2241C23.449 16.8159 23.7551 16.5098 23.9592 16.1016C24.1633 15.6935 24.3674 15.2853 24.4694 14.7751C24.6735 13.7547 24.6735 12.2241 23.9592 11.918Z" fill="#EEBF2F"/>
<path d="M28.2449 9.26562C27.7347 9.57175 27.2245 10.184 26.7143 10.7962C26.3061 11.4085 25.898 12.1228 25.7959 12.633C25.4898 13.4493 25.6939 14.1636 26.102 14.5717C26.102 14.5717 26.2041 14.3677 26.3061 14.1636C26.4082 13.9595 26.5102 13.6534 26.7143 13.2452C26.8163 12.9391 27.0204 12.633 27.1225 12.3268C27.2245 12.1228 27.3265 11.9187 27.3265 11.9187C27.3265 11.9187 27.3265 12.0207 27.2245 12.3268C27.2245 12.5309 27.1225 12.8371 27.1225 13.1432C27.0204 13.7554 26.9184 14.3677 26.9184 14.3677C27.2245 14.0615 27.5306 13.7554 27.8367 13.3473C28.1429 12.9391 28.3469 12.633 28.449 12.2248C28.6531 11.2044 28.7551 9.77583 28.2449 9.26562Z" fill="#EEBF2F"/>
<path d="M32.5306 7.32617C31.5102 7.73434 30.1837 9.26495 29.7755 10.1833C29.4694 10.9996 29.4694 11.6119 29.7755 12.0201C29.7755 12.0201 30.0816 11.4078 30.4898 10.8976C30.7959 10.2854 31.2041 9.77515 31.2041 9.77515C31.2041 9.77515 31 10.2854 30.898 10.8976C30.7959 11.2037 30.6939 11.4078 30.6939 11.7139C30.5918 11.816 30.5918 11.918 30.5918 11.918C30.898 11.6119 31.3061 11.4078 31.5102 11.1017C31.8163 10.7956 32.0204 10.3874 32.2245 10.0813C32.7347 9.16291 33.0408 7.83638 32.5306 7.32617Z" fill="#EEBF2F"/>
<path d="M35.2857 8.04082C35.2857 8.04082 35.0816 8.55102 34.8775 9.06122C34.6734 9.57143 34.4694 10.0816 34.4694 10.0816C35.1837 9.67347 35.7959 9.16327 36.3061 8.55102C36.8163 7.73469 37.2245 6.5102 36.8163 6C36.3061 6.20408 35.6939 6.5102 35.1837 7.02041C34.6734 7.53061 34.1632 8.04082 33.9592 8.34694C33.551 9.06122 33.449 9.67347 33.7551 10.0816C33.7551 10.0816 34.1632 9.57143 34.5714 9.06122C34.8775 8.55102 35.2857 8.04082 35.2857 8.04082Z" fill="#EEBF2F"/>
<path d="M87.1224 112.837C87.1224 112.837 86 112.53 84.9796 112.122C84.4694 111.918 83.9592 111.714 83.551 111.612C83.1428 111.408 82.9388 111.306 82.9388 111.306C83.7551 111.102 84.5714 110.898 85.3877 110.796C86.2041 110.694 87.0204 110.694 87.8367 110.796C88.3469 110.898 88.8571 111 89.3673 111.204C89.8775 111.408 90.3877 111.51 90.7959 111.816C91.7143 112.224 92.3265 112.837 92.4285 113.551C91.9183 113.857 91.4081 114.061 90.6939 114.265C90.0816 114.469 89.3673 114.571 88.653 114.673C87.2245 114.877 85.8979 114.877 84.8775 114.571C83.2449 114.265 82.3265 113.449 82.0204 112.428C82.0204 112.428 83.2449 112.53 84.5714 112.735C85.7959 112.735 87.1224 112.837 87.1224 112.837Z" fill="#EEBF2F"/>
<path d="M99.4694 108.041C99.0612 108.449 98.551 108.755 97.9387 108.959C97.3265 109.265 96.7142 109.469 96 109.673C95.2857 109.878 94.6734 109.98 94.0612 110.082C93.4489 110.184 92.8367 110.184 92.4285 110.184C91.6122 110.184 91 109.98 90.4898 109.673C89.9796 109.367 89.5714 108.959 89.3673 108.551C89.3673 108.551 89.6734 108.551 90.1836 108.551C90.6938 108.551 91.3061 108.551 91.9183 108.449C92.5306 108.449 93.2449 108.347 93.653 108.347C94.1632 108.347 94.4694 108.245 94.4694 108.245C94.4694 108.245 94.1632 108.245 93.7551 108.143C93.3469 108.041 92.8367 107.939 92.2245 107.837C91.102 107.633 90.0816 107.327 90.0816 107.327C91.5102 106.612 93.1428 106.204 94.6734 106.204C95.5918 106.204 96.7142 106.408 97.6326 106.714C98.551 106.918 99.2653 107.327 99.4694 108.041Z" fill="#EEBF2F"/>
<path d="M105.592 101.714C105.184 102.122 104.775 102.53 104.265 102.836C103.755 103.244 103.143 103.551 102.531 103.755C101.918 104.061 101.306 104.265 100.694 104.367C100.082 104.571 99.5714 104.673 99.0612 104.673C97.5306 104.775 96.4082 104.265 95.8979 103.449C95.8979 103.449 96.2041 103.347 96.6122 103.347C97.0204 103.244 97.6326 103.142 98.2449 103.04C98.8571 102.938 99.4694 102.734 99.8775 102.632C100.082 102.53 100.286 102.53 100.388 102.53C100.49 102.53 100.592 102.428 100.592 102.428C100.592 102.428 100.286 102.428 99.8775 102.428C99.4694 102.428 98.9592 102.428 98.449 102.326C97.9388 102.326 97.4286 102.224 97.0204 102.224C96.6122 102.224 96.4082 102.122 96.4082 102.122C97.0204 101.714 97.7347 101.306 98.449 101C99.1633 100.693 99.8775 100.489 100.592 100.387C101.51 100.285 102.531 100.285 103.449 100.489C104.571 100.796 105.286 101.204 105.592 101.714Z" fill="#EEBF2F"/>
<path d="M110.592 94.9793C109.98 95.7957 108.959 96.714 107.939 97.4283C106.816 98.1426 105.694 98.6528 104.775 98.8569C103.347 99.163 102.224 98.8569 101.51 98.1426C101.51 98.1426 101.816 98.0406 102.224 97.9385C102.633 97.8365 103.245 97.6324 103.755 97.4283C104.367 97.2242 104.878 97.0202 105.286 96.8161C105.694 96.612 106 96.51 106 96.51C106 96.51 104.98 96.612 103.959 96.714C103.449 96.8161 102.939 96.8161 102.531 96.8161C102.122 96.8161 101.918 96.8161 101.918 96.8161C102.224 96.51 102.531 96.3059 102.837 96.1018C103.143 95.8977 103.449 95.6936 103.755 95.4895C104.061 95.2855 104.469 95.0814 104.775 94.9793C105.082 94.7753 105.49 94.6732 105.796 94.5712C107.429 93.9589 109.878 93.8569 110.592 94.9793Z" fill="#EEBF2F"/>
<path d="M114.571 87.7346C114.061 88.6529 113.245 89.5713 112.224 90.3876C111.306 91.204 110.184 91.8162 109.367 92.1223C108.041 92.6325 106.918 92.4284 106.204 91.8162C106.204 91.8162 106.51 91.7142 106.816 91.5101C107.224 91.306 107.735 91.1019 108.245 90.7958C108.755 90.4897 109.265 90.2856 109.673 90.0815C110.082 89.8774 110.286 89.6733 110.286 89.6733C110.286 89.6733 109.265 89.9795 108.347 90.1835C107.326 90.3876 106.408 90.5917 106.408 90.5917C106.918 89.9795 107.429 89.4693 108.041 89.0611C108.653 88.5509 109.265 88.2448 109.878 87.9387C111.408 87.2244 113.755 86.8162 114.571 87.7346Z" fill="#EEBF2F"/>
<path d="M117.429 80.3878C117.224 80.796 117.02 81.3062 116.714 81.8164C116.408 82.3266 116 82.7348 115.592 83.245C114.775 84.1633 113.857 84.8776 113.041 85.2858C111.816 85.898 110.694 85.898 109.98 85.3878C109.98 85.3878 110.898 84.7756 111.816 84.1633C112.326 83.8572 112.735 83.5511 113.041 83.245C113.347 82.9388 113.653 82.8368 113.653 82.8368C113.653 82.8368 112.735 83.245 111.816 83.5511C111.408 83.7552 110.898 83.8572 110.592 83.9593C110.286 84.0613 109.98 84.1633 109.98 84.1633C110.184 83.8572 110.388 83.5511 110.592 83.245C110.796 82.9388 111 82.7348 111.306 82.4286C111.51 82.1225 111.816 81.9184 112.122 81.7144C112.429 81.5103 112.633 81.3062 112.939 81.1021C114.367 80.2858 116.612 79.5715 117.429 80.3878Z" fill="#EEBF2F"/>
<path d="M119.367 73.0411C119.265 73.4493 119.061 73.9595 118.755 74.4697C118.449 74.9799 118.143 75.4901 117.837 75.8983C117.122 76.8166 116.306 77.633 115.592 78.1432C114.469 78.8574 113.347 78.9595 112.633 78.6534C112.633 78.6534 112.837 78.4493 113.143 78.2452C113.449 77.9391 113.857 77.633 114.265 77.2248C114.673 76.8166 115.082 76.5105 115.388 76.2044C115.694 75.8983 115.898 75.6942 115.898 75.6942C115.898 75.6942 115.694 75.7962 115.388 76.0003C115.082 76.2044 114.673 76.4085 114.265 76.6125C113.857 76.8166 113.449 77.0207 113.143 77.2248C112.837 77.3268 112.633 77.4289 112.633 77.4289C112.939 76.8166 113.347 76.2044 113.755 75.5921C114.163 75.0819 114.673 74.5717 115.184 74.1636C115.796 73.6534 116.714 73.2452 117.531 73.0411C118.245 72.735 118.959 72.735 119.367 73.0411Z" fill="#EEBF2F"/>
<path d="M120.592 65.796C120.388 67.5306 118.755 70.0817 117.531 71.1021C116.51 71.9184 115.49 72.1225 114.673 71.9184C114.673 71.9184 115.388 71.2041 116.102 70.3878C116.51 69.9796 116.816 69.5715 117.122 69.2653C117.429 68.9592 117.531 68.7551 117.531 68.7551C117.531 68.7551 116.816 69.2653 116 69.7755C115.184 70.2857 114.469 70.6939 114.469 70.6939C114.673 70.0817 114.98 69.4694 115.388 68.8572C115.694 68.2449 116.204 67.7347 116.612 67.3266C117.735 66.2041 119.673 65.2857 120.592 65.796Z" fill="#EEBF2F"/>
<path d="M121 58.7554C121 59.5717 120.592 60.6941 120.082 61.6125C119.571 62.6329 118.959 63.4492 118.449 64.0615C117.531 64.9799 116.612 65.286 115.796 65.0819C115.796 65.0819 116 64.8778 116.204 64.5717C116.408 64.2656 116.714 63.8574 117.02 63.4492C117.633 62.6329 118.245 61.8166 118.245 61.8166C118.245 61.8166 118.041 61.9186 117.837 62.1227C117.531 62.3268 117.224 62.6329 116.918 62.837C116.204 63.3472 115.49 63.8574 115.49 63.8574C115.592 63.2452 115.898 62.6329 116.204 62.0207C116.51 61.4084 116.816 60.8982 117.224 60.4901C118.245 59.4697 120.082 58.2452 121 58.7554Z" fill="#EEBF2F"/>
<path d="M120.796 51.8166C120.796 52.633 120.592 53.7554 120.286 54.7758C119.877 55.7962 119.367 56.7146 118.959 57.3268C118.245 58.2452 117.326 58.6534 116.51 58.5513C116.51 58.5513 116.612 58.3472 116.816 58.0411C117.02 57.735 117.326 57.3268 117.531 56.9187C117.837 56.5105 118.041 56.1023 118.245 55.7962C118.449 55.4901 118.551 55.286 118.551 55.286C118.551 55.286 117.939 55.8983 117.326 56.5105C116.714 57.1228 116.102 57.633 116.102 57.633C116.204 57.0207 116.408 56.4085 116.612 55.7962C116.816 55.184 117.122 54.6738 117.531 54.1636C118.143 52.735 119.775 51.4085 120.796 51.8166Z" fill="#EEBF2F"/>
<path d="M119.673 45.0815C119.775 45.4897 119.775 45.9999 119.775 46.4081C119.775 46.9183 119.673 47.4285 119.571 47.9387C119.469 48.4489 119.265 48.9591 119.163 49.3673C118.959 49.7754 118.755 50.1836 118.653 50.4897C118.041 51.5101 117.224 52.0203 116.408 51.9183C116.408 51.9183 116.51 51.7142 116.714 51.4081C116.918 51.1019 117.122 50.6938 117.326 50.1836C117.531 49.7754 117.735 49.2652 117.837 48.9591C117.939 48.653 118.041 48.3468 118.041 48.3468C118.041 48.3468 117.531 49.0611 117.02 49.6734C116.51 50.2856 115.898 50.8979 115.898 50.8979C115.898 50.2856 116 49.6734 116.102 49.0611C116.204 48.4489 116.51 47.9387 116.714 47.4285C117.02 46.8162 117.531 46.1019 118.143 45.5917C118.551 45.2856 119.163 44.9795 119.673 45.0815Z" fill="#EEBF2F"/>
<path d="M117.837 38.8572C118.041 39.5715 118.143 40.6939 118.041 41.6123C117.939 42.6327 117.735 43.551 117.429 44.1633C116.918 45.1837 116.204 45.7959 115.49 45.7959C115.49 45.7959 115.796 44.8776 116.102 44.0612C116.408 43.1429 116.612 42.2245 116.612 42.2245C116.612 42.2245 116.204 42.9388 115.796 43.551C115.592 43.8572 115.388 44.2653 115.184 44.4694C114.98 44.6735 114.878 44.8776 114.878 44.8776C114.878 44.2653 114.878 43.6531 114.878 43.0408C114.878 42.7347 114.98 42.4286 115.082 42.2245C115.184 41.9184 115.184 41.7143 115.286 41.4082C115.592 40.7959 116 40.0817 116.408 39.5715C116.816 39.1633 117.326 38.7551 117.837 38.8572Z" fill="#EEBF2F"/>
<path d="M115.49 33.041C115.796 33.7553 115.898 34.6737 115.898 35.6941C115.898 36.6124 115.796 37.6329 115.49 38.2451C115.082 39.2655 114.469 39.8778 113.755 40.0818C113.755 40.0818 113.959 39.2655 114.163 38.3471C114.367 37.4288 114.469 36.6124 114.469 36.6124C114.469 36.6124 114.163 37.3267 113.755 38.041C113.449 38.7553 113.041 39.3675 113.041 39.3675C112.939 38.7553 112.837 38.2451 112.837 37.6329C112.837 37.0206 112.939 36.5104 113.041 36.0002C113.245 35.388 113.551 34.6737 113.959 34.0614C114.571 33.4492 114.98 33.041 115.49 33.041Z" fill="#EEBF2F"/>
<path d="M112.633 27.8364C112.939 28.4487 113.245 29.367 113.347 30.2854C113.449 31.2038 113.449 32.1221 113.245 32.7344C113.041 33.7548 112.428 34.367 111.816 34.6732C111.816 34.6732 111.918 33.8568 112.02 32.9385C112.122 32.0201 112.122 31.2038 112.122 31.2038C112.122 31.2038 111.816 31.9181 111.612 32.6323C111.408 33.3466 111.102 34.0609 111.102 34.0609C110.898 33.5507 110.796 32.9385 110.796 32.4283C110.796 31.9181 110.796 31.3058 110.898 30.7956C111 30.1834 111.306 29.4691 111.612 28.8568C111.816 28.2446 112.224 27.8364 112.633 27.8364Z" fill="#EEBF2F"/>
<path d="M109.367 23.041C110.184 24.1635 110.592 26.5104 110.388 27.7349C110.286 28.7553 109.775 29.3675 109.163 29.6737C109.163 29.6737 109.163 28.8573 109.163 28.041C109.163 27.6329 109.163 27.2247 109.163 26.9186C109.163 26.6124 109.163 26.4084 109.163 26.4084C109.163 26.4084 108.959 27.1226 108.857 27.8369C108.653 28.5512 108.449 29.2655 108.449 29.2655C108.347 29.0614 108.245 28.7553 108.143 28.5512C108.041 28.3471 108.041 28.041 107.939 27.7349C107.837 27.2247 107.837 26.7145 107.837 26.2043C107.939 24.7757 108.551 23.1431 109.367 23.041Z" fill="#EEBF2F"/>
<path d="M105.796 18.7549C106 19.061 106.204 19.3671 106.408 19.6732C106.612 20.0814 106.714 20.4896 106.816 20.8977C107.122 21.7141 107.224 22.5304 107.224 23.1426C107.224 24.163 106.816 24.7753 106.204 25.0814C106.204 25.0814 106.204 24.8773 106.204 24.5712C106.204 24.2651 106.102 23.8569 106.102 23.4488C106 22.6324 105.898 21.8161 105.898 21.8161C105.898 21.8161 105.898 22.0202 105.796 22.2243C105.796 22.5304 105.694 22.8365 105.694 23.1426C105.592 23.8569 105.49 24.4692 105.49 24.4692C104.98 23.5508 104.673 22.5304 104.673 21.612C104.673 20.5916 105.082 18.959 105.796 18.7549Z" fill="#EEBF2F"/>
<path d="M102.02 15.0815C102.531 15.4897 102.939 16.306 103.245 17.0203C103.551 17.7346 103.755 18.5509 103.857 19.1632C103.959 20.0815 103.653 20.7958 103.143 21.102C103.143 21.102 103.041 20.3877 102.837 19.5713C102.633 18.8571 102.531 18.0407 102.531 18.0407C102.531 18.0407 102.531 18.755 102.429 19.3673C102.429 19.9795 102.326 20.6938 102.326 20.6938C101.714 19.8775 101.408 18.9591 101.204 18.0407C101.102 16.9183 101.306 15.3877 102.02 15.0815Z" fill="#EEBF2F"/>
<path d="M97.9387 11.918C98.9591 12.6323 99.8775 14.469 100.082 15.5914C100.286 16.5098 99.9795 17.1221 99.5714 17.5302C99.5714 17.5302 99.3673 16.8159 99.1632 16.1016C98.9591 15.3874 98.653 14.6731 98.653 14.6731C98.653 14.6731 98.653 15.2853 98.7551 15.8976C98.7551 16.2037 98.7551 16.5098 98.7551 16.8159C98.7551 17.02 98.7551 17.2241 98.7551 17.2241C98.4489 16.8159 98.1428 16.5098 97.9387 16.1016C97.7346 15.6935 97.5306 15.2853 97.4285 14.8772C97.3265 13.7547 97.3265 12.2241 97.9387 11.918Z" fill="#EEBF2F"/>
<path d="M93.755 9.26562C94.7754 9.87787 95.8979 11.5105 96.204 12.5309C96.5101 13.3473 96.306 14.0615 95.8979 14.4697C95.8979 14.4697 95.7958 14.2656 95.6938 14.0615C95.5918 13.8575 95.4897 13.5513 95.2856 13.1432C95.1836 12.8371 94.9795 12.5309 94.8775 12.2248C94.8775 12.1228 94.7754 11.9187 94.7754 11.9187C94.7754 11.9187 94.7754 12.0207 94.8775 12.3268C94.8775 12.5309 94.9795 12.8371 94.9795 13.1432C95.0816 13.7554 95.1836 14.3677 95.1836 14.3677C94.8775 14.0615 94.5714 13.7554 94.2652 13.3473C94.0612 12.9391 93.8571 12.5309 93.653 12.1228C93.3469 11.2044 93.2448 9.77583 93.755 9.26562Z" fill="#EEBF2F"/>
<path d="M89.4694 7.32617C90.4898 7.73434 91.8163 9.26495 92.1224 10.1833C92.4285 10.9996 92.4285 11.6119 92.1224 12.0201C92.1224 12.0201 91.8163 11.4078 91.5102 10.8976C91.102 10.2854 90.7959 9.67311 90.7959 9.67311C90.7959 9.67311 91 10.1833 91.102 10.7956C91.2041 11.1017 91.3061 11.3058 91.3061 11.6119C91.4081 11.816 91.4081 11.918 91.4081 11.918C91.102 11.6119 90.6938 11.4078 90.4898 11.1017C90.1836 10.7956 89.9796 10.3874 89.7755 10.0813C89.2653 9.16291 88.9591 7.83638 89.4694 7.32617Z" fill="#EEBF2F"/>
<path d="M86.7142 8.04082C86.7142 8.04082 86.9183 8.55102 87.1224 9.06122C87.3265 9.57143 87.5306 10.0816 87.5306 10.0816C86.8163 9.67347 86.204 9.16327 85.6938 8.55102C85.1836 7.73469 84.7755 6.5102 85.1836 6C85.6938 6.20408 86.3061 6.5102 86.8163 7.02041C87.3265 7.42857 87.8367 8.04082 88.0408 8.34694C88.4489 9.06122 88.551 9.67347 88.2449 10.0816C88.2449 10.0816 87.8367 9.57143 87.5306 9.06122C87.1224 8.55102 86.7142 8.04082 86.7142 8.04082Z" fill="#EEBF2F"/>
<path d="M83.8571 106.715C83.8571 106.715 83.6531 107.735 83.3469 108.858C83.2449 109.368 83.0408 109.878 82.9388 110.286C82.8367 110.694 82.7347 110.899 82.7347 110.899C83.449 110.49 84.0612 109.878 84.5714 109.266C85.0816 108.654 85.4898 107.939 85.7959 107.327C86 106.919 86.102 106.409 86.102 105.899C86.2041 105.388 86.2041 104.878 86.102 104.368C86 103.45 85.6939 102.633 85.2857 102.225C84.8776 102.429 84.5714 102.837 84.1633 103.246C83.7551 103.654 83.449 104.062 83.0408 104.572C82.3265 105.49 81.7143 106.613 81.3061 107.429C80.6939 108.756 80.6939 110.082 81.2041 111.001C81.2041 111.001 81.9184 109.98 82.5306 108.858C83.2449 107.735 83.8571 106.715 83.8571 106.715Z" fill="#EEBF2F"/>
<path d="M91.1021 98.1436C90.7959 98.4497 90.4898 98.7558 90.1837 99.266C89.8776 99.6742 89.5714 100.184 89.3674 100.695C89.0612 101.205 88.8572 101.715 88.6531 102.225C88.449 102.735 88.2449 103.246 88.1429 103.654C87.9388 104.368 87.9388 104.98 87.9388 105.593C88.0408 106.205 88.2449 106.715 88.551 107.021C88.551 107.021 88.6531 106.715 88.8572 106.307C89.0612 105.899 89.2653 105.286 89.5714 104.776C89.7755 104.266 90.0816 103.654 90.1837 103.246C90.3878 102.837 90.4898 102.531 90.4898 102.531C90.4898 102.531 90.4898 102.837 90.3878 103.144C90.3878 103.552 90.2857 104.062 90.2857 104.572C90.1837 105.593 89.9796 106.715 89.9796 106.715C91.2041 105.695 92.1225 104.266 92.4286 102.837C92.6327 101.919 92.6327 100.899 92.4286 99.9803C92.0204 99.266 91.6123 98.4497 91.1021 98.1436Z" fill="#EEBF2F"/>
<path d="M96.102 93.4497C95.7959 93.7558 95.5918 94.164 95.3877 94.6742C95.1837 95.1844 94.9796 95.6946 94.7755 96.2048C94.5714 96.715 94.4694 97.3273 94.2653 97.8375C94.1633 98.3477 94.0612 98.8579 93.9592 99.266C93.7551 100.695 94.0612 101.817 94.8775 102.429C94.8775 102.429 94.9796 102.123 95.0816 101.715C95.1837 101.307 95.3877 100.695 95.4898 100.184C95.5918 99.5722 95.7959 99.062 95.898 98.6538C95.898 98.4497 96 98.2456 96 98.1436C96 98.0416 96 97.9395 96 97.9395C96 97.9395 96 98.2456 96 98.5517C96 98.9599 96 99.4701 96.102 99.9803C96.102 100.491 96.102 101.001 96.102 101.409C96.102 101.817 96.102 102.021 96.102 102.021C96.6122 101.409 97.0204 100.797 97.3265 100.082C97.6326 99.3681 97.8367 98.6538 97.8367 97.9395C97.9388 97.1232 97.7347 96.0007 97.4286 95.1844C97.1224 94.3681 96.7143 93.6538 96.102 93.4497Z" fill="#EEBF2F"/>
<path d="M100.388 88.1431C99.9796 88.8574 99.5714 89.8778 99.3673 91.0002C99.1633 92.0206 99.0612 93.2451 99.0612 94.0614C99.0612 95.388 99.5714 96.5104 100.388 97.0206C100.388 97.0206 100.388 96.7145 100.49 96.3063C100.592 95.8982 100.592 95.2859 100.694 94.7757C100.796 94.2655 100.796 93.6533 100.796 93.2451C100.796 92.8369 100.898 92.5308 100.898 92.5308C100.898 92.5308 101.102 93.4492 101.306 94.4696C101.408 94.9798 101.51 95.49 101.51 95.7961C101.612 96.2043 101.612 96.4084 101.612 96.4084C101.816 96.1022 102.02 95.7961 102.122 95.388C102.224 95.0818 102.429 94.6737 102.531 94.3676C102.633 94.0614 102.735 93.6533 102.735 93.3471C102.735 92.939 102.735 92.6329 102.735 92.3267C102.531 90.49 101.51 88.4492 100.388 88.1431Z" fill="#EEBF2F"/>
<path d="M103.755 82.4292C103.347 83.1435 103.245 84.2659 103.143 85.2863C103.041 86.4088 103.041 87.4292 103.245 88.2455C103.449 89.5721 104.061 90.4904 104.878 90.8986C104.878 90.8986 104.878 90.5925 104.878 90.1843C104.878 89.7761 104.878 89.1639 104.878 88.6537C104.878 88.1435 104.878 87.5312 104.878 87.1231C104.878 86.7149 104.878 86.4088 104.878 86.4088C104.878 86.4088 105.184 87.3272 105.49 88.2455C105.796 89.1639 106 90.1843 106 90.1843C106.306 89.47 106.51 88.7557 106.612 88.0414C106.714 87.3272 106.714 86.6129 106.612 86.0006C106.204 84.47 104.98 82.6333 103.755 82.4292Z" fill="#EEBF2F"/>
<path d="M106.408 76.5107C106.306 76.9189 106.204 77.3271 106.204 77.8373C106.204 78.3475 106.204 78.8577 106.204 79.3679C106.204 80.3883 106.408 81.5107 106.612 82.225C106.918 83.4495 107.633 84.3679 108.551 84.674C108.551 84.674 108.449 83.5516 108.245 82.5312C108.143 82.0209 108.041 81.5107 108.041 81.1026C107.939 80.6944 107.939 80.4903 107.939 80.4903C107.939 80.4903 108.347 81.3067 108.755 82.225C108.959 82.6332 109.163 83.1434 109.265 83.4495C109.367 83.7556 109.469 83.9597 109.469 83.9597C109.571 83.6536 109.673 83.2454 109.776 82.9393C109.878 82.6332 109.878 82.225 109.878 81.9189C109.878 81.6128 109.878 81.2046 109.776 80.8985C109.776 80.5924 109.673 80.1842 109.571 79.8781C109.061 78.2454 107.531 76.5107 106.408 76.5107Z" fill="#EEBF2F"/>
<path d="M108.347 70.49C108.041 72.0207 108.551 74.5717 109.163 76.0002C109.673 77.1227 110.388 77.939 111.306 78.1431C111.306 78.1431 111.204 77.837 111.204 77.5309C111.102 77.1227 111 76.6125 110.898 76.1023C110.796 75.5921 110.592 75.0819 110.49 74.6737C110.388 74.2656 110.286 74.0615 110.286 74.0615C110.286 74.0615 110.388 74.2655 110.592 74.5717C110.796 74.8778 111 75.286 111.204 75.6941C111.408 76.1023 111.714 76.5104 111.816 76.8166C112.02 77.1227 112.122 77.3268 112.122 77.3268C112.224 76.6125 112.224 75.8982 112.224 75.286C112.122 74.5717 112.02 73.9594 111.714 73.3472C111.408 72.6329 110.796 71.9186 110.184 71.3064C109.571 70.6941 108.959 70.388 108.347 70.49Z" fill="#EEBF2F"/>
<path d="M109.673 64.3681C109.469 65.8987 110.286 68.3477 111 69.6742C111.612 70.7967 112.429 71.4089 113.245 71.511C113.245 71.511 112.939 70.4906 112.531 69.5722C112.327 69.062 112.122 68.6538 112.02 68.2457C111.918 67.9395 111.816 67.6334 111.816 67.6334C111.816 67.6334 112.429 68.3477 112.939 69.062C113.449 69.7763 113.959 70.4906 113.959 70.4906C113.959 69.7763 113.959 69.164 113.857 68.4498C113.755 67.8375 113.449 67.2253 113.143 66.613C112.327 65.3885 110.694 64.164 109.673 64.3681Z" fill="#EEBF2F"/>
<path d="M110.286 58.3477C110.286 59.062 110.49 60.0824 110.796 61.0008C111.102 61.9191 111.612 62.8375 112.02 63.4497C112.735 64.4701 113.551 64.9803 114.367 64.9803C114.367 64.9803 114.265 64.7763 114.061 64.3681C113.857 64.062 113.653 63.5518 113.449 63.1436C113.041 62.2252 112.531 61.4089 112.531 61.4089C112.531 61.4089 112.633 61.613 112.939 61.8171C113.143 62.0212 113.449 62.3273 113.755 62.7354C114.367 63.3477 114.878 64.062 114.878 64.062C114.878 63.4497 114.776 62.7354 114.571 62.1232C114.367 61.511 114.061 60.8987 113.755 60.4906C113.041 59.164 111.306 58.0416 110.286 58.3477Z" fill="#EEBF2F"/>
<path d="M110.388 52.5313C110.49 53.2456 110.796 54.062 111.204 54.8783C111.612 55.6946 112.122 56.5109 112.531 57.1232C113.245 58.0415 114.163 58.4497 114.98 58.4497C114.98 58.4497 114.878 58.2456 114.673 57.9395C114.469 57.6334 114.265 57.2252 113.959 56.8171C113.755 56.4089 113.449 56.0007 113.245 55.6946C113.041 55.3885 112.939 55.1844 112.939 55.1844C112.939 55.1844 113.551 55.6946 114.163 56.3068C114.776 56.9191 115.388 57.4293 115.388 57.4293C115.286 56.8171 115.184 56.2048 114.98 55.5926C114.776 54.9803 114.469 54.4701 114.061 54.0619C113.041 53.0415 111.306 52.1232 110.388 52.5313Z" fill="#EEBF2F"/>
<path d="M109.776 47.123C109.878 47.4291 109.98 47.8373 110.184 48.1434C110.388 48.5516 110.592 48.8577 110.898 49.2659C111.102 49.674 111.408 49.9802 111.714 50.2863C112.02 50.5924 112.224 50.8985 112.531 51.1026C113.347 51.8169 114.265 52.2251 114.98 52.021C114.98 52.021 114.878 51.8169 114.673 51.5108C114.469 51.2047 114.163 50.8985 113.857 50.4904C113.551 50.0822 113.245 49.7761 113.041 49.572C112.837 49.2659 112.633 49.1638 112.633 49.1638C112.633 49.1638 113.347 49.572 113.959 50.0822C114.571 50.5924 115.286 51.0006 115.286 51.0006C115.184 50.3883 114.98 49.7761 114.673 49.2659C114.367 48.7557 114.061 48.2455 113.551 47.9393C113.041 47.5312 112.327 47.123 111.612 46.9189C110.898 46.8169 110.184 46.8169 109.776 47.123Z" fill="#EEBF2F"/>
<path d="M108.551 41.817C108.755 42.4293 109.265 43.1436 109.776 43.8578C110.286 44.5721 111 45.1844 111.51 45.5925C112.327 46.2048 113.245 46.4089 113.959 46.2048C113.959 46.2048 113.347 45.5925 112.735 44.9803C112.122 44.368 111.408 43.7558 111.408 43.7558C111.408 43.7558 112.122 44.0619 112.837 44.4701C113.143 44.6742 113.551 44.8783 113.755 44.9803C114.061 45.0823 114.163 45.1844 114.163 45.1844C113.959 44.6742 113.653 44.0619 113.347 43.6538C113.143 43.4497 113.041 43.2456 112.837 43.0415C112.633 42.8374 112.429 42.6334 112.224 42.5313C111.714 42.1231 111 41.817 110.286 41.715C109.571 41.5109 108.959 41.5109 108.551 41.817Z" fill="#EEBF2F"/>
<path d="M106.816 36.9189C107.122 37.5311 107.633 38.1434 108.245 38.7556C108.857 39.3679 109.571 39.8781 110.082 40.1842C111 40.6944 111.816 40.7964 112.531 40.4903C112.531 40.4903 111.816 39.9801 111.204 39.3679C110.49 38.8577 109.878 38.3475 109.878 38.3475C109.878 38.3475 110.592 38.6536 111.306 38.8577C112.02 39.1638 112.735 39.4699 112.735 39.4699C112.531 38.9597 112.122 38.4495 111.816 38.0413C111.408 37.6332 111 37.3271 110.592 37.0209C109.98 36.7148 109.265 36.5107 108.653 36.4087C107.735 36.4087 107.122 36.6128 106.816 36.9189Z" fill="#EEBF2F"/>
<path d="M104.673 32.3271C104.98 32.8373 105.592 33.4496 106.204 33.9598C106.816 34.47 107.531 34.8781 108.143 35.1843C109.061 35.5924 109.878 35.5924 110.49 35.2863C110.49 35.2863 109.776 34.8781 109.061 34.3679C108.347 33.9598 107.633 33.5516 107.633 33.5516C107.633 33.5516 108.347 33.7557 109.061 33.9598C109.776 34.1638 110.49 34.3679 110.49 34.3679C110.184 33.8577 109.878 33.4496 109.469 33.1434C109.061 32.7353 108.653 32.5312 108.143 32.3271C107.531 32.123 106.816 31.9189 106.204 32.021C105.592 31.8169 104.98 31.9189 104.673 32.3271Z" fill="#EEBF2F"/>
<path d="M102.224 28.0413C102.939 28.9597 104.673 29.9801 105.796 30.3883C106.714 30.6944 107.531 30.5923 108.041 30.1842C108.041 30.1842 107.327 29.776 106.612 29.4699C106.306 29.2658 105.898 29.1638 105.592 28.9597C105.286 28.8576 105.184 28.7556 105.184 28.7556C105.184 28.7556 105.898 28.8576 106.612 28.9597C107.327 29.0617 108.041 29.2658 108.041 29.2658C107.837 29.0617 107.735 28.8576 107.531 28.6536C107.327 28.4495 107.122 28.3474 106.918 28.1434C106.51 27.8372 106.102 27.6332 105.592 27.4291C104.367 27.225 102.735 27.4291 102.224 28.0413Z" fill="#EEBF2F"/>
<path d="M99.4694 24.3682C99.6735 24.5722 99.8776 24.7763 100.184 24.9804C100.49 25.1845 100.796 25.3886 101.102 25.4906C101.816 25.7967 102.531 26.1029 103.041 26.2049C103.959 26.409 104.674 26.3069 105.184 25.7967C105.184 25.7967 104.98 25.6947 104.776 25.5927C104.469 25.4906 104.163 25.3886 103.755 25.1845C103.041 24.8784 102.327 24.6743 102.327 24.6743C102.327 24.6743 102.531 24.6743 102.735 24.6743C102.939 24.6743 103.347 24.6743 103.653 24.7763C104.367 24.8784 104.98 24.8784 104.98 24.8784C104.265 24.1641 103.347 23.6539 102.429 23.4498C101.408 23.3478 99.8776 23.6539 99.4694 24.3682Z" fill="#EEBF2F"/>
<path d="M96.5102 21.0002C96.9184 21.3063 97.5306 21.7145 98.2449 21.9186C98.9592 22.1226 99.6735 22.3267 100.184 22.4288C101.102 22.5308 101.816 22.3267 102.224 21.9186C102.224 21.9186 101.51 21.7145 100.796 21.5104C100.082 21.3063 99.3673 21.2043 99.3673 21.2043C99.3673 21.2043 99.9796 21.2043 100.694 21.2043C101.306 21.2043 102.02 21.2043 102.02 21.2043C101.306 20.592 100.388 20.1839 99.4694 20.0818C98.2449 19.8777 96.7143 20.2859 96.5102 21.0002Z" fill="#EEBF2F"/>
<path d="M93.3469 18.1434C94.1633 18.7557 95.8979 19.0618 96.9184 19.1638C97.7347 19.1638 98.449 18.8577 98.7551 18.4496C98.7551 18.4496 98.0408 18.3475 97.3265 18.2455C96.6122 18.1434 95.8979 18.0414 95.8979 18.0414C95.8979 18.0414 96.5102 17.9394 97.1224 17.8373C97.4286 17.8373 97.7347 17.7353 97.9388 17.7353C98.1428 17.7353 98.3469 17.7353 98.3469 17.7353C97.9388 17.4291 97.5306 17.2251 97.1224 17.123C96.7143 17.021 96.2041 16.9189 95.7959 16.9189C94.8775 16.9189 93.551 17.4291 93.3469 18.1434Z" fill="#EEBF2F"/>
<path d="M90.0816 15.7961C90.8979 16.2043 92.6326 16.4084 93.551 16.3063C94.3673 16.2043 94.9796 15.8982 95.2857 15.388C95.2857 15.388 95.0816 15.388 94.8775 15.388C94.6734 15.388 94.2653 15.388 93.9592 15.388C93.653 15.388 93.2449 15.388 93.0408 15.388C92.8367 15.388 92.6326 15.388 92.6326 15.388C92.6326 15.388 92.7347 15.388 92.9387 15.2859C93.1428 15.1839 93.4489 15.1839 93.7551 15.0818C94.2653 14.8778 94.8775 14.7757 94.8775 14.7757C94.4694 14.5716 94.0612 14.3675 93.653 14.3675C93.2449 14.2655 92.8367 14.2655 92.4285 14.3675C91.3061 14.3675 90.1836 15.0818 90.0816 15.7961Z" fill="#EEBF2F"/>
<path d="M86.7143 13.9598C87.5306 14.2659 89.1633 14.2659 90.0816 14.0618C90.7959 13.8577 91.4082 13.5516 91.6123 13.0414C91.6123 13.0414 91 13.0414 90.2857 13.1435C89.6735 13.2455 89.0612 13.2455 89.0612 13.2455C89.0612 13.2455 89.5714 13.0414 90.0816 12.8373C90.3878 12.7353 90.5918 12.6333 90.7959 12.5312C91 12.4292 91.1021 12.4292 91.1021 12.4292C90.6939 12.2251 90.2857 12.2251 89.8776 12.123C89.4694 12.123 89.0612 12.123 88.6531 12.2251C87.7347 12.5312 86.7143 13.3475 86.7143 13.9598Z" fill="#EEBF2F"/>
<path d="M85.3878 11.6128C85.3878 11.6128 85.7959 11.3067 86.3061 11.1026C86.8164 10.8986 87.2245 10.5924 87.2245 10.5924C86.4082 10.3883 85.5919 10.3883 84.8776 10.6945C84.0612 11.0006 83.1429 11.919 83.1429 12.5312C83.551 12.6332 84.1633 12.6332 84.7755 12.5312C85.3878 12.5312 86 12.3271 86.4082 12.2251C87.1225 12.021 87.5306 11.6128 87.7347 11.1026C87.7347 11.1026 87.1225 11.2047 86.5102 11.3067C86 11.5108 85.3878 11.6128 85.3878 11.6128Z" fill="#EEBF2F"/>
<path d="M55.0817 112.225V113.551H50.0817L52.6327 110.796C53.0408 110.388 53.347 109.878 53.347 109.265C53.347 108.857 53.0408 108.449 52.6327 108.449C52.2245 108.449 51.9184 108.755 51.9184 109.163C51.9184 109.265 51.9184 109.367 51.9184 109.47H50.1837C50.1837 108.041 51.1021 107.123 52.6327 107.123C53.9592 107.123 54.9796 107.939 54.9796 109.265C54.9796 110.184 54.5715 110.694 53.9592 111.204L53.0409 112.123H55.0817V112.225Z" fill="#002F79"/>
<path d="M60.796 110.49C60.796 112.123 59.9797 113.857 58.1429 113.857C56.3062 113.857 55.4899 112.123 55.4899 110.49C55.4899 108.857 56.3062 107.123 58.1429 107.123C60.0817 107.225 60.796 108.959 60.796 110.49ZM57.2246 110.49C57.2246 111.102 57.4286 112.429 58.245 112.429C59.0613 112.429 59.2654 111.102 59.2654 110.49C59.2654 109.878 59.0613 108.551 58.245 108.551C57.4286 108.653 57.2246 109.878 57.2246 110.49Z" fill="#002F79"/>
<path d="M62.3265 108.755V107.429H64.7755V113.551H63.2449V108.755H62.3265Z" fill="#002F79"/>
<path d="M67.9388 113.653L69.6735 111.612C69.3674 111.714 69.1633 111.816 68.8572 111.816C67.6327 111.816 66.9184 110.796 66.9184 109.674C66.9184 108.143 68.1429 107.327 69.5715 107.327C70.1837 107.327 70.898 107.429 71.3062 107.837C71.8164 108.245 72.1225 108.857 72.1225 109.572C72.1225 110.49 71.7143 111.306 71.1021 112.021L69.7755 113.755H67.9388V113.653ZM68.449 109.47C68.449 110.082 68.8572 110.49 69.4694 110.49C70.0817 110.49 70.4898 110.082 70.4898 109.47C70.4898 108.857 70.0817 108.449 69.4694 108.449C68.8572 108.449 68.449 108.959 68.449 109.47Z" fill="#002F79"/>
<path d="M27.1225 52.4287H28.7551L31.7143 56.2042V52.4287H33.347V58.5512H31.7143L28.7551 54.7756V58.5512H27.1225V52.4287Z" fill="#002F79"/>
<path d="M38.2449 54.7756V52.4287H39.8776V58.5512H38.2449V56.0001H35.898V58.5512H34.2653V52.4287H35.898V54.7756H38.2449Z" fill="#002F79"/>
<path d="M42.5306 57.5306L42.1225 58.551H40.3878L42.7347 52.4285H44.4694L46.8163 58.551H45.0816L44.6735 57.5306H42.5306ZM43.0408 50.4897L43.9592 51.6122L43.449 51.9183L42.3265 50.8979L43.0408 50.4897ZM43.6531 54.3673L42.9388 56.3061H44.2653L43.6531 54.3673Z" fill="#002F79"/>
<path d="M54.4694 54.469C54.1633 54.0609 53.6531 53.7547 53.0408 53.7547C52.0204 53.7547 51.4082 54.469 51.4082 55.4894C51.4082 56.5098 52.1224 57.1221 53.0408 57.1221C53.551 57.1221 54.0612 56.918 54.4694 56.5098V58.4486C53.9592 58.6527 53.551 58.7547 53.0408 58.7547C52.2245 58.7547 51.4082 58.4486 50.6939 57.8364C49.9796 57.2241 49.6735 56.4078 49.6735 55.4894C49.6735 54.6731 49.9796 53.8568 50.5918 53.2445C51.2041 52.6323 52.1224 52.2241 52.9388 52.2241C53.449 52.2241 53.9592 52.3262 54.3673 52.5302V54.469H54.4694Z" fill="#002F79"/>
<path d="M60.7959 52.4287V55.8981C60.7959 56.7144 60.7959 57.4287 60.1837 58.041C59.6735 58.5512 58.8572 58.7552 58.1429 58.7552C57.4286 58.7552 56.6123 58.5512 56.1021 58.041C55.4898 57.4287 55.4898 56.6124 55.4898 55.8981V52.4287H57.1225V55.694C57.1225 56.5103 57.2245 57.3267 58.2449 57.3267C59.2653 57.3267 59.3674 56.4083 59.3674 55.694V52.4287H60.7959Z" fill="#002F79"/>
<path d="M61.8163 52.4287H63.449L66.4082 56.2042V52.4287H68.0408V58.5512H66.4082L63.449 54.7756V58.5512H61.8163V52.4287Z" fill="#002F79"/>
<path d="M75.1837 55.1838C75.1837 56.1022 75.0817 56.8165 74.5715 57.6328C73.9592 58.4491 73.0408 58.8573 72.0204 58.8573C70.0817 58.8573 68.7551 57.5307 68.7551 55.592C68.7551 53.5511 70.0817 52.3267 72.1225 52.3267C73.347 52.3267 74.3674 52.9389 74.8776 54.0614L73.347 54.6736C73.1429 54.0614 72.6327 53.6532 72.0204 53.6532C71 53.6532 70.3878 54.6736 70.3878 55.592C70.3878 56.5103 71 57.5307 72.0204 57.5307C72.7347 57.5307 73.2449 57.1226 73.347 56.5103H72.0204V55.2858H75.1837V55.1838Z" fill="#002F79"/>
<path d="M83.1429 54.469C82.8368 54.0609 82.3266 53.7547 81.7143 53.7547C80.6939 53.7547 80.0817 54.469 80.0817 55.4894C80.0817 56.5098 80.796 57.1221 81.7143 57.1221C82.2245 57.1221 82.7347 56.918 83.1429 56.5098V58.4486C82.6327 58.6527 82.2245 58.7547 81.7143 58.7547C80.898 58.7547 80.0817 58.4486 79.3674 57.8364C78.6531 57.2241 78.347 56.4078 78.347 55.4894C78.347 54.6731 78.6531 53.8568 79.2653 53.2445C79.8776 52.6323 80.796 52.2241 81.6123 52.2241C82.1225 52.2241 82.6327 52.3262 83.0409 52.5302V54.469H83.1429Z" fill="#002F79"/>
<path d="M85.6939 57.5304L85.2857 58.5509H83.551L85.898 52.4284H87.6327L89.9796 58.5509H88.2449L87.8367 57.5304H85.6939ZM86.7143 50.3876L88.1429 51.408L87.7347 52.0202L86.7143 51.2039L85.7959 51.9182L85.2857 51.408L86.7143 50.3876ZM86.8163 54.3672L86.102 56.306H87.4286L86.8163 54.3672ZM88.1429 50.7957L87.6327 50.3876L88.551 49.2651L89.2653 49.7753L88.1429 50.7957Z" fill="#002F79"/>
<path d="M90.4898 52.4287H92.9388C94.2653 52.4287 95.1837 53.041 95.1837 54.4695C95.1837 55.8981 94.3674 56.5103 93.0408 56.5103H92.1225V58.5512H90.4898V52.4287ZM92.1225 55.2859H92.4286C93.0408 55.2859 93.551 55.2859 93.551 54.5716C93.551 53.7552 93.0408 53.7552 92.4286 53.7552H92.1225V55.2859Z" fill="#002F79"/>
<path d="M23.8572 68.2444H23.347V67.224H23.8572V65.4893H25.3878C26.8163 65.4893 27.8368 66.4076 27.8368 67.8362C27.8368 69.1627 26.7143 70.1831 25.3878 70.1831H23.8572V68.2444ZM25.0816 67.224H25.7959V68.2444H25.0816V69.1627H25.3878C26.1021 69.1627 26.7143 68.7546 26.7143 67.8362C26.7143 67.0199 26.2041 66.5097 25.3878 66.5097H25.0816V67.224Z" fill="#002F79"/>
<path d="M32.1225 65.4897L32.3265 64.8774H33.1429L32.4286 66.1019V68.1427C32.4286 68.755 32.4286 69.3672 31.9184 69.7754C31.5102 70.1836 30.898 70.2856 30.3878 70.2856C29.8776 70.2856 29.2653 70.1836 28.8572 69.7754C28.347 69.3672 28.347 68.755 28.347 68.1427V65.5917H29.5714V68.0407C29.5714 68.653 29.5714 69.2652 30.3878 69.2652C31.2041 69.2652 31.2041 68.653 31.2041 68.0407V65.5917H32.1225V65.4897Z" fill="#002F79"/>
<path d="M36.8163 65.6933L37.1225 64.979H37.9388L37.3265 65.9994C37.8367 66.4076 38.1429 67.0198 38.1429 67.7341C38.1429 69.2647 37.1225 70.2851 35.5919 70.2851C34.0612 70.2851 33.0408 69.2647 33.0408 67.7341C33.0408 66.3055 34.2653 65.3872 35.5919 65.3872C36 65.2851 36.5102 65.4892 36.8163 65.6933ZM34.2653 67.7341C34.2653 68.5504 34.8776 69.0606 35.5919 69.0606C36.3061 69.0606 36.9184 68.4484 36.9184 67.7341C36.9184 67.1219 36.3061 66.5096 35.5919 66.5096C34.8776 66.5096 34.2653 67.1219 34.2653 67.7341ZM36.1021 70.9994C36.1021 71.3055 35.898 71.5096 35.5919 71.5096C35.2857 71.5096 35.0817 71.3055 35.0817 70.9994C35.0817 70.6933 35.2857 70.4892 35.5919 70.4892C35.898 70.4892 36.1021 70.6933 36.1021 70.9994Z" fill="#002F79"/>
<path d="M42.0204 67.0203C41.8163 66.7142 41.4082 66.5101 41 66.5101C40.2857 66.5101 39.7755 67.1224 39.7755 67.8367C39.7755 68.551 40.2857 69.0612 41 69.0612C41.4082 69.0612 41.8163 68.8571 42.0204 68.551V69.9795C41.6123 70.0816 41.3061 70.1836 41 70.1836C40.3878 70.1836 39.7755 69.9795 39.2653 69.4693C38.7551 69.0612 38.551 68.4489 38.551 67.7346C38.551 67.1224 38.7551 66.5101 39.2653 65.9999C39.6735 65.4897 40.3878 65.2856 41 65.2856C41.4082 65.2856 41.7143 65.3877 42.1225 65.4897V67.0203H42.0204Z" fill="#002F79"/>
<path d="M44.2653 65.4893H45.6939L46.5102 66.7137L47.3265 65.4893H48.9592L47.2245 67.9382V70.1831H46V67.9382L44.2653 65.4893Z" fill="#002F79"/>
<path d="M50.3878 66.5095V67.2238H51.7143V68.2442H50.3878V69.0605H51.8163V70.0809H49.1633V65.4891H51.8163V66.5095H50.3878ZM50.4898 63.9585L51.6122 64.7748L51.2041 65.183L50.4898 64.6728L49.7755 65.183L49.3674 64.7748L50.4898 63.9585Z" fill="#002F79"/>
<path d="M56.6123 65.4893V68.0403C56.6123 68.6525 56.6123 69.2648 56.1021 69.6729C55.6939 70.0811 55.0817 70.1831 54.5715 70.1831C54.0613 70.1831 53.449 70.0811 53.0408 69.6729C52.5306 69.2648 52.5306 68.6525 52.5306 68.0403V65.4893H53.7551V67.9382C53.7551 68.5505 53.7551 69.1627 54.5715 69.1627C55.3878 69.1627 55.3878 68.5505 55.3878 67.9382V65.4893H56.6123Z" fill="#002F79"/>
<path d="M61.3061 70.0811H60.0816V66.5097H59.0612V65.4893H62.2245V66.5097H61.2041V70.0811H61.3061Z" fill="#002F79"/>
<path d="M65.5919 67.224V65.4893H66.8164V70.0811H65.5919V68.2444H63.8572V70.1831H62.6327V65.5913H63.8572V67.224H65.5919Z" fill="#002F79"/>
<path d="M68.8572 70.0814H67.6327V65.4896H68.8572V70.0814ZM68.449 65.1835L68.0408 64.8774L68.7551 64.061L69.2653 64.4692L68.449 65.1835Z" fill="#002F79"/>
<path d="M72.9387 67.0203C72.7347 66.7142 72.3265 66.5101 71.9183 66.5101C71.2041 66.5101 70.6939 67.1224 70.6939 67.8367C70.6939 68.551 71.2041 69.0612 71.9183 69.0612C72.3265 69.0612 72.7347 68.8571 72.9387 68.551V69.9795C72.5306 70.0816 72.2245 70.1836 71.9183 70.1836C71.3061 70.1836 70.6939 69.9795 70.1837 69.4693C69.6734 69.0612 69.4694 68.4489 69.4694 67.7346C69.4694 67.1224 69.6734 66.5101 70.1837 65.9999C70.5918 65.4897 71.3061 65.2856 71.9183 65.2856C72.3265 65.2856 72.6326 65.3877 73.0408 65.4897V67.0203H72.9387Z" fill="#002F79"/>
<path d="M76.6123 67.224V65.4893H77.8368V70.0811H76.6123V68.2444H74.8776V70.1831H73.6531V65.5913H74.8776V67.224H76.6123Z" fill="#002F79"/>
<path d="M80.6938 65.4893H81.9183L84.1632 68.3464V65.4893H85.3877V70.0811H84.1632L81.9183 67.224V70.0811H80.6938V65.4893Z" fill="#002F79"/>
<path d="M88.9592 67.224V65.4893H90.1837V70.0811H88.9592V68.2444H87.2245V70.1831H86V65.5913H87.2245V67.224H88.9592Z" fill="#002F79"/>
<path d="M92.1225 69.265L91.8163 70.0814H90.5919L92.3265 65.4895H93.6531L95.3878 70.0814H94.0612L93.7551 69.265H92.1225ZM92.9388 63.9589L94.0612 64.7752L93.6531 65.1834L92.9388 64.6732L92.2245 65.1834L91.8163 64.7752L92.9388 63.9589ZM93.0408 66.9181L92.5306 68.3467H93.551L93.0408 66.9181ZM93.9592 64.265L93.551 63.9589L94.2653 63.1426L94.7755 63.5507L93.9592 64.265Z" fill="#002F79"/>
<path d="M97.6327 70.0811H96.4082V66.5097H95.3878V65.4893H98.551V66.5097H97.5306V70.0811H97.6327Z" fill="#002F79"/>
<path d="M59.2653 29.3676C59.2653 28.9594 59.6734 28.6533 60.0816 28.6533H62.3265C63.653 28.6533 64.6734 29.0615 65.5918 29.8778C66.5102 30.6941 66.9183 31.8166 66.9183 33.0411C66.9183 34.3676 66.5102 35.388 65.5918 36.2043C64.7755 37.0207 63.653 37.4288 62.3265 37.4288H60.0816C59.5714 37.4288 59.2653 37.1227 59.2653 36.7145V29.3676ZM64.3673 31.1023C63.8571 30.5921 63.1428 30.286 62.4285 30.286H61V36.0002H62.4285C63.2449 36.0002 63.8571 35.6941 64.3673 35.1839C64.8775 34.6737 65.1836 33.9594 65.1836 33.1431C65.1836 32.3268 64.8775 31.7145 64.3673 31.1023ZM68.0408 36.9186C68.0408 37.3268 68.4489 37.6329 68.8571 37.6329H73.9591C74.3673 37.6329 74.6734 37.2247 74.6734 36.8166C74.6734 36.4084 74.3673 36.0002 73.9591 36.0002H69.6734V33.9594H73.1428C73.551 33.9594 73.8571 33.5513 73.8571 33.1431C73.8571 32.7349 73.551 32.3268 73.1428 32.3268H69.6734V30.286H73.9591C74.3673 30.286 74.6734 29.8778 74.6734 29.4696C74.6734 29.0615 74.3673 28.6533 73.9591 28.6533H68.8571C68.3469 28.6533 68.0408 28.9594 68.0408 29.3676V36.9186ZM78.8571 36.2043C78.0408 36.2043 77.3265 36.0002 76.8163 35.49C76.5102 35.286 76.102 35.388 75.7959 35.6941C75.4898 36.1023 75.4898 36.6125 75.8979 36.8166C76.7143 37.4288 77.7347 37.7349 78.8571 37.7349C79.7755 37.7349 80.5918 37.5309 81.204 37.0207C81.8163 36.5105 82.2245 35.7962 82.2245 34.9798C82.2245 33.4492 81.102 32.4288 79.3673 32.2247C78.551 32.1227 78.0408 32.0207 77.8367 31.8166C77.6326 31.6125 77.5306 31.4084 77.5306 31.1023C77.5306 30.49 78.0408 30.1839 78.8571 30.1839C79.5714 30.1839 80.1836 30.388 80.7959 30.7962C81.102 31.0002 81.5102 30.7962 81.8163 30.388C82.0204 29.9798 81.9183 29.5717 81.6122 29.3676C80.7959 28.8574 79.8775 28.5513 78.8571 28.5513C77.9387 28.5513 77.2245 28.7553 76.6122 29.2656C76 29.7758 75.6938 30.388 75.6938 31.1023C75.6938 32.6329 76.6122 33.5513 78.551 33.7554C79.3673 33.8574 79.8775 34.0615 80.0816 34.2656C80.2857 34.4696 80.3877 34.6737 80.3877 34.9798C80.4898 35.6941 79.8775 36.2043 78.8571 36.2043ZM53.1428 35.0819C53.4489 34.7758 53.7551 34.5717 54.1632 34.5717L52.1224 28.9594C51.9183 28.6533 51.5102 28.4492 51.102 28.6533C50.6938 28.8574 50.4898 29.2656 50.5918 29.6737L52.9387 35.5921C52.9387 35.388 53.0408 35.286 53.1428 35.0819ZM57.9387 28.6533C57.5306 28.5513 57.0204 28.6533 56.9183 28.9594L54.8775 34.5717C55.2857 34.6737 55.5918 34.7758 55.8979 35.0819C56 35.1839 56.102 35.388 56.204 35.49L58.551 29.5717C58.551 29.2656 58.3469 28.8574 57.9387 28.6533ZM53.653 35.49C53.1428 36.0002 53.1428 36.7145 53.653 37.2247C54.1632 37.7349 54.8775 37.7349 55.3877 37.2247C55.8979 36.7145 55.8979 36.0002 55.3877 35.49C54.8775 35.0819 54.0612 35.0819 53.653 35.49Z" fill="url(#paint0_linear)"/>
<path d="M47.8367 36.4079C46.8163 37.4283 45.2857 37.9385 43.9592 37.7344C44.4694 37.2242 44.6734 36.5099 44.6734 35.8977C45.3877 35.8977 46 35.5916 46.5102 35.0814C47.6326 33.9589 47.6326 32.2242 46.5102 31.1018C45.3877 29.9793 43.653 29.9793 42.5306 31.1018C42.0204 31.612 41.7143 32.3263 41.7143 33.0406C41.102 33.0406 40.3877 33.3467 39.8775 33.8569C39.6734 32.4283 40.0816 30.8977 41.2041 29.7753C42.1224 28.8569 43.3469 28.3467 44.5714 28.3467C45.7959 28.3467 47.0204 28.8569 47.9387 29.7753C49.6734 31.612 49.6734 34.5712 47.8367 36.4079Z" fill="url(#paint1_linear)"/>
<path d="M40.4898 34.5714C39.7755 35.2856 39.7755 36.5101 40.4898 37.2244C41.204 37.9387 42.4285 37.9387 43.1428 37.2244C43.8571 36.5101 43.8571 35.2856 43.1428 34.5714C42.7347 34.1632 42.3265 34.0612 41.8163 34.0612C41.3061 33.9591 40.7959 34.1632 40.4898 34.5714Z" fill="url(#paint2_linear)"/>
<path opacity="0.1" d="M41.8163 33.959C41.3061 33.959 40.8979 34.1631 40.4898 34.4692C40.3877 34.5712 40.2857 34.7753 40.1837 34.8774C40.6939 35.9998 41.6122 36.9182 42.8367 37.4284C42.9388 37.3263 43.1428 37.2243 43.2449 37.1223C43.9592 36.408 43.9592 35.1835 43.2449 34.4692C42.7347 34.1631 42.3265 33.959 41.8163 33.959Z" fill="white"/>
<path opacity="0.1" d="M43.653 35.7957C43.653 35.3876 43.4489 34.8774 43.1428 34.5712C42.7347 34.1631 42.3265 34.061 41.8163 34.061C42.1224 34.8774 42.8367 35.5916 43.653 35.7957Z" fill="white"/>
<path d="M81.2041 83.4487L82.1224 86.4079H85.1837L82.7347 88.2446L83.6531 91.2038L81.2041 89.3671L78.653 91.2038L79.5714 88.2446L77.1224 86.4079H80.1837L81.2041 83.4487Z" fill="#EEBF2F"/>
<path d="M71.1021 83.4487L72.0204 86.4079H75.1837L72.6327 88.2446L73.5511 91.2038L71.1021 89.3671L68.5511 91.2038L69.5715 88.2446L67.0204 86.4079H70.0817L71.1021 83.4487Z" fill="#EEBF2F"/>
<path d="M61 83.4487L61.9184 86.4079H65.0817L62.5306 88.2446L63.551 91.2038L61 89.3671L58.449 91.2038L59.4694 88.2446L56.9184 86.4079H60.0817L61 83.4487Z" fill="#EEBF2F"/>
<path d="M50.898 83.4487L51.9184 86.4079H54.9796L52.4286 88.2446L53.449 91.2038L50.898 89.3671L48.449 91.2038L49.3674 88.2446L46.8163 86.4079H49.9796L50.898 83.4487Z" fill="#EEBF2F"/>
<path d="M40.7959 83.4487L41.8163 86.4079H44.8776L42.4286 88.2446L43.347 91.2038L40.7959 89.3671L38.347 91.2038L39.2653 88.2446L36.8163 86.4079H39.8776L40.7959 83.4487Z" fill="#EEBF2F"/>
<defs>
<linearGradient id="paint0_linear" x1="50.51" y1="33.1365" x2="82.2402" y2="33.1365" gradientUnits="userSpaceOnUse">
<stop stop-color="#0000D4"/>
<stop offset="1" stop-color="#7CC0DB"/>
</linearGradient>
<linearGradient id="paint1_linear" x1="41.7623" y1="35.8172" x2="47.7907" y2="29.7888" gradientUnits="userSpaceOnUse">
<stop stop-color="#0000D4"/>
<stop offset="1" stop-color="#7CC0DB"/>
</linearGradient>
<linearGradient id="paint2_linear" x1="40.4673" y1="37.2106" x2="43.1301" y2="34.5479" gradientUnits="userSpaceOnUse">
<stop stop-color="#433AF7"/>
<stop offset="1" stop-color="#AF45F8"/>
</linearGradient>
</defs>
</svg>
