<svg width="120" height="120" viewBox="0 0 120 120" fill="none" xmlns="http://www.w3.org/2000/svg">
<path d="M112.893 102.279C79.0043 88.2704 40.8927 88.2704 7.1073 102.279C7.82833 98.6738 8.65236 94.9657 9.5794 91.3605C6.48927 89.1975 3.29614 87.1374 0 85.0773C38.4206 69.1116 81.5794 69.1116 120 85.0773C116.704 87.0344 113.511 89.0945 110.421 91.3605C111.451 95.0687 112.275 98.6738 112.893 102.279Z" fill="#E8A126"/>
<path d="M107.742 91.2575L98.1631 78.897L100.635 108.459L107.742 91.2575Z" fill="#E27E1E"/>
<path d="M12.2575 91.2575L21.8369 78.897L19.3648 108.459L12.2575 91.2575Z" fill="#E27E1E"/>
<path d="M56.4464 113.403C53.5622 113.403 50.7811 112.167 48.721 110.107C47.794 109.18 46.5579 108.665 45.2189 108.665C44.8069 108.665 44.3948 108.665 43.9828 108.768C43.1588 108.974 42.2318 109.077 41.3047 109.077C36.9785 109.077 33.0644 106.502 31.4163 102.485C30.6953 100.837 29.2532 99.7039 27.5021 99.4978C22.2489 98.8798 18.2318 94.4506 18.0258 89.1974C18.0258 87.4463 16.9957 85.9013 15.4506 85.0772C10.8155 82.6051 8.65236 76.9399 10.4034 71.9957C11.0215 70.3476 10.6094 68.4936 9.47639 67.1545C6.18026 63.2403 6.18026 57.2661 9.6824 53.2489C10.8154 51.9099 11.1245 50.0558 10.6094 48.4077C8.85837 43.4635 11.0215 37.7983 15.6567 35.3262C17.2017 34.5021 18.2318 32.9571 18.2318 31.206C18.3348 25.9528 22.4549 21.5236 27.7082 20.9056C29.4592 20.6996 30.9013 19.5665 31.6223 17.9185C33.2704 13.9013 37.1845 11.3262 41.5107 11.3262C42.4378 11.3262 43.2618 11.4292 44.1888 11.6352C44.6009 11.7382 45.0129 11.7382 45.4249 11.7382C46.7639 11.7382 48 11.2232 48.927 10.2961C50.9871 8.23605 53.7682 7 56.6524 7C58.9185 7 61.0815 7.72103 62.8326 8.95708C63.6567 9.57511 64.6867 9.88412 65.6137 9.88412C66.3348 9.88412 67.0558 9.78112 67.6738 9.4721C69.1159 8.85408 70.6609 8.44206 72.206 8.44206C75.8112 8.44206 79.2103 10.2961 81.1674 13.2833C82.0944 14.6223 83.5365 15.4464 85.1845 15.4464C85.2875 15.4464 85.3906 15.4464 85.4936 15.4464C85.6996 15.4464 86.0086 15.4464 86.2146 15.4464C91.2618 15.4464 95.588 19.0515 96.721 23.8927C97.133 25.6438 98.3691 26.9828 100.017 27.4979C105.064 29.0429 108.258 34.1931 107.433 39.4464C107.124 41.1974 107.845 42.9485 109.185 43.9785C113.305 47.2747 114.438 53.1459 111.76 57.7811C110.833 59.3262 110.833 61.1803 111.76 62.6223C114.438 67.1545 113.305 73.1288 109.185 76.4249C107.845 77.5579 107.124 79.309 107.433 80.9571C108.258 86.2103 105.064 91.2575 100.017 92.9056C98.3691 93.4206 97.133 94.8627 96.721 96.5107C95.691 101.455 91.2618 104.957 86.2146 104.957C86.0086 104.957 85.6996 104.957 85.4936 104.957C85.3906 104.957 85.2875 104.957 85.1845 104.957C83.5365 104.957 81.9914 105.781 81.1674 107.12C79.2103 110.107 75.8112 111.961 72.206 111.961C70.6609 111.961 69.1159 111.652 67.6738 110.931C67.0558 110.622 66.3348 110.519 65.6137 110.519C64.5837 110.519 63.6567 110.828 62.8326 111.446C60.8755 112.785 58.7124 113.403 56.4464 113.403Z" fill="#EEBF2D"/>
<path d="M108.979 56.339C107.536 58.8111 107.536 61.7983 108.979 64.1674C110.936 67.4635 110.112 71.7897 107.124 74.1588C104.961 75.9099 103.828 78.691 104.343 81.4721C104.961 85.2832 102.695 88.9914 98.9871 90.1245C96.309 90.9485 94.2489 93.2146 93.7339 95.8927C92.9099 99.7038 89.5107 102.279 85.5966 102.073C82.8155 101.867 80.1373 103.206 78.5923 105.575C76.4292 108.768 72.309 110.004 68.8069 108.356C66.2318 107.223 63.2446 107.429 60.9785 109.077C57.7854 111.343 53.5622 110.931 50.8841 108.15C48.927 106.09 46.0429 105.266 43.3648 105.987C39.6566 106.914 35.7425 105.06 34.3004 101.455C33.1674 98.8798 30.7983 97.0257 28.0172 96.7167C24.206 96.3047 21.2189 93.0086 21.1159 89.1974C21.0129 86.4163 19.4678 83.8412 16.9957 82.5021C13.5966 80.6481 12.0515 76.6309 13.2876 73.0257C14.2146 70.3476 13.6996 67.4635 11.8455 65.3004C9.37339 62.4163 9.37339 58.0901 11.8455 55.103C13.6996 52.9399 14.2146 50.0558 13.2876 47.3777C11.9485 43.7725 13.5966 39.7554 16.9957 37.9013C19.4678 36.5622 21.0129 34.0901 21.1159 31.206C21.2189 27.3948 24.103 24.0987 28.0172 23.6867C30.7983 23.3777 33.1674 21.5236 34.3004 18.9485C35.7425 15.3433 39.6566 13.4893 43.3648 14.4163C46.0429 15.1373 48.927 14.3133 50.8841 12.2532C53.5622 9.47209 57.8884 9.06008 60.9785 11.3262C63.2446 12.9742 66.2318 13.1802 68.8069 12.0472C72.309 10.3991 76.4292 11.6352 78.5923 14.8283C80.1373 17.1974 82.8155 18.5365 85.5966 18.3305C89.4077 18.1245 92.9099 20.6996 93.7339 24.5107C94.3519 27.2918 96.309 29.4549 98.9871 30.279C102.695 31.412 104.961 35.1202 104.343 38.9313C103.931 41.7124 104.961 44.4936 107.124 46.2446C110.215 48.7167 110.936 53.0429 108.979 56.339Z" fill="#002F79"/>
<path d="M100.635 108.459C74.5751 97.6438 45.4249 97.6438 19.3648 108.459C16.9957 102.794 14.6266 97.0258 12.2575 91.3605C42.8498 78.691 77.1502 78.691 107.742 91.3605C105.373 97.0258 103.004 102.691 100.635 108.459Z" fill="#EEBF2F"/>
<path d="M22.5579 60.459L22.6609 58.399C22.7639 56.8539 24 55.6178 25.6481 55.7208C27.1931 55.8239 28.4292 57.1629 28.3262 58.708L28.2232 60.7681L22.5579 60.459ZM26.9871 59.223V58.914C26.9871 58.0899 26.5751 57.2659 25.5451 57.2659C24.515 57.1629 23.897 57.8839 23.897 58.811V59.12L26.9871 59.223Z" fill="white"/>
<path d="M28.9442 53.5579L28.6352 54.9999L23.073 53.9699L23.382 52.5278L28.9442 53.5579ZM29.9742 53.8669C30.2833 53.9699 30.4893 54.2789 30.4893 54.5879C30.3863 54.8969 30.0773 55.1029 29.7682 55.1029C29.4592 54.9999 29.2532 54.6909 29.2532 54.3819C29.3562 54.0729 29.6652 53.8669 29.9742 53.8669Z" fill="white"/>
<path d="M26.7811 47.4804C26.2661 47.6864 25.9571 47.9954 25.8541 48.5104C25.5451 49.3345 26.0601 50.1585 26.8841 50.3645C27.7082 50.6735 28.5322 50.2615 28.8412 49.4375C28.9442 49.0254 28.9442 48.5104 28.6352 48.0984L30.2833 48.6134C30.2833 49.1284 30.2833 49.4375 30.1803 49.9525C29.9742 50.6735 29.4592 51.2915 28.7382 51.7036C28.0172 52.1156 27.1931 52.1156 26.4721 51.9096C25.7511 51.7036 25.133 51.1885 24.721 50.4675C24.309 49.7465 24.206 48.9224 24.515 48.2014C24.618 47.7894 24.927 47.3774 25.2361 47.0684L26.7811 47.4804Z" fill="white"/>
<path d="M29.2532 42.9482L27.2961 41.9182L27.9142 40.6821L32.9614 43.2572L32.3433 44.4933L30.2833 43.4632L29.3562 45.3173L31.4163 46.3474L30.7983 47.5834L25.7511 45.0083L26.3691 43.7723L28.3262 44.8023L29.2532 42.9482Z" fill="white"/>
<path d="M35.2275 36.8711L33.6824 33.5749L34.7124 32.4419L37.1845 38.0041L36.4635 38.8282L30.7983 36.6651L31.8283 35.532L35.2275 36.8711Z" fill="white"/>
<path d="M39.8627 28.5278L41.7167 31.1029C42.1288 31.721 42.5408 32.236 42.4378 33.06C42.3348 33.678 41.8197 34.2961 41.3047 34.7081C40.7897 35.1201 40.0687 35.4291 39.4506 35.3261C38.7296 35.2231 38.2146 34.6051 37.8026 34.0901L35.9485 31.515L37.0815 30.6909L38.8326 33.06C39.2446 33.678 39.7597 34.2961 40.4807 33.678C41.2017 33.163 40.7897 32.442 40.3777 31.824L38.6266 29.4549L39.8627 28.5278ZM42.3348 35.0171C42.5408 35.3261 42.4378 35.6351 42.2318 35.8411C42.0258 36.0471 41.6137 35.9441 41.4077 35.7381C41.2017 35.5321 41.2017 35.1201 41.5107 34.9141C41.7167 34.7081 42.1288 34.8111 42.3348 35.0171Z" fill="white"/>
<path d="M44.4979 25.9527L46.1459 25.3347L47.485 26.3647L47.794 24.7167L49.4421 24.0986L48.721 27.1888L51.7082 29.2488L50.0601 29.8669L48.309 28.5278L47.691 30.7939L46.0429 31.4119L46.97 27.8068L44.4979 25.9527Z" fill="white"/>
<path d="M55.9313 22.8628L56.4463 25.9529C56.5494 26.674 56.6524 27.395 56.2403 28.013C55.8283 28.528 55.2103 28.837 54.4893 28.94C53.8712 29.0431 53.1502 29.0431 52.5322 28.631C51.9142 28.219 51.7082 27.498 51.6051 26.777L51.0901 23.6868L52.5322 23.4808L53.0472 26.3649C53.1502 27.086 53.3562 27.91 54.2833 27.704C55.2103 27.498 55.1073 26.777 55.0043 26.0559L54.5923 23.0688L55.9313 22.8628Z" fill="white"/>
<path d="M59.4335 27.3948L59.0215 28.3218H57.4764L59.7425 22.6566H61.2876L63.2446 28.3218H61.6996L61.3906 27.2918L59.4335 27.3948ZM60.5665 20.8025L61.8026 21.8325L61.2876 22.3476L60.4635 21.6265L59.6395 22.2446L59.2275 21.7295L60.5665 20.8025ZM60.4635 24.4077L59.8455 26.1587H61.0815L60.4635 24.4077ZM61.6996 21.2145L61.1846 20.8025L62.0086 19.7725L62.6266 20.2875L61.6996 21.2145Z" fill="white"/>
<path d="M66.1287 28.9401L64.6867 28.7341L65.4077 24.4079L64.2747 24.2019L64.4807 22.9658L68.2918 23.5838L68.0858 24.8199L66.8498 24.6139L66.1287 28.9401Z" fill="white"/>
<path d="M75.0901 27.4978C74.8841 27.1887 74.6781 26.8797 74.3691 26.7767C74.1631 26.6737 73.7511 26.6737 73.6481 26.8797C73.5451 27.1887 73.8541 27.4978 74.0601 27.6008L74.3691 27.8068C74.9871 28.3218 75.3991 28.9398 74.9871 29.7639C74.7811 30.2789 74.4721 30.7939 73.8541 30.8969C73.3391 31.1029 72.721 30.9999 72.206 30.7939C71.588 30.4849 70.97 30.0729 70.6609 29.4548L71.691 28.6308C71.897 29.0428 72.206 29.4548 72.618 29.6608C72.927 29.7639 73.3391 29.7639 73.4421 29.4548C73.6481 29.0428 73.133 28.7338 72.927 28.5278C72.206 27.9098 71.691 27.4978 72.206 26.4677C72.618 25.4377 73.6481 25.0257 74.6781 25.4377C75.1931 25.6437 75.7082 26.0557 76.1202 26.5707L75.0901 27.4978Z" fill="white"/>
<path d="M76.7382 31.927L75.9142 32.545L74.5751 31.721L79.4163 28.1158L80.7554 28.9399L79.5193 34.8111L78.1803 33.9871L78.3863 32.957L76.7382 31.927ZM79.1073 29.9699L77.6652 31.206L78.6953 31.824L79.1073 29.9699ZM80.4464 27.0858C80.3433 27.2918 80.4464 27.6008 80.6524 27.7038C80.8584 27.8068 81.0644 27.8068 81.2704 27.6008L81.7854 27.9098C81.3734 28.4249 80.8584 28.5279 80.2403 28.1158C79.7253 27.8068 79.5193 27.1888 79.8283 26.6738L80.4464 27.0858ZM81.1674 27.3948L80.9614 26.8798L82.1974 26.4678L82.5064 27.1888L81.1674 27.3948Z" fill="white"/>
<path d="M85.3906 35.2231C85.4936 34.7081 85.2876 34.1931 84.8755 33.8841C84.2575 33.2661 83.3305 33.3691 82.7124 34.0901C82.0944 34.7081 82.0944 35.6352 82.8155 36.2532C83.1245 36.5622 83.6395 36.7682 84.1545 36.6652L82.9185 38.0043C82.5064 37.7983 82.0944 37.5922 81.7854 37.3862C81.1674 36.8712 80.8584 36.1502 80.7554 35.3262C80.6524 34.5021 80.9614 33.7811 81.5794 33.1631C82.0944 32.545 82.8154 32.236 83.5365 32.133C84.3605 32.03 85.1845 32.339 85.6996 32.854C86.0086 33.1631 86.3176 33.5751 86.5236 33.9871L85.3906 35.2231Z" fill="white"/>
<path d="M90.2318 37.7983L90.9528 39.0344L89.4077 43.1546L92.2918 41.3005L93.0129 42.5365L88.2747 45.5237L87.5536 44.2876L89.0987 40.1674L86.2146 42.1245L85.4936 40.8885L90.2318 37.7983Z" fill="white"/>
<path d="M93.3219 48.6138L95.382 47.7898L95.897 49.1289L90.6438 51.1889L90.1288 49.8499L92.2918 49.0259L91.5708 47.0688L89.4077 47.8928L88.8927 46.5538L94.1459 44.5967L94.6609 45.9357L92.6009 46.7598L93.3219 48.6138Z" fill="white"/>
<path d="M92.0858 53.4547L91.0558 53.2487L90.7468 51.7036L96.721 52.8367L97.03 54.3817L91.7768 57.3689L91.4678 55.8238L92.3948 55.3088L92.0858 53.4547ZM95.176 53.9697L93.3219 53.6607L93.5279 54.7937L95.176 53.9697ZM98.7811 53.2487L98.0601 54.6907L97.4421 54.2787L97.9571 53.3517L97.1331 52.6307L97.5451 52.1156L98.7811 53.2487ZM98.5751 54.5877L98.8841 54.0727L100.017 54.6907L99.7082 55.4118L98.5751 54.5877Z" fill="white"/>
<path d="M91.7768 60.3563V58.9142L96.206 58.8112V57.5752H97.4421L97.5451 61.3864H96.309V60.1503L91.7768 60.3563Z" fill="white"/>
<path d="M50.2661 94.3481C50.2661 94.6571 50.2661 94.8631 50.3691 95.1721C48.103 95.3781 46.97 95.4811 44.7039 95.8932C46.0429 93.8331 46.764 92.906 48.309 90.8459C48.618 90.4339 48.824 89.9189 48.824 89.4039C48.721 88.4768 47.794 87.9618 46.764 88.0648C45.6309 88.1678 45.0129 88.9919 45.1159 89.9189C44.7039 90.0219 44.4979 90.0219 44.0858 90.1249C43.8798 88.6829 45.0129 87.4468 46.6609 87.2408C48.309 87.0348 49.7511 87.8588 49.8541 89.3009C49.9571 89.9189 49.7511 90.5369 49.3391 91.052C48.206 92.494 47.691 93.215 46.5579 94.6571C48 94.5541 48.721 94.4511 50.2661 94.3481Z" fill="#002F79"/>
<path d="M58.0944 90.7427C58.0944 92.6998 56.9614 94.8629 55.0043 94.9659C52.9442 95.0689 51.7082 93.0088 51.5021 90.9487C51.3991 89.3007 52.2232 86.6225 54.5923 86.5195C57.0644 86.5195 58.0944 89.0946 58.0944 90.7427ZM52.5322 90.9487C52.6352 92.0818 53.2532 94.1419 54.9013 94.1419C56.5494 94.0388 57.0644 91.8758 57.0644 90.7427C57.0644 89.6097 56.4464 87.3436 54.6953 87.4466C52.8412 87.5496 52.4292 89.8157 52.5322 90.9487Z" fill="#002F79"/>
<path d="M60.5665 87.5496C60.7725 87.2406 60.8755 87.0346 61.1846 86.7256C62.0086 86.7256 62.4206 86.7256 63.2446 86.8286C63.0386 90.0217 63.0386 91.6698 62.8326 94.9659C62.4206 94.9659 62.2146 94.9659 61.8026 94.9659C61.9056 92.0818 62.0086 90.6397 62.1116 87.7556C61.5966 87.5496 61.1845 87.5496 60.5665 87.5496Z" fill="#002F79"/>
<path d="M67.9828 94.9659C68.9099 94.0388 69.4249 93.5238 70.3519 92.6998C70.1459 92.6998 69.8369 92.6998 69.5279 92.6998C67.8798 92.4938 66.7468 91.1547 66.8498 89.7127C66.9528 88.1676 68.6009 87.1376 70.4549 87.3436C72.309 87.5496 73.5451 88.9916 73.3391 90.5367C73.236 91.2577 72.721 91.7727 72.206 92.2878C70.7639 93.5238 70.0429 94.2449 68.8069 95.5839C68.3949 95.2749 68.1888 95.1719 67.9828 94.9659ZM67.8798 89.7127C67.7768 90.7427 68.6009 91.6697 69.8369 91.7727C70.97 91.8757 72.103 91.2577 72.206 90.2277C72.309 89.1976 71.485 88.1676 70.2489 88.0646C69.0129 87.9616 67.9828 88.6826 67.8798 89.7127Z" fill="#002F79"/>
<path d="M58.4034 50.159C58.4034 49.747 58.8154 49.4379 59.2275 49.4379H61.3906C62.6266 49.4379 63.6566 49.85 64.4807 50.674C65.3047 51.498 65.7167 52.5281 65.7167 53.7641C65.7167 55.0002 65.3047 56.0302 64.4807 56.8543C63.6566 57.6783 62.6266 58.0903 61.3906 58.0903H59.2275C58.8154 58.0903 58.4034 57.7813 58.4034 57.3693V50.159ZM63.2446 51.807C62.7296 51.292 62.1116 50.983 61.3906 50.983H60.0515V56.4422H61.3906C62.1116 56.4422 62.7296 56.1332 63.2446 55.6182C63.7597 55.1032 64.0687 54.4852 64.0687 53.6611C64.0687 52.9401 63.7597 52.3221 63.2446 51.807ZM66.8498 57.2663C66.8498 57.6783 67.2618 57.9873 67.6738 57.9873H72.515C72.927 57.9873 73.236 57.6783 73.236 57.1633C73.236 56.7512 72.927 56.3392 72.515 56.3392H68.4979V54.4852H71.794C72.206 54.4852 72.515 54.1761 72.515 53.6611C72.515 53.1461 72.206 52.8371 71.794 52.8371H68.4979V50.88H72.515C72.927 50.88 73.236 50.571 73.236 50.056C73.236 49.644 72.927 49.2319 72.515 49.2319H67.6738C67.2618 49.2319 66.8498 49.5409 66.8498 49.953V57.2663ZM77.1502 56.6482C76.3262 56.6482 75.7082 56.4422 75.1931 56.0302C74.8841 55.8242 74.4721 55.9272 74.1631 56.2362C73.9571 56.6482 73.9571 57.0603 74.2661 57.2663C75.0901 57.8843 76.0172 58.0903 77.1502 58.0903C78.0773 58.0903 78.7983 57.8843 79.4163 57.3693C80.0343 56.8543 80.3433 56.2362 80.3433 55.4122C80.3433 53.9701 79.3133 52.9401 77.5622 52.7341C76.8412 52.6311 76.3262 52.5281 76.1202 52.3221C75.9142 52.1161 75.8112 51.91 75.8112 51.601C75.8112 51.086 76.3262 50.674 77.1502 50.674C77.7682 50.674 78.3863 50.88 79.0043 51.292C79.3133 51.498 79.7253 51.292 79.9313 50.983C80.1373 50.571 80.0343 50.159 79.7253 49.953C79.0043 49.4379 78.0773 49.2319 77.0472 49.2319C76.2232 49.2319 75.5021 49.4379 74.8841 49.953C74.2661 50.365 74.0601 50.983 74.0601 51.704C74.0601 53.2491 74.8841 54.0731 76.8412 54.2791C77.6652 54.3821 78.0773 54.5882 78.3863 54.7942C78.5923 55.0002 78.6953 55.2062 78.6953 55.5152C78.6953 56.1332 78.0773 56.6482 77.1502 56.6482ZM52.5322 55.6182C52.8412 55.3092 53.1502 55.2062 53.5622 55.1032L51.5021 49.747C51.3991 49.4379 50.8841 49.2319 50.4721 49.4379C50.0601 49.6439 49.8541 50.056 49.9571 50.365L52.2232 56.0302C52.3262 55.8242 52.4292 55.7212 52.5322 55.6182ZM57.0644 49.3349C56.6524 49.2319 56.1373 49.3349 56.0343 49.6439L54.0773 55.0002C54.4893 55.1032 54.7983 55.2062 55.1073 55.5152C55.2103 55.6182 55.3133 55.8242 55.4163 55.9272L57.6824 50.262C57.6824 49.953 57.4764 49.5409 57.0644 49.3349ZM52.9442 56.0302C52.5322 56.4422 52.5322 57.2663 52.9442 57.6783C53.3562 58.0903 54.1803 58.0903 54.5923 57.6783C55.0043 57.2663 55.0043 56.4422 54.5923 56.0302C54.1803 55.5152 53.3562 55.5152 52.9442 56.0302Z" fill="white"/>
<path d="M47.382 56.8543C46.3519 57.8843 45.0129 58.2963 43.6738 58.1933C44.0858 57.6783 44.3948 57.0603 44.3948 56.4422C45.0129 56.4422 45.6309 56.1332 46.1459 55.6182C47.176 54.5882 47.176 52.8371 46.1459 51.807C45.1159 50.777 43.3648 50.777 42.3348 51.807C41.8197 52.3221 41.5107 53.0431 41.5107 53.6611C40.8927 53.6611 40.2747 53.9701 39.7597 54.4852C39.5536 53.1461 39.9657 51.601 40.9957 50.571C41.9227 49.644 43.0558 49.2319 44.1888 49.2319C45.3219 49.2319 46.4549 49.644 47.382 50.571C49.133 52.2191 49.133 55.1032 47.382 56.8543Z" fill="white"/>
<path d="M40.2747 55.1033C39.5536 55.8243 39.5536 56.9574 40.2747 57.6784C40.9957 58.3994 42.1288 58.3994 42.8498 57.6784C43.5708 56.9574 43.5708 55.8243 42.8498 55.1033C42.5408 54.7943 42.0257 54.5883 41.6137 54.5883C41.0987 54.4853 40.6867 54.6913 40.2747 55.1033Z" fill="white"/>
<path opacity="0.1" d="M41.6137 54.4854C41.2017 54.4854 40.6867 54.6914 40.3777 55.0004C40.2747 55.1034 40.1717 55.3094 40.0687 55.4124C40.5837 56.5454 41.4077 57.3695 42.5408 57.7815C42.6438 57.6785 42.7468 57.5755 42.9528 57.4725C43.6738 56.7514 43.6738 55.6184 42.9528 54.8974C42.5408 54.6914 42.0258 54.4854 41.6137 54.4854Z" fill="white"/>
<path opacity="0.1" d="M43.3648 56.2364C43.3648 55.8244 43.1588 55.4124 42.8498 55.0004C42.5408 54.6914 42.0258 54.4854 41.6137 54.4854C41.9227 55.4124 42.5408 56.0304 43.3648 56.2364Z" fill="white"/>
<path d="M76.3262 64.2705L77.2532 67.0516H80.0343L77.7682 68.6997L78.6953 71.3778L76.3262 69.7297L74.0601 71.3778L74.9871 68.6997L72.618 67.0516H75.5022L76.3262 64.2705Z" fill="#F4D139"/>
<path d="M68.1888 64.2705L69.1159 67.0516H71.897L69.6309 68.6997L70.4549 71.3778L68.1888 69.7297L65.9227 71.3778L66.7468 68.6997L64.4807 67.0516H67.3648L68.1888 64.2705Z" fill="#F4D139"/>
<path d="M60.0515 64.2705L60.8755 67.0516H63.7597L61.3906 68.6997L62.3176 71.3778L60.0515 69.7297L57.6824 71.3778L58.6094 68.6997L56.3433 67.0516H59.1245L60.0515 64.2705Z" fill="#F4D139"/>
<path d="M51.8112 64.2705L52.7382 67.0516H55.5193L53.2532 68.6997L54.1803 71.3778L51.8112 69.7297L49.5451 71.3778L50.4721 68.6997L48.103 67.0516H50.9871L51.8112 64.2705Z" fill="#F4D139"/>
<path d="M43.6738 64.2705L44.6009 67.0516H47.382L45.1159 68.6997L45.9399 71.3778L43.6738 69.7297L41.4077 71.3778L42.2318 68.6997L39.9657 67.0516H42.8498L43.6738 64.2705Z" fill="#F4D139"/>
</svg>
