<svg width="121" height="120" viewBox="0 0 121 120" fill="none" xmlns="http://www.w3.org/2000/svg">
<path d="M113.893 102.279C80.0043 88.2704 41.8927 88.2704 8.1073 102.279C8.82833 98.6738 9.65236 94.9657 10.5794 91.3605C7.48927 89.1975 4.29614 87.1374 1 85.0773C39.4206 69.1116 82.5794 69.1116 121 85.0773C117.704 87.0344 114.511 89.0944 111.421 91.3605C112.451 95.0687 113.275 98.6738 113.893 102.279Z" fill="#E8A126"/>
<path d="M108.742 91.257L99.1631 78.8965L101.635 108.459L108.742 91.257Z" fill="#E27E1E"/>
<path d="M13.2575 91.257L22.8369 78.8965L20.3648 108.459L13.2575 91.257Z" fill="#E27E1E"/>
<path d="M57.4464 113.403C54.5623 113.403 51.7811 112.167 49.7211 110.107C48.794 109.18 47.558 108.665 46.2189 108.665C45.8069 108.665 45.3949 108.665 44.9829 108.768C44.1588 108.974 43.2318 109.077 42.3047 109.077C37.9786 109.077 34.0644 106.502 32.4163 102.485C31.6953 100.837 30.2532 99.7039 28.5022 99.4978C23.249 98.8798 19.2318 94.4506 19.0258 89.1974C19.0258 87.4463 17.9957 85.9013 16.4507 85.0772C11.8155 82.6051 9.65238 76.9399 11.4035 71.9957C12.0215 70.3476 11.6095 68.4936 10.4764 67.1545C7.18028 63.2403 7.18028 57.2661 10.6824 53.2489C11.8155 51.9099 12.1245 50.0558 11.6095 48.4077C9.85839 43.4635 12.0215 37.7983 16.6567 35.3262C18.2017 34.5021 19.2318 32.9571 19.2318 31.206C19.3348 25.9528 23.455 21.5236 28.7082 20.9056C30.4592 20.6996 31.9013 19.5665 32.6223 17.9185C34.2704 13.9013 38.1846 11.3262 42.5107 11.3262C43.4378 11.3262 44.2618 11.4292 45.1889 11.6352C45.6009 11.7382 46.0129 11.7382 46.4249 11.7382C47.764 11.7382 49 11.2232 49.9271 10.2961C51.9871 8.23605 54.7683 7 57.6524 7C59.9185 7 62.0816 7.72103 63.8326 8.95708C64.6567 9.57511 65.6867 9.88412 66.6138 9.88412C67.3348 9.88412 68.0558 9.78112 68.6738 9.4721C70.1159 8.85408 71.661 8.44206 73.206 8.44206C76.8112 8.44206 80.2103 10.2961 82.1674 13.2833C83.0944 14.6223 84.5365 15.4464 86.1846 15.4464C86.2876 15.4464 86.3906 15.4464 86.4936 15.4464C86.6996 15.4464 87.0086 15.4464 87.2146 15.4464C92.2618 15.4464 96.588 19.0515 97.7211 23.8927C98.1331 25.6438 99.3691 26.9828 101.017 27.4979C106.064 29.0429 109.258 34.1931 108.433 39.4464C108.124 41.1974 108.846 42.9485 110.185 43.9785C114.305 47.2747 115.438 53.1459 112.76 57.7811C111.833 59.3262 111.833 61.1803 112.76 62.6223C115.438 67.1545 114.305 73.1288 110.185 76.4249C108.846 77.5579 108.124 79.309 108.433 80.9571C109.258 86.2103 106.064 91.2575 101.017 92.9056C99.3691 93.4206 98.1331 94.8627 97.7211 96.5107C96.691 101.455 92.2618 104.957 87.2146 104.957C87.0086 104.957 86.6996 104.957 86.4936 104.957C86.3906 104.957 86.2876 104.957 86.1846 104.957C84.5365 104.957 82.9914 105.781 82.1674 107.12C80.2103 110.107 76.8112 111.961 73.206 111.961C71.661 111.961 70.1159 111.652 68.6738 110.931C68.0558 110.622 67.3348 110.519 66.6138 110.519C65.5837 110.519 64.6567 110.828 63.8326 111.446C61.8756 112.785 59.7125 113.403 57.4464 113.403Z" fill="#EEBF2D"/>
<path d="M109.979 56.339C108.537 58.8111 108.537 61.7983 109.979 64.1674C111.936 67.4635 111.112 71.7897 108.125 74.1588C105.961 75.9099 104.828 78.691 105.343 81.4721C105.961 85.2832 103.695 88.9914 99.9872 90.1245C97.3091 90.9485 95.249 93.2146 94.7339 95.8927C93.9099 99.7038 90.5108 102.279 86.5966 102.073C83.8155 101.867 81.1374 103.206 79.5923 105.575C77.4292 108.768 73.3091 110.004 69.8069 108.356C67.2318 107.223 64.2447 107.429 61.9786 109.077C58.7854 111.343 54.5623 110.931 51.8842 108.15C49.9271 106.09 47.043 105.266 44.3648 105.987C40.6567 106.914 36.7425 105.06 35.3005 101.455C34.1674 98.8798 31.7983 97.0257 29.0172 96.7167C25.206 96.3047 22.2189 93.0086 22.1159 89.1974C22.0129 86.4163 20.4678 83.8412 17.9957 82.5021C14.5966 80.6481 13.0515 76.6309 14.2876 73.0257C15.2146 70.3476 14.6996 67.4635 12.8455 65.3004C10.3734 62.4163 10.3734 58.0901 12.8455 55.103C14.6996 52.9399 15.2146 50.0558 14.2876 47.3777C12.9485 43.7725 14.5966 39.7554 17.9957 37.9013C20.4678 36.5622 22.0129 34.0901 22.1159 31.206C22.2189 27.3948 25.103 24.0987 29.0172 23.6867C31.7983 23.3777 34.1674 21.5236 35.3005 18.9485C36.7425 15.3433 40.6567 13.4893 44.3648 14.4163C47.043 15.1373 49.9271 14.3133 51.8842 12.2532C54.5623 9.47209 58.8885 9.06008 61.9786 11.3262C64.2447 12.9742 67.2318 13.1802 69.8069 12.0472C73.3091 10.3991 77.4292 11.6352 79.5923 14.8283C81.1374 17.1974 83.8155 18.5365 86.5966 18.3305C90.4078 18.1245 93.9099 20.6996 94.7339 24.5107C95.352 27.2918 97.3091 29.4549 99.9872 30.279C103.695 31.412 105.961 35.1202 105.343 38.9313C104.931 41.7124 105.961 44.4936 108.125 46.2446C111.215 48.7167 111.936 53.0429 109.979 56.339Z" fill="#FFFFDC" stroke="#F4D139" stroke-width="0.5" stroke-miterlimit="10"/>
<path d="M101.635 108.459C75.5751 97.6438 46.4249 97.6438 20.3648 108.459C17.9957 102.794 15.6266 97.0258 13.2575 91.3605C43.8498 78.691 78.1502 78.691 108.742 91.3605C106.373 97.0258 104.004 102.691 101.635 108.459Z" fill="#EEBF2F"/>
<path d="M51.2661 94.3476C51.2661 94.6566 51.2661 94.8626 51.3691 95.1717C49.103 95.3777 47.97 95.4807 45.7039 95.8927C47.0429 93.8326 47.764 92.9056 49.309 90.8455C49.6181 90.4335 49.8241 89.9184 49.8241 89.4034C49.7211 88.4764 48.794 87.9614 47.764 88.0644C46.6309 88.1674 46.0129 88.9914 46.1159 90.0214C45.7039 90.1245 45.4979 90.1244 45.0859 90.2275C44.8799 88.7854 46.0129 87.5493 47.661 87.3433C49.309 87.1373 50.7511 87.9614 50.8541 89.4034C50.9571 90.0214 50.7511 90.6395 50.3391 91.1545C49.206 92.5966 48.691 93.3176 47.558 94.7596C49 94.5536 49.7211 94.4506 51.2661 94.3476Z" fill="#002F79"/>
<path d="M59.0945 90.7427C59.0945 92.6998 57.9614 94.8629 56.0043 94.9659C53.9443 95.0689 52.7082 93.0088 52.5022 90.9487C52.3992 89.3007 53.2232 86.6225 55.5923 86.5195C58.0644 86.5195 59.0945 89.0946 59.0945 90.7427ZM53.5322 90.9487C53.6352 92.0818 54.2533 94.1418 55.9013 94.1418C57.5494 94.0388 58.0644 91.8758 58.0644 90.7427C58.0644 89.6097 57.4464 87.3436 55.6953 87.4466C53.8412 87.5496 53.4292 89.8157 53.5322 90.9487Z" fill="#002F79"/>
<path d="M61.5665 87.5496C61.7725 87.2406 61.8755 87.0346 62.1846 86.7256C63.0086 86.7256 63.4206 86.7256 64.2446 86.8286C64.0386 90.0217 64.0386 91.6698 63.8326 94.9659C63.4206 94.9659 63.2146 94.9659 62.8026 94.9659C62.9056 92.0818 63.0086 90.6397 63.1116 87.7556C62.5966 87.5496 62.1846 87.5496 61.5665 87.5496Z" fill="#002F79"/>
<path d="M68.9829 94.9659C69.9099 94.0388 70.4249 93.5238 71.352 92.6998C71.146 92.6998 70.8369 92.6998 70.5279 92.6998C68.8799 92.4938 67.7468 91.1547 67.8498 89.7127C67.9528 88.1676 69.6009 87.1376 71.455 87.3436C73.309 87.5496 74.5451 88.9916 74.3391 90.5367C74.2361 91.2577 73.7211 91.7727 73.206 92.2878C71.764 93.5238 71.0429 94.2449 69.8069 95.5839C69.3949 95.2749 69.2919 95.1719 68.9829 94.9659ZM68.8799 89.7127C68.7769 90.7427 69.6009 91.6697 70.8369 91.7727C71.97 91.8758 73.103 91.2577 73.206 90.2277C73.309 89.1976 72.485 88.1676 71.249 88.0646C70.0129 87.9616 68.9829 88.6826 68.8799 89.7127Z" fill="#002F79"/>
<path d="M26.7511 42.8462H28.3992L31.3863 46.6574V42.8462H33.0344V49.1295H31.3863L28.3992 45.2153V49.0264H26.7511V42.8462Z" fill="#002F79"/>
<path d="M38.0816 45.2153V42.8462H39.7296V49.1295H38.0816V46.5543H35.7125V49.1295H34.0644V42.8462H35.7125V45.2153H38.0816Z" fill="#002F79"/>
<path d="M42.3048 47.9965L41.8927 49.1295H40.1417L42.5108 42.8462H44.2618L46.6309 49.1295H44.8799L44.4678 47.9965H42.3048ZM42.8198 40.8892L43.7468 42.0222L43.2318 42.3312L42.0987 41.3012L42.8198 40.8892ZM43.4378 44.8033L42.7168 46.7604H44.0558L43.4378 44.8033Z" fill="#002F79"/>
<path d="M54.4592 44.9057C54.1502 44.4937 53.6352 44.1847 53.0172 44.1847C51.9871 44.1847 51.3691 44.9057 51.3691 45.9358C51.3691 46.9658 52.0901 47.5839 53.0172 47.5839C53.5322 47.5839 54.0472 47.3778 54.4592 46.9658V48.9229C53.9442 49.1289 53.5322 49.2319 53.0172 49.2319C52.1931 49.2319 51.3691 48.9229 50.6481 48.3049C49.9271 47.6869 49.618 46.8628 49.618 45.9358C49.618 45.1118 49.9271 44.2877 50.5451 43.6697C51.1631 43.0517 52.0901 42.6396 52.9142 42.6396C53.4292 42.6396 53.9442 42.7427 54.3562 42.9487V44.9057H54.4592Z" fill="#002F79"/>
<path d="M60.9485 42.8462V46.3483C60.9485 47.1724 60.9485 47.8934 60.3305 48.5114C59.8155 49.0264 58.9914 49.2325 58.2704 49.2325C57.5494 49.2325 56.7253 49.0264 56.2103 48.5114C55.5923 47.8934 55.5923 47.0694 55.5923 46.3483V42.8462H57.2404V46.1423C57.2404 46.9664 57.3434 47.7904 58.3734 47.7904C59.4034 47.7904 59.5064 46.8634 59.5064 46.1423V42.8462H60.9485Z" fill="#002F79"/>
<path d="M61.9786 42.8462H63.6266L66.6138 46.6574V42.8462H68.2618V49.1295H66.6138L63.6266 45.2153V49.0264H61.9786V42.8462Z" fill="#002F79"/>
<path d="M75.4721 45.6268C75.4721 46.5538 75.3691 47.2748 74.8541 48.0989C74.2361 48.9229 73.309 49.3349 72.279 49.3349C70.3219 49.3349 68.9828 47.9959 68.9828 46.0388C68.9828 43.9787 70.3219 42.6396 72.382 42.6396C73.618 42.6396 74.6481 43.2577 75.1631 44.3907L73.618 45.0087C73.412 44.3907 72.897 43.9787 72.279 43.9787C71.2489 43.9787 70.6309 45.0087 70.6309 45.9358C70.6309 46.8628 71.2489 47.8929 72.279 47.8929C73 47.8929 73.515 47.4809 73.618 46.7598H72.279V45.5238H75.4721V45.6268Z" fill="#002F79"/>
<path d="M83.5065 44.9057C83.1975 44.4937 82.6824 44.1847 82.0644 44.1847C81.0344 44.1847 80.4164 44.9057 80.4164 45.9358C80.4164 46.9658 81.1374 47.5839 82.0644 47.5839C82.5794 47.5839 83.0945 47.3778 83.5065 46.9658V48.9229C82.9915 49.1289 82.5794 49.2319 82.0644 49.2319C81.2404 49.2319 80.4164 48.9229 79.6953 48.3049C78.9743 47.6869 78.6653 46.8628 78.6653 45.9358C78.6653 45.1118 78.9743 44.2877 79.5923 43.6697C80.2103 43.0517 81.1374 42.6396 81.9614 42.6396C82.4764 42.6396 82.9915 42.7427 83.4035 42.9487V44.9057H83.5065Z" fill="#002F79"/>
<path d="M86.0815 47.9962L85.6695 49.1292H83.9185L86.2876 42.846H88.0386L90.4077 49.1292H88.6567L88.2446 47.9962H86.0815ZM87.2146 40.7859L88.6567 41.9189L88.1416 42.4339L87.2146 41.7129L86.2876 42.4339L85.7725 41.9189L87.2146 40.7859ZM87.2146 44.803L86.4936 46.7601H87.8326L87.2146 44.803ZM88.5536 41.1979L88.0386 40.7859L88.9657 39.6528L89.6867 40.1679L88.5536 41.1979Z" fill="#002F79"/>
<path d="M90.9228 42.8462H93.3949C94.7339 42.8462 95.661 43.4642 95.661 44.9063C95.661 46.3483 94.837 47.0694 93.4979 47.0694H92.5709V49.1295H90.9228V42.8462ZM92.5709 45.7303H92.8799C93.4979 45.7303 94.0129 45.7303 94.0129 45.0093C94.0129 44.1852 93.4979 44.1852 92.8799 44.1852H92.5709V45.7303Z" fill="#002F79"/>
<path d="M22.0129 58.8114H21.4979V57.7813H22.0129V55.9272H23.661C25.206 55.9272 26.2361 56.9573 26.2361 58.3993C26.2361 59.8414 25.103 60.8715 23.661 60.8715H22.0129V58.8114ZM23.2489 57.7813H23.97V58.8114H23.2489V59.7384H23.5579C24.279 59.7384 25 59.3264 25 58.3993C25 57.5753 24.382 57.0603 23.661 57.0603H23.3519V57.7813H23.2489Z" fill="#002F79"/>
<path d="M30.6653 55.9271L30.8713 55.3091H31.7983L31.0773 56.5451V58.6052C31.0773 59.2232 31.0773 59.8413 30.5623 60.3563C30.1502 60.7683 29.5322 60.8713 28.9142 60.8713C28.2962 60.8713 27.6781 60.7683 27.2661 60.3563C26.7511 59.8413 26.7511 59.2232 26.7511 58.6052V55.9271H27.9872V58.5022C27.9872 59.1202 27.9872 59.8413 28.8112 59.8413C29.6352 59.8413 29.6352 59.1202 29.6352 58.5022V55.9271H30.6653Z" fill="#002F79"/>
<path d="M35.7124 56.1331L36.0215 55.4121H36.9485L36.3305 56.4422C36.8455 56.8542 37.1545 57.4722 37.1545 58.1932C37.1545 59.7383 36.0215 60.8713 34.4764 60.8713C32.9313 60.8713 31.7983 59.7383 31.7983 58.1932C31.7983 56.7512 33.1373 55.7211 34.4764 55.7211C34.7854 55.7211 35.3004 55.9271 35.7124 56.1331ZM32.9313 58.2962C32.9313 59.1203 33.5494 59.7383 34.2704 59.7383C34.9914 59.7383 35.6094 59.1203 35.6094 58.2962C35.6094 57.6782 34.9914 57.0602 34.2704 57.0602C33.5494 56.9572 32.9313 57.5752 32.9313 58.2962ZM34.7854 61.6954C34.7854 62.0044 34.5794 62.2104 34.2704 62.2104C33.9614 62.2104 33.7554 62.0044 33.7554 61.6954C33.7554 61.3864 33.9614 61.1803 34.2704 61.1803C34.5794 61.1803 34.7854 61.3864 34.7854 61.6954Z" fill="#002F79"/>
<path d="M41.0687 57.5753C40.8627 57.2663 40.3476 57.0602 39.9356 57.0602C39.1116 57.0602 38.5966 57.6783 38.5966 58.3993C38.5966 59.1203 39.1116 59.7384 39.9356 59.7384C40.3476 59.7384 40.7597 59.5323 41.0687 59.2233V60.6654C40.6566 60.7684 40.3476 60.8714 39.9356 60.8714C39.2146 60.8714 38.5966 60.6654 38.0815 60.1504C37.5665 59.6354 37.2575 59.0173 37.2575 58.2963C37.2575 57.6783 37.4635 56.9572 37.9785 56.5452C38.4936 56.0302 39.1116 55.7212 39.8326 55.7212C40.2446 55.7212 40.6566 55.8242 40.9657 55.9272V57.5753H41.0687Z" fill="#002F79"/>
<path d="M43.4378 55.9272H44.9829L45.9099 57.2663L46.8369 55.9272H48.382L46.6309 58.3993V60.7684H45.2919V58.3993L43.4378 55.9272Z" fill="#002F79"/>
<path d="M49.927 56.9569V57.781H51.3691V58.811H49.927V59.635H51.4721V60.6651H48.691V55.8239H51.4721V56.8539H49.927V56.9569ZM49.927 54.2788L51.0601 55.1028L50.7511 55.5149L50.03 54.8968L49.206 55.5149L48.794 55.1028L49.927 54.2788Z" fill="#002F79"/>
<path d="M56.4163 55.9272V58.6054C56.4163 59.2234 56.4163 59.8414 55.9013 60.3564C55.4893 60.7684 54.8713 60.8715 54.2532 60.8715C53.6352 60.8715 53.0172 60.7684 52.6052 60.3564C52.0901 59.8414 52.0901 59.2234 52.0901 58.6054V55.9272H53.3262V58.5024C53.3262 59.1204 53.3262 59.8414 54.1502 59.8414C54.9743 59.8414 54.9743 59.1204 54.9743 58.5024V55.9272H56.4163Z" fill="#002F79"/>
<path d="M61.3605 60.7684H60.1245V56.9573H59.0944V55.9272H62.4936V56.9573H61.4635V60.7684H61.3605Z" fill="#002F79"/>
<path d="M65.8927 57.7813V55.9272H67.1288V60.7684H65.8927V58.8114H64.0387V60.7684H62.8026V55.9272H64.0387V57.7813H65.8927Z" fill="#002F79"/>
<path d="M69.2919 60.7681H67.9528V55.9269H69.1889V60.7681H69.2919ZM68.7769 55.5149L68.3648 55.2058L69.0859 54.2788L69.7039 54.6908L68.7769 55.5149Z" fill="#002F79"/>
<path d="M73.515 57.5753C73.309 57.2663 72.794 57.0602 72.382 57.0602C71.5579 57.0602 71.0429 57.6783 71.0429 58.3993C71.0429 59.1203 71.5579 59.7384 72.382 59.7384C72.794 59.7384 73.206 59.5323 73.515 59.2233V60.6654C73.103 60.7684 72.794 60.8714 72.382 60.8714C71.6609 60.8714 71.0429 60.6654 70.5279 60.1504C70.0129 59.6354 69.7039 59.0173 69.7039 58.2963C69.7039 57.6783 69.9099 56.9572 70.4249 56.5452C70.9399 56.0302 71.5579 55.7212 72.279 55.7212C72.691 55.7212 73.103 55.8242 73.412 55.9272V57.5753H73.515Z" fill="#002F79"/>
<path d="M77.4292 57.7813V55.9272H78.6652V60.7684H77.4292V58.8114H75.5751V60.7684H74.3391V55.9272H75.5751V57.7813H77.4292Z" fill="#002F79"/>
<path d="M81.6523 55.9272H82.8884L85.1545 58.9144V55.9272H86.4935V60.7684H85.2575L82.9914 57.7813V60.7684H81.7553V55.9272H81.6523Z" fill="#002F79"/>
<path d="M90.4078 57.7813V55.9272H91.6438V60.7684H90.4078V58.8114H88.5537V60.7684H87.3176V55.9272H88.5537V57.7813H90.4078Z" fill="#002F79"/>
<path d="M93.8069 59.9443L93.4979 60.7684H92.1588L94.0129 55.9272H95.3519L97.206 60.7684H95.867L95.558 59.9443H93.8069ZM94.6309 54.2791L95.764 55.1031L95.3519 55.5152L94.6309 54.8971L93.9099 55.5152L93.4979 55.1031L94.6309 54.2791ZM94.6309 57.3692L94.1159 58.9143H95.1459L94.6309 57.3692ZM95.661 54.6911L95.2489 54.3821L95.97 53.4551L96.588 53.8671L95.661 54.6911Z" fill="#002F79"/>
<path d="M99.4721 60.7684H98.236V56.9573H97.206V55.9272H100.605V56.9573H99.5751V60.7684H99.4721Z" fill="#002F79"/>
<path d="M59.4035 27.7044C59.4035 27.3954 59.7125 27.1894 60.0215 27.1894H61.7726C62.6996 27.1894 63.5236 27.4984 64.2447 28.1164C64.8627 28.7344 65.2747 29.5585 65.2747 30.4855C65.2747 31.4125 64.9657 32.2366 64.2447 32.8546C63.5236 33.4726 62.6996 33.8846 61.7726 33.8846H60.1245C59.8155 33.8846 59.5065 33.6786 59.5065 33.3696V27.7044H59.4035ZM63.2146 28.9404C62.8026 28.5284 62.2876 28.3224 61.7726 28.3224H60.7425V32.5456H61.7726C62.3906 32.5456 62.8026 32.3396 63.2146 31.9276C63.6266 31.5155 63.8326 31.0005 63.8326 30.3825C63.8326 29.8675 63.6266 29.4555 63.2146 28.9404ZM65.9957 33.2666C65.9957 33.5756 66.3047 33.7816 66.6138 33.7816H70.4249C70.7339 33.7816 70.9399 33.4726 70.9399 33.1636C70.9399 32.8546 70.7339 32.5456 70.4249 32.5456H67.2318V31.0005H69.8069C70.1159 31.0005 70.3219 30.6915 70.3219 30.3825C70.3219 30.0735 70.1159 29.7645 69.8069 29.7645H67.2318V28.2194H70.4249C70.7339 28.2194 70.9399 27.9104 70.9399 27.6014C70.9399 27.2924 70.7339 26.9834 70.4249 26.9834H66.6138C66.3047 26.9834 65.9957 27.1894 65.9957 27.4984V33.2666ZM74.1331 32.7516C73.515 32.7516 73 32.5456 72.588 32.2366C72.382 32.1336 71.97 32.1336 71.764 32.4426C71.558 32.7516 71.558 33.0606 71.867 33.2666C72.485 33.6786 73.309 33.9876 74.1331 33.9876C74.8541 33.9876 75.4721 33.7816 75.9871 33.3696C76.5022 32.9576 76.7082 32.4426 76.7082 31.8246C76.7082 30.6915 75.8841 29.8675 74.5451 29.7645C73.9271 29.6615 73.618 29.5585 73.412 29.4555C73.206 29.3525 73.103 29.1464 73.103 28.8374C73.103 28.4254 73.515 28.1164 74.1331 28.1164C74.6481 28.1164 75.1631 28.2194 75.5751 28.5284C75.7811 28.6314 76.1931 28.5284 76.2962 28.2194C76.5022 27.9104 76.3992 27.6014 76.1932 27.3954C75.5751 26.9834 74.8541 26.7773 74.1331 26.7773C73.515 26.7773 72.897 26.9834 72.485 27.2924C72.073 27.6014 71.764 28.1164 71.764 28.7344C71.764 29.9705 72.485 30.5885 73.9271 30.7945C74.5451 30.8975 74.9571 31.0005 75.0601 31.2065C75.2661 31.4125 75.2661 31.5155 75.2661 31.7215C75.3691 32.4426 74.8541 32.7516 74.1331 32.7516ZM54.8713 31.9276C55.0773 31.7215 55.3863 31.6185 55.6953 31.5155L54.1502 27.2924C54.0472 26.9834 53.6352 26.8803 53.3262 26.9834C53.0172 27.0864 52.8112 27.3954 52.9142 27.7044L54.6653 32.1336C54.6653 32.1336 54.7683 32.0306 54.8713 31.9276ZM58.3734 27.0864C58.0644 26.9834 57.6524 27.0864 57.5494 27.3954L56.0043 31.6185C56.3133 31.6185 56.5193 31.8246 56.8283 32.0306C56.9314 32.1336 57.0344 32.2366 57.0344 32.3396L58.7854 27.9104C58.8884 27.6014 58.6824 27.1894 58.3734 27.0864ZM55.1803 32.3396C54.8713 32.6486 54.8713 33.2666 55.1803 33.6786C55.4893 33.9876 56.1073 33.9876 56.5193 33.6786C56.8283 33.3696 56.8283 32.7516 56.5193 32.3396C56.1073 31.9276 55.4893 31.9276 55.1803 32.3396Z" fill="url(#paint0_linear)"/>
<path d="M50.7511 32.9576C49.9271 33.7817 48.897 34.0907 47.764 33.9877C48.176 33.5756 48.279 33.0606 48.279 32.5456C48.794 32.5456 49.309 32.3396 49.618 31.9276C50.4421 31.1035 50.4421 29.7645 49.618 28.9405C48.794 28.1164 47.4549 28.1164 46.6309 28.9405C46.2189 29.3525 46.0129 29.8675 46.0129 30.3825C45.4979 30.3825 44.9828 30.5885 44.6738 31.0005C44.4678 29.8675 44.8798 28.7344 45.7039 27.9104C46.4249 27.1894 47.3519 26.8804 48.176 26.8804C49 26.8804 50.0301 27.1894 50.6481 27.9104C52.1931 29.3525 52.1931 31.6186 50.7511 32.9576Z" fill="url(#paint1_linear)"/>
<path d="M45.2918 31.5155C44.7768 32.0306 44.7768 32.9576 45.2918 33.4726C45.8069 33.9876 46.7339 33.9876 47.2489 33.4726C47.7639 32.9576 47.7639 32.0306 47.2489 31.5155C46.9399 31.2065 46.6309 31.1035 46.2189 31.1035C45.9099 31.1035 45.4979 31.3095 45.2918 31.5155Z" fill="url(#paint2_linear)"/>
<path opacity="0.1" d="M46.3219 31.1035C45.9099 31.1035 45.6009 31.2065 45.2919 31.5155C45.1889 31.6185 45.0859 31.7215 45.0859 31.8245C45.4979 32.6486 46.2189 33.3696 47.043 33.6786C47.146 33.5756 47.249 33.5756 47.352 33.4726C47.867 32.9576 47.867 32.0306 47.352 31.5155C47.043 31.3095 46.6309 31.1035 46.3219 31.1035Z" fill="white"/>
<path opacity="0.1" d="M47.6609 32.5456C47.6609 32.2366 47.5579 31.8246 47.2489 31.6186C46.9399 31.3095 46.6309 31.2065 46.2189 31.2065C46.5279 31.8246 47.0429 32.3396 47.6609 32.5456Z" fill="white"/>
<path d="M79.3863 66.6401L80.1073 69.1122H82.6824L80.6223 70.5543L81.4463 72.9234L79.3863 71.4813L77.3262 72.9234L78.0472 70.5543L75.9871 69.1122H78.5622L79.3863 66.6401Z" fill="#EEBF2F"/>
<path d="M71.1459 66.6401L71.97 69.1122H74.4421L72.382 70.5543L73.206 72.9234L71.1459 71.4813L69.0858 72.9234L69.9099 70.5543L67.8498 69.1122H70.3219L71.1459 66.6401Z" fill="#EEBF2F"/>
<path d="M62.9056 66.6401L63.7296 69.1122H66.2017L64.1416 70.5543L64.9657 72.9234L62.9056 71.4813L60.8455 72.9234L61.6695 70.5543L59.6094 69.1122H62.1845L62.9056 66.6401Z" fill="#EEBF2F"/>
<path d="M54.6652 66.6401L55.4893 69.1122H58.0644L56.0043 70.5543L56.7253 72.9234L54.6652 71.4813L52.7081 72.9234L53.4292 70.5543L51.3691 69.1122H53.9442L54.6652 66.6401Z" fill="#EEBF2F"/>
<path d="M46.5279 66.6401L47.2489 69.1122H49.824L47.7639 70.5543L48.588 72.9234L46.5279 71.4813L44.4678 72.9234L45.1888 70.5543L43.2318 69.1122H45.7039L46.5279 66.6401Z" fill="#EEBF2F"/>
<defs>
<linearGradient id="paint0_linear" x1="52.8272" y1="30.4864" x2="76.7047" y2="30.4864" gradientUnits="userSpaceOnUse">
<stop stop-color="#0000D4"/>
<stop offset="1" stop-color="#7CC0DB"/>
</linearGradient>
<linearGradient id="paint1_linear" x1="46.2445" y1="32.5041" x2="50.781" y2="27.9677" gradientUnits="userSpaceOnUse">
<stop stop-color="#0000D4"/>
<stop offset="1" stop-color="#7CC0DB"/>
</linearGradient>
<linearGradient id="paint2_linear" x1="45.27" y1="33.5525" x2="47.2738" y2="31.5488" gradientUnits="userSpaceOnUse">
<stop stop-color="#433AF7"/>
<stop offset="1" stop-color="#AF45F8"/>
</linearGradient>
</defs>
</svg>
