<svg width="25" height="32" viewBox="0 0 25 32" fill="none" xmlns="http://www.w3.org/2000/svg">
<path d="M12.608 31C19.019 31 24.2161 25.8704 24.2161 19.5427C24.2161 13.2151 19.019 8.08545 12.608 8.08545C6.1971 8.08545 1 13.2151 1 19.5427C1 25.8704 6.1971 31 12.608 31Z" stroke="white" stroke-width="1.5" stroke-miterlimit="10" stroke-linecap="round" stroke-linejoin="round"/>
<path d="M8.98999 4.46734C8.98999 2.50754 10.6483 1 12.6081 1C14.5679 1 16.2262 2.50754 16.2262 4.46734C16.2262 6.42714 14.5679 8.08543 12.6081 8.08543" stroke="white" stroke-width="1.5" stroke-miterlimit="10" stroke-linecap="round" stroke-linejoin="round"/>
<path d="M19.5426 19.3921C19.241 18.9398 18.9395 18.7891 18.3365 18.7891C17.7335 18.7891 17.432 19.0906 17.1305 19.3921" stroke="white" stroke-width="1.5" stroke-miterlimit="10" stroke-linecap="round" stroke-linejoin="round"/>
<path d="M7.93464 19.3921C7.63314 18.9398 7.33163 18.7891 6.72861 18.7891C6.1256 18.7891 5.82409 19.0906 5.52258 19.3921" stroke="white" stroke-width="1.5" stroke-miterlimit="10" stroke-linecap="round" stroke-linejoin="round"/>
<path d="M9.74377 25.4221C10.196 26.1759 11.4021 26.7789 12.9096 26.7789C14.4171 26.7789 15.6232 26.1759 16.0754 25.4221" stroke="white" stroke-width="1.5" stroke-miterlimit="10" stroke-linecap="round" stroke-linejoin="round"/>
</svg>
