<svg width="18" height="22" viewBox="0 0 18 22" fill="none" xmlns="http://www.w3.org/2000/svg">
<path d="M11.5 5.1C11.8 4.6 12 4 12 3.3C12 1.5 10.5 0 8.6 0C6.7 0 5.3 1.4 5.3 3.2C5.3 3.8 5.7 4.2 6.3 4.2C6.9 4.2 7.3 3.8 7.3 3.2C7.3 2.5 7.9 1.9 8.7 1.9C9.5 1.9 10.1 2.5 10.1 3.2C10.1 3.9 9.4 4.6 8.7 4.6C3.9 4.6 0 8.5 0 13.2C0 17.9 3.9 21.8 8.7 21.8C13.5 21.8 17.4 17.9 17.4 13.2C17.4 9.4 14.9 6.2 11.5 5.1ZM8.7 19.8C5 19.8 2 16.9 2 13.2C2 9.5 5 6.6 8.7 6.6C12.4 6.6 15.4 9.6 15.4 13.2C15.4 16.8 12.4 19.8 8.7 19.8Z" fill="#002F79"/>
<path d="M14.2 12.6002C13.8 12.0002 13.2 11.7002 12.6 11.7002C11.9 11.7002 11.3 12.0002 11 12.6002C10.7 13.1002 10.9 13.7002 11.3 14.0002C11.7 14.3002 12.3 14.2002 12.6 13.8002C12.8 14.0002 13.1 14.2002 13.4 14.2002C13.6 14.2002 13.8 14.2002 13.9 14.1002C14.3 13.7002 14.5 13.0002 14.2 12.6002Z" fill="#002F79"/>
<path d="M6.5 12.6002C6.2 12.0002 5.5 11.7002 4.9 11.7002C4.3 11.7002 3.6 12.0002 3.3 12.6002C3 13.1002 3.2 13.7002 3.6 14.0002C4 14.3002 4.6 14.2002 4.9 13.8002C5.1 14.0002 5.4 14.2002 5.7 14.2002C5.9 14.2002 6.1 14.2002 6.2 14.1002C6.6 13.7002 6.7 13.0002 6.5 12.6002Z" fill="#002F79"/>
<path d="M11.4 16.3C10.9 16 10.3 16.2 10 16.6C9.9 16.7 9.5 17 8.8 17C8.1 17 7.7 16.7 7.6 16.6C7.3 16.1 6.7 15.9 6.2 16.2C5.7 16.5 5.5 17.1 5.8 17.6C6.3 18.4 7.4 19 8.7 19C10 19 11.2 18.5 11.6 17.6C12.1 17.1 11.9 16.6 11.4 16.3Z" fill="#002F79"/>
</svg>
