<svg width="25" height="41" viewBox="0 0 25 41" fill="none" xmlns="http://www.w3.org/2000/svg">
<g id="Icon/line/baby">
<path id="Path" fill-rule="evenodd" clip-rule="evenodd" d="M15.6389 37.2428C15.2428 37.0857 14.7931 37.2759 14.635 37.6727C14.5024 38.0117 14.1664 38.2266 13.7982 38.2266H10.9775C10.6102 38.2266 10.2742 38.0117 10.1416 37.6727C9.98262 37.2759 9.53295 37.0857 9.13764 37.2428C8.7415 37.3999 8.54961 37.8546 8.70773 38.2514C9.07916 39.1773 9.96944 39.7809 10.9775 39.7809H13.7982C14.8063 39.7809 15.6974 39.1773 16.068 38.2514C16.2269 37.8546 16.0342 37.3999 15.6389 37.2428Z" fill="#F9F9F9"/>
<path id="Shape" fill-rule="evenodd" clip-rule="evenodd" d="M24.7064 33.2497C24.4964 32.1666 23.8301 31.2242 22.8781 30.6703C23.051 30.5297 23.2133 30.3726 23.3615 30.199C24.0929 29.3475 24.4174 28.2231 24.2502 27.107C23.9792 25.2965 23.2125 23.61 22.0339 22.221C21.1511 21.1794 20.0656 20.3444 18.8517 19.7574C20.3374 18.17 21.2491 16.0288 21.2491 13.6809C21.2491 9.61336 18.5198 6.18241 14.8046 5.12419C15.3111 4.51241 15.587 3.76008 15.587 2.95815C15.587 1.37909 14.3096 0.0976562 12.7399 0.0976562C12.1066 0.0976562 11.5128 0.30434 11.0689 0.67637C10.578 1.098 10.3079 1.67672 10.3079 2.32157C10.3079 2.75147 10.6538 3.0987 11.0804 3.0987C11.5062 3.0987 11.8521 2.75147 11.8521 2.32157C11.8521 2.13969 11.9238 1.98261 12.0638 1.86687C12.2301 1.72632 12.4698 1.64365 12.7399 1.64365C13.4581 1.64365 14.0428 2.23063 14.0428 2.95815C14.0428 3.44593 13.8534 3.90063 13.5091 4.24786C13.1657 4.59509 12.7078 4.78523 12.2219 4.78523H12.2211H12.1659C7.38176 4.90924 3.52661 8.85276 3.52661 13.6809C3.52661 16.0288 4.43831 18.1618 5.92486 19.7574C4.71009 20.3444 3.62544 21.1794 2.74257 22.221C1.56322 23.61 0.796471 25.2965 0.525515 27.107C0.359154 28.2231 0.682818 29.3475 1.41415 30.199C1.56239 30.3726 1.72464 30.5297 1.89759 30.6703C0.945537 31.2242 0.279267 32.1666 0.0700799 33.2497C-0.140755 34.341 0.129377 35.4653 0.809648 36.3416L2.46338 38.4581C3.1313 39.3179 4.14594 39.7726 5.17541 39.7726C5.75932 39.7726 6.349 39.632 6.88185 39.3179C8.35357 38.4664 8.98443 36.631 8.34863 35.0437L7.34552 32.5469C7.27881 32.3816 7.19975 32.2245 7.1108 32.0674H12.7737C13.2003 32.0674 13.5462 31.7202 13.5462 31.2903C13.5462 30.8687 13.2003 30.5214 12.7737 30.5214H5.6432V28.8845C5.6432 28.6778 5.81367 28.5042 6.02369 28.5042H18.7528C18.962 28.5042 19.1325 28.6778 19.1325 28.8845V30.6289C18.3666 31.0506 17.7621 31.7202 17.4302 32.5469L16.4271 35.0437C15.7921 36.631 16.4229 38.4664 17.8938 39.3179C18.4275 39.632 19.0164 39.7726 19.6003 39.7726C20.6297 39.7726 21.6444 39.3179 22.3131 38.4581L23.966 36.3416C24.6463 35.4653 24.9164 34.341 24.7064 33.2497ZM5.07079 13.6809C5.07079 9.62989 8.35355 6.33123 12.3882 6.33123C16.4229 6.33123 19.7049 9.62989 19.7049 13.6809C19.7049 17.7319 16.4229 21.0223 12.3882 21.0223C8.35355 21.0223 5.07079 17.7319 5.07079 13.6809ZM6.91645 35.6307L5.91333 33.1257C5.66791 32.5221 5.1713 32.0426 4.55032 31.8277C3.92935 31.6127 3.24661 31.6789 2.67752 32.0096C2.10925 32.3403 1.71064 32.9024 1.58546 33.5473C1.4611 34.1921 1.62087 34.8618 2.02607 35.3826L3.67981 37.5073C4.25548 38.2431 5.3006 38.4498 6.10934 37.9786C6.91892 37.5073 7.26646 36.4987 6.91645 35.6307ZM18.7578 25.404C18.3311 25.404 17.9861 25.7512 17.9861 26.1811V26.95H6.79537V26.1811C6.79537 25.7512 6.44947 25.404 6.02368 25.404C5.59707 25.404 5.25117 25.7512 5.25117 26.1811V27.1153C4.57337 27.4129 4.09899 28.0991 4.09899 28.8845V29.9758C3.51425 29.9179 2.97152 29.6368 2.58444 29.1904C2.14712 28.6778 1.95276 27.9999 2.05324 27.3385C2.49467 24.3871 4.45395 21.9482 7.20386 20.89C8.66241 21.9482 10.4537 22.5765 12.3882 22.5765C14.322 22.5765 16.1133 21.9482 17.5718 20.89C20.3225 21.9482 22.281 24.3871 22.7233 27.3385C22.8229 27.9999 22.6294 28.6778 22.1912 29.1904C21.8042 29.6368 21.2614 29.9179 20.6767 29.9758V28.8845C20.6767 28.0991 20.2048 27.4212 19.5303 27.1153V26.1811C19.5303 25.7512 19.1844 25.404 18.7578 25.404ZM21.0967 37.5073L22.7505 35.3826C23.1548 34.8618 23.3154 34.1921 23.1902 33.5473C23.0651 32.9024 22.6673 32.3403 22.0982 32.0096C21.7498 31.8111 21.3586 31.7037 20.965 31.7037C20.7162 31.7037 20.4667 31.745 20.2262 31.8277C19.6052 32.0426 19.1078 32.5139 18.8624 33.1257L17.8593 35.6307C17.5101 36.4987 17.8568 37.5073 18.6664 37.9786C19.4759 38.4498 20.5202 38.2431 21.0967 37.5073Z" fill="#F9F9F9"/>
<path id="Path_2" fill-rule="evenodd" clip-rule="evenodd" d="M16.3867 30.7447C16.2434 30.6042 16.0441 30.5215 15.8407 30.5215C15.6381 30.5215 15.4388 30.6042 15.2946 30.7447C15.1513 30.8935 15.069 31.0919 15.069 31.2903C15.069 31.497 15.1513 31.6954 15.2946 31.8443C15.4388 31.9848 15.6381 32.0675 15.8407 32.0675C16.0441 32.0675 16.2434 31.9848 16.3867 31.8443C16.53 31.6954 16.6132 31.497 16.6132 31.2903C16.6132 31.0919 16.53 30.8935 16.3867 30.7447Z" fill="#F9F9F9"/>
<path id="Path_3" fill-rule="evenodd" clip-rule="evenodd" d="M14.5164 16.3264C14.1854 16.0536 13.6995 16.1115 13.431 16.4422C13.174 16.7563 12.7944 16.9382 12.3883 16.9382C11.9823 16.9382 11.6018 16.7563 11.3457 16.4422C11.0772 16.1115 10.5905 16.0536 10.2594 16.3264C9.92833 16.5992 9.87726 17.087 10.1457 17.4177C10.6967 18.0956 11.5145 18.4925 12.3883 18.4925C13.2621 18.4925 14.0791 18.0956 14.6301 17.4177C14.8986 17.087 14.8483 16.5992 14.5164 16.3264Z" fill="#F9F9F9"/>
<path id="Path_4" fill-rule="evenodd" clip-rule="evenodd" d="M10.4372 13.1353C9.73634 12.4243 8.59734 12.4243 7.89648 13.1353C7.59505 13.4329 7.59505 13.9207 7.89648 14.2266C8.19791 14.5325 8.68711 14.5325 8.98854 14.2266C9.08654 14.1274 9.24632 14.1274 9.34514 14.2266C9.49586 14.3754 9.69352 14.4581 9.89117 14.4581C10.0888 14.4581 10.2865 14.3754 10.4372 14.2266C10.7386 13.9207 10.7386 13.4329 10.4372 13.1353Z" fill="#F9F9F9"/>
<path id="Path_5" fill-rule="evenodd" clip-rule="evenodd" d="M16.8792 13.1269C16.1792 12.4242 15.0394 12.4242 14.3394 13.1269C14.0379 13.4328 14.0379 13.9206 14.3394 14.2265C14.4901 14.3753 14.6877 14.4579 14.8854 14.4579C15.0822 14.4579 15.2799 14.3753 15.4306 14.2265C15.5294 14.1272 15.6892 14.1272 15.788 14.2265C16.0894 14.5323 16.5778 14.5323 16.8792 14.2265C17.1815 13.9206 17.1815 13.4328 16.8792 13.1269Z" fill="#F9F9F9"/>
</g>
</svg>
