<svg width="32" height="32" viewBox="0 0 32 32" fill="none" xmlns="http://www.w3.org/2000/svg">
<path d="M15.608 31C22.019 31 27.2161 25.8704 27.2161 19.5427C27.2161 13.2151 22.019 8.08545 15.608 8.08545C9.1971 8.08545 4 13.2151 4 19.5427C4 25.8704 9.1971 31 15.608 31Z" stroke="black" stroke-width="1.5" stroke-miterlimit="10" stroke-linecap="round" stroke-linejoin="round"/>
<path d="M11.99 4.46734C11.99 2.50754 13.6483 1 15.6081 1C17.5679 1 19.2262 2.50754 19.2262 4.46734C19.2262 6.42714 17.5679 8.08543 15.6081 8.08543" stroke="black" stroke-width="1.5" stroke-miterlimit="10" stroke-linecap="round" stroke-linejoin="round"/>
<path d="M22.5426 19.3921C22.241 18.9398 21.9395 18.7891 21.3365 18.7891C20.7335 18.7891 20.432 19.0906 20.1305 19.3921" stroke="black" stroke-width="1.5" stroke-miterlimit="10" stroke-linecap="round" stroke-linejoin="round"/>
<path d="M10.9346 19.3921C10.6331 18.9398 10.3316 18.7891 9.72861 18.7891C9.1256 18.7891 8.82409 19.0906 8.52258 19.3921" stroke="black" stroke-width="1.5" stroke-miterlimit="10" stroke-linecap="round" stroke-linejoin="round"/>
<path d="M12.7438 25.4221C13.196 26.1759 14.4021 26.7789 15.9096 26.7789C17.4171 26.7789 18.6232 26.1759 19.0754 25.4221" stroke="black" stroke-width="1.5" stroke-miterlimit="10" stroke-linecap="round" stroke-linejoin="round"/>
</svg>
