<svg width="24" height="24" viewBox="0 0 24 24" fill="none" xmlns="http://www.w3.org/2000/svg">
<g clip-path="url(#clip0)">
<path d="M3.51953 11.9995C3.51953 16.6395 7.27953 20.4795 11.9995 20.4795C16.6395 20.4795 20.4795 16.7195 20.4795 11.9995C20.4795 7.27953 16.6395 3.51953 11.9995 3.51953C7.35953 3.51953 3.51953 7.35953 3.51953 11.9995ZM11.9995 4.31953C16.2395 4.31953 19.6795 7.75953 19.6795 11.9995C19.6795 16.2395 16.2395 19.6795 11.9995 19.6795C7.75953 19.6795 4.31953 16.2395 4.31953 11.9995C4.31953 7.75953 7.75953 4.31953 11.9995 4.31953Z" fill="#010101"/>
<path d="M21.5996 9.59961C21.5996 11.0396 21.5996 12.7196 21.5996 14.3196C22.8796 14.3196 23.9996 13.2796 23.9996 11.9196C23.9996 10.5596 22.9596 9.59961 21.5996 9.59961Z" fill="#010101"/>
<path d="M0 11.9996C0 13.2796 1.04 14.3996 2.4 14.3996C2.4 12.9596 2.4 11.1996 2.4 9.59961C1.04 9.59961 0 10.7196 0 11.9996Z" fill="#010101"/>
<path d="M11.9998 23.9996C13.2798 23.9996 14.3998 22.9596 14.3998 21.5996C12.9598 21.5996 11.2798 21.5996 9.67982 21.5996C9.59982 22.9596 10.7198 23.9996 11.9998 23.9996Z" fill="#010101"/>
<path d="M11.9996 0C10.7196 0 9.59961 1.04 9.59961 2.4C11.0396 2.4 12.7996 2.4 14.3996 2.4C14.3996 1.04 13.2796 0 11.9996 0Z" fill="#010101"/>
<path d="M17.1201 20.4801C18.0801 21.4401 19.5201 21.4401 20.4801 20.4801C21.4401 19.5201 21.4401 18.0801 20.4801 17.1201C19.5201 18.1601 18.2401 19.3601 17.1201 20.4801Z" fill="#010101"/>
<path d="M6.87981 3.5198C5.91981 2.5598 4.4798 2.5598 3.5198 3.5198C2.5598 4.4798 2.5598 5.91981 3.5198 6.87981C4.4798 5.83981 5.75981 4.6398 6.87981 3.5198Z" fill="#010101"/>
<path d="M17.1201 3.5198C18.0801 4.4798 19.3601 5.75981 20.4801 6.87981C21.4401 5.91981 21.4401 4.4798 20.4801 3.5198C19.5201 2.5598 18.0801 2.5598 17.1201 3.5198Z" fill="#010101"/>
<path d="M3.5198 20.4801C4.4798 21.4401 5.91981 21.4401 6.87981 20.4801C5.91981 19.5201 4.6398 18.2401 3.5198 17.1201C2.5598 18.0801 2.5598 19.6001 3.5198 20.4801Z" fill="#010101"/>
</g>
<defs>
<clipPath id="clip0">
<rect width="24" height="24" fill="white"/>
</clipPath>
</defs>
</svg>
