<svg width="16" height="16" viewBox="0 0 16 16" fill="none" xmlns="http://www.w3.org/2000/svg">
<path d="M13.3333 5.33337H2.66665C1.93027 5.33337 1.33331 5.93033 1.33331 6.66671V13.3334C1.33331 14.0698 1.93027 14.6667 2.66665 14.6667H13.3333C14.0697 14.6667 14.6666 14.0698 14.6666 13.3334V6.66671C14.6666 5.93033 14.0697 5.33337 13.3333 5.33337Z" stroke="#1F1F1F" stroke-width="1.5" stroke-linecap="round" stroke-linejoin="round"/>
<path d="M10.6666 14.6666V3.99996C10.6666 3.64634 10.5262 3.3072 10.2761 3.05715C10.0261 2.8071 9.68694 2.66663 9.33331 2.66663H6.66665C6.31302 2.66663 5.97389 2.8071 5.72384 3.05715C5.47379 3.3072 5.33331 3.64634 5.33331 3.99996V14.6666" stroke="#1F1F1F" stroke-width="1.5" stroke-linecap="round" stroke-linejoin="round"/>
</svg>
