<svg width="24" height="24" viewBox="0 0 24 24" fill="none" xmlns="http://www.w3.org/2000/svg">
<path d="M18.4 7.2002H5C3.3 7.2002 2 8.5002 2 10.2002V17.1002C2 18.8002 3.3 20.1002 5 20.1002H18.4C20.1 20.1002 21.4 18.8002 21.4 17.1002V10.2002C21.4 8.5002 20 7.2002 18.4 7.2002Z" stroke="#002F79" stroke-width="2" stroke-miterlimit="10" stroke-linecap="round" stroke-linejoin="round"/>
<path d="M17.3 13.7002C15.6 14.1002 13.7 14.3002 11.7 14.3002C7.8 14.3002 4.4 13.5002 2 12.2002" stroke="#002F79" stroke-width="2" stroke-miterlimit="10" stroke-linecap="round" stroke-linejoin="round"/>
<path d="M7.5 9V6C7.5 4.9 8.4 4 9.5 4H14C15.1 4 16 4.9 16 6V9" stroke="#002F79" stroke-width="2" stroke-miterlimit="10" stroke-linecap="round" stroke-linejoin="round"/>
</svg>
