<svg width="14" height="14" viewBox="0 0 14 14" fill="none" xmlns="http://www.w3.org/2000/svg">
<path fill-rule="evenodd" clip-rule="evenodd" d="M0 7C0 3.14004 3.14031 0 7 0C10.8597 0 14 3.14004 14 7C14 10.86 10.8597 14 7 14C3.14031 14 0 10.86 0 7ZM6.59481 9.51165L10.9025 4.6655C11.1001 4.44312 11.0799 4.10281 10.8575 3.90492C10.6354 3.70731 10.2946 3.72723 10.0975 3.94962L6.12931 8.41373L3.83627 6.57946C3.60419 6.39369 3.26496 6.43138 3.07946 6.66373C2.89369 6.89608 2.93138 7.23504 3.16346 7.42054L5.85577 9.57438C5.95512 9.65354 6.07385 9.69231 6.19204 9.69231C6.34092 9.69231 6.48873 9.63092 6.59481 9.51165Z" fill="white"/>
</svg>
