<svg width="32" height="32" viewBox="0 0 32 32" fill="none" xmlns="http://www.w3.org/2000/svg">
<path d="M21.3275 22.2668C22.5521 21.0464 20.8594 17.3627 17.547 14.0389C14.2345 10.7152 10.5565 9.01009 9.33197 10.2305C8.10743 11.4509 9.80004 15.1346 13.1125 18.4584C16.425 21.7821 20.103 23.4872 21.3275 22.2668Z" stroke="white" stroke-width="1.5" stroke-miterlimit="10" stroke-linecap="round" stroke-linejoin="round"/>
<path d="M22.3127 4.65206C21.4183 5.54645 20.0768 5.54645 19.3314 4.65206C18.437 3.75768 18.437 2.41611 19.3314 1.67079C20.2258 0.776403 21.5674 0.776403 22.3127 1.67079" stroke="white" stroke-width="1.5" stroke-miterlimit="10" stroke-linecap="round" stroke-linejoin="round"/>
<path d="M25.4432 8.67676C26.3376 9.57114 26.3376 10.9127 25.4432 11.658C24.5488 12.4034 23.2072 12.5524 22.4619 11.658C21.5675 10.7637 21.5675 9.42208 22.4619 8.67676" stroke="white" stroke-width="1.5" stroke-miterlimit="10" stroke-linecap="round" stroke-linejoin="round"/>
<path d="M29.0205 3.75757C29.0205 3.75757 33.0452 6.14259 29.6168 10.6145" stroke="white" stroke-width="1.5" stroke-miterlimit="10" stroke-linecap="round" stroke-linejoin="round"/>
<path d="M10.0897 6.58984C10.0897 6.58984 8.59909 5.39732 9.19535 3.90669C9.94067 1.96886 13.2201 1.52166 14.5616 4.80107C15.9032 8.08047 14.4126 11.658 13.2201 13.5958" stroke="white" stroke-width="1.5" stroke-miterlimit="10" stroke-linecap="round" stroke-linejoin="round"/>
<path d="M24.6979 21.9435C24.6979 21.9435 25.7413 23.7323 27.381 23.2851C29.4679 22.6888 30.3623 19.4094 27.0829 17.4716C23.8035 15.5338 19.9279 16.8753 17.6919 17.7697" stroke="white" stroke-width="1.5" stroke-miterlimit="10" stroke-linecap="round" stroke-linejoin="round"/>
<path d="M20.9712 22.5397L3.23264 30.4401C1.89106 31.0364 0.549488 29.6948 1.14574 28.3532L6.95923 15.2356" stroke="white" stroke-width="1.5" stroke-miterlimit="10" stroke-linecap="round" stroke-linejoin="round"/>
</svg>
