<svg width="39" height="40" viewBox="0 0 39 40" fill="none" xmlns="http://www.w3.org/2000/svg">
<path fill-rule="evenodd" clip-rule="evenodd" d="M25.662 22.4974C27.083 21.8372 28.4978 21.3557 29.8877 21.0608C30.2886 20.9757 30.5448 20.5808 30.46 20.1788C30.3752 19.7768 29.9818 19.5198 29.5804 19.605C27.9716 19.9463 26.3377 20.5172 24.7036 21.3062C23.7908 20.2145 22.7458 19.073 21.6184 17.9424C20.4203 16.741 19.2098 15.6323 18.0598 14.6777C19.055 13.4158 19.8672 12.003 20.4817 10.4568C21.4398 8.04605 21.9256 5.29174 21.9256 2.27017C21.9256 1.85923 21.5934 1.52612 21.1837 1.52612C20.7739 1.52612 20.4417 1.85923 20.4417 2.27017C20.4417 6.92582 19.2513 10.7789 16.9004 13.7523C16.4568 13.4129 16.0267 13.101 15.6159 12.8233C13.417 11.336 12.1072 10.9874 11.3752 11.6952L11.37 11.6999C11.3665 11.7032 11.3629 11.7064 11.3595 11.7097L11.3573 11.7118L11.3561 11.7132C11.1686 11.9016 11.0528 12.1295 11.009 12.4015L0.0577334 38.5896C-0.0587557 38.8682 0.00431169 39.1898 0.217331 39.4034C0.359344 39.5458 0.549139 39.6214 0.742199 39.6214C0.838804 39.6214 0.936298 39.6025 1.02897 39.5635L1.03105 39.5626L27.144 28.5814C27.3916 28.5412 27.6019 28.4397 27.7798 28.2792C27.7862 28.2738 27.7925 28.2682 27.7986 28.2626L27.8169 28.2455C27.8191 28.2433 27.8214 28.2413 27.8237 28.2392L27.8237 28.2392L27.8238 28.2392L27.8238 28.2392L27.8238 28.2392C27.8264 28.2369 27.8289 28.2347 27.8314 28.2322L27.8334 28.2299C27.8385 28.2249 27.8433 28.2194 27.8482 28.2141C28.5539 27.4799 28.2062 26.1666 26.7231 23.9616C26.4096 23.4956 26.0534 23.0049 25.662 22.4974ZM5.88493 34.3207C5.73008 35.2889 5.38574 35.9254 5.22005 36.1873L2.1276 37.4877L5.26828 29.9775C5.88278 31.5222 6.0958 33.002 5.88493 34.3207ZM9.13245 34.5421C9.35809 34.3376 10.1515 33.5133 10.4507 31.8031C10.7501 30.0921 10.577 27.1858 8.26999 22.7997L6.04646 28.1165C7.7262 31.3496 7.61194 33.8126 7.17729 35.3642L9.13245 34.5421ZM13.0974 32.8746L11.4981 33.5472C11.6505 33.1611 11.7849 32.7214 11.8823 32.2231C12.4761 29.1834 11.5067 25.4251 9.00231 21.0485L9.80512 19.1288C10.4405 19.8955 11.1646 20.9807 11.4578 21.6649C11.5785 21.9467 11.8522 22.1154 12.1398 22.1154C12.2375 22.1154 12.3369 22.0959 12.4324 22.0548C12.8089 21.8925 12.9829 21.455 12.8212 21.0774C12.3861 20.0622 11.2828 18.4826 10.4389 17.6132L11.6656 14.6798C11.8805 15.0749 12.1466 15.5078 12.4658 15.9823C12.6856 16.3091 12.9264 16.6479 13.1853 16.9961C15.7234 20.8582 15.6659 24.8112 15.1698 27.4488C14.6422 30.2542 13.5124 32.3081 13.0974 32.8746ZM15.2921 31.9517L18.8145 30.4705C19.1605 30.1659 20.7673 28.5651 20.8737 25.0523C19.8005 24.1472 18.6803 23.1145 17.5704 22.0017C17.1995 21.6297 16.8379 21.2566 16.4865 20.8843C17.1238 23.4849 16.9723 25.8933 16.6279 27.7247C16.3195 29.3643 15.8007 30.833 15.2921 31.9517ZM21.372 29.395C21.7692 28.5709 22.1199 27.509 22.2764 26.1825C22.7242 26.5254 23.1585 26.8404 23.5729 27.1207C24.0464 27.441 24.478 27.7077 24.8721 27.9232L21.372 29.395ZM18.6198 20.9493C20.4644 22.7991 22.3687 24.4489 23.9817 25.595C25.5415 26.7032 26.338 27.0018 26.6831 27.0806C26.6047 26.7346 26.307 25.9359 25.2017 24.3717C24.9316 23.9892 24.6324 23.5901 24.31 23.1795C24.104 23.2913 23.8979 23.4058 23.6919 23.5252C23.5751 23.5928 23.4475 23.625 23.3216 23.625C23.0651 23.625 22.8158 23.4916 22.6784 23.2529C22.4734 22.8971 22.595 22.442 22.9499 22.2365C23.0838 22.159 23.2178 22.0831 23.3518 22.0084C22.5153 21.0239 21.5722 20.0006 20.5691 18.9948C19.4026 17.8251 18.2126 16.7358 17.0871 15.8028C16.9964 15.8984 16.9046 15.9931 16.8114 16.0866C16.6666 16.2318 16.4766 16.3045 16.2867 16.3045C16.0969 16.3045 15.907 16.2318 15.7621 16.0866C15.4724 15.796 15.4724 15.3248 15.7621 15.0343C15.799 14.9973 15.8352 14.9596 15.8714 14.922C15.887 14.9058 15.9026 14.8895 15.9184 14.8733C15.6762 14.6891 15.4384 14.5134 15.2071 14.3491C13.6473 13.2409 12.8508 12.9422 12.5057 12.8635C12.5842 13.2095 12.882 14.0082 13.9872 15.5724C15.1299 17.19 16.7753 19.0996 18.6198 20.9493Z" fill="#414141"/>
<path d="M13.2472 22.0862C13.0316 21.608 12.4686 21.3948 11.9896 21.61C11.5255 21.8185 11.3106 22.3526 11.4937 22.8205C11.6377 23.1967 11.9977 23.4309 12.382 23.4309C12.4862 23.4309 12.5922 23.4136 12.6962 23.3773C13.1919 23.2042 13.4533 22.6626 13.2797 22.1677C13.2707 22.142 13.2584 22.111 13.2472 22.0862Z" fill="#414141"/>
<path d="M27.8447 12.7611C27.9952 12.8902 28.1924 12.9548 28.3896 12.9548C28.5868 12.9548 28.7839 12.8902 28.9344 12.7611C30.656 11.2837 33.4454 10.6065 35.4819 10.4655C35.906 10.4361 36.2221 10.1172 36.1879 9.7532C36.1536 9.38918 35.7828 9.119 35.3579 9.1473C33.0483 9.30726 29.8618 10.0949 27.8447 11.826C27.5438 12.0842 27.5438 12.5029 27.8447 12.7611Z" fill="#414141"/>
<path d="M37.413 8.24224C37.3869 8.23507 37.3604 8.22799 37.3336 8.2211C36.8403 8.09502 36.3408 8.40314 36.2179 8.90886C36.0951 9.41459 36.3955 9.92673 36.8888 10.0526L36.9358 10.0651C37.0157 10.0871 37.096 10.0976 37.175 10.0976C37.5813 10.0976 37.9532 9.81972 38.0635 9.39826C38.1952 8.8949 37.9041 8.37737 37.413 8.24224Z" fill="#414141"/>
<path d="M5.55561 7.5579H6.34926V8.35155C6.34926 8.78981 6.70458 9.14521 7.14292 9.14521C7.58125 9.14521 7.93657 8.78981 7.93657 8.35155V7.5579H8.73022C9.16855 7.5579 9.52387 7.20251 9.52387 6.76425C9.52387 6.326 9.16855 5.9706 8.73022 5.9706H7.93657V5.17695C7.93657 4.7387 7.58125 4.3833 7.14292 4.3833C6.70458 4.3833 6.34926 4.7387 6.34926 5.17695V5.9706H5.55561C5.11728 5.9706 4.76196 6.326 4.76196 6.76425C4.76196 7.20259 5.11728 7.5579 5.55561 7.5579Z" fill="#414141"/>
<path d="M22.6984 14.2245H23.4922V15.0181C23.4922 15.4564 23.8476 15.8117 24.2858 15.8117C24.7242 15.8117 25.0795 15.4564 25.0795 15.0181V14.2245H25.873C26.3113 14.2245 26.6667 13.8691 26.6667 13.4308C26.6667 12.9926 26.3113 12.6372 25.873 12.6372H25.0795V11.8435C25.0795 11.4052 24.7242 11.0498 24.2858 11.0498C23.8476 11.0498 23.4922 11.4052 23.4922 11.8435V12.6372H22.6984C22.2602 12.6372 21.9048 12.9926 21.9048 13.4308C21.9048 13.8692 22.2602 14.2245 22.6984 14.2245Z" fill="#414141"/>
<path d="M33.4921 31.685H32.6984V30.8913C32.6984 30.4531 32.343 30.0977 31.9048 30.0977C31.4665 30.0977 31.1111 30.4531 31.1111 30.8913V31.685H30.3175C29.8792 31.685 29.5238 32.0404 29.5238 32.4786C29.5238 32.9169 29.8792 33.2723 30.3175 33.2723H31.1111V34.0659C31.1111 34.5042 31.4665 34.8596 31.9048 34.8596C32.343 34.8596 32.6984 34.5042 32.6984 34.0659V33.2723H33.4921C33.9303 33.2723 34.2857 32.9169 34.2857 32.4786C34.2857 32.0404 33.9304 31.685 33.4921 31.685Z" fill="#414141"/>
<path fill-rule="evenodd" clip-rule="evenodd" d="M31.4285 2.95468C31.4285 4.26754 30.3604 5.33564 29.0476 5.33564C27.7347 5.33564 26.6666 4.26754 26.6666 2.95468C26.6666 1.64183 27.7347 0.57373 29.0476 0.57373C30.3604 0.57373 31.4285 1.64183 31.4285 2.95468ZM29.8412 2.95468C29.8412 2.51706 29.4852 2.16103 29.0476 2.16103C28.61 2.16103 28.2539 2.51706 28.2539 2.95468C28.2539 3.3923 28.61 3.74833 29.0476 3.74833C29.4852 3.74833 29.8412 3.3923 29.8412 2.95468Z" fill="#414141"/>
<path fill-rule="evenodd" clip-rule="evenodd" d="M31.4286 16.2879C31.4286 14.9751 32.4967 13.907 33.8095 13.907C35.1223 13.907 36.1905 14.9751 36.1905 16.2879C36.1905 17.6008 35.1224 18.6689 33.8095 18.6689C32.4967 18.6689 31.4286 17.6008 31.4286 16.2879ZM33.0159 16.2879C33.0159 16.7256 33.3719 17.0816 33.8095 17.0816C34.2472 17.0816 34.6032 16.7256 34.6032 16.2879C34.6032 15.8503 34.2472 15.4943 33.8095 15.4943C33.3719 15.4943 33.0159 15.8503 33.0159 16.2879Z" fill="#414141"/>
<path fill-rule="evenodd" clip-rule="evenodd" d="M17.1429 5.81186C17.1429 7.12472 16.0748 8.19281 14.7619 8.19281C13.4491 8.19281 12.381 7.12472 12.381 5.81186C12.381 4.499 13.4491 3.43091 14.7619 3.43091C16.0748 3.43091 17.1429 4.499 17.1429 5.81186ZM15.5556 5.81186C15.5556 5.37424 15.1996 5.01821 14.7619 5.01821C14.3243 5.01821 13.9683 5.37432 13.9683 5.81186C13.9683 6.24948 14.3243 6.60551 14.7619 6.60551C15.1996 6.60551 15.5556 6.24948 15.5556 5.81186Z" fill="#414141"/>
<path d="M33.3334 23.4309C33.3334 22.9063 32.9055 22.4785 32.381 22.4785C31.8564 22.4785 31.4286 22.9063 31.4286 23.4309C31.4286 23.9555 31.8564 24.3833 32.381 24.3833C32.9055 24.3833 33.3334 23.9554 33.3334 23.4309Z" fill="#414141"/>
<path d="M24.762 8.19285C25.2865 8.19285 25.7143 7.76504 25.7143 7.24047C25.7143 6.7159 25.2865 6.28809 24.762 6.28809C24.2374 6.28809 23.8096 6.7159 23.8096 7.24047C23.8097 7.76494 24.2375 8.19285 24.762 8.19285Z" fill="#414141"/>
<path d="M35.2382 27.2405C34.7136 27.2405 34.2858 27.6684 34.2858 28.1929C34.2858 28.7175 34.7136 29.1452 35.2382 29.1452C35.7626 29.1452 36.1905 28.7175 36.1905 28.1929C36.1905 27.6684 35.7626 27.2405 35.2382 27.2405Z" fill="#414141"/>
<path d="M10.4762 3.43088C11.0008 3.43088 11.4286 3.00308 11.4286 2.4785C11.4286 1.95393 11.0008 1.52612 10.4762 1.52612C9.95161 1.52612 9.5238 1.95393 9.5238 2.4785C9.5238 3.00308 9.95161 3.43088 10.4762 3.43088Z" fill="#414141"/>
</svg>
