<svg width="18" height="23" viewBox="0 0 18 23" fill="none" xmlns="http://www.w3.org/2000/svg">
<path d="M9.00001 4C9.60001 4 10 3.6 10 3V1C10 0.4 9.60001 0 9.00001 0C8.40001 0 8.00001 0.4 8.00001 1V3C8.00001 3.6 8.40001 4 9.00001 4Z" fill="#002F79"/>
<path d="M9.00001 22.5C9.82843 22.5 10.5 21.8284 10.5 21C10.5 20.1716 9.82843 19.5 9.00001 19.5C8.17158 19.5 7.50001 20.1716 7.50001 21C7.50001 21.8284 8.17158 22.5 9.00001 22.5Z" fill="#002F79"/>
<path d="M18 14C18 13.2 17.3 12.5 16.5 12.5C15.7 12.5 15 13.2 15 14C15 14.4 15.2 14.8 15.5 15.1V15.5C15.5 16.3 14.8 17 14 17C13.2 17 12.5 16.3 12.5 15.5V15.1C12.8 14.8 13 14.4 13 14C13 13.2 12.3 12.5 11.5 12.5C10.7 12.5 10 13.2 10 14C10 14.4 10.2 14.8 10.5 15.1V15.5C10.5 16.3 9.80001 17 9.00001 17C8.20001 17 7.50001 16.3 7.50001 15.5V15.1C7.80001 14.8 8.00001 14.4 8.00001 14C8.00001 13.2 7.30001 12.5 6.50001 12.5C5.70001 12.5 5.00001 13.2 5.00001 14C5.00001 14.4 5.20001 14.8 5.50001 15.1V15.5C5.50001 16.3 4.80001 17 4.00001 17C3.20001 17 2.50001 16.3 2.50001 15.5V15.1C2.80001 14.8 3.00001 14.4 3.00001 14C3.00001 13.2 2.30001 12.5 1.50001 12.5C0.700006 12.5 6.19888e-06 13.2 6.19888e-06 14C6.19888e-06 14.4 0.200006 14.8 0.500006 15.1V15.5C0.500006 17.4 2.10001 19 4.00001 19C5.00001 19 5.90001 18.6 6.50001 17.9C7.10001 18.6 8.00001 19 9.00001 19C10 19 10.9 18.6 11.5 17.9C12.1 18.6 13 19 14 19C15.9 19 17.5 17.4 17.5 15.5V15.1C17.8 14.8 18 14.4 18 14Z" fill="#002F79"/>
<path d="M3.00001 7.1V7.5C3.00001 9.4 4.60001 11 6.50001 11C7.10001 11 7.60001 10.8 8.10001 10.6C8.00001 10.7 8.00001 10.9 8.00001 11V12C8.00001 12.6 8.40001 13 9.00001 13C9.60001 13 10 12.6 10 12V11C10 10.9 10 10.7 9.90001 10.6C10.4 10.8 10.9 11 11.5 11C13.4 11 15 9.4 15 7.5V7.1C15.3 6.8 15.5 6.4 15.5 6C15.5 5.2 14.8 4.5 14 4.5C13.2 4.5 12.5 5.2 12.5 6C12.5 6.4 12.7 6.8 13 7.1V7.5C13 8.3 12.3 9 11.5 9C10.7 9 10 8.3 10 7.5V7.1C10.3 6.8 10.5 6.4 10.5 6C10.5 5.2 9.80001 4.5 9.00001 4.5C8.20001 4.5 7.50001 5.2 7.50001 6C7.50001 6.4 7.70001 6.8 8.00001 7.1V7.5C8.00001 8.3 7.30001 9 6.50001 9C5.70001 9 5.00001 8.3 5.00001 7.5V7.1C5.30001 6.8 5.50001 6.4 5.50001 6C5.50001 5.2 4.80001 4.5 4.00001 4.5C3.20001 4.5 2.50001 5.2 2.50001 6C2.50001 6.4 2.70001 6.8 3.00001 7.1ZM9.10001 10C9.10001 10 9.00001 10 9.10001 10C9.00001 10 9.00001 10 8.90001 10C8.90001 10 9.00001 10 9.10001 10C9.00001 10 9.10001 10 9.10001 10Z" fill="#002F79"/>
</svg>
