<svg width="24" height="24" viewBox="0 0 24 24" fill="none" xmlns="http://www.w3.org/2000/svg">
<circle cx="12" cy="12" r="11" stroke="#002F79" stroke-width="2"/>
<path d="M12 5V19" stroke="#002F79" stroke-width="2" stroke-linecap="round" stroke-linejoin="round"/>
<path d="M15.1818 7.54541H10.4091C9.81839 7.54541 9.25187 7.78007 8.83418 8.19776C8.41648 8.61546 8.18182 9.18197 8.18182 9.77268C8.18182 10.3634 8.41648 10.9299 8.83418 11.3476C9.25187 11.7653 9.81839 12 10.4091 12H13.5909C14.1816 12 14.7481 12.2346 15.1658 12.6523C15.5835 13.07 15.8182 13.6365 15.8182 14.2272C15.8182 14.8179 15.5835 15.3845 15.1658 15.8021C14.7481 16.2198 14.1816 16.4545 13.5909 16.4545H8.18182" stroke="#002F79" stroke-width="2" stroke-linecap="round" stroke-linejoin="round"/>
</svg>
