<svg width="60" height="60" viewBox="0 0 60 60" fill="none" xmlns="http://www.w3.org/2000/svg">
<path d="M25.3108 7.84851H12.2707C6.51478 7.84851 1.84863 12.5147 1.84863 18.2706C1.84863 24.0265 6.51478 28.6927 12.2707 28.6927H25.3108V7.84851Z" fill="#4CC2DE"/>
<path d="M16.0044 7.84851V18.3555C16.0044 21.7971 13.2153 24.5861 9.77378 24.5861H3.98047C5.88476 27.0818 8.88904 28.6927 12.2706 28.6927H25.3106V7.84851H16.0044Z" fill="#0000DA"/>
<path d="M53.0651 51.5193H22.7154C21.7774 51.5193 21.0161 50.758 21.0161 49.82V7.84851H44.331C50.0937 7.84851 54.7644 12.5203 54.7644 18.2819V49.8189C54.7644 50.758 54.0043 51.5193 53.0651 51.5193Z" fill="#9FBFF8"/>
<path d="M49.3891 9.15015C50.2183 10.6455 50.6907 12.3651 50.6907 14.1958V45.7463C50.6907 46.6832 49.9306 47.4433 48.9937 47.4433H21.0161V49.8212C21.0161 50.758 21.7762 51.5181 22.7131 51.5181H53.0674C54.0043 51.5181 54.7644 50.758 54.7644 49.8212V18.2706C54.7644 14.3453 52.5939 10.9276 49.3891 9.15015Z" fill="#5A90F4"/>
<path d="M37.0229 28.4558C36.5358 27.869 35.6273 27.7433 34.6236 28.0288C34.5273 28.0559 34.4265 28.0016 34.3993 27.9064C33.9915 26.5255 33.1419 25.5762 32.1608 25.5762C31.1798 25.5762 30.3313 26.5255 29.9223 27.9064C29.894 28.0016 29.7932 28.0559 29.6969 28.0288C28.6932 27.7433 27.7847 27.869 27.2976 28.4558C26.4819 29.4391 27.1582 31.3446 28.8065 32.7108C29.9223 33.6363 31.0234 33.9603 32.1597 33.9603C33.2959 33.9603 34.3959 33.6363 35.5129 32.7108C37.1623 31.3446 37.8375 29.4391 37.0229 28.4558Z" fill="#B3E59F"/>
<path d="M34.7971 39.5395C33.986 39.5259 33.2395 39.8035 32.6561 40.2748C32.3672 40.5081 31.9549 40.5081 31.666 40.2748C31.0826 39.8035 30.336 39.5259 29.5249 39.5395C27.8109 39.569 26.3768 40.9352 26.2703 42.6458C26.1502 44.575 27.6795 46.1768 29.5827 46.1768C30.3666 46.1768 31.0871 45.9049 31.6547 45.4507C31.9526 45.2116 32.3695 45.2116 32.6685 45.4507C33.2361 45.9049 33.9566 46.1768 34.7405 46.1768C36.6437 46.1768 38.173 44.575 38.0529 42.6458C37.9453 40.9352 36.5111 39.569 34.7971 39.5395Z" fill="#FFE07D"/>
<path d="M57.9717 36.5907L53.3429 31.9619L50.4961 34.8087L55.1249 39.4375C55.3661 39.6788 55.7581 39.6788 55.9994 39.4375L57.9717 37.4652C58.213 37.2239 58.213 36.8331 57.9717 36.5907Z" fill="#F4FBFF"/>
<path d="M57.9713 36.5907L53.3425 31.9619L52.1304 33.174L55.5481 36.5907C55.7894 36.832 55.7894 37.2239 55.5481 37.4652L54.3496 38.6638L55.1233 39.4375C55.3646 39.6788 55.7566 39.6788 55.9979 39.4375L57.9701 37.4652C58.2126 37.2239 58.2126 36.8331 57.9713 36.5907Z" fill="#E4F6FF"/>
<path d="M41.28 22.0191L57.7978 28.167C58.1071 28.2826 58.1932 28.679 57.9598 28.9124L47.4437 39.4285C47.2104 39.6619 46.8139 39.5758 46.6983 39.2665L40.5504 22.7487C40.3828 22.2933 40.8257 21.8503 41.28 22.0191Z" fill="#F4FBFF"/>
<path d="M57.7991 28.167L41.2812 22.0191C40.827 21.8503 40.384 22.2933 40.5528 22.7475L41.1691 24.4037L53.6359 29.0438C53.9452 29.1594 54.0313 29.5559 53.7979 29.7892L46.0539 37.5333L46.6996 39.2665C46.8151 39.5758 47.2116 39.6619 47.445 39.4285L57.9611 28.9124C58.1944 28.6779 58.1083 28.2814 57.7991 28.167Z" fill="#E4F6FF"/>
<path d="M28.4712 18.2864L26.5341 16.3912C25.8691 15.7409 26.329 14.6104 27.2602 14.6104H37.0615C37.9916 14.6104 38.4526 15.7398 37.7877 16.3912L35.8505 18.2864C33.7989 20.2915 30.5216 20.2915 28.4712 18.2864Z" fill="#80B4FB"/>
<path d="M14.7842 14.4574C12.8901 12.5633 9.80882 12.5633 7.91472 14.4574C6.02062 16.3515 6.02062 19.4329 7.91472 21.327C8.86177 22.274 10.1056 22.7475 11.3495 22.7475C12.3248 22.7475 13.2991 22.4553 14.1306 21.8741L15.7992 23.5428C16.1312 23.8747 16.6681 23.8747 17.0001 23.5428C17.332 23.2109 17.332 22.6739 17.0001 22.342L15.3325 20.6733C16.6557 18.7792 16.4744 16.1465 14.7842 14.4574ZM9.11552 20.1261C7.883 18.8936 7.883 16.8896 9.11552 15.6571C9.73178 15.0408 10.5406 14.7327 11.3495 14.7327C12.1583 14.7327 12.9683 15.0408 13.5834 15.6571C14.8159 16.8896 14.8159 18.8936 13.5834 20.1261C12.352 21.3587 10.348 21.3587 9.11552 20.1261Z" fill="black"/>
<path d="M54.7641 42.9324C54.2951 42.9324 53.9156 43.3119 53.9156 43.7809V49.8211C53.9156 50.289 53.535 50.6696 53.0671 50.6696H29.7704C29.3014 50.6696 28.9219 51.0491 28.9219 51.5181C28.9219 51.9871 29.3014 52.3666 29.7704 52.3666H53.0671C54.4707 52.3666 55.6137 51.2247 55.6137 49.82V43.7797C55.6126 43.313 55.2331 42.9324 54.7641 42.9324Z" fill="black"/>
<path d="M35.0075 27.0795C34.4105 25.6136 33.3547 24.7266 32.1595 24.7266C30.9644 24.7266 29.9086 25.6124 29.3116 27.0795C28.1957 26.9163 27.2249 27.212 26.6437 27.9144C25.512 29.2794 26.2246 31.6731 28.2648 33.3644C29.4373 34.3364 30.7118 34.8088 32.1595 34.8088C33.6073 34.8088 34.8817 34.3364 36.0542 33.3644C38.0944 31.6731 38.807 29.2794 37.6753 27.9144C37.0941 27.2131 36.1244 26.9175 35.0075 27.0795ZM34.9712 32.0583C34.1035 32.7776 33.2108 33.1118 32.1595 33.1118C31.1082 33.1118 30.2156 32.7765 29.3478 32.0583C28.0133 30.9515 27.5092 29.5298 27.9499 28.9985C28.096 28.8218 28.3679 28.7311 28.7134 28.7311C28.9366 28.7311 29.1915 28.7697 29.4634 28.8456C30.0049 28.9996 30.5747 28.6858 30.7344 28.1466C31.0346 27.1327 31.6203 26.4247 32.1584 26.4247C32.6965 26.4247 33.2833 27.1327 33.5824 28.1466C33.7421 28.6858 34.3119 28.9996 34.8534 28.8456C35.5456 28.6484 36.1256 28.7073 36.3669 28.9985C36.8098 29.5298 36.3057 30.9515 34.9712 32.0583Z" fill="black"/>
<path d="M29.5814 47.0253C30.5137 47.0253 31.4291 46.7081 32.1597 46.1315C32.8904 46.7081 33.8058 47.0253 34.7381 47.0253C35.8834 47.0253 36.9913 46.5462 37.7752 45.7113C38.5705 44.8639 38.9692 43.7571 38.8967 42.5926C38.763 40.4413 36.9675 38.7273 34.8095 38.6899C33.8499 38.6752 32.9108 38.9901 32.1586 39.5838C31.4075 38.9913 30.4707 38.6752 29.5078 38.6899C27.3497 38.7262 25.5542 40.4402 25.4205 42.5926C25.348 43.7571 25.7468 44.8639 26.542 45.7113C27.3293 46.5462 28.4361 47.0253 29.5814 47.0253ZM27.1164 42.6979C27.1957 41.4246 28.2594 40.4096 29.5384 40.3881C30.1172 40.3756 30.6825 40.5727 31.1323 40.9352C31.7281 41.4167 32.5936 41.4167 33.1895 40.9352C33.6381 40.5727 34.2022 40.3756 34.7823 40.3881C36.0612 40.4096 37.125 41.4246 37.2043 42.6979C37.2473 43.3901 37.0117 44.0471 36.5393 44.549C36.0669 45.0508 35.428 45.3284 34.7392 45.3284C34.1728 45.3284 33.6392 45.1414 33.1974 44.788C32.8916 44.5433 32.5268 44.421 32.1597 44.421C31.7938 44.421 31.4279 44.5433 31.1232 44.788C30.6814 45.1414 30.149 45.3284 29.5814 45.3284C28.8927 45.3284 28.2526 45.0519 27.7802 44.549C27.3101 44.0471 27.0733 43.3901 27.1164 42.6979Z" fill="black"/>
<path d="M48.8416 17.2C49.3106 17.2 49.6901 16.8205 49.6901 16.3515C49.6901 15.8826 49.3106 15.5031 48.8416 15.5031H42.0956C41.6266 15.5031 41.2471 15.8826 41.2471 16.3515C41.2471 16.8205 41.6266 17.2 42.0956 17.2H48.8416Z" fill="black"/>
<path d="M48.8416 44.149C49.3106 44.149 49.6901 43.7695 49.6901 43.3005C49.6901 42.8315 49.3106 42.452 48.8416 42.452H42.0956C41.6266 42.452 41.2471 42.8315 41.2471 43.3005C41.2471 43.7695 41.6266 44.149 42.0956 44.149H48.8416Z" fill="black"/>
<path d="M58.5718 35.9915L55.3273 32.7471L58.5627 29.5117C58.8776 29.1968 59.0091 28.7493 58.9139 28.3143C58.8187 27.8793 58.5129 27.527 58.096 27.3718L55.614 26.4485V18.2706C55.6128 12.0558 50.557 7 44.3422 7H12.2706C6.05584 7 1 12.0558 1 18.2706C1 24.4853 6.05584 29.5411 12.2706 29.5411H16.8518C17.3207 29.5411 17.7002 29.1616 17.7002 28.6926C17.7002 28.2237 17.3207 27.8442 16.8518 27.8442H12.2706C6.99156 27.8442 2.69699 23.5496 2.69699 18.2706C2.69699 12.9916 6.99156 8.69699 12.2706 8.69699H20.1664V49.8211C20.1664 51.2247 21.3083 52.3678 22.713 52.3678H25.7354C26.2044 52.3678 26.5839 51.9883 26.5839 51.5193C26.5839 51.0503 26.2044 50.6708 25.7354 50.6708H22.713C22.2452 50.6708 21.8645 50.2901 21.8645 49.8223V8.69699H44.3422C49.6213 8.69699 53.9158 12.9916 53.9158 18.2706V25.8164L41.5747 21.2239C41.0491 21.0279 40.477 21.1536 40.0817 21.549C39.6852 21.9455 39.5606 22.5176 39.7565 23.0421L45.9044 39.5622C46.0596 39.9791 46.4119 40.2849 46.8469 40.3801C47.2763 40.4741 47.7294 40.345 48.0443 40.0289L51.2786 36.7935L54.523 40.038C54.8085 40.3235 55.1846 40.4673 55.5607 40.4673C55.9368 40.4673 56.3118 40.3246 56.5984 40.038L58.5706 38.0657C58.8482 37.7882 59 37.42 59 37.028C59.0011 36.6361 58.8482 36.2679 58.5718 35.9915ZM47.2797 38.392L41.5623 23.0296L56.9246 28.747L47.2797 38.392ZM55.5618 38.6752L52.4794 35.5927L54.1265 33.9456L57.209 37.028L55.5618 38.6752Z" fill="black"/>
<path d="M32.1607 20.6404C30.5499 20.6404 29.0285 20.0196 27.8775 18.8936L25.9404 16.9984C25.3887 16.4592 25.221 15.6503 25.5121 14.9355C25.8033 14.2218 26.4898 13.7607 27.2601 13.7607H37.0614C37.8317 13.7607 38.5182 14.2218 38.8093 14.9355C39.1005 15.6492 38.9317 16.4592 38.3811 16.9984L36.444 18.8936C35.2919 20.0196 33.7705 20.6404 32.1607 20.6404ZM29.0658 17.6792C30.7719 19.3479 33.5496 19.3479 35.2556 17.6792L37.1928 15.784C37.2528 15.7251 37.2676 15.656 37.2358 15.5778C37.2041 15.4996 37.1452 15.46 37.0614 15.46H27.2601C27.1763 15.46 27.1174 15.4996 27.0856 15.5778C27.0539 15.656 27.0687 15.7251 27.1287 15.784L29.0658 17.6792Z" fill="black"/>
</svg>
