<svg width="22" height="19" viewBox="0 0 22 19" fill="none" xmlns="http://www.w3.org/2000/svg">
<path d="M17.4 4.2002H4C2.3 4.2002 1 5.5002 1 7.2002V14.1002C1 15.8002 2.3 17.1002 4 17.1002H17.4C19.1 17.1002 20.4 15.8002 20.4 14.1002V7.2002C20.4 5.5002 19 4.2002 17.4 4.2002Z" stroke="#002F79" stroke-width="2" stroke-miterlimit="10" stroke-linecap="round" stroke-linejoin="round"/>
<path d="M16.3 10.7002C14.6 11.1002 12.7 11.3002 10.7 11.3002C6.8 11.3002 3.4 10.5002 1 9.2002" stroke="#002F79" stroke-width="2" stroke-miterlimit="10" stroke-linecap="round" stroke-linejoin="round"/>
<path d="M6.5 6V3C6.5 1.9 7.4 1 8.5 1H13C14.1 1 15 1.9 15 3V6" stroke="#002F79" stroke-width="2" stroke-miterlimit="10" stroke-linecap="round" stroke-linejoin="round"/>
</svg>
