<svg width="32" height="32" viewBox="0 0 32 32" fill="none" xmlns="http://www.w3.org/2000/svg">
<path opacity="0.2" fill-rule="evenodd" clip-rule="evenodd" d="M16 32C24.8366 32 32 24.8366 32 16C32 7.16344 24.8366 0 16 0C7.16344 0 0 7.16344 0 16C0 24.8366 7.16344 32 16 32Z" fill="#1F1F1F"/>
<path d="M21.8931 11.0736C21.5526 10.7329 21.1483 10.4627 20.7033 10.2783C20.2584 10.0939 19.7814 9.99902 19.2998 9.99902C18.8181 9.99902 18.3412 10.0939 17.8962 10.2783C17.4512 10.4627 17.0469 10.7329 16.7064 11.0736L15.9998 11.7802L15.2931 11.0736C14.6053 10.3858 13.6724 9.99938 12.6998 9.99938C11.7271 9.99938 10.7942 10.3858 10.1064 11.0736C9.41863 11.7614 9.03223 12.6942 9.03223 13.6669C9.03223 14.6396 9.41863 15.5724 10.1064 16.2602L10.8131 16.9669L15.9998 22.1536L21.1864 16.9669L21.8931 16.2602C22.2337 15.9197 22.504 15.5155 22.6884 15.0705C22.8727 14.6255 22.9676 14.1486 22.9676 13.6669C22.9676 13.1852 22.8727 12.7083 22.6884 12.2633C22.504 11.8184 22.2337 11.4141 21.8931 11.0736V11.0736Z" stroke="white" stroke-width="1.5" stroke-linecap="round" stroke-linejoin="round"/>
</svg>
