<svg width="16" height="16" viewBox="0 0 16 16" fill="none" xmlns="http://www.w3.org/2000/svg">
<path d="M13.3333 8V14.6667H2.66667V8" stroke="#002F79" stroke-linecap="round" stroke-linejoin="round"/>
<path d="M14.6667 4.66699H1.33333V8.00033H14.6667V4.66699Z" stroke="#002F79" stroke-linecap="round" stroke-linejoin="round"/>
<path d="M8 14.667V4.66699" stroke="#002F79" stroke-linecap="round" stroke-linejoin="round"/>
<path d="M8 4.66634H5C4.55797 4.66634 4.13405 4.49075 3.82149 4.17819C3.50893 3.86562 3.33333 3.4417 3.33333 2.99967C3.33333 2.55765 3.50893 2.13372 3.82149 1.82116C4.13405 1.5086 4.55797 1.33301 5 1.33301C7.33333 1.33301 8 4.66634 8 4.66634Z" stroke="#002F79" stroke-linecap="round" stroke-linejoin="round"/>
<path d="M8 4.66634H11C11.442 4.66634 11.866 4.49075 12.1785 4.17819C12.4911 3.86562 12.6667 3.4417 12.6667 2.99967C12.6667 2.55765 12.4911 2.13372 12.1785 1.82116C11.866 1.5086 11.442 1.33301 11 1.33301C8.66667 1.33301 8 4.66634 8 4.66634Z" stroke="#002F79" stroke-linecap="round" stroke-linejoin="round"/>
</svg>
