<svg width="16" height="16" viewBox="0 0 16 16" fill="none" xmlns="http://www.w3.org/2000/svg">
<path d="M13.3332 8V14.6667H2.6665V8" stroke="#002F79" stroke-linecap="round" stroke-linejoin="round"/>
<path d="M14.6668 4.6665H1.3335V7.99984H14.6668V4.6665Z" stroke="#002F79" stroke-linecap="round" stroke-linejoin="round"/>
<path d="M8 14.6665V4.6665" stroke="#002F79" stroke-linecap="round" stroke-linejoin="round"/>
<path d="M8.00016 4.66683H5.00016C4.55814 4.66683 4.13421 4.49123 3.82165 4.17867C3.50909 3.86611 3.3335 3.44219 3.3335 3.00016C3.3335 2.55814 3.50909 2.13421 3.82165 1.82165C4.13421 1.50909 4.55814 1.3335 5.00016 1.3335C7.3335 1.3335 8.00016 4.66683 8.00016 4.66683Z" stroke="#002F79" stroke-linecap="round" stroke-linejoin="round"/>
<path d="M8 4.66683H11C11.442 4.66683 11.866 4.49123 12.1785 4.17867C12.4911 3.86611 12.6667 3.44219 12.6667 3.00016C12.6667 2.55814 12.4911 2.13421 12.1785 1.82165C11.866 1.50909 11.442 1.3335 11 1.3335C8.66667 1.3335 8 4.66683 8 4.66683Z" stroke="#002F79" stroke-linecap="round" stroke-linejoin="round"/>
</svg>
