<svg width="22" height="22" viewBox="0 0 22 22" fill="none" xmlns="http://www.w3.org/2000/svg">
<path fill-rule="evenodd" clip-rule="evenodd" d="M10.9995 4.25316C13.065 4.25316 14.4582 5.14535 15.2527 5.89087L18.357 2.85988C16.4504 1.08773 13.9694 0 10.9995 0C6.69744 0 2.98203 2.46879 1.17322 6.06198L4.72974 8.82409C5.62193 6.17197 8.09072 4.25316 10.9995 4.25316Z" fill="#EA4335"/>
<path fill-rule="evenodd" clip-rule="evenodd" d="M21.5592 11.2439C21.5592 10.3395 21.4858 9.67953 21.3269 8.99512H10.9996V13.0772H17.0616C16.9393 14.0916 16.2794 15.6193 14.8128 16.6459L18.2837 19.3347C20.3614 17.4159 21.5592 14.5927 21.5592 11.2439Z" fill="#4285F4"/>
<path fill-rule="evenodd" clip-rule="evenodd" d="M4.74203 13.176C4.50982 12.4916 4.37538 11.7583 4.37538 11.0006C4.37538 10.2428 4.50982 9.50952 4.72981 8.8251L1.17329 6.06299C0.427761 7.55404 0 9.22842 0 11.0006C0 12.7727 0.427761 14.4471 1.17329 15.9381L4.74203 13.176Z" fill="#FBBC05"/>
<path fill-rule="evenodd" clip-rule="evenodd" d="M10.9995 22.0004C13.9694 22.0004 16.4626 21.0226 18.2837 19.336L14.8127 16.6472C13.8839 17.295 12.6372 17.7472 10.9995 17.7472C8.09076 17.7472 5.62197 15.8284 4.74201 13.1763L1.18549 15.9384C2.9943 19.5316 6.69749 22.0004 10.9995 22.0004Z" fill="#34A853"/>
</svg>
