<svg width="32" height="32" viewBox="0 0 32 32" fill="none" xmlns="http://www.w3.org/2000/svg">
<path fill-rule="evenodd" clip-rule="evenodd" d="M0 16C0 7.16344 7.16344 0 16 0C24.8366 0 32 7.16344 32 16C32 24.8366 24.8366 32 16 32C7.16344 32 0 24.8366 0 16Z" fill="#DC4E41"/>
<path fill-rule="evenodd" clip-rule="evenodd" d="M13.0909 17.2802V15.5431H17.8982C17.9418 15.7964 17.9782 16.0497 17.9782 16.3827C17.9782 19.2779 16.0291 21.3335 13.0909 21.3335C10.2764 21.3335 8 19.068 8 16.2669C8 13.4657 10.2764 11.2002 13.0909 11.2002C14.4655 11.2002 15.6145 11.6996 16.5018 12.5248L15.12 13.8493C14.7418 13.4874 14.08 13.0676 13.0909 13.0676C11.3527 13.0676 9.93455 14.5008 9.93455 16.2669C9.93455 18.033 11.3527 19.4661 13.0909 19.4661C15.1055 19.4661 15.8618 18.0257 15.9782 17.2802H13.0909ZM22.5454 15.543H24V16.9906H22.5454V18.4383H21.0909V16.9906H19.6364V15.543H21.0909V14.0954H22.5454V15.543Z" fill="white"/>
</svg>
