<svg width="17" height="16" viewBox="0 0 17 16" fill="none" xmlns="http://www.w3.org/2000/svg">
<g clip-path="url(#clip0)">
<path d="M14.604 3.07455C14.246 2.73389 13.8211 2.46365 13.3534 2.27927C12.8856 2.0949 12.3843 2 11.878 2C11.3717 2 10.8704 2.0949 10.4027 2.27927C9.93495 2.46365 9.50999 2.73389 9.15207 3.07455L8.40927 3.78122L7.66647 3.07455C6.9435 2.38676 5.96295 2.00036 4.94052 2.00036C3.91809 2.00036 2.93754 2.38676 2.21457 3.07455C1.49161 3.76235 1.08545 4.69519 1.08545 5.66788C1.08545 6.64057 1.49161 7.57342 2.21457 8.26122L2.95738 8.96788L8.40927 14.1546L13.8612 8.96788L14.604 8.26122C14.962 7.92071 15.2461 7.51643 15.4399 7.07145C15.6337 6.62648 15.7335 6.14954 15.7335 5.66788C15.7335 5.18623 15.6337 4.70929 15.4399 4.26431C15.2461 3.81934 14.962 3.41505 14.604 3.07455V3.07455Z" stroke="#FF0A2D" stroke-width="1.5" stroke-linecap="round" stroke-linejoin="round"/>
</g>
<defs>
<clipPath id="clip0">
<rect width="16.8182" height="16" fill="white"/>
</clipPath>
</defs>
</svg>
