<svg width="68" height="65" viewBox="0 0 68 65" fill="none" xmlns="http://www.w3.org/2000/svg">
<g id="icon/help_color">
<g id="Group 35">
<path id="Fill 1" fill-rule="evenodd" clip-rule="evenodd" d="M30.1517 2.01758C14.992 2.01758 2.70337 12.6269 2.70337 25.7142C2.70337 32.0304 5.57121 37.7641 10.2368 42.0125L9.54305 44.1917C8.84993 46.3683 7.77665 48.4009 6.37313 50.1923C5.74849 50.9897 6.39873 52.152 7.39457 52.0195L10.1478 51.6534C12.2458 51.3744 14.2816 50.7395 16.1709 49.775L20.105 47.7661C23.2179 48.824 26.6042 49.4109 30.1517 49.4109C45.3114 49.4109 57.6 38.8016 57.6 25.7142C57.6 12.6269 45.3114 2.01758 30.1517 2.01758Z" fill="#98C8FF"/>
<g id="Group 7">
<path id="Fill 3" opacity="0.3" fill-rule="evenodd" clip-rule="evenodd" d="M29.44 15.4577C42.1178 15.4577 52.8359 22.5988 56.3661 32.4177C57.1667 30.1911 57.6 27.8276 57.6 25.3777C57.6 12.1226 44.9927 1.37769 29.44 1.37769C13.8874 1.37769 1.28003 12.1226 1.28003 25.3777C1.28003 27.827 1.71459 30.1879 2.51523 32.4132C6.04739 22.5962 16.7642 15.4577 29.44 15.4577Z" fill="white"/>
<path id="Fill 5" fill-rule="evenodd" clip-rule="evenodd" d="M5.33009 51.8433C5.15537 51.5962 4.98577 51.3466 4.82065 51.0945C4.88145 51.401 5.06577 51.6718 5.33009 51.8433Z" fill="white"/>
</g>
<path id="Fill 8" fill-rule="evenodd" clip-rule="evenodd" d="M29.44 1.37769C28.3578 1.37769 27.2909 1.43465 26.24 1.53641C40.2848 2.89129 51.2 13.0455 51.2 25.3777C51.2 37.7066 40.2905 47.8583 26.2515 49.2177C27.2986 49.3194 28.361 49.3777 29.44 49.3777C44.9926 49.3777 57.6 38.6327 57.6 25.3777C57.6 12.1226 44.9926 1.37769 29.44 1.37769Z" fill="#8BBBF1"/>
<path id="Fill 10" fill-rule="evenodd" clip-rule="evenodd" d="M57.6001 26.6577C56.8936 26.6577 56.3201 26.0842 56.3201 25.3777C56.3201 23.8621 56.1422 22.3466 55.7915 20.874C53.2776 10.3185 42.1953 2.65766 29.4401 2.65766C21.6936 2.65766 14.3201 5.48838 9.2091 10.4234C8.7003 10.9143 7.89006 10.9009 7.39918 10.3921C6.90766 9.8839 6.92174 9.07302 7.43054 8.58214C13.0145 3.19014 21.0369 0.0976562 29.4401 0.0976562C43.3665 0.0976562 55.4965 8.58598 58.2817 20.2807C58.6792 21.9479 58.8801 23.6625 58.8801 25.3777C58.8801 26.0842 58.3067 26.6577 57.6001 26.6577Z" fill="#1F1F1F"/>
<path id="Fill 12" fill-rule="evenodd" clip-rule="evenodd" d="M5.9388 53.3098C5.07224 53.3098 4.2684 52.8484 3.83192 52.0785C3.34168 51.2138 3.42424 50.1521 4.04248 49.3732C5.39096 47.6733 6.4124 45.7636 7.07864 43.6989L7.54008 42.2679C7.20792 41.9505 6.88472 41.6253 6.5724 41.2957C6.3644 41.0756 6.1596 40.8516 5.95992 40.6244C2.06104 36.2058 0.000244141 30.9335 0.000244141 25.3777C0.000244141 24.6705 0.573044 24.0977 1.28024 24.0977C1.9868 24.0977 2.56024 24.6705 2.56024 25.3777C2.56024 30.3005 4.3996 34.9873 7.87928 38.9309C8.05976 39.1351 8.24408 39.3373 8.43224 39.5364C8.886 40.0164 9.36728 40.4855 9.86456 40.9322L10.4815 41.4865L9.51512 44.4842C8.78808 46.7396 7.6892 48.8317 6.24792 50.7082L8.75096 50.3799C10.7657 50.1149 12.7074 49.5172 14.5206 48.6033L19.0338 46.3281L19.5401 46.4977C22.7042 47.5594 26.0354 48.0977 29.4402 48.0977C40.845 48.0977 51.0422 41.985 54.815 32.8874C55.0857 32.234 55.8358 31.9255 56.4879 32.1949C57.1407 32.4663 57.4505 33.2151 57.1798 33.8679C53.0153 43.9101 41.8678 50.6577 29.4402 50.6577C25.9407 50.6577 22.5116 50.1309 19.238 49.0922L15.6732 50.8887C13.6022 51.9332 11.3852 52.6154 9.0844 52.9181L6.25944 53.2887C6.15192 53.3028 6.04504 53.3098 5.9388 53.3098Z" fill="#1F1F1F"/>
<path id="Fill 14" fill-rule="evenodd" clip-rule="evenodd" d="M2.62842 19.298C2.47802 19.298 2.32506 19.2712 2.17594 19.2155C1.51482 18.9652 1.18138 18.2267 1.43098 17.5649C1.95962 16.1678 2.63546 14.8008 3.44058 13.5028C3.81306 12.9025 4.60282 12.7176 5.2025 13.09C5.80346 13.4625 5.98842 14.2516 5.61594 14.8526C4.89786 16.0097 4.29562 17.227 3.8265 18.4705C3.63258 18.9825 3.14554 19.298 2.62842 19.298Z" fill="#1F1F1F"/>
<path id="Fill 16" fill-rule="evenodd" clip-rule="evenodd" d="M47.9999 28.5718C58.2502 28.5718 66.5599 35.6534 66.5599 44.39C66.5599 48.6057 64.6207 52.4335 61.4662 55.2687L61.9353 56.7241C62.4038 58.1769 63.1295 59.5337 64.0787 60.7299C64.5011 61.2617 64.0614 62.038 63.3875 61.9491L61.5257 61.7052C60.1075 61.5183 58.7308 61.0947 57.4534 60.4508L54.7929 59.11C52.6886 59.8159 50.3987 60.2083 47.9999 60.2083C37.7497 60.2083 29.4399 53.126 29.4399 44.39C29.4399 35.6534 37.7497 28.5718 47.9999 28.5718Z" fill="#F8F9FB"/>
<path id="Fill 18" fill-rule="evenodd" clip-rule="evenodd" d="M61.9353 56.7241L61.4662 55.2687C64.6208 52.4335 66.56 48.6057 66.56 44.39C66.56 35.6534 58.2502 28.5718 48 28.5718C46.7961 28.5718 45.6198 28.6723 44.48 28.8591C53.0464 30.2614 59.52 36.6799 59.52 44.39C59.52 48.6057 57.5808 52.4335 54.4262 55.2687L54.8953 56.7241C55.2672 57.8755 55.8061 58.9635 56.4838 59.9619L57.4534 60.4508C58.7309 61.0947 60.1081 61.5183 61.5264 61.7046L63.3881 61.9491C64.0614 62.0374 64.5011 61.2617 64.0787 60.7292C63.1296 59.5337 62.4038 58.1769 61.9353 56.7241Z" fill="#E4EDF6"/>
<path id="Fill 20" opacity="0.3" fill-rule="evenodd" clip-rule="evenodd" d="M47.9999 42.6518C55.2799 42.6518 61.5775 46.2255 64.6182 51.4262C65.8579 49.3065 66.5599 46.9193 66.5599 44.39C66.5599 35.6534 58.2502 28.5718 47.9999 28.5718C37.7497 28.5718 29.4399 35.6534 29.4399 44.39C29.4399 46.9199 30.1407 49.3091 31.3798 51.43C34.4191 46.2275 40.718 42.6518 47.9999 42.6518Z" fill="white"/>
<g id="Group 24">
<path id="Fill 22" fill-rule="evenodd" clip-rule="evenodd" d="M54.8925 57.7263L58.0298 59.3078C59.1818 59.8882 60.4138 60.2677 61.6925 60.4354L62.3491 60.5218C61.6541 59.4671 61.1069 58.3266 60.7171 57.117L59.9933 54.8719L60.6109 54.317C63.6221 51.6105 65.2797 48.0853 65.2797 44.39C65.2797 36.3733 57.528 29.8517 47.9997 29.8517C38.472 29.8517 30.7197 36.3733 30.7197 44.39C30.7197 52.406 38.472 58.9276 47.9997 58.9276C50.1968 58.9276 52.3453 58.5807 54.3856 57.8966L54.8925 57.7263ZM63.4902 63.2361C63.4013 63.2361 63.3117 63.2303 63.2214 63.2181L61.359 62.9737C59.7949 62.7682 58.287 62.3042 56.8777 61.5938L54.6857 60.4892C52.5366 61.1522 50.2909 61.4876 47.9997 61.4876C37.0601 61.4876 28.1597 53.8178 28.1597 44.39C28.1597 34.9621 37.0601 27.2917 47.9997 27.2917C58.9398 27.2917 67.8397 34.9621 67.8397 44.39C67.8397 48.5602 66.104 52.5276 62.9328 55.6463L63.1536 56.3311C63.576 57.6425 64.2249 58.8546 65.0813 59.9337C65.599 60.5865 65.6688 61.4773 65.2579 62.2025C64.8925 62.8489 64.2173 63.2354 63.4902 63.2361Z" fill="#1F1F1F"/>
</g>
<path id="Fill 25" fill-rule="evenodd" clip-rule="evenodd" d="M58.8802 44.8128C58.8802 46.0499 57.8773 47.0528 56.6402 47.0528C55.403 47.0528 54.4001 46.0499 54.4001 44.8128C54.4001 43.5756 55.403 42.5728 56.6402 42.5728C57.8773 42.5728 58.8802 43.5756 58.8802 44.8128Z" fill="#FCAE02"/>
<path id="Fill 27" fill-rule="evenodd" clip-rule="evenodd" d="M50.5601 44.8128C50.5601 46.0499 49.5572 47.0528 48.3201 47.0528C47.083 47.0528 46.0801 46.0499 46.0801 44.8128C46.0801 43.5756 47.083 42.5728 48.3201 42.5728C49.5572 42.5728 50.5601 43.5756 50.5601 44.8128Z" fill="#FCAE02"/>
<path id="Fill 29" fill-rule="evenodd" clip-rule="evenodd" d="M42.24 44.8128C42.24 46.0499 41.2371 47.0528 40 47.0528C38.7629 47.0528 37.76 46.0499 37.76 44.8128C37.76 43.5756 38.7629 42.5728 40 42.5728C41.2371 42.5728 42.24 43.5756 42.24 44.8128Z" fill="#FCAE02"/>
<path id="Fill 31" fill-rule="evenodd" clip-rule="evenodd" d="M11.6786 16.9726C11.4149 16.9726 11.1487 16.8919 10.9202 16.723C10.3513 16.3038 10.2297 15.5025 10.6489 14.9329C14.1375 10.1994 19.7266 7.37256 25.5999 7.37256C26.3071 7.37256 26.8799 7.946 26.8799 8.65256C26.8799 9.35912 26.3071 9.93256 25.5999 9.93256C20.5369 9.93256 15.7183 12.3697 12.7103 16.4522C12.4594 16.7921 12.0716 16.9726 11.6786 16.9726Z" fill="white"/>
<path id="Fill 33" fill-rule="evenodd" clip-rule="evenodd" d="M8.32004 27.2126C7.61348 27.2126 7.04004 26.6391 7.04004 25.9326C7.04004 23.3002 7.5802 20.7562 8.6458 18.3703C8.93316 17.7246 9.69028 17.4353 10.336 17.7233C10.9818 18.0119 11.2711 18.769 10.9831 19.4142C10.0653 21.4692 9.60004 23.6625 9.60004 25.9326C9.60004 26.6391 9.0266 27.2126 8.32004 27.2126Z" fill="white"/>
</g>
</g>
</svg>
