<svg width="16" height="17" viewBox="0 0 16 17" fill="none" xmlns="http://www.w3.org/2000/svg">
<path d="M12.6667 2.5H3.33333C2.59695 2.5 2 3.09695 2 3.83333V13.1667C2 13.903 2.59695 14.5 3.33333 14.5H12.6667C13.403 14.5 14 13.903 14 13.1667V3.83333C14 3.09695 13.403 2.5 12.6667 2.5Z" stroke="#25282B" stroke-width="1.5" stroke-linecap="round" stroke-linejoin="round"/>
<path d="M5.66699 7.16699C6.21928 7.16699 6.66699 6.71928 6.66699 6.16699C6.66699 5.61471 6.21928 5.16699 5.66699 5.16699C5.11471 5.16699 4.66699 5.61471 4.66699 6.16699C4.66699 6.71928 5.11471 7.16699 5.66699 7.16699Z" stroke="#25282B" stroke-width="1.5" stroke-linecap="round" stroke-linejoin="round"/>
<path d="M13.9997 10.5003L10.6663 7.16699L3.33301 14.5003" stroke="#25282B" stroke-width="1.5" stroke-linecap="round" stroke-linejoin="round"/>
</svg>
