<svg width="32" height="32" viewBox="0 0 32 32" fill="none" xmlns="http://www.w3.org/2000/svg">
<path fill-rule="evenodd" clip-rule="evenodd" d="M0 15.6887C0 7.0207 7.02442 0 15.69 0C24.3556 0 31.38 7.0207 31.38 15.6887C31.38 24.3567 24.3556 31.3774 15.69 31.3774C7.02442 31.3774 0 24.3567 0 15.6887Z" fill="url(#paint0_linear)"/>
<path d="M20.1451 12.852C20.6753 12.852 21.1051 12.4222 21.1051 11.892C21.1051 11.3618 20.6753 10.932 20.1451 10.932C19.6149 10.932 19.1851 11.3618 19.1851 11.892C19.1851 12.4222 19.6149 12.852 20.1451 12.852Z" fill="white"/>
<path fill-rule="evenodd" clip-rule="evenodd" d="M12 16C12 18.206 13.794 20 16 20C18.206 20 20 18.206 20 16C20 13.794 18.206 12 16 12C13.794 12 12 13.794 12 16ZM14 16C14 14.897 14.897 14 16 14C17.103 14 18 14.897 18 16C18 17.103 17.103 18 16 18C14.897 18 14 17.103 14 16Z" fill="white"/>
<path fill-rule="evenodd" clip-rule="evenodd" d="M12 24H20C22.056 24 24 22.056 24 20V12C24 9.944 22.056 8 20 8H12C9.944 8 8 9.944 8 12V20C8 22.056 9.944 24 12 24ZM10 12C10 11.065 11.065 10 12 10H20C20.935 10 22 11.065 22 12V20C22 20.935 20.935 22 20 22H12C11.047 22 10 20.953 10 20V12Z" fill="white"/>
<defs>
<linearGradient id="paint0_linear" x1="0" y1="31.3774" x2="31.38" y2="31.3774" gradientUnits="userSpaceOnUse">
<stop stop-color="#ED0017"/>
<stop offset="1" stop-color="#C0009F"/>
</linearGradient>
</defs>
</svg>
