<svg width="24" height="24" viewBox="0 0 24 24" fill="none" xmlns="http://www.w3.org/2000/svg">
<path d="M14.5 6.1C14.8 5.6 15 5 15 4.3C15 2.5 13.5 1 11.6 1C9.7 1 8.3 2.4 8.3 4.2C8.3 4.8 8.7 5.2 9.3 5.2C9.9 5.2 10.3 4.8 10.3 4.2C10.3 3.5 10.9 2.9 11.7 2.9C12.5 2.9 13.1 3.5 13.1 4.2C13.1 4.9 12.4 5.6 11.7 5.6C6.9 5.6 3 9.5 3 14.2C3 18.9 6.9 22.8 11.7 22.8C16.5 22.8 20.4 18.9 20.4 14.2C20.4 10.4 17.9 7.2 14.5 6.1ZM11.7 20.8C8 20.8 5 17.9 5 14.2C5 10.5 8 7.6 11.7 7.6C15.4 7.6 18.4 10.6 18.4 14.2C18.4 17.8 15.4 20.8 11.7 20.8Z" fill="#002F79"/>
<path d="M17.2 13.6002C16.8 13.0002 16.2 12.7002 15.6 12.7002C14.9 12.7002 14.3 13.0002 14 13.6002C13.7 14.1002 13.9 14.7002 14.3 15.0002C14.7 15.3002 15.3 15.2002 15.6 14.8002C15.8 15.0002 16.1 15.2002 16.4 15.2002C16.6 15.2002 16.8 15.2002 16.9 15.1002C17.3 14.7002 17.5 14.0002 17.2 13.6002Z" fill="#002F79"/>
<path d="M9.5 13.6002C9.2 13.0002 8.5 12.7002 7.9 12.7002C7.3 12.7002 6.6 13.0002 6.3 13.6002C6 14.1002 6.2 14.7002 6.6 15.0002C7 15.3002 7.6 15.2002 7.9 14.8002C8.1 15.0002 8.4 15.2002 8.7 15.2002C8.9 15.2002 9.1 15.2002 9.2 15.1002C9.6 14.7002 9.7 14.0002 9.5 13.6002Z" fill="#002F79"/>
<path d="M14.4 17.2995C13.9 16.9995 13.3 17.1995 13 17.5995C12.9 17.6995 12.5 17.9995 11.8 17.9995C11.1 17.9995 10.7 17.6995 10.6 17.5995C10.3 17.0995 9.7 16.8995 9.2 17.1995C8.7 17.4995 8.5 18.0995 8.8 18.5995C9.3 19.3995 10.4 19.9995 11.7 19.9995C13 19.9995 14.2 19.4995 14.6 18.5995C15.1 18.0995 14.9 17.5995 14.4 17.2995Z" fill="#002F79"/>
</svg>
