<svg width="16" height="16" viewBox="0 0 16 16" fill="none" xmlns="http://www.w3.org/2000/svg">
<path fill-rule="evenodd" clip-rule="evenodd" d="M9.3335 3.33203V5.9987H13.1068C13.3001 5.99651 13.4915 6.03637 13.6679 6.11551C13.8442 6.19465 14.0012 6.31119 14.1281 6.45704C14.2549 6.60289 14.3485 6.77458 14.4024 6.9602C14.4563 7.14582 14.4692 7.34094 14.4402 7.53203L13.5202 13.532C13.4719 13.85 13.3105 14.1398 13.0654 14.348C12.8204 14.5563 12.5084 14.669 12.1868 14.6654H5.66683L5.66683 5.08203L7.3335 1.33203C7.86393 1.33203 8.37264 1.54274 8.74771 1.91782C9.12278 2.29289 9.3335 2.8016 9.3335 3.33203ZM3.66683 14.6654L3.66683 7.33203H2.66683C2.31321 7.33203 1.97407 7.47251 1.72402 7.72256C1.47397 7.9726 1.3335 8.31174 1.3335 8.66536V13.332C1.3335 13.6857 1.47397 14.0248 1.72402 14.2748C1.97407 14.5249 2.31321 14.6654 2.66683 14.6654H3.66683Z" fill="#FCAE02"/>
</svg>
