<svg width="14" height="14" viewBox="0 0 14 14" fill="none" xmlns="http://www.w3.org/2000/svg">
<path fill-rule="evenodd" clip-rule="evenodd" d="M8.33333 2.33301V4.99967H12.1067C12.2999 4.99749 12.4914 5.03734 12.6677 5.11649C12.8441 5.19563 13.0011 5.31216 13.1279 5.45802C13.2547 5.60387 13.3483 5.77556 13.4022 5.96118C13.4561 6.1468 13.469 6.34191 13.44 6.53301L12.52 12.533C12.4718 12.8509 12.3103 13.1407 12.0653 13.349C11.8203 13.5573 11.5082 13.67 11.1867 13.6663H4.66667L4.66667 4.08301L6.33333 0.333008C6.86377 0.333008 7.37247 0.543722 7.74755 0.918794C8.12262 1.29387 8.33333 1.80257 8.33333 2.33301ZM2.66667 13.6663L2.66667 6.33301H1.66667C1.31304 6.33301 0.973905 6.47348 0.723856 6.72353C0.473808 6.97358 0.333332 7.31272 0.333332 7.66634V12.333C0.333332 12.6866 0.473808 13.0258 0.723856 13.2758C0.973905 13.5259 1.31304 13.6663 1.66667 13.6663H2.66667Z" fill="#FCAE02"/>
</svg>
