<svg width="110" height="24" viewBox="0 0 110 24" fill="none" xmlns="http://www.w3.org/2000/svg">
<path d="M50.737 2.52021C50.737 1.52116 51.702 0.703751 52.8827 0.703751H58.6272C61.9196 0.703751 64.7124 1.79363 66.9148 3.93932C69.1513 6.08502 70.2753 8.77565 70.2753 12.0453C70.2753 15.3149 69.1513 18.0396 66.9148 20.1853C64.701 22.331 61.9196 23.3868 58.6272 23.3868H52.8827C51.702 23.3868 50.737 22.5694 50.737 21.5704V2.52021ZM63.6906 6.95919C62.2942 5.54008 60.6026 4.8135 58.6386 4.8135H55.0397V19.2771H58.6386C60.6026 19.2771 62.2942 18.5845 63.6906 17.1541C65.1097 15.735 65.8136 14.0434 65.8136 12.0453C65.8022 10.0812 65.1097 8.38965 63.6906 6.95919ZM73.1589 21.5704C73.1589 22.5694 74.1239 23.3868 75.3046 23.3868H88.2469C89.246 23.3868 90.0634 22.4445 90.0634 21.3319C90.0634 20.208 89.246 19.2771 88.2469 19.2771H77.4503V14.0775H86.158C87.157 14.0775 87.9744 13.1352 87.9744 12.0226C87.9744 10.91 87.157 9.96771 86.158 9.96771H77.4503V4.8135H88.2469C89.246 4.8135 90.0634 3.87121 90.0634 2.75862C90.0634 1.63469 89.246 0.703751 88.2469 0.703751H75.3046C74.1239 0.703751 73.1589 1.52116 73.1589 2.52021V21.5704ZM100.678 19.788C98.6234 19.788 96.841 19.209 95.3538 18.0964C94.6272 17.5855 93.4125 17.8807 92.7199 18.7321C92.0842 19.7312 92.175 20.9119 92.9924 21.5136L93.0832 21.6044C95.297 23.1484 97.806 23.909 100.678 23.909C103.131 23.909 105.151 23.2733 106.786 21.9677C108.455 20.6621 109.261 18.9478 109.261 16.8248C109.261 12.8627 106.48 10.2856 101.916 9.71794C99.9517 9.44547 98.6461 9.08218 98.0444 8.68483C97.4427 8.26477 97.1362 7.62901 97.1703 6.74349C97.2043 5.25626 98.5894 4.29126 100.678 4.29126C102.37 4.29126 104.039 4.80214 105.64 5.8012C106.491 6.28937 107.581 5.85796 108.183 4.85891C108.762 3.85985 108.546 2.76998 107.694 2.20233C105.674 0.851338 103.312 0.192871 100.678 0.192871C98.4418 0.192871 96.5345 0.794574 94.9905 2.04339C93.4465 3.25815 92.6972 4.82485 92.6972 6.76619C92.6972 10.7851 94.9678 12.9422 100.077 13.5779C102.131 13.8163 103.494 14.3386 104.073 14.9743C104.675 15.6101 104.799 16.0983 104.799 16.8476C104.799 18.6413 103.131 19.788 100.678 19.788ZM35.2289 17.0633C35.9669 16.3253 36.8978 15.8826 37.8628 15.735L32.561 1.4871C32.1637 0.612928 30.9602 0.215577 29.8363 0.578869C28.7464 1.03298 28.1674 2.12286 28.508 3.0538L34.4002 18.1758C34.6159 17.7785 34.8883 17.4038 35.2289 17.0633ZM47.263 0.578869C46.1391 0.215577 44.9356 0.612928 44.5383 1.4871L39.2365 15.735C40.2015 15.8712 41.1324 16.314 41.8704 17.0633C42.211 17.4038 42.4834 17.7785 42.6991 18.1872L48.5913 3.06515C48.9205 2.12286 48.3529 1.03298 47.263 0.578869ZM36.3415 18.1645C35.1154 19.3906 35.1154 21.366 36.3415 22.5808C37.5676 23.8069 39.543 23.8069 40.7578 22.5808C41.9839 21.3546 41.9839 19.3792 40.7578 18.1645C39.543 16.9497 37.5563 16.9497 36.3415 18.1645Z" fill="white"/>
<path d="M21.4806 20.4806C18.7559 23.2053 15.0549 24.3406 11.5128 23.9092C12.7389 22.5695 13.3746 20.8893 13.4087 19.1864C15.1116 19.0842 16.7919 18.3917 18.0861 17.0861C20.9016 14.2706 20.9016 9.71807 18.0861 6.90255C15.2706 4.08704 10.7181 4.08704 7.90256 6.90255C6.52886 8.27625 5.83633 10.0587 5.80227 11.8411C4.11069 11.9319 2.45317 12.6244 1.14759 13.9073C0.557242 10.2403 1.68118 6.34626 4.5194 3.51939C6.85809 1.16935 9.92337 0 13 0C16.0766 0 19.1419 1.16935 21.4806 3.51939C26.1693 8.19678 26.1693 15.8032 21.4806 20.4806Z" fill="white"/>
<path d="M2.81654 15.6446C0.943315 17.5178 0.943315 20.5604 2.81654 22.4336C4.68977 24.3068 7.73234 24.3068 9.60557 22.4336C11.4788 20.5604 11.4788 17.5178 9.60557 15.6446C8.66328 14.7023 7.43716 14.2368 6.21105 14.2368C4.98494 14.2368 3.75883 14.7136 2.81654 15.6446Z" fill="white"/>
<path opacity="0.1" d="M6.21107 14.2368C4.98495 14.2368 3.75884 14.7023 2.81655 15.6446C2.47597 15.9852 2.2035 16.3598 1.98779 16.7572C3.25932 19.6862 5.65478 22.0135 8.64058 23.1715C8.98117 22.9672 9.3104 22.7174 9.60558 22.4223C11.4788 20.549 11.4788 17.5064 9.60558 15.6332C8.66329 14.7136 7.43718 14.2368 6.21107 14.2368Z" fill="white"/>
<path opacity="0.1" d="M11.0017 18.8573C10.9563 17.688 10.4909 16.5413 9.60533 15.6558C8.67439 14.7249 7.44828 14.248 6.22217 14.248C6.96011 16.4619 8.75386 18.1989 11.0017 18.8573Z" fill="white"/>
</svg>
