<svg width="109" height="24" viewBox="0 0 109 24" fill="none" xmlns="http://www.w3.org/2000/svg">
<g clip-path="url(#clip0)">
<path d="M49.737 2.51972C49.737 1.52067 50.702 0.703263 51.8827 0.703263H57.6273C60.9196 0.703263 63.7124 1.79314 65.9149 3.93884C68.1514 6.08453 69.2753 8.77516 69.2753 12.0448C69.2753 15.3144 68.1514 18.0391 65.9149 20.1848C63.701 22.3305 60.9196 23.3863 57.6273 23.3863H51.8827C50.702 23.3863 49.737 22.5689 49.737 21.5699V2.51972ZM62.6906 6.9587C61.2942 5.53959 59.6027 4.81301 57.6386 4.81301H54.0397V19.2766H57.6386C59.6027 19.2766 61.2942 18.5841 62.6906 17.1536C64.1097 15.7345 64.8136 14.0429 64.8136 12.0448C64.8023 10.0807 64.1097 8.38917 62.6906 6.9587ZM72.1589 21.5699C72.1589 22.5689 73.1239 23.3863 74.3046 23.3863H87.2469C88.246 23.3863 89.0634 22.444 89.0634 21.3315C89.0634 20.2075 88.246 19.2766 87.2469 19.2766H76.4503V14.077H85.158C86.157 14.077 86.9745 13.1347 86.9745 12.0221C86.9745 10.9095 86.157 9.96722 85.158 9.96722H76.4503V4.81301H87.2469C88.246 4.81301 89.0634 3.87072 89.0634 2.75813C89.0634 1.6342 88.246 0.703263 87.2469 0.703263H74.3046C73.1239 0.703263 72.1589 1.52067 72.1589 2.51972V21.5699ZM99.6783 19.7875C97.6235 19.7875 95.8411 19.2085 94.3538 18.0959C93.6272 17.585 92.4125 17.8802 91.72 18.7316C91.0842 19.7307 91.175 20.9114 91.9924 21.5131L92.0833 21.6039C94.2971 23.1479 96.8061 23.9086 99.6783 23.9086C102.131 23.9086 104.151 23.2728 105.786 21.9672C107.455 20.6616 108.261 18.9473 108.261 16.8244C108.261 12.8622 105.48 10.2851 100.916 9.71745C98.9518 9.44498 97.6462 9.08169 97.0445 8.68434C96.4428 8.26429 96.1362 7.62852 96.1703 6.743C96.2043 5.25577 97.5894 4.29077 99.6783 4.29077C101.37 4.29077 103.039 4.80165 104.64 5.80071C105.491 6.28888 106.581 5.85747 107.183 4.85842C107.762 3.85936 107.546 2.76949 106.694 2.20184C104.674 0.85085 102.312 0.192383 99.6783 0.192383C97.4418 0.192383 95.5345 0.794086 93.9905 2.0429C92.4465 3.25766 91.6973 4.82436 91.6973 6.7657C91.6973 10.7846 93.9678 12.9417 99.0766 13.5774C101.132 13.8158 102.494 14.3381 103.073 14.9738C103.675 15.6096 103.799 16.0978 103.799 16.8471C103.799 18.6408 102.131 19.7875 99.6783 19.7875ZM34.229 17.0628C34.9669 16.3248 35.8978 15.8821 36.8628 15.7345L31.561 1.48661C31.1637 0.61244 29.9603 0.215089 28.8363 0.578381C27.7465 1.0325 27.1675 2.12237 27.5081 3.05331L33.4002 18.1754C33.6159 17.778 33.8884 17.4034 34.229 17.0628ZM46.263 0.578381C45.1391 0.215089 43.9357 0.61244 43.5383 1.48661L38.2365 15.7345C39.2015 15.8707 40.1325 16.3135 40.8704 17.0628C41.211 17.4034 41.4834 17.778 41.6992 18.1867L47.5913 3.06466C47.9205 2.12237 47.3529 1.0325 46.263 0.578381ZM35.3415 18.164C34.1154 19.3901 34.1154 21.3655 35.3415 22.5803C36.5677 23.8064 38.5431 23.8064 39.7578 22.5803C40.9839 21.3542 40.9839 19.3788 39.7578 18.164C38.5431 16.9492 36.5563 16.9492 35.3415 18.164Z" fill="url(#paint0_linear)"/>
<path d="M20.4806 20.4806C17.7559 23.2053 14.0549 24.3406 10.5128 23.9092C11.7389 22.5695 12.3747 20.8893 12.4087 19.1864C14.1116 19.0842 15.7919 18.3917 17.0861 17.0861C19.9016 14.2706 19.9016 9.71807 17.0861 6.90255C14.2706 4.08704 9.71807 4.08704 6.90256 6.90255C5.52886 8.27625 4.83633 10.0587 4.80227 11.8411C3.11069 11.9319 1.45317 12.6244 0.147592 13.9073C-0.442758 10.2403 0.681177 6.34626 3.5194 3.51939C5.85809 1.16935 8.92337 0 12 0C15.0766 0 18.1419 1.16935 20.4806 3.51939C25.1693 8.19678 25.1693 15.8032 20.4806 20.4806Z" fill="url(#paint1_linear)"/>
<path d="M1.81645 15.6451C-0.0567769 17.5183 -0.0567769 20.5609 1.81645 22.4341C3.68968 24.3073 6.73225 24.3073 8.60547 22.4341C10.4787 20.5609 10.4787 17.5183 8.60547 15.6451C7.66319 14.7028 6.43707 14.2373 5.21096 14.2373C3.98485 14.2373 2.75874 14.7141 1.81645 15.6451Z" fill="url(#paint2_linear)"/>
<path opacity="0.1" d="M5.21097 14.2373C3.98486 14.2373 2.75875 14.7028 1.81646 15.6451C1.47588 15.9857 1.20341 16.3603 0.987701 16.7576C2.25922 19.6867 4.65468 22.014 7.64049 23.172C7.98108 22.9677 8.31031 22.7179 8.60549 22.4227C10.4787 20.5495 10.4787 17.5069 8.60549 15.6337C7.6632 14.7141 6.43709 14.2373 5.21097 14.2373Z" fill="white"/>
<path opacity="0.1" d="M10.0019 18.8573C9.95647 17.688 9.49101 16.5413 8.60548 15.6558C7.67454 14.7249 6.44843 14.248 5.22232 14.248C5.96026 16.4619 7.75401 18.1989 10.0019 18.8573Z" fill="white"/>
</g>
<defs>
<linearGradient id="paint0_linear" x1="27.4111" y1="12.0461" x2="108.275" y2="12.0461" gradientUnits="userSpaceOnUse">
<stop stop-color="#0000DA"/>
<stop offset="1" stop-color="#4CC2DE"/>
</linearGradient>
<linearGradient id="paint1_linear" x1="5.11757" y1="18.8801" x2="20.4833" y2="3.5144" gradientUnits="userSpaceOnUse">
<stop stop-color="#0000DA"/>
<stop offset="1" stop-color="#4CC2DE"/>
</linearGradient>
<linearGradient id="paint2_linear" x1="1.81683" y1="22.4357" x2="8.60457" y2="15.648" gradientUnits="userSpaceOnUse">
<stop stop-color="#4437FD"/>
<stop offset="1" stop-color="#CB43FE"/>
</linearGradient>
<clipPath id="clip0">
<rect width="108.272" height="24" fill="white"/>
</clipPath>
</defs>
</svg>
