<svg width="24" height="24" viewBox="0 0 24 24" fill="none" xmlns="http://www.w3.org/2000/svg">
<g clip-path="url(#clip0)">
<path d="M4.87704 8.34863C3.56091 8.34863 1.93511 8.34863 0.386719 8.34863C0.386719 9.58734 1.39317 10.5938 2.63188 10.5938C3.87059 10.5938 4.87704 9.58734 4.87704 8.34863Z" fill="#010101"/>
<path d="M11.1485 8.34863C9.8324 8.34863 8.20659 8.34863 6.6582 8.34863C6.6582 9.58734 7.66465 10.5938 8.90336 10.5938C10.1421 10.5938 11.1485 9.58734 11.1485 8.34863Z" fill="#010101"/>
<path d="M17.3419 8.34863C16.0258 8.34863 14.3999 8.34863 12.8516 8.34863C12.8516 9.58734 13.858 10.5938 15.0967 10.5938C16.3354 10.5938 17.3419 9.58734 17.3419 8.34863Z" fill="#010101"/>
<path d="M23.6134 8.34863C22.2972 8.34863 20.6714 8.34863 19.123 8.34863C19.123 9.58734 20.1295 10.5938 21.3682 10.5938C22.6069 10.5938 23.6134 9.58734 23.6134 8.34863Z" fill="#010101"/>
<path d="M22.8387 2H1.16129C0.541935 2 0 2.54194 0 3.16129V5.25161C0 5.87097 0.541935 6.4129 1.16129 6.4129H22.8387C23.4581 6.4129 24 5.87097 24 5.25161V3.16129C24 2.54194 23.4581 2 22.8387 2ZM0.774194 5.25161V3.16129C0.774194 2.92903 0.929032 2.77419 1.16129 2.77419H11.6129V5.63871H1.16129C0.929032 5.63871 0.774194 5.48387 0.774194 5.25161ZM23.2258 5.25161C23.2258 5.48387 23.071 5.63871 22.8387 5.63871H12.3871V2.77419H22.8387C23.071 2.77419 23.2258 2.92903 23.2258 3.16129V5.25161Z" fill="#010101"/>
<path d="M2.63188 22.5157C3.87059 22.5157 4.87704 21.5092 4.87704 20.2705C3.56091 20.2705 1.93511 20.2705 0.386719 20.2705C0.386719 21.5092 1.39317 22.5157 2.63188 22.5157Z" fill="#010101"/>
<path d="M8.90336 22.5157C10.1421 22.5157 11.1485 21.5092 11.1485 20.2705C9.8324 20.2705 8.20659 20.2705 6.6582 20.2705C6.6582 21.5092 7.66465 22.5157 8.90336 22.5157Z" fill="#010101"/>
<path d="M15.0967 22.5157C16.3354 22.5157 17.3419 21.5092 17.3419 20.2705C16.0258 20.2705 14.3999 20.2705 12.8516 20.2705C12.8516 21.5092 13.858 22.5157 15.0967 22.5157Z" fill="#010101"/>
<path d="M21.3682 22.5157C22.6069 22.5157 23.6134 21.5092 23.6134 20.2705C22.2972 20.2705 20.6714 20.2705 19.123 20.2705C19.123 21.5092 20.1295 22.5157 21.3682 22.5157Z" fill="#010101"/>
<path d="M22.8387 13.8447H1.16129C0.541935 13.8447 0 14.3867 0 15.006V17.0963C0 17.7157 0.541935 18.2576 1.16129 18.2576H22.8387C23.4581 18.2576 24 17.7157 24 17.0963V15.006C24 14.3867 23.4581 13.8447 22.8387 13.8447ZM0.774194 17.0963V15.006C0.774194 14.7738 0.929032 14.6189 1.16129 14.6189H11.6129V17.4834H1.16129C0.929032 17.4834 0.774194 17.3286 0.774194 17.0963ZM23.2258 17.0963C23.2258 17.3286 23.071 17.4834 22.8387 17.4834H12.3871V14.6189H22.8387C23.071 14.6189 23.2258 14.7738 23.2258 15.006V17.0963Z" fill="#010101"/>
</g>
<defs>
<clipPath id="clip0">
<rect width="24" height="24" fill="white"/>
</clipPath>
</defs>
</svg>
