<svg width="22" height="22" viewBox="0 0 22 22" fill="none" xmlns="http://www.w3.org/2000/svg">
<path d="M1 20.7999V19.8999C1 19.2999 1.4 18.8999 2 18.8999H4.7C5.3 18.8999 5.7 19.2999 5.7 19.8999V20.7999" stroke="#002F79" stroke-width="2" stroke-miterlimit="10" stroke-linecap="round" stroke-linejoin="round"/>
<path d="M8.5 20.7999V19.8999C8.5 19.2999 8.9 18.8999 9.5 18.8999H12.2C12.8 18.8999 13.2 19.2999 13.2 19.8999V20.7999" stroke="#002F79" stroke-width="2" stroke-miterlimit="10" stroke-linecap="round" stroke-linejoin="round"/>
<path d="M16.1 20.7999V19.8999C16.1 19.2999 16.5 18.8999 17.1 18.8999H19.8C20.4 18.8999 20.8 19.2999 20.8 19.8999V20.7999" stroke="#002F79" stroke-width="2" stroke-miterlimit="10" stroke-linecap="round" stroke-linejoin="round"/>
<path d="M1 16.2002C1 15.6002 1.4 15.2002 2 15.2002H2.8C3.4 15.2002 3.8 15.6002 3.8 16.2002" stroke="#002F79" stroke-width="2" stroke-miterlimit="10" stroke-linecap="round" stroke-linejoin="round"/>
<path d="M6.70001 16.2002C6.70001 15.6002 7.10001 15.2002 7.70001 15.2002H8.50001C9.10001 15.2002 9.50001 15.6002 9.50001 16.2002" stroke="#002F79" stroke-width="2" stroke-miterlimit="10" stroke-linecap="round" stroke-linejoin="round"/>
<path d="M12.3 16.2002C12.3 15.6002 12.7 15.2002 13.3 15.2002H14.1C14.7 15.2002 15.1 15.6002 15.1 16.2002" stroke="#002F79" stroke-width="2" stroke-miterlimit="10" stroke-linecap="round" stroke-linejoin="round"/>
<path d="M18 16.2002C18 15.6002 18.4 15.2002 19 15.2002H19.8C20.4 15.2002 20.8 15.6002 20.8 16.2002" stroke="#002F79" stroke-width="2" stroke-miterlimit="10" stroke-linecap="round" stroke-linejoin="round"/>
<path d="M1 8.5V12.3" stroke="#002F79" stroke-width="2" stroke-miterlimit="10" stroke-linecap="round" stroke-linejoin="round"/>
<path d="M1 1V8.5" stroke="#002F79" stroke-width="2" stroke-miterlimit="10" stroke-linecap="round" stroke-linejoin="round"/>
<path d="M3.5 1C3.5 1.3 3.5 1.6 3.5 1.9C3.5 4.9 2.5 7.5 1 8.5" stroke="#002F79" stroke-width="2" stroke-miterlimit="10" stroke-linecap="round" stroke-linejoin="round"/>
<path d="M6.2 1C6.2 1 6.2 1.1 6.2 1C5.5 5 3.3 8 1 8.5" stroke="#002F79" stroke-width="2" stroke-miterlimit="10" stroke-linecap="round" stroke-linejoin="round"/>
<path d="M20.8 8.5V12.3" stroke="#002F79" stroke-width="2" stroke-miterlimit="10" stroke-linecap="round" stroke-linejoin="round"/>
<path d="M20.8 1V8.5" stroke="#002F79" stroke-width="2" stroke-miterlimit="10" stroke-linecap="round" stroke-linejoin="round"/>
<path d="M18.4 1C18.4 1.3 18.4 1.6 18.4 1.9C18.4 4.9 19.4 7.5 20.9 8.5" stroke="#002F79" stroke-width="2" stroke-miterlimit="10" stroke-linecap="round" stroke-linejoin="round"/>
<path d="M15.6 1C15.7 1 15.7 1.1 15.6 1C16.3 5 18.5 8 20.8 8.5" stroke="#002F79" stroke-width="2" stroke-miterlimit="10" stroke-linecap="round" stroke-linejoin="round"/>
</svg>
