<svg width="22" height="22" viewBox="0 0 22 22" fill="none" xmlns="http://www.w3.org/2000/svg">
<path d="M9.4 3.4V1" stroke="#002F79" stroke-width="2" stroke-miterlimit="10" stroke-linecap="round" stroke-linejoin="round"/>
<path d="M12.9 3.4V1" stroke="#002F79" stroke-width="2" stroke-miterlimit="10" stroke-linecap="round" stroke-linejoin="round"/>
<path d="M20.1 20.2999C19 20.2999 19 20.9999 17.8 20.9999C16.6 20.9999 16.7 20.2999 15.5 20.2999C14.3 20.2999 14.4 20.9999 13.3 20.9999C12.2 20.9999 12.2 20.2999 11 20.2999C9.8 20.2999 9.9 20.9999 8.8 20.9999C7.7 20.9999 7.7 20.2999 6.5 20.2999C5.4 20.2999 5.4 20.9999 4.2 20.9999C3.1 20.9999 3.1 20.2999 1.9 20.2999L5 14.8999L6.5 12.3999L8.3 9.2999V7.9999C8.3 7.9999 8.1 7.5999 7.9 6.9999C7.7 6.3999 7.5 5.6999 7.5 5.1999C7.5 4.1999 8.2 3.3999 9.3 3.3999C10.3 3.3999 11.1 4.1999 11.1 5.1999C11.1 4.1999 11.9 3.3999 12.9 3.3999C14 3.3999 14.7 4.1999 14.7 5.1999C14.7 6.1999 14.1 7.7999 14 8.0999V9.3999L15.8 12.4999L17.5 15.5999L20.1 20.2999Z" stroke="#002F79" stroke-width="2" stroke-miterlimit="10" stroke-linecap="round" stroke-linejoin="round"/>
<path d="M8.3 9.2998H13.9" stroke="#002F79" stroke-width="2" stroke-miterlimit="10" stroke-linecap="round" stroke-linejoin="round"/>
<path d="M5.1 14.8999C5.2 14.8999 5.3 14.8999 5.5 14.8999C6.6 14.8999 6.6 15.6999 7.7 15.6999C8.8 15.6999 8.8 14.8999 9.9 14.8999C11 14.8999 11 15.6999 12.1 15.6999C13.2 15.6999 13.2 14.8999 14.3 14.8999C15.4 14.8999 15.4 15.6999 16.5 15.6999C16.8 15.6999 17.1 15.5999 17.3 15.4999" stroke="#002F79" stroke-width="2" stroke-miterlimit="10" stroke-linecap="round" stroke-linejoin="round"/>
</svg>
