<svg width="24" height="23" viewBox="0 0 24 23" fill="none" xmlns="http://www.w3.org/2000/svg">
<path d="M15.2171 15.8724C16.0777 15.0147 14.8791 12.4167 12.54 10.0696C10.2009 7.72252 7.60694 6.51511 6.74634 7.3728C5.88574 8.23049 7.08433 10.8285 9.42348 13.1756C11.7626 15.5227 14.3565 16.7301 15.2171 15.8724Z" stroke="#002F79" stroke-width="2" stroke-miterlimit="10" stroke-linecap="round" stroke-linejoin="round"/>
<path d="M16 3.60078C15.4 4.20078 14.5 4.20078 13.9 3.60078C13.3 3.00078 13.3 2.10078 13.9 1.50078C14.5 0.900781 15.4 0.900781 16 1.50078" stroke="#002F79" stroke-width="2" stroke-miterlimit="10" stroke-linecap="round" stroke-linejoin="round"/>
<path d="M18.1 6.40039C18.7 7.00039 18.7 7.90039 18.1 8.50039C17.5 9.10039 16.6 9.10039 16 8.50039C15.4 7.90039 15.4 7.00039 16 6.40039" stroke="#002F79" stroke-width="2" stroke-miterlimit="10" stroke-linecap="round" stroke-linejoin="round"/>
<path d="M20.6 2.80078C20.6 2.80078 23.5 4.50078 21 7.60078" stroke="#002F79" stroke-width="2" stroke-miterlimit="10" stroke-linecap="round" stroke-linejoin="round"/>
<path d="M7.39999 4.80069C7.39999 4.80069 6.29999 4.00069 6.79999 2.90069C7.29999 1.60069 9.59999 1.30069 10.6 3.60069C11.6 5.90069 10.4 8.40069 9.59999 9.70069" stroke="#002F79" stroke-width="2" stroke-miterlimit="10" stroke-linecap="round" stroke-linejoin="round"/>
<path d="M17.6 15.6992C17.6 15.6992 18.3 16.9992 19.5 16.5992C20.9 16.1992 21.6 13.8992 19.3 12.4992C17 11.0992 14.2 12.0992 12.7 12.6992" stroke="#002F79" stroke-width="2" stroke-miterlimit="10" stroke-linecap="round" stroke-linejoin="round"/>
<path d="M15 16L2.50001 21.6C1.60001 22 0.70001 21 1.10001 20.1L5.20001 11" stroke="#002F79" stroke-width="2" stroke-miterlimit="10" stroke-linecap="round" stroke-linejoin="round"/>
</svg>
