<svg width="24" height="24" viewBox="0 0 24 24" fill="none" xmlns="http://www.w3.org/2000/svg">
<path d="M15.2171 16.8724C16.0777 16.0147 14.8791 13.4167 12.54 11.0696C10.2009 8.72252 7.60694 7.51511 6.74634 8.3728C5.88574 9.23049 7.08433 11.8285 9.42348 14.1756C11.7626 16.5227 14.3565 17.7301 15.2171 16.8724Z" stroke="#002F79" stroke-width="2" stroke-miterlimit="10" stroke-linecap="round" stroke-linejoin="round"/>
<path d="M16 4.60078C15.4 5.20078 14.5 5.20078 13.9 4.60078C13.3 4.00078 13.3 3.10078 13.9 2.50078C14.5 1.90078 15.4 1.90078 16 2.50078" stroke="#002F79" stroke-width="2" stroke-miterlimit="10" stroke-linecap="round" stroke-linejoin="round"/>
<path d="M18.1 7.40039C18.7 8.00039 18.7 8.90039 18.1 9.50039C17.5 10.1004 16.6 10.1004 16 9.50039C15.4 8.90039 15.4 8.00039 16 7.40039" stroke="#002F79" stroke-width="2" stroke-miterlimit="10" stroke-linecap="round" stroke-linejoin="round"/>
<path d="M20.6 3.80078C20.6 3.80078 23.5 5.50078 21 8.60078" stroke="#002F79" stroke-width="2" stroke-miterlimit="10" stroke-linecap="round" stroke-linejoin="round"/>
<path d="M7.39999 5.80069C7.39999 5.80069 6.29999 5.00069 6.79999 3.90069C7.29999 2.60069 9.59999 2.30069 10.6 4.60069C11.6 6.90069 10.4 9.40069 9.59999 10.7007" stroke="#002F79" stroke-width="2" stroke-miterlimit="10" stroke-linecap="round" stroke-linejoin="round"/>
<path d="M17.6 16.6992C17.6 16.6992 18.3 17.9992 19.5 17.5992C20.9 17.1992 21.6 14.8992 19.3 13.4992C17 12.0992 14.2 13.0992 12.7 13.6992" stroke="#002F79" stroke-width="2" stroke-miterlimit="10" stroke-linecap="round" stroke-linejoin="round"/>
<path d="M15 17L2.50001 22.6C1.60001 23 0.70001 22 1.10001 21.1L5.20001 12" stroke="#002F79" stroke-width="2" stroke-miterlimit="10" stroke-linecap="round" stroke-linejoin="round"/>
</svg>
