<svg width="22" height="22" viewBox="0 0 22 22" fill="none" xmlns="http://www.w3.org/2000/svg">
<path d="M14.5 6.5L18 3L14.5 6.5ZM20 1L18 3L20 1ZM10.39 10.61C10.9064 11.1195 11.3168 11.726 11.5978 12.3948C11.8787 13.0635 12.0246 13.7813 12.0271 14.5066C12.0295 15.232 11.8884 15.9507 11.6119 16.6213C11.3355 17.2919 10.9291 17.9012 10.4162 18.4141C9.9033 18.9271 9.294 19.3334 8.62333 19.6099C7.95271 19.8864 7.23403 20.0275 6.50866 20.025C5.7833 20.0226 5.06557 19.8767 4.39682 19.5958C3.72807 19.3148 3.1215 18.9043 2.61203 18.388C1.61016 17.3507 1.05579 15.9614 1.06832 14.5193C1.08085 13.0772 1.65928 11.6977 2.67903 10.678C3.69877 9.6583 5.07824 9.0798 6.52032 9.0673C7.96241 9.0548 9.3517 9.6091 10.389 10.611L10.39 10.61ZM10.39 10.61L14.5 6.5L10.39 10.61ZM14.5 6.5L17.5 9.5L21 6L18 3L14.5 6.5Z" stroke="#002F79" stroke-width="2" stroke-linecap="round" stroke-linejoin="round"/>
</svg>
