<svg width="24" height="24" viewBox="0 0 24 24" fill="none" xmlns="http://www.w3.org/2000/svg">
<g clip-path="url(#clip0)">
<path d="M4 2.63188C4 3.87059 5.00645 4.87704 6.24516 4.87704C6.24516 3.56091 6.24516 1.93511 6.24516 0.386719C5.00645 0.386719 4 1.39317 4 2.63188Z" fill="#010101"/>
<path d="M4 8.90336C4 10.1421 5.00645 11.1485 6.24516 11.1485C6.24516 9.8324 6.24516 8.20659 6.24516 6.6582C5.00645 6.6582 4 7.66465 4 8.90336Z" fill="#010101"/>
<path d="M4 15.0967C4 16.3354 5.00645 17.3419 6.24516 17.3419C6.24516 16.0258 6.24516 14.3999 6.24516 12.8516C5.00645 12.8516 4 13.858 4 15.0967Z" fill="#010101"/>
<path d="M4 21.3682C4 22.6069 5.00645 23.6134 6.24516 23.6134C6.24516 22.2972 6.24516 20.6714 6.24516 19.123C5.00645 19.123 4 20.1295 4 21.3682Z" fill="#010101"/>
<path d="M15.071 0H9.34195C8.7226 0 8.18066 0.541935 8.18066 1.16129V22.8387C8.18066 23.4581 8.7226 24 9.34195 24H15.071C15.6903 24 16.2323 23.4581 16.2323 22.8387V1.16129C16.2323 0.541935 15.6903 0 15.071 0ZM15.4581 1.16129V11.6129H12.5936V0.774194H15.071C15.3032 0.774194 15.4581 0.929032 15.4581 1.16129ZM9.34195 0.774194H11.8194V11.6129H8.95486V1.16129C8.95486 0.929032 9.1097 0.774194 9.34195 0.774194ZM8.95486 22.8387V12.3871H11.8194V23.2258H9.34195C9.1097 23.2258 8.95486 23.071 8.95486 22.8387ZM15.071 23.2258H12.5936V12.3871H15.4581V22.8387C15.4581 23.071 15.3032 23.2258 15.071 23.2258Z" fill="#010101"/>
<path d="M18.2451 19.123C18.2451 20.4392 18.2451 22.065 18.2451 23.6134C19.4838 23.6134 20.4903 22.6069 20.4903 21.3682C20.4903 20.1295 19.4838 19.123 18.2451 19.123Z" fill="#010101"/>
<path d="M18.2451 12.8516C18.2451 14.1677 18.2451 15.7935 18.2451 17.3419C19.4838 17.3419 20.4903 16.3354 20.4903 15.0967C20.4903 13.858 19.4838 12.8516 18.2451 12.8516Z" fill="#010101"/>
<path d="M18.2451 6.6582C18.2451 7.97433 18.2451 9.60014 18.2451 11.1485C19.4838 11.1485 20.4903 10.1421 20.4903 8.90336C20.4903 7.66465 19.4838 6.6582 18.2451 6.6582Z" fill="#010101"/>
<path d="M20.4903 2.63188C20.4903 1.39317 19.4838 0.386719 18.2451 0.386719C18.2451 1.70285 18.2451 3.32865 18.2451 4.87704C19.4838 4.87704 20.4903 3.87059 20.4903 2.63188Z" fill="#010101"/>
</g>
<defs>
<clipPath id="clip0">
<rect width="24" height="24" fill="white"/>
</clipPath>
</defs>
</svg>
