<svg width="53" height="65" viewBox="0 0 53 65" fill="none" xmlns="http://www.w3.org/2000/svg">
<g id="icon/price_color">
<g id="Group 25">
<path id="Fill 1" fill-rule="evenodd" clip-rule="evenodd" d="M2.37027 7.80142C2.37027 3.55431 1.8879 3.65327 5.9839 3.65327H50.3703V60.9866C50.3703 61.3955 50.0384 61.7273 49.6295 61.7273H5.91457C1.67872 61.7273 2.37027 61.2337 2.37027 57.5792V7.80142Z" fill="#FCAE02"/>
<path id="Fill 3" fill-rule="evenodd" clip-rule="evenodd" d="M1.18519 31.505C0.530963 31.505 0 30.974 0 30.3198V24.9865C0 24.3316 0.530963 23.8013 1.18519 23.8013C1.83941 23.8013 2.37037 24.3316 2.37037 24.9865V30.3198C2.37037 30.974 1.83941 31.505 1.18519 31.505Z" fill="#1F1F1F"/>
<g id="Group 7">
<path id="Fill 5" fill-rule="evenodd" clip-rule="evenodd" d="M47.4797 64.0975H5.26104C2.3597 64.0975 0 61.7372 0 58.8365V35.0605C0 34.4057 0.53037 33.8753 1.18519 33.8753C1.83941 33.8753 2.37037 34.4057 2.37037 35.0605V58.8365C2.37037 60.4306 3.66696 61.7272 5.26104 61.7272H47.4797C49.0732 61.7272 50.3704 60.4306 50.3704 58.8365V6.54375C50.3704 4.94968 49.0732 3.65308 47.4797 3.65308H5.33333C3.72741 3.65308 2.37037 4.97694 2.37037 6.54375V20.8377C2.37037 21.4925 1.83941 22.0229 1.18519 22.0229C0.53037 22.0229 0 21.4925 0 20.8377V6.54375C0 3.64301 2.3923 1.28271 5.33333 1.28271H47.4797C50.381 1.28271 52.7407 3.64301 52.7407 6.54375V58.8365C52.7407 61.7372 50.381 64.0975 47.4797 64.0975Z" fill="#1F1F1F"/>
</g>
<path id="Fill 8" fill-rule="evenodd" clip-rule="evenodd" d="M34.2915 7.2124H8.51368C7.12583 7.2124 5.66153 8.30218 5.84702 9.57922V56.394C5.84702 57.8198 6.95576 58.768 8.13324 58.768H36.0692L47.3285 47.5051V9.34159C47.3285 8.16351 46.3738 7.2124 45.1952 7.2124H42.5878" fill="#F8F9FB"/>
<path id="Fill 10" fill-rule="evenodd" clip-rule="evenodd" d="M36.5598 59.9533H8.13316C6.18649 59.9533 4.66175 58.3876 4.66175 56.3942V9.65223C4.57583 8.86645 4.83775 8.08008 5.40427 7.42586C6.15212 6.56186 7.34323 6.02734 8.51361 6.02734H34.2914C34.9456 6.02734 35.4766 6.55771 35.4766 7.21253C35.4766 7.86675 34.9456 8.39771 34.2914 8.39771H8.51361C8.0342 8.39771 7.49257 8.63475 7.19627 8.97727C7.10264 9.08512 6.99598 9.24749 7.01968 9.40986L7.03212 9.57934V56.3942C7.03212 57.1633 7.59923 57.5829 8.13316 57.5829H35.5785L46.1432 47.014V9.34171C46.1432 8.81905 45.7178 8.39771 45.1951 8.39771H42.5877C41.9329 8.39771 41.4025 7.86675 41.4025 7.21253C41.4025 6.55771 41.9329 6.02734 42.5877 6.02734H45.1951C47.025 6.02734 48.5136 7.51179 48.5136 9.34171V47.9959L36.5598 59.9533Z" fill="#1F1F1F"/>
<path id="Fill 12" fill-rule="evenodd" clip-rule="evenodd" d="M47.1112 46.3198H38.3349C36.8985 46.3198 35.5557 47.2532 35.5557 48.6902V57.5791" fill="#98C8FF"/>
<path id="Fill 14" fill-rule="evenodd" clip-rule="evenodd" d="M35.5555 58.7642C34.9013 58.7642 34.3704 58.2332 34.3704 57.579V48.6901C34.3704 46.6966 36.1114 45.1345 38.3348 45.1345H47.1111C47.7653 45.1345 48.2963 45.6655 48.2963 46.3197C48.2963 46.9739 47.7653 47.5049 47.1111 47.5049H38.3348C37.5514 47.5049 36.7407 47.9482 36.7407 48.6901V57.579C36.7407 58.2332 36.2098 58.7642 35.5555 58.7642Z" fill="#1F1F1F"/>
<path id="Fill 16" fill-rule="evenodd" clip-rule="evenodd" d="M16 7.20876H36.7407V2.46802H16V7.20876Z" fill="#98C8FF"/>
<path id="Fill 18" fill-rule="evenodd" clip-rule="evenodd" d="M36.7407 0.0976562H16C14.691 0.0976562 13.6296 1.15899 13.6296 2.46803V7.20877C13.6296 8.5178 14.691 9.57914 16 9.57914H36.7407C38.0498 9.57914 39.1111 8.5178 39.1111 7.20877V2.46803C39.1111 1.15899 38.0498 0.0976562 36.7407 0.0976562ZM16 7.20877H36.7408V2.46803H16V7.20877Z" fill="#1F1F1F"/>
<path id="Fill 19" fill-rule="evenodd" clip-rule="evenodd" d="M13.3775 21.7272C13.0812 21.7272 12.7849 21.6164 12.5555 21.396L10.6545 19.5661C10.1828 19.1115 10.1686 18.3613 10.6231 17.8896C11.077 17.4185 11.8272 17.4043 12.2984 17.8582L13.3775 18.897L17.173 15.2437C17.6447 14.7898 18.3961 14.804 18.8489 15.2757C19.3028 15.7474 19.2886 16.4976 18.8169 16.9515L14.1994 21.396C13.9701 21.6164 13.6738 21.7272 13.3775 21.7272Z" fill="#1F1F1F"/>
<path id="Fill 20" fill-rule="evenodd" clip-rule="evenodd" d="M13.5506 31.8013C13.2472 31.8013 12.9444 31.6857 12.7127 31.454L10.6386 29.38C10.1758 28.9172 10.1758 28.1669 10.6386 27.7041C11.1014 27.2413 11.8517 27.2413 12.3145 27.7041L13.5506 28.9397L17.7497 24.7412C18.2125 24.2783 18.9628 24.2783 19.4256 24.7412C19.8884 25.204 19.8884 25.9542 19.4256 26.417L14.3885 31.454C14.1568 31.6857 13.854 31.8013 13.5506 31.8013Z" fill="#1F1F1F"/>
<path id="Fill 21" fill-rule="evenodd" clip-rule="evenodd" d="M13.5506 42.4681C13.2472 42.4681 12.9444 42.3525 12.7127 42.1208L10.6386 40.0467C10.1758 39.5839 10.1758 38.8337 10.6386 38.3709C11.1014 37.9081 11.8517 37.9081 12.3145 38.3709L13.5506 39.6064L17.7497 35.4079C18.2125 34.9451 18.9628 34.9451 19.4256 35.4079C19.8884 35.8707 19.8884 36.6209 19.4256 37.0838L14.3885 42.1208C14.1568 42.3525 13.854 42.4681 13.5506 42.4681Z" fill="#1F1F1F"/>
<path id="Fill 22" fill-rule="evenodd" clip-rule="evenodd" d="M40.8099 19.0645H22.4396C21.7854 19.0645 21.2544 18.5335 21.2544 17.8793C21.2544 17.2251 21.7854 16.6941 22.4396 16.6941H40.8099C41.4642 16.6941 41.9951 17.2251 41.9951 17.8793C41.9951 18.5335 41.4642 19.0645 40.8099 19.0645Z" fill="#1F1F1F"/>
<path id="Fill 23" fill-rule="evenodd" clip-rule="evenodd" d="M33.1062 29.1384H22.4396C21.7854 29.1384 21.2544 28.6075 21.2544 27.9533C21.2544 27.299 21.7854 26.7681 22.4396 26.7681H33.1062C33.7605 26.7681 34.2914 27.299 34.2914 27.9533C34.2914 28.6075 33.7605 29.1384 33.1062 29.1384Z" fill="#1F1F1F"/>
<path id="Fill 24" fill-rule="evenodd" clip-rule="evenodd" d="M37.847 39.8052H22.4396C21.7854 39.8052 21.2544 39.2742 21.2544 38.62C21.2544 37.9658 21.7854 37.4348 22.4396 37.4348H37.847C38.5012 37.4348 39.0322 37.9658 39.0322 38.62C39.0322 39.2742 38.5012 39.8052 37.847 39.8052Z" fill="#1F1F1F"/>
</g>
</g>
</svg>
