<svg width="23" height="22" viewBox="0 0 23 22" fill="none" xmlns="http://www.w3.org/2000/svg">
<path d="M20.1 5.7H17.3V2C17.3 0.9 16.4 0 15.3 0H6.80003C5.70003 0 4.80003 0.9 4.80003 2V5.7H2.00003C0.90003 5.7 3.05176e-05 6.6 3.05176e-05 7.7V16.2C3.05176e-05 17.3 0.90003 18.2 2.00003 18.2H4.80003V20C4.80003 21.1 5.70003 22 6.80003 22H15.3C16.4 22 17.3 21.1 17.3 20V15.3C17.3 14.2 16.4 13.3 15.3 13.3H6.80003C5.70003 13.3 4.80003 14.2 4.80003 15.3V16.2H2.00003V7.7H20.1V16.2H18.9C18.3 16.2 17.9 16.6 17.9 17.2C17.9 17.8 18.3 18.2 18.9 18.2H20.1C21.2 18.2 22.1 17.3 22.1 16.2V7.7C22.1 6.6 21.2 5.7 20.1 5.7ZM6.80003 15.4H15.3V20.1H6.80003V15.4ZM6.80003 2H15.3V5.7H6.80003V2Z" fill="#002F79"/>
<path d="M19.2 9.6001C19.2 9.0001 18.8 8.6001 18.2 8.6001H15.3C14.7 8.6001 14.3 9.0001 14.3 9.6001C14.3 10.2001 14.7 10.6001 15.3 10.6001H18.2C18.8 10.6001 19.2 10.2001 19.2 9.6001Z" fill="#002F79"/>
</svg>
