<svg width="25" height="23" viewBox="0 0 25 23" fill="none" xmlns="http://www.w3.org/2000/svg">
<path fill-rule="evenodd" clip-rule="evenodd" d="M19 6.49003C19 10.0845 16.089 13 12.5 13C8.91102 13 6 10.0645 6 6.49003C6 2.91553 8.91106 0 12.5 0C16.0889 0 19 2.89558 19 6.49003ZM17.2853 6.49003C17.2853 3.85406 15.1319 1.69739 12.5 1.69739C9.86807 1.69739 7.71471 3.85402 7.71471 6.48998C7.71471 9.12595 9.86811 11.2826 12.5 11.2826C15.1319 11.2826 17.2853 9.126 17.2853 6.49003Z" fill="#11110F"/>
<path fill-rule="evenodd" clip-rule="evenodd" d="M24.1174 23H0.882585C0.389977 23 0 22.6217 0 22.1438C0 17.6438 3.77669 14 8.39492 14H16.6051C21.2439 14 25 17.6637 25 22.1438C25 22.6217 24.61 23 24.1174 23ZM16.6051 15.7124H8.39492C5.02875 15.7124 2.25778 18.1615 1.82676 21.2876H23.1732C22.7422 18.1416 19.9712 15.7124 16.6051 15.7124Z" fill="#11110F"/>
</svg>
