<svg width="60" height="60" viewBox="0 0 60 60" fill="none" xmlns="http://www.w3.org/2000/svg">
<path d="M49.3667 59.1398H10.6338C9.68153 59.1398 8.90869 58.3654 8.90869 57.4113V22.1646H51.0918V57.4113C51.0918 58.3666 50.3201 59.1398 49.3667 59.1398Z" fill="#4CC2DE"/>
<path d="M47.3035 22.1646V53.5463C47.3035 54.5385 46.5007 55.344 45.5094 55.344H8.90869V57.4136C8.90869 58.3666 9.68038 59.1398 10.6315 59.1398H49.369C50.3201 59.1398 51.0918 58.3666 51.0918 57.4136V22.1646H47.3035Z" fill="#0000DA"/>
<path d="M23.7856 22.1646H36.2155V59.1398H23.7856V22.1646Z" fill="#FFE07D"/>
<path d="M23.7856 55.344H36.2155V59.1398H23.7856V55.344Z" fill="#FFD064"/>
<path d="M10.002 12.289L17.5153 18.4079H25.2506L17.574 8.38251L10.002 12.289Z" fill="#FFD064"/>
<path d="M17.5741 8.38135L13.4062 10.5328L19.436 18.4079H25.2507L17.5741 8.38135Z" fill="#FFC250"/>
<path d="M49.9967 12.289L42.4834 18.4079H34.748L42.4247 8.38251L49.9967 12.289Z" fill="#FFD064"/>
<path d="M47.2469 10.8704L37.9912 18.4079H42.4822L49.9955 12.289L47.2469 10.8704Z" fill="#FFC250"/>
<path d="M14.1862 1.93399L18.5875 3.40784C20.8071 4.1511 22.6644 5.70676 23.788 7.7637L27.3923 14.3609L25.2509 18.4067L19.7341 14.6593C18.4805 13.8077 17.0372 13.2765 15.5306 13.1117L10.6854 12.5816C9.86771 12.4918 9.35018 11.6598 9.62964 10.8842L12.591 2.70721C12.8257 2.05844 13.5329 1.7162 14.1862 1.93399Z" fill="#FFE07D"/>
<path d="M12.0283 4.41726L16.4296 5.89111C18.6492 6.63437 20.5066 8.19003 21.6302 10.247L25.6692 17.6185L27.3931 14.362L23.7888 7.76482C22.6652 5.70788 20.8079 4.15222 18.5883 3.40896L14.1858 1.93396C13.5326 1.71501 12.8253 2.05841 12.5907 2.70603L11.9766 4.40228C11.9938 4.40804 12.0111 4.4115 12.0283 4.41726Z" fill="#FFD064"/>
<path d="M45.815 1.93401L41.4138 3.40786C39.1941 4.15112 37.3368 5.70679 36.2132 7.76372L32.6089 14.3609L34.7503 18.4068L40.2671 14.6593C41.5207 13.8078 42.964 13.2765 44.4706 13.1117L49.3158 12.5817C50.1335 12.4918 50.651 11.6598 50.3704 10.8843L47.4102 2.70493C47.1756 2.05846 46.4671 1.71622 45.815 1.93401Z" fill="#FFE07D"/>
<path d="M50.3703 10.8854L47.41 2.70608C47.1754 2.05731 46.4681 1.71507 45.8149 1.93401L43.9575 2.55628L47.6515 12.7637L49.3145 12.5817C50.1322 12.4941 50.6509 11.6609 50.3703 10.8854Z" fill="#FFD064"/>
<path d="M30.0007 8.38135C27.1508 8.38135 24.8403 10.6964 24.8403 13.5519V20.2793H35.1598V13.5519C35.1598 10.6964 32.8505 8.38135 30.0007 8.38135Z" fill="#FFC250"/>
<path d="M30.0007 8.38135C29.4199 8.38135 28.8633 8.4793 28.3423 8.65561C30.3779 9.34816 31.8442 11.2772 31.8442 13.5519V20.2793H35.161V13.5519C35.1598 10.6964 32.8505 8.38135 30.0007 8.38135Z" fill="#EBB044"/>
<path d="M53.7585 29.5003H6.2414C5.47891 29.5003 4.86133 28.8815 4.86133 28.1175V18.8365C4.86133 18.0725 5.47891 17.4537 6.2414 17.4537H53.7585C54.521 17.4537 55.1385 18.0725 55.1385 18.8365V28.1175C55.1385 28.8804 54.521 29.5003 53.7585 29.5003Z" fill="#4CC2DE"/>
<path d="M53.7608 17.4537H51.2755V24.1915C51.2755 24.9855 50.6326 25.6296 49.8402 25.6296H4.86133V28.1198C4.86133 28.8827 5.47776 29.5003 6.2391 29.5003H53.7608C54.5221 29.5003 55.1385 28.8815 55.1385 28.1198V18.8354C55.1385 18.0714 54.5221 17.4537 53.7608 17.4537Z" fill="#0000DA"/>
<path d="M23.7856 17.4537H36.2155V29.5003H23.7856V17.4537Z" fill="#FFE07D"/>
<path d="M23.7856 25.6296H36.2155V29.5004H23.7856V25.6296Z" fill="#FFD064"/>
<path d="M47.1284 34.0221C46.2291 34.7942 45.7851 35.9039 45.8265 37.0067C45.8311 37.1162 45.7311 37.1992 45.6241 37.1761C44.5477 36.9433 43.3792 37.1865 42.4638 37.939C40.7628 39.3367 40.6789 41.903 42.1969 43.4979C44.9168 46.3545 50.9558 46.5666 52.9638 46.555C53.3537 46.5527 53.6884 46.2727 53.7585 45.8878C54.1219 43.9092 54.9684 37.9136 52.6383 34.7308C51.3365 32.9551 48.7994 32.5886 47.1284 34.0221Z" fill="#9FBFF8"/>
<path d="M52.6384 34.732C51.3573 32.9827 48.88 32.6013 47.209 33.9576C47.2998 34.0579 47.3872 34.1639 47.4689 34.2757C49.8001 37.4584 48.9525 43.4529 48.5891 45.4327C48.5201 45.8095 48.198 46.0837 47.8185 46.0976C49.93 46.5113 51.9553 46.562 52.9639 46.5562C53.3549 46.5539 53.6884 46.2739 53.7586 45.889C54.122 43.9104 54.9696 37.9148 52.6384 34.732Z" fill="#5A90F4"/>
<path d="M53.7608 16.5863H46.0807L50.4544 13.0256C50.6626 12.8688 50.8443 12.6741 50.9857 12.4448C51.333 11.8847 51.4044 11.2083 51.1801 10.5884L48.2198 2.40902C47.8231 1.31199 46.6466 0.742731 45.5413 1.11263L43.8013 1.69572C43.3505 1.84668 43.1067 2.33527 43.2573 2.78814C43.408 3.23986 43.8956 3.48416 44.3476 3.3332L46.0876 2.75011C46.2981 2.67982 46.5235 2.78814 46.5994 2.99787L49.5597 11.1772C49.6425 11.4849 49.4838 11.6704 49.2204 11.7223L44.3752 12.2523C42.7352 12.4321 41.147 13.0163 39.783 13.944L36.5697 16.1265C36.5444 16.1219 36.0211 16.0228 36.0211 16.0228V13.5487C36.0211 12.6269 35.813 11.7534 35.4427 10.9721L36.9688 8.17996C37.8336 6.59664 39.1528 5.35556 40.7835 4.59041C41.2148 4.38875 41.4 3.8748 41.1987 3.44267C40.9975 3.01054 40.4845 2.82502 40.0533 3.02783C38.089 3.9497 36.5007 5.44545 35.4588 7.35142L34.349 9.38185C33.2518 8.23297 31.7096 7.51621 30.0017 7.51621C28.2939 7.51621 26.7517 8.23297 25.6556 9.3807L24.5447 7.34797C23.313 5.09283 21.2946 3.40234 18.8611 2.58763L14.4587 1.11263C13.3546 0.742731 12.1781 1.31199 11.7802 2.40902L8.82105 10.5884C8.59679 11.2083 8.6681 11.8847 9.01542 12.4448C9.13732 12.6407 9.28683 12.8112 9.45819 12.9553L13.9181 16.5875H6.23917C5.00515 16.5863 4 17.5935 4 18.8311V28.1155C4 29.3531 5.00515 30.3591 6.23917 30.3591H8.04706V57.4104C8.04706 58.8382 9.20633 59.9997 10.6313 59.9997H49.3687C50.7937 59.9997 51.9529 58.8382 51.9529 57.4104V47.4081C52.2669 47.4173 52.5487 47.4207 52.8028 47.4207C52.8592 47.4207 52.9144 47.4207 52.9684 47.4207C53.7712 47.4161 54.4601 46.8376 54.605 46.046C55.05 43.6214 55.816 37.6143 53.3319 34.2218C52.9569 33.7101 52.4854 33.2838 51.9529 32.9623V30.3603H53.7608C54.996 30.3603 56 29.3531 56 28.1167V18.8322C56 17.5935 54.996 16.5863 53.7608 16.5863ZM40.7502 15.3706C41.883 14.6008 43.2021 14.1157 44.5626 13.967L46.8754 13.7147L43.3482 16.5875H38.9607L40.7502 15.3706ZM39.8451 22.5105C39.6415 24.9708 40.9216 27.2996 43.1044 28.4428L43.4678 28.6329H37.0757V22.4656C37.0757 21.9885 36.6905 21.6025 36.2144 21.6025C35.7382 21.6025 35.353 21.9885 35.353 22.4656V28.6329H24.6459V18.3125H37.6278C39.0895 19.1307 39.9912 20.7382 39.8451 22.5105ZM30.0006 9.24127C32.3709 9.24127 34.2995 11.1737 34.2995 13.5487V15.7774C33.9763 15.8569 33.7153 16.1219 33.6555 16.4711C33.6486 16.5103 33.6463 16.5483 33.6451 16.5863H25.7016V13.5487C25.7016 11.1737 27.6303 9.24127 30.0006 9.24127ZM10.4403 11.1761L13.4006 2.99672C13.4765 2.78699 13.7019 2.67752 13.9124 2.74896L18.3137 4.22281C20.3332 4.89924 22.0088 6.30279 23.0324 8.1742L24.5585 10.9686C24.187 11.7511 23.9789 12.6257 23.9789 13.5476V16.4964L20.217 13.9417C18.8519 13.014 17.2637 12.4298 15.6237 12.25L10.7785 11.72C10.5116 11.6681 10.3598 11.4837 10.4403 11.1761ZM13.1223 13.7135L15.4374 13.967C16.799 14.1157 18.117 14.6008 19.251 15.3706L21.0405 16.5863H16.6495L13.1223 13.7135ZM5.72279 28.1155V18.8311C5.72279 18.5453 5.9551 18.3137 6.23917 18.3137H22.9231V28.6341H6.23917C5.9551 28.6329 5.72279 28.4013 5.72279 28.1155ZM9.76986 57.4104V30.3591H22.9231V31.6463C22.9231 32.1234 23.3084 32.5094 23.7845 32.5094C24.2606 32.5094 24.6459 32.1234 24.6459 31.6463V30.3591H35.353V58.2735H24.6459V35.9192C24.6459 35.4421 24.2606 35.0561 23.7845 35.0561C23.3084 35.0561 22.9231 35.4421 22.9231 35.9192V58.2735H10.6313C10.1563 58.2735 9.76986 57.8863 9.76986 57.4104ZM50.2301 57.4104C50.2301 57.8863 49.8437 58.2735 49.3687 58.2735H37.0769V30.3591H45.2607C45.7035 31.1393 45.9071 32.0531 45.8093 32.9934L45.6598 34.4257C45.3182 34.9731 45.094 35.5862 45.0066 36.2315C43.8899 36.1865 42.7985 36.5495 41.9187 37.272C40.9331 38.0821 40.3465 39.2368 40.2683 40.5239C40.1878 41.8365 40.6651 43.1386 41.5759 44.0951C43.6748 46.2995 47.3929 47.0577 50.2336 47.3055L50.2301 57.4104ZM52.9178 45.6934C51.1272 45.6991 45.3044 45.5124 42.8192 42.9035C42.2384 42.2928 41.9336 41.4643 41.9854 40.63C42.0348 39.8279 42.3982 39.11 43.0089 38.6076C43.5287 38.1801 44.1682 37.9542 44.826 37.9542C45.0307 37.9542 45.2366 37.9761 45.4424 38.0211C45.7553 38.089 46.075 38.0095 46.3199 37.8044C46.5649 37.5993 46.6983 37.2974 46.6868 36.9759C46.6535 36.0909 47.0192 35.2531 47.6885 34.6781C48.2888 34.163 49.0582 33.9302 49.8541 34.0224C50.6833 34.1181 51.4446 34.5629 51.9426 35.2428C54.0725 38.1513 53.2387 43.9257 52.9178 45.6934ZM50.2301 32.3331C50.1703 32.3239 50.1105 32.3146 50.0507 32.3077C49.1744 32.2063 48.3164 32.3515 47.5517 32.7214C47.5781 31.8998 47.4401 31.1001 47.1618 30.3591H50.2301V32.3331ZM54.2784 28.1155C54.2784 28.4013 54.046 28.6329 53.762 28.6329H46.1612C45.6518 28.0176 45.0169 27.4955 44.2763 27.1072L43.9048 26.9125C42.3373 26.0908 41.4184 24.4188 41.5644 22.6522C41.6909 21.1196 41.2424 19.6066 40.3017 18.392C40.281 18.3644 40.258 18.339 40.2373 18.3125H53.7643C54.0495 18.3125 54.2807 18.5453 54.2807 18.8299L54.2784 28.1155Z" fill="black"/>
</svg>
