<svg width="24" height="24" viewBox="0 0 24 24" fill="none" xmlns="http://www.w3.org/2000/svg">
<path d="M21 15C21 15.5304 20.7893 16.0391 20.4142 16.4142C20.0391 16.7893 19.5304 17 19 17H7L3 21V5C3 4.46957 3.21071 3.96086 3.58579 3.58579C3.96086 3.21071 4.46957 3 5 3H19C19.5304 3 20.0391 3.21071 20.4142 3.58579C20.7893 3.96086 21 4.46957 21 5V15Z" fill="#FCAE02" stroke="#FCAE02" stroke-linecap="round" stroke-linejoin="round"/>
<path d="M9 9.89806C9 9.49029 9.07524 9.11165 9.22573 8.76214C9.37621 8.40777 9.58495 8.09951 9.85194 7.83738C10.1189 7.57524 10.4369 7.37136 10.8058 7.22573C11.1796 7.07524 11.5898 7 12.0364 7C12.4782 7 12.8859 7.07524 13.2597 7.22573C13.6335 7.37136 13.9539 7.57524 14.2209 7.83738C14.4927 8.09951 14.7039 8.40777 14.8544 8.76214C15.0049 9.11165 15.0801 9.49029 15.0801 9.89806C15.0801 10.2767 15.017 10.6286 14.8908 10.9539C14.7694 11.2791 14.5922 11.568 14.3592 11.8204L15.2913 12.7961L13.9806 13L13.4782 12.483C13.2646 12.5801 13.0364 12.6553 12.7937 12.7087C12.5558 12.767 12.3034 12.7961 12.0364 12.7961C11.5898 12.7961 11.1796 12.7233 10.8058 12.5777C10.4369 12.4272 10.1189 12.2209 9.85194 11.9587C9.58495 11.6966 9.37621 11.3908 9.22573 11.0413C9.07524 10.6869 9 10.3058 9 9.89806ZM10.4927 9.89806C10.4927 10.1165 10.534 10.318 10.6165 10.5024C10.699 10.6869 10.8107 10.8471 10.9515 10.983C11.0922 11.1189 11.2549 11.2257 11.4393 11.3034C11.6286 11.3762 11.8277 11.4126 12.0364 11.4126C12.1626 11.4126 12.2888 11.3981 12.415 11.3689L11.5995 10.5097L12.9466 10.3422L13.3252 10.7427C13.5 10.5 13.5874 10.2184 13.5874 9.89806C13.5874 9.67961 13.5461 9.47816 13.4636 9.29369C13.3811 9.10922 13.267 8.94903 13.1214 8.81311C12.9806 8.67718 12.8155 8.57282 12.6262 8.5C12.4417 8.42233 12.2451 8.3835 12.0364 8.3835C11.8277 8.3835 11.6286 8.42233 11.4393 8.5C11.2549 8.57282 11.0922 8.67718 10.9515 8.81311C10.8107 8.94903 10.699 9.10922 10.6165 9.29369C10.534 9.47816 10.4927 9.67961 10.4927 9.89806Z" fill="white"/>
</svg>
