<svg width="20" height="21" viewBox="0 0 20 21" fill="none" xmlns="http://www.w3.org/2000/svg">
<path fill-rule="evenodd" clip-rule="evenodd" d="M8 18H4C2.9 18 2 17.1 2 16V4C2 2.9 2.9 2 4 2H12C13.1 2 14 2.9 14 4V6.7C14 7.3 14.4 7.7 15 7.7C15.6 7.7 16 7.3 16 6.7V4C16 1.8 14.2 0 12 0H4C1.8 0 0 1.8 0 4V16C0 18.2 1.8 20 4 20H8C8.6 20 9 19.6 9 19C9 18.4 8.6 18 8 18ZM3.90002 5.8999C3.90002 5.2999 4.30002 4.8999 4.90002 4.8999H10C10.6 4.8999 11 5.2999 11 5.8999C11 6.4999 10.6 6.8999 10 6.8999H4.90002C4.30002 6.8999 3.90002 6.4999 3.90002 5.8999ZM4.90002 9H9.00002C9.60002 9 10 9.4 10 10C10 10.6 9.60002 11 9.00002 11H4.90002C4.30002 11 3.90002 10.6 3.90002 10C3.90002 9.4 4.30002 9 4.90002 9ZM11.9 13C11.9 13.2 12.9 13.9 14.7 13.9C17.4 13.9 19.5 15.2 19.5 16.9C19.5 18.4 17.9 19.5 15.7 19.8V20C15.7 20.6 15.3 21 14.7 21C14.1 21 13.7 20.6 13.7 20V19.8C11.5 19.5 9.90002 18.4 9.90002 16.9C9.90002 16.3 10.3 15.9 10.9 15.9C11.5 15.9 11.9 16.3 11.9 16.9C11.9 17.1 12.9 17.8 14.7 17.8C16.5 17.8 17.5 17.1 17.5 16.9C17.5 16.7 16.5 16 14.7 16C12 16 9.90002 14.8 9.90002 13.1C9.90002 11.6 11.5 10.5 13.7 10.2V10C13.7 9.4 14.1 9 14.7 9C15.3 9 15.7 9.4 15.7 10V10.1C17.9 10.4 19.5 11.5 19.5 13C19.5 13.6 19.1 14 18.5 14C17.9 14 17.5 13.6 17.5 13C17.5 12.8 16.5 12.1 14.7 12.1C12.9 12.1 11.9 12.8 11.9 13Z" fill="white"/>
</svg>
