<svg width="16" height="16" viewBox="0 0 16 16" fill="none" xmlns="http://www.w3.org/2000/svg">
<path fill-rule="evenodd" clip-rule="evenodd" d="M6.66665 13.3334H3.99998C3.26665 13.3334 2.66665 12.7334 2.66665 12V4.00004C2.66665 3.26671 3.26665 2.66671 3.99998 2.66671H9.33331C10.0666 2.66671 10.6666 3.26671 10.6666 4.00004V5.80004C10.6666 6.20004 10.9333 6.46671 11.3333 6.46671C11.7333 6.46671 12 6.20004 12 5.80004V4.00004C12 2.53337 10.8 1.33337 9.33331 1.33337H3.99998C2.53331 1.33337 1.33331 2.53337 1.33331 4.00004V12C1.33331 13.4667 2.53331 14.6667 3.99998 14.6667H6.66665C7.06665 14.6667 7.33331 14.4 7.33331 14C7.33331 13.6 7.06665 13.3334 6.66665 13.3334ZM3.93333 5.26648C3.93333 4.86648 4.2 4.59981 4.6 4.59981H8C8.4 4.59981 8.66666 4.86648 8.66666 5.26648C8.66666 5.66648 8.4 5.93315 8 5.93315H4.6C4.2 5.93315 3.93333 5.66648 3.93333 5.26648ZM4.6 7.33337H7.33333C7.73333 7.33337 7.99999 7.60004 7.99999 8.00004C7.99999 8.40004 7.73333 8.66671 7.33333 8.66671H4.6C4.2 8.66671 3.93333 8.40004 3.93333 8.00004C3.93333 7.60004 4.2 7.33337 4.6 7.33337ZM9.26666 10C9.26666 10.1334 9.93333 10.6 11.1333 10.6C12.9333 10.6 14.3333 11.4667 14.3333 12.6C14.3333 13.6 13.2667 14.3334 11.8 14.5334V14.6667C11.8 15.0667 11.5333 15.3334 11.1333 15.3334C10.7333 15.3334 10.4667 15.0667 10.4667 14.6667V14.5334C9 14.3334 7.93333 13.6 7.93333 12.6C7.93333 12.2 8.2 11.9334 8.6 11.9334C9 11.9334 9.26666 12.2 9.26666 12.6C9.26666 12.7334 9.93333 13.2 11.1333 13.2C12.3333 13.2 13 12.7334 13 12.6C13 12.4667 12.3333 12 11.1333 12C9.33333 12 7.93333 11.2 7.93333 10.0667C7.93333 9.06671 9 8.33337 10.4667 8.13337V8.00004C10.4667 7.60004 10.7333 7.33337 11.1333 7.33337C11.5333 7.33337 11.8 7.60004 11.8 8.00004V8.06671C13.2667 8.26671 14.3333 9.00004 14.3333 10C14.3333 10.4 14.0667 10.6667 13.6667 10.6667C13.2667 10.6667 13 10.4 13 10C13 9.86671 12.3333 9.40004 11.1333 9.40004C9.93333 9.40004 9.26666 9.86671 9.26666 10Z" fill="#1F1F1F"/>
</svg>
