<svg width="24" height="24" viewBox="0 0 24 24" fill="none" xmlns="http://www.w3.org/2000/svg">
<g clip-path="url(#clip0)">
<path d="M2.32 22.8005C3.6 22.8005 4.64 21.7605 4.64 20.4805C3.28 20.4805 1.6 20.4805 0 20.4805C0 21.7605 1.04 22.8005 2.32 22.8005Z" fill="#010101"/>
<path d="M8.80047 22.8005C10.0805 22.8005 11.1205 21.7605 11.1205 20.4805C9.76047 20.4805 8.08047 20.4805 6.48047 20.4805C6.48047 21.7605 7.52047 22.8005 8.80047 22.8005Z" fill="#010101"/>
<path d="M15.1999 22.8005C16.4799 22.8005 17.5199 21.7605 17.5199 20.4805C16.1599 20.4805 14.4799 20.4805 12.8799 20.4805C12.8799 21.7605 13.9199 22.8005 15.1999 22.8005Z" fill="#010101"/>
<path d="M21.6804 22.8005C22.9603 22.8005 24.0003 21.7605 24.0003 20.4805C22.6403 20.4805 20.9604 20.4805 19.3604 20.4805C19.3604 21.7605 20.4004 22.8005 21.6804 22.8005Z" fill="#010101"/>
<path d="M2.32 16.6403C3.6 16.6403 4.64 15.6003 4.64 14.3203C3.28 14.3203 1.6 14.3203 0 14.3203C0 15.6003 1.04 16.6403 2.32 16.6403Z" fill="#010101"/>
<path d="M8.80047 16.6403C10.0805 16.6403 11.1205 15.6003 11.1205 14.3203C9.76047 14.3203 8.08047 14.3203 6.48047 14.3203C6.48047 15.6003 7.52047 16.6403 8.80047 16.6403Z" fill="#010101"/>
<path d="M15.1999 16.6403C16.4799 16.6403 17.5199 15.6003 17.5199 14.3203C16.1599 14.3203 14.4799 14.3203 12.8799 14.3203C12.8799 15.6003 13.9199 16.6403 15.1999 16.6403Z" fill="#010101"/>
<path d="M21.6804 16.6403C22.9603 16.6403 24.0003 15.6003 24.0003 14.3203C22.6403 14.3203 20.9604 14.3203 19.3604 14.3203C19.3604 15.6003 20.4004 16.6403 21.6804 16.6403Z" fill="#010101"/>
<path d="M2.32 10.4802C3.6 10.4802 4.64 9.44016 4.64 8.16016C3.28 8.16016 1.6 8.16016 0 8.16016C0 9.44016 1.04 10.4802 2.32 10.4802Z" fill="#010101"/>
<path d="M8.80047 10.4802C10.0805 10.4802 11.1205 9.44016 11.1205 8.16016C9.76047 8.16016 8.08047 8.16016 6.48047 8.16016C6.48047 9.44016 7.52047 10.4802 8.80047 10.4802Z" fill="#010101"/>
<path d="M15.1999 10.4802C16.4799 10.4802 17.5199 9.44016 17.5199 8.16016C16.1599 8.16016 14.4799 8.16016 12.8799 8.16016C12.8799 9.44016 13.9199 10.4802 15.1999 10.4802Z" fill="#010101"/>
<path d="M21.6804 10.4802C22.9603 10.4802 24.0003 9.44016 24.0003 8.16016C22.6403 8.16016 20.9604 8.16016 19.3604 8.16016C19.3604 9.44016 20.4004 10.4802 21.6804 10.4802Z" fill="#010101"/>
<path d="M2.32 4.32C3.6 4.32 4.64 3.28 4.64 2C3.28 2 1.6 2 0 2C0 3.28 1.04 4.32 2.32 4.32Z" fill="#010101"/>
<path d="M8.80047 4.32C10.0805 4.32 11.1205 3.28 11.1205 2C9.68047 2 8.00047 2 6.48047 2C6.48047 3.28 7.52047 4.32 8.80047 4.32Z" fill="#010101"/>
<path d="M15.1999 4.32C16.4799 4.32 17.5199 3.28 17.5199 2C16.1599 2 14.4799 2 12.8799 2C12.8799 3.28 13.9199 4.32 15.1999 4.32Z" fill="#010101"/>
<path d="M21.6804 4.32C22.9603 4.32 24.0003 3.28 24.0003 2C22.6403 2 20.9604 2 19.3604 2C19.3604 3.28 20.4004 4.32 21.6804 4.32Z" fill="#010101"/>
</g>
<defs>
<clipPath id="clip0">
<rect width="24" height="24" fill="white"/>
</clipPath>
</defs>
</svg>
