<svg width="23" height="21" viewBox="0 0 23 21" fill="none" xmlns="http://www.w3.org/2000/svg">
<path d="M5.28805 6C5.08805 6 4.98805 6 4.88805 5.9L1.88805 4.7C1.38805 4.5 1.18805 4 1.28805 3.5L1.68805 2C1.78805 1.7 1.98805 1.5 2.28805 1.3L5.18805 0C5.48805 0 5.78805 0 6.08805 0.1L7.48805 0.8C7.88805 1.1 8.08805 1.6 7.98805 2.1L6.88805 5.1C6.68805 5.5 6.28805 5.7 5.88805 5.7C5.78805 5.9 5.48805 6 5.28805 6ZM3.48805 3.2L5.18805 3.9L5.78805 2.2L5.58805 2.1L3.48805 3V3.2Z" fill="#002F79"/>
<path d="M8.58805 20.2C5.28805 20.2 2.08805 18.3 0.688052 15.1C-0.211948 13 -0.211948 10.7 0.588052 8.60002C1.38805 6.50002 3.08805 4.90002 5.18805 4.00002C9.48805 2.20002 14.5881 4.10002 16.3881 8.40002C17.5881 11.3 17.1881 14.6 15.1881 17C14.8881 17.4 14.1881 17.5 13.7881 17.2C13.3881 16.9 13.2881 16.2 13.5881 15.8C15.0881 13.9 15.3881 11.4 14.4881 9.20002C13.0881 5.90002 9.28805 4.40002 5.98805 5.80002C4.38805 6.50002 3.08805 7.80002 2.48805 9.40002C1.88805 11 1.88805 12.8 2.58805 14.3C3.88805 17.4 7.48805 19 10.7881 17.9C11.2881 17.7 11.8881 18 12.0881 18.5C12.2881 19 11.9881 19.6 11.4881 19.8C10.3881 20.1 9.48805 20.2 8.58805 20.2Z" fill="#002F79"/>
<path d="M16.788 5.99994C16.488 5.99994 16.2881 5.89994 16.0881 5.69994C15.6881 5.69994 15.388 5.39994 15.188 5.09994L14.0881 2.09994C13.8881 1.59994 14.0881 1.09994 14.5881 0.899943L15.9881 0.199943C16.2881 0.0999427 16.588 -5.72875e-05 16.888 0.199943L19.788 1.49994C19.988 1.49994 20.188 1.69994 20.288 1.99994L20.6881 3.49994C20.7881 3.99994 20.5881 4.49994 20.0881 4.69994L17.0881 5.89994C16.9881 5.99994 16.888 5.99994 16.788 5.99994ZM16.288 2.19994L16.888 3.89994L18.5881 3.19994L18.488 2.99994L16.388 2.09994L16.288 2.19994Z" fill="#002F79"/>
<path d="M13.4881 20.2C12.3881 20.2 11.1881 20 10.0881 19.5C7.98805 18.6 6.38805 17 5.58805 14.9C4.78805 12.8 4.78805 10.5 5.68805 8.40005C5.98805 7.80005 6.28805 7.30005 6.58805 6.80005C6.88805 6.40005 7.58805 6.30005 7.98805 6.60005C8.38805 6.90005 8.48805 7.60005 8.18805 8.00005C7.88805 8.30005 7.68805 8.70005 7.48805 9.20005C6.78805 10.8 6.78805 12.5 7.38805 14.1C7.98805 15.7 9.28805 17 10.8881 17.7C14.1881 19.1 18.0881 17.6 19.4881 14.3C20.1881 12.7 20.1881 11 19.5881 9.40005C18.9881 7.80005 17.6881 6.50005 16.0881 5.80005C14.5881 5.20005 12.8881 5.10005 11.3881 5.60005C10.8881 5.80005 10.2881 5.50005 10.0881 5.00005C9.88805 4.50005 10.1881 3.90005 10.6881 3.70005C12.6881 3.00005 14.8881 3.10005 16.8881 3.90005C18.9881 4.80005 20.5881 6.50005 21.4881 8.60005C22.2881 10.7 22.2881 13 21.3881 15.1C19.9881 18.3 16.7881 20.2 13.4881 20.2Z" fill="#002F79"/>
</svg>
