<svg width="24" height="24" viewBox="0 0 24 24" fill="none" xmlns="http://www.w3.org/2000/svg">
<path d="M6.28805 8C6.08805 8 5.98805 8 5.88805 7.9L2.88805 6.7C2.38805 6.5 2.18805 6 2.28805 5.5L2.68805 4C2.78805 3.7 2.98805 3.5 3.28805 3.3L6.18805 2C6.48805 2 6.78805 2 7.08805 2.1L8.48805 2.8C8.88805 3.1 9.08805 3.6 8.98805 4.1L7.88805 7.1C7.68805 7.5 7.28805 7.7 6.88805 7.7C6.78805 7.9 6.48805 8 6.28805 8ZM4.48805 5.2L6.18805 5.9L6.78805 4.2L6.58805 4.1L4.48805 5V5.2Z" fill="#002F79"/>
<path d="M9.58805 22.2C6.28805 22.2 3.08805 20.3 1.68805 17.1C0.788052 15 0.788052 12.7 1.58805 10.6C2.38805 8.50002 4.08805 6.90002 6.18805 6.00002C10.4881 4.20002 15.5881 6.10002 17.3881 10.4C18.5881 13.3 18.1881 16.6 16.1881 19C15.8881 19.4 15.1881 19.5 14.7881 19.2C14.3881 18.9 14.2881 18.2 14.5881 17.8C16.0881 15.9 16.3881 13.4 15.4881 11.2C14.0881 7.90002 10.2881 6.40002 6.98805 7.80002C5.38805 8.50002 4.08805 9.80002 3.48805 11.4C2.88805 13 2.88805 14.8 3.58805 16.3C4.88805 19.4 8.48805 21 11.7881 19.9C12.2881 19.7 12.8881 20 13.0881 20.5C13.2881 21 12.9881 21.6 12.4881 21.8C11.3881 22.1 10.4881 22.2 9.58805 22.2Z" fill="#002F79"/>
<path d="M17.788 8.00043C17.488 8.00043 17.2881 7.90043 17.0881 7.70043C16.6881 7.70043 16.388 7.40043 16.188 7.10043L15.0881 4.10043C14.8881 3.60043 15.0881 3.10043 15.5881 2.90043L16.9881 2.20043C17.2881 2.10043 17.588 2.00043 17.888 2.20043L20.788 3.50043C20.988 3.50043 21.188 3.70043 21.288 4.00043L21.6881 5.50043C21.7881 6.00043 21.5881 6.50043 21.0881 6.70043L18.0881 7.90043C17.9881 8.00043 17.888 8.00043 17.788 8.00043ZM17.288 4.20043L17.888 5.90043L19.5881 5.20043L19.488 5.00043L17.388 4.10043L17.288 4.20043Z" fill="#002F79"/>
<path d="M14.4881 22.1996C13.3881 22.1996 12.1881 21.9996 11.0881 21.4996C8.98805 20.5996 7.38805 18.9996 6.58805 16.8996C5.78805 14.7996 5.78805 12.4996 6.68805 10.3996C6.98805 9.79956 7.28805 9.29956 7.58805 8.79956C7.88805 8.39956 8.58805 8.29956 8.98805 8.59956C9.38805 8.89956 9.48805 9.59956 9.18805 9.99956C8.88805 10.2996 8.68805 10.6996 8.48805 11.1996C7.78805 12.7996 7.78805 14.4996 8.38805 16.0996C8.98805 17.6996 10.2881 18.9996 11.8881 19.6996C15.1881 21.0996 19.0881 19.5996 20.4881 16.2996C21.1881 14.6996 21.1881 12.9996 20.5881 11.3996C19.9881 9.79956 18.6881 8.49956 17.0881 7.79956C15.5881 7.19956 13.8881 7.09956 12.3881 7.59956C11.8881 7.79956 11.2881 7.49956 11.0881 6.99956C10.8881 6.49956 11.1881 5.89956 11.6881 5.69956C13.6881 4.99956 15.8881 5.09956 17.8881 5.89956C19.9881 6.79956 21.5881 8.49956 22.4881 10.5996C23.2881 12.6996 23.2881 14.9996 22.3881 17.0996C20.9881 20.2996 17.7881 22.1996 14.4881 22.1996Z" fill="#002F79"/>
</svg>
