<svg width="32" height="32" viewBox="0 0 32 32" fill="none" xmlns="http://www.w3.org/2000/svg">
<path d="M7.4483 8.0004L2.948 6.20028L3.54804 3.95013L7.89832 2L9.99846 3.05007L8.34835 7.55037" stroke="white" stroke-width="1.5" stroke-miterlimit="10" stroke-linecap="round" stroke-linejoin="round"/>
<path d="M15.9988 28.7019C10.4484 30.652 4.298 27.9518 1.89785 22.5515C-0.502312 16.8511 2.04786 10.2506 7.89824 7.85049C13.7486 5.45033 20.3491 8.0005 22.7492 13.7009C24.3993 17.6011 23.6493 21.9514 21.2491 25.1016" stroke="white" stroke-width="1.5" stroke-miterlimit="10" stroke-linecap="round" stroke-linejoin="round"/>
<path d="M24.6993 8.0004L29.1996 6.20028L28.4496 3.95013L24.0993 2L21.9991 3.05007L23.7993 7.55037" stroke="white" stroke-width="1.5" stroke-miterlimit="10" stroke-linecap="round" stroke-linejoin="round"/>
<path d="M10.5983 11.4508C10.1483 12.2008 9.69824 12.9509 9.39822 13.7009C6.99806 19.4013 9.54823 26.0017 15.2486 28.4019C20.949 30.802 27.6994 28.2519 30.0996 22.5515C32.4997 16.8511 29.9496 10.2507 24.2492 7.85053C21.549 6.65045 18.6988 6.65045 15.9987 7.55051" stroke="white" stroke-width="1.5" stroke-miterlimit="10" stroke-linecap="round" stroke-linejoin="round"/>
</svg>
