<svg width="40" height="30" viewBox="0 0 40 30" fill="none" xmlns="http://www.w3.org/2000/svg">
<path fill-rule="evenodd" clip-rule="evenodd" d="M36.9589 9.90977C38.2127 11.4848 39.0501 13.3378 39.402 15.334C39.8349 17.7766 39.4967 20.2698 38.4236 22.5355C37.0252 25.4835 34.5408 27.7155 31.4282 28.8273C30.053 29.3158 28.6271 29.5601 27.2063 29.5601C25.4241 29.5601 23.648 29.1726 21.9854 28.4146C21.1962 28.0524 20.4639 27.6144 19.7927 27.1259C19.1215 27.6144 18.3891 28.0524 17.6 28.4146C14.6113 29.7875 11.2578 29.9307 8.15721 28.8273C5.0446 27.7155 2.56019 25.4835 1.1618 22.5355C0.103327 20.3035 -0.240893 17.844 0.166147 15.4267C0.506924 13.3968 1.35198 11.5101 2.62646 9.90977L2.27966 9.78343C0.793487 9.25279 0.0232956 7.63562 0.56286 6.17848L1.43201 3.82853C1.95953 2.40508 3.02145 1.26801 4.42242 0.627875C5.81995 -0.0122554 7.38702 -0.0712148 8.83532 0.442574L11.213 1.29327C12.7 1.82391 13.4694 3.44108 12.9298 4.90664L12.8025 5.24355C14.8342 5.31936 16.8152 5.87526 18.5948 6.89442C19.0113 7.13025 19.4106 7.39136 19.7927 7.66931C20.1619 7.39978 20.5474 7.1471 20.9484 6.91968C22.7375 5.88368 24.7348 5.31936 26.7829 5.25198L26.6556 4.90664C26.1151 3.44108 26.8853 1.82391 28.3724 1.29327L30.7501 0.442574C32.1975 -0.0712148 33.7646 -0.0122554 35.1621 0.627875C36.5639 1.26801 37.6259 2.40508 38.1534 3.82853L39.0217 6.17848C39.5621 7.63562 38.7919 9.25279 37.3057 9.78343L36.9589 9.90977ZM36.7395 8.26733C37.3737 8.03991 37.7024 7.34925 37.4709 6.72596L37.4004 6.53224C36.045 6.98707 34.6053 6.99549 33.2603 6.56593L31.5779 10.1119C31.5968 10.1119 31.6166 10.1035 31.6355 10.0951L36.7395 8.26733ZM31.3163 1.95867C32.3498 1.58807 33.4677 1.63861 34.4651 2.09344C35.4668 2.54827 36.2258 3.35685 36.6027 4.37601L36.8385 5.01614C35.6371 5.41201 34.3498 5.3362 33.1966 4.81399C33.194 4.81399 33.1915 4.81399 33.1897 4.80557H33.188C32.0314 4.27493 31.1442 3.34843 30.6769 2.18609L31.3163 1.95867ZM29.1271 2.74199L28.9386 2.80937C28.3035 3.03679 27.9748 3.72745 28.2063 4.35074L30.0659 9.37913C30.0719 9.39594 30.0788 9.41275 30.0857 9.42956L30.0857 9.42967L31.7664 5.88368C30.5659 5.14248 29.646 4.05594 29.1271 2.74199ZM10.4575 2.74199L10.6468 2.80937C11.2819 3.03679 11.6098 3.72745 11.3791 4.35074L9.51949 9.37913C9.51346 9.39598 9.50658 9.41282 9.49969 9.42967L7.81904 5.88368C9.01951 5.14248 9.93943 4.05594 10.4575 2.74199ZM5.1195 2.09344C4.11868 2.54827 3.35968 3.35685 2.98189 4.37601L2.7461 5.01614C3.94743 5.41201 5.23567 5.3362 6.38881 4.81399C7.54969 4.28336 8.44036 3.35685 8.9085 2.18609L8.26911 1.95867C7.23559 1.58807 6.11688 1.63861 5.1195 2.09344ZM2.1136 6.72596L2.18417 6.53224C3.53953 6.98707 4.98009 6.99549 6.32513 6.56593L8.0075 10.1119C7.98771 10.1119 7.96878 10.1035 7.94985 10.0951L2.84593 8.26733C2.21084 8.03991 1.88297 7.34925 2.1136 6.72596ZM8.72085 27.3112C11.4066 28.263 14.3118 28.1366 16.9004 26.949C17.4735 26.6879 18.0122 26.3847 18.513 26.0394C14.9108 22.5271 13.7404 17.0354 16.0037 12.2597C16.6319 10.9373 17.483 9.74974 18.5199 8.74743C16.711 7.50086 14.5175 6.81861 12.2069 6.8523L11.0701 9.92661C10.8077 10.6341 10.2784 11.1985 9.5814 11.5185C8.88521 11.8386 8.10469 11.8723 7.38355 11.6112L4.26665 10.4994C1.49482 13.6411 0.85801 18.063 2.65742 21.8533C3.86993 24.4138 6.02389 26.351 8.72085 27.3112ZM17.4993 12.942C18.0741 11.7291 18.8572 10.6678 19.7944 9.775C20.7289 10.6678 21.5103 11.7291 22.086 12.942C24.0739 17.1365 23.0085 21.9712 19.7927 25.0034C16.5768 21.9712 15.5114 17.1365 17.4993 12.942ZM30.8637 27.3112C33.5615 26.351 35.7146 24.4138 36.928 21.8533C38.7351 18.0462 38.0966 13.6411 35.3187 10.4994L32.2018 11.6112C31.4807 11.8723 30.7002 11.8386 30.004 11.5185C29.3061 11.1985 28.7777 10.6341 28.5152 9.92661L27.3785 6.8523C25.0696 6.81861 22.8761 7.50086 21.0672 8.74743C22.1033 9.75816 22.9535 10.9373 23.5817 12.2597C25.845 17.0354 24.6746 22.5271 21.0715 26.0394C21.5732 26.3847 22.1119 26.6879 22.685 26.949C25.2736 28.1366 28.1788 28.263 30.8637 27.3112Z" fill="#F9F9F9"/>
</svg>
