<svg width="32" height="32" viewBox="0 0 32 32" fill="none" xmlns="http://www.w3.org/2000/svg">
<circle cx="16.0002" cy="16" r="16" fill="#F6F6F6"/>
<g clip-path="url(#clip0)">
<path d="M21.8936 11.0733C21.5531 10.7327 21.1488 10.4624 20.7038 10.2781C20.2588 10.0937 19.7819 9.99878 19.3002 9.99878C18.8186 9.99878 18.3416 10.0937 17.8967 10.2781C17.4517 10.4624 17.0474 10.7327 16.7069 11.0733L16.0002 11.78L15.2936 11.0733C14.6058 10.3855 13.6729 9.99914 12.7002 9.99914C11.7276 9.99914 10.7947 10.3855 10.1069 11.0733C9.41911 11.7611 9.03271 12.694 9.03271 13.6667C9.03271 14.6394 9.41911 15.5722 10.1069 16.26L10.8136 16.9667L16.0002 22.1533L21.1869 16.9667L21.8936 16.26C22.2342 15.9195 22.5045 15.5152 22.6889 15.0702C22.8732 14.6253 22.9681 14.1483 22.9681 13.6667C22.9681 13.185 22.8732 12.7081 22.6889 12.2631C22.5045 11.8181 22.2342 11.4138 21.8936 11.0733V11.0733Z" stroke="#757575" stroke-width="1.5" stroke-linecap="round" stroke-linejoin="round"/>
</g>
<defs>
<clipPath id="clip0">
<rect width="16" height="16" fill="white" transform="translate(8.00024 8)"/>
</clipPath>
</defs>
</svg>
