<svg width="32" height="32" viewBox="0 0 32 32" fill="none" xmlns="http://www.w3.org/2000/svg">
<circle cx="16.0002" cy="16" r="16" fill="#F6F6F6"/>
<path fill-rule="evenodd" clip-rule="evenodd" d="M16.0043 10.4001C20.8684 10.4001 23.2642 14.3931 23.845 15.5547C24.0628 15.9903 24.0628 16.5711 23.7724 16.9341C23.5546 17.4423 23.119 18.1683 22.5382 18.8942C22.3204 19.1846 21.8122 19.1846 21.5218 18.9668C21.2314 18.749 21.2314 18.2408 21.4492 17.9505C22.03 17.2245 22.393 16.5711 22.5382 16.2807V16.1355C22.03 15.1191 20.0698 11.7795 16.0043 11.7795C11.9387 11.7795 9.97857 15.1191 9.47038 16.1355V16.2807C9.97857 17.2971 11.9387 20.6366 16.0043 20.6366C17.4563 20.6366 18.7631 20.201 19.9246 19.4024C20.2876 19.1846 20.7232 19.2572 20.941 19.5476C21.1588 19.9106 21.0862 20.3462 20.7958 20.564C19.3439 21.5804 17.7467 22.0886 16.0043 22.0886C11.0676 22.0886 8.74438 18.1683 8.16359 16.9341C7.94579 16.4985 7.94579 15.9903 8.16359 15.5547C8.74438 14.3931 11.1402 10.4001 16.0043 10.4001ZM16.0043 19.1847C14.4071 19.1847 13.1004 17.8779 13.1004 16.2808C13.1004 14.6836 14.4071 13.3768 16.0043 13.3768C17.6015 13.3768 18.9083 14.6836 18.9083 16.2808C18.9083 17.8779 17.6015 19.1847 16.0043 19.1847ZM16.0043 17.7327C16.8029 17.7327 17.4563 17.0794 17.4563 16.2808C17.4563 15.4822 16.8029 14.8288 16.0043 14.8288C15.2057 14.8288 14.5523 15.4822 14.5523 16.2808C14.5523 17.0794 15.2057 17.7327 16.0043 17.7327Z" fill="#757575"/>
</svg>
