<svg width="32" height="32" viewBox="0 0 32 32" fill="none" xmlns="http://www.w3.org/2000/svg">
<circle cx="16.0002" cy="16" r="16" fill="#F6F6F6"/>
<path d="M18.667 10.6666H20.0003C20.3539 10.6666 20.6931 10.8071 20.9431 11.0572C21.1932 11.3072 21.3337 11.6463 21.3337 12V21.3333C21.3337 21.6869 21.1932 22.0261 20.9431 22.2761C20.6931 22.5262 20.3539 22.6666 20.0003 22.6666H12.0003C11.6467 22.6666 11.3076 22.5262 11.0575 22.2761C10.8075 22.0261 10.667 21.6869 10.667 21.3333V12C10.667 11.6463 10.8075 11.3072 11.0575 11.0572C11.3076 10.8071 11.6467 10.6666 12.0003 10.6666H13.3337" stroke="#757575" stroke-width="1.5" stroke-linecap="round" stroke-linejoin="round"/>
<path d="M18.0002 9.33337H14.0002C13.632 9.33337 13.3335 9.63185 13.3335 10V11.3334C13.3335 11.7016 13.632 12 14.0002 12H18.0002C18.3684 12 18.6668 11.7016 18.6668 11.3334V10C18.6668 9.63185 18.3684 9.33337 18.0002 9.33337Z" stroke="#757575" stroke-width="1.5" stroke-linecap="round" stroke-linejoin="round"/>
</svg>
