<svg width="66" height="65" viewBox="0 0 66 65" fill="none" xmlns="http://www.w3.org/2000/svg">
<g id="icon/sale_color">
<g id="sale">
<g id="Group 19">
<path id="Fill 1" fill-rule="evenodd" clip-rule="evenodd" d="M36.267 28.0986C35.109 25.893 35.958 23.1662 38.1636 22.0082C40.3692 20.8509 43.0966 21.6999 44.2539 23.9054C45.4119 26.111 44.5623 28.8379 42.3567 29.9958C40.1511 31.1538 37.4249 30.3042 36.267 28.0986ZM48.7109 38.4369L52.6705 27.5025C53.1556 26.173 53.0388 24.6757 52.3808 23.4223L49.0205 17.0216C48.3625 15.7682 47.211 14.8483 45.8408 14.4922L34.6316 11.6215C33.4221 11.3067 32.168 11.506 31.0623 12.0873L3.65086 26.4755C1.19497 27.7651 0.690505 30.4358 1.98005 32.8923L12.6016 53.1264C13.8911 55.5829 16.4864 56.8957 18.9435 55.6062L46.3537 41.2173C47.4607 40.6367 48.2825 39.611 48.7109 38.4369Z" fill="#FCAE02"/>
<path id="Fill 3" fill-rule="evenodd" clip-rule="evenodd" d="M40.254 22.7582C39.7393 22.7582 39.2296 22.8827 38.7613 23.1285C37.1885 23.9542 36.5809 25.905 37.4059 27.4764C37.8059 28.2383 38.4787 28.7989 39.2999 29.055C40.1205 29.3098 40.9933 29.2311 41.7539 28.8318C42.5157 28.4318 43.0763 27.759 43.3318 26.9378C43.5879 26.1166 43.5086 25.245 43.1092 24.4838C42.7093 23.722 42.0371 23.1614 41.2152 22.9059C40.8991 22.8072 40.5759 22.7582 40.254 22.7582ZM40.265 31.7837C39.6844 31.7837 39.1019 31.6954 38.5323 31.518C37.0531 31.0574 35.8416 30.0484 35.1217 28.6763C33.6347 25.8443 34.7294 22.3311 37.5614 20.8442C38.9329 20.1243 40.5031 19.9817 41.9829 20.4416C43.4621 20.9029 44.6736 21.9118 45.3935 23.2839C46.8798 26.1159 45.7858 29.6291 42.9538 31.1161C42.11 31.5592 41.1907 31.7837 40.265 31.7837ZM16.9454 57.3825C14.7798 57.3825 12.6929 56.0607 11.4563 53.7048L0.834775 33.4694C0.0503366 31.9766 -0.191575 30.3619 0.152907 28.924C0.522548 27.3803 1.55148 26.0979 3.04875 25.3115L30.4589 10.9226C31.8891 10.1717 33.4864 9.96913 34.9527 10.351C35.6429 10.5304 36.0564 11.2348 35.8771 11.9238C35.6978 12.6127 34.992 13.0269 34.3037 12.8482C33.4451 12.625 32.531 12.7495 31.6588 13.2069L4.24863 27.5958C3.40742 28.0377 2.85844 28.7047 2.66298 29.5246C2.46364 30.3555 2.62556 31.3302 3.11906 32.2701L13.7406 52.5049C14.6037 54.148 16.4106 55.4556 18.3401 54.4421L45.7509 40.0532C46.527 39.6455 47.1624 38.8875 47.4959 37.9734L51.4536 27.0416C51.8136 26.0559 51.7336 24.9489 51.2356 24.0006C50.9046 23.3691 51.1478 22.5892 51.7781 22.2589C52.4103 21.9267 53.1889 22.1699 53.5199 22.8008C54.3553 24.3916 54.4862 26.2585 53.8792 27.9228L49.9209 38.854C49.3616 40.3887 48.3068 41.6253 46.9508 42.3375L19.54 56.7264C18.6956 57.1702 17.8144 57.3825 16.9454 57.3825Z" fill="#1F1F1F"/>
<path id="Fill 5" fill-rule="evenodd" clip-rule="evenodd" d="M36.8013 28.8448C35.0402 27.0837 35.0402 24.2278 36.8013 22.4661C38.5624 20.7043 41.4183 20.7043 43.18 22.4661C44.9411 24.2278 44.9411 27.0837 43.18 28.8448C41.4183 30.6059 38.5624 30.6059 36.8013 28.8448ZM51.7146 34.9726L52.1933 23.446C52.261 22.0326 51.6553 20.7295 50.6547 19.7289L45.5423 14.6165C44.5418 13.616 43.2387 13.0102 41.8246 13.0773L30.2619 13.5928C29.0137 13.6521 27.8686 14.1379 26.9855 15.0216L5.0954 36.9124C3.13366 38.8741 3.38912 41.799 5.35086 43.7607L21.5105 59.9198C23.4723 61.8815 26.3971 62.1376 28.3589 60.1759L50.2496 38.2851C51.1327 37.402 51.6553 36.2208 51.7146 34.9726Z" fill="#73AEF1"/>
<path id="Fill 7" fill-rule="evenodd" clip-rule="evenodd" d="M45.5421 14.6164C44.5415 13.6158 43.2385 13.0094 41.8244 13.0772L30.2617 13.5926C29.0134 13.6519 27.869 14.1377 26.9852 15.0215L5.09516 36.9122C3.13342 38.8739 3.38888 41.7982 5.35062 43.7606L13.3389 51.7488C21.2968 43.8199 28.9741 36.2084 36.6043 28.6266C35.047 26.8545 35.1096 24.1573 36.801 22.4659C38.4983 20.7693 41.2077 20.7119 42.9791 22.2846C44.6854 20.5854 46.3917 18.885 48.1031 17.1768L45.5421 14.6164Z" fill="#98C8FF"/>
<g id="Group 11">
<mask id="mask0" mask-type="alpha" maskUnits="userSpaceOnUse" x="2" y="11" width="52" height="52">
<path id="Clip 10" fill-rule="evenodd" clip-rule="evenodd" d="M2.4519 11.7585H53.4865V62.7951H2.4519V11.7585Z" fill="white"/>
</mask>
<g mask="url(#mask0)">
<path id="Fill 9" fill-rule="evenodd" clip-rule="evenodd" d="M39.9877 22.4129C39.1278 22.4129 38.3188 22.7484 37.7105 23.3567C36.4545 24.612 36.4545 26.6551 37.7105 27.9104C38.9665 29.1658 41.0089 29.1658 42.2649 27.9104C43.5209 26.6551 43.5209 24.612 42.2649 23.3567C41.6566 22.7484 40.8476 22.4129 39.9877 22.4129ZM39.9877 31.4314C38.502 31.4314 37.017 30.8663 35.8862 29.7354C33.6244 27.4737 33.6244 23.7941 35.8862 21.5323C36.9815 20.4363 38.4382 19.8325 39.9877 19.8325C41.5372 19.8325 42.9938 20.4363 44.0892 21.5323C46.3509 23.7941 46.3509 27.4737 44.0892 29.7354C42.9584 30.8663 41.4733 31.4314 39.9877 31.4314ZM42.0308 14.3402C41.9818 14.3402 41.9327 14.3414 41.8831 14.344L30.3165 14.8595C29.3772 14.904 28.5386 15.2685 27.8948 15.9123L6.00405 37.8023C5.32347 38.4836 4.98867 39.3293 5.03705 40.2473C5.08543 41.1697 5.51958 42.0851 6.2608 42.8264L22.4198 58.9854C23.9506 60.5162 26.0627 60.6214 27.4438 59.2421L49.3339 37.3508C49.9913 36.6941 50.3777 35.8212 50.4235 34.8923L50.9022 23.3702C50.9486 22.3897 50.5357 21.4156 49.739 20.6189L44.6267 15.5065C43.8712 14.7511 42.9552 14.3402 42.0308 14.3402ZM25.1589 62.7953C23.5526 62.7953 21.9147 62.1296 20.5948 60.8097L4.43643 44.6507C3.24365 43.4585 2.54178 41.9426 2.45986 40.3814C2.37406 38.7371 2.98496 37.1734 4.17968 35.978L26.0704 14.0879C27.1755 12.9829 28.6024 12.3584 30.1971 12.2817L41.7643 11.7662C43.4751 11.6772 45.135 12.3655 46.4516 13.6822L51.5634 18.7946C52.8806 20.1112 53.5612 21.7775 53.4799 23.4857L53.0013 35.0116C52.9258 36.585 52.271 38.0636 51.1582 39.1757L29.2682 61.0665C28.1134 62.2212 26.6497 62.7953 25.1589 62.7953Z" fill="#1F1F1F"/>
</g>
</g>
<path id="Fill 12" fill-rule="evenodd" clip-rule="evenodd" d="M33.3293 45.6408C32.9991 45.6408 32.6694 45.515 32.4172 45.2628L19.9836 32.8291C19.4791 32.3247 19.4791 31.5086 19.9836 31.0048C20.4874 30.5003 21.3034 30.5003 21.8079 31.0048L34.2415 43.4384C34.7453 43.9422 34.7453 44.7589 34.2415 45.2628C33.9893 45.515 33.6596 45.6408 33.3293 45.6408Z" fill="#1F1F1F"/>
<path id="Fill 14" fill-rule="evenodd" clip-rule="evenodd" d="M27.3994 51.571C27.0691 51.571 26.7395 51.4452 26.4872 51.1929L14.0536 38.7593C13.5492 38.2549 13.5492 37.4388 14.0536 36.935C14.5575 36.4305 15.3735 36.4305 15.878 36.935L28.3116 49.3686C28.8154 49.8724 28.8154 50.6891 28.3116 51.1929C28.0593 51.4452 27.7297 51.571 27.3994 51.571Z" fill="#1F1F1F"/>
<g id="Group 18">
<mask id="mask1" mask-type="alpha" maskUnits="userSpaceOnUse" x="35" y="0" width="31" height="31">
<path id="Clip 17" fill-rule="evenodd" clip-rule="evenodd" d="M35.2983 0.742676H65.1434V30.9101H35.2983V0.742676Z" fill="white"/>
</mask>
<g mask="url(#mask1)">
<path id="Fill 16" fill-rule="evenodd" clip-rule="evenodd" d="M50.064 30.9102C46.034 30.9102 42.2454 29.3406 39.396 26.4906C38.8922 25.9868 38.8922 25.1707 39.396 24.6663C39.8998 24.1624 40.7165 24.1624 41.2203 24.6663C43.5827 27.0286 46.723 28.3298 50.064 28.3298C53.4049 28.3298 56.5452 27.0286 58.9076 24.6663C63.7839 19.7906 63.7839 11.8559 58.9076 6.97899C54.03 2.10399 46.0966 2.10399 41.2203 6.97899C39.5263 8.67366 38.36 10.8005 37.8484 13.1287C37.6962 13.8254 37.0085 14.2667 36.3124 14.1118C35.6164 13.9596 35.1758 13.2706 35.3286 12.5752C35.946 9.76516 37.3523 7.19897 39.396 5.15466C45.2767 -0.727339 54.8486 -0.728629 60.7319 5.15466C66.6139 11.0373 66.6139 20.6086 60.7319 26.4906C57.8825 29.3406 54.0939 30.9102 50.064 30.9102Z" fill="#1F1F1F"/>
</g>
</g>
</g>
</g>
</g>
</svg>
