<svg width="16" height="16" viewBox="0 0 16 16" fill="none" xmlns="http://www.w3.org/2000/svg">
<path d="M15.1334 14.2L12.4667 11.5333C13.4 10.4 14 8.93334 14 7.33334C14 3.66667 11 0.666672 7.33335 0.666672C3.66669 0.666672 0.666687 3.66667 0.666687 7.33334C0.666687 11 3.66669 14 7.33335 14C8.93335 14 10.4 13.4667 11.5334 12.4667L14.2 15.1333C14.3334 15.2667 14.5334 15.3333 14.6667 15.3333C14.8 15.3333 15 15.2667 15.1334 15.1333C15.4 14.8667 15.4 14.4667 15.1334 14.2ZM2.00002 7.33334C2.00002 4.4 4.40002 2.00001 7.33335 2.00001C10.2667 2.00001 12.6667 4.4 12.6667 7.33334C12.6667 10.2667 10.2667 12.6667 7.33335 12.6667C4.40002 12.6667 2.00002 10.2667 2.00002 7.33334Z" fill="white"/>
</svg>
