<svg width="16" height="16" viewBox="0 0 16 16" fill="none" xmlns="http://www.w3.org/2000/svg">
<path d="M15.1335 14.2L12.4669 11.5333C13.4002 10.4 14.0002 8.93329 14.0002 7.33329C14.0002 3.66663 11.0002 0.666626 7.33354 0.666626C3.66687 0.666626 0.66687 3.66663 0.66687 7.33329C0.66687 11 3.66687 14 7.33354 14C8.93354 14 10.4002 13.4666 11.5335 12.4666L14.2002 15.1333C14.3335 15.2666 14.5335 15.3333 14.6669 15.3333C14.8002 15.3333 15.0002 15.2666 15.1335 15.1333C15.4002 14.8666 15.4002 14.4666 15.1335 14.2ZM2.0002 7.33329C2.0002 4.39996 4.4002 1.99996 7.33354 1.99996C10.2669 1.99996 12.6669 4.39996 12.6669 7.33329C12.6669 10.2666 10.2669 12.6666 7.33354 12.6666C4.4002 12.6666 2.0002 10.2666 2.0002 7.33329Z" fill="#FCAE02" stroke="#FCAE02"/>
</svg>
