<svg width="21" height="24" viewBox="0 0 21 24" fill="none" xmlns="http://www.w3.org/2000/svg">
<path d="M18.5 9H1.5C0.7 9 0 9.7 0 10.5V11.5C0 12.1 0.4 12.5 1 12.5C1.6 12.5 2 12.1 2 11.5V11H18.1V11.5C18.1 12.1 18.5 12.5 19.1 12.5C19.7 12.5 20.1 12.1 20.1 11.5V10.5C20.1 9.7 19.4 9 18.5 9Z" fill="#002F79"/>
<path d="M19.1 20.5C18.5 20.5 18.1 20.9 18.1 21.5V22H2V21.5C2 20.9 1.6 20.5 1 20.5C0.4 20.5 0 20.9 0 21.5V22.5C0 23.3 0.7 24 1.5 24H18.5C19.3 24 20 23.3 20 22.5V21.5C20.1 20.9 19.6 20.5 19.1 20.5Z" fill="#002F79"/>
<path d="M4.1 20V13C4.1 12.4 3.7 12 3.1 12C2.5 12 2.1 12.4 2.1 13V20C2.1 20.6 2.5 21 3.1 21C3.7 21 4.1 20.6 4.1 20Z" fill="#002F79"/>
<path d="M6.1 12C5.5 12 5.1 12.4 5.1 13V15.4C4.8 15.7 4.6 16.1 4.6 16.5C4.6 16.9 4.8 17.3 5.1 17.6V20C5.1 20.6 5.5 21 6.1 21C6.7 21 7.1 20.6 7.1 20V17.6C7.4 17.3 7.6 16.9 7.6 16.5C7.6 16.1 7.4 15.7 7.1 15.4V13C7.1 12.4 6.6 12 6.1 12Z" fill="#002F79"/>
<path d="M14.1 12C13.5 12 13.1 12.4 13.1 13V15.4C12.8 15.7 12.6 16.1 12.6 16.5C12.6 16.9 12.8 17.3 13.1 17.6V20C13.1 20.6 13.5 21 14.1 21C14.7 21 15.1 20.6 15.1 20V17.6C15.4 17.3 15.6 16.9 15.6 16.5C15.6 16.1 15.4 15.7 15.1 15.4V13C15.1 12.4 14.6 12 14.1 12Z" fill="#002F79"/>
<path d="M10.1 12C9.5 12 9.1 12.4 9.1 13V15.4C8.8 15.7 8.6 16.1 8.6 16.5C8.6 16.9 8.8 17.3 9.1 17.6V20C9.1 20.6 9.5 21 10.1 21C10.7 21 11.1 20.6 11.1 20V17.6C11.4 17.3 11.6 16.9 11.6 16.5C11.6 16.1 11.4 15.7 11.1 15.4V13C11.1 12.4 10.6 12 10.1 12Z" fill="#002F79"/>
<path d="M18.1 20V13C18.1 12.4 17.7 12 17.1 12C16.5 12 16.1 12.4 16.1 13V20C16.1 20.6 16.5 21 17.1 21C17.7 21 18.1 20.6 18.1 20Z" fill="#002F79"/>
<path d="M13.1 8.50005C14.2 8.50005 15.1 7.60005 15.1 6.50005C15.1 6.40005 15.1 6.30005 15.1 6.20005L19.3 2.80005C19.7 2.50005 19.8 1.80005 19.4 1.40005C19.1 1.00005 18.4 0.90005 18 1.30005L13.8 4.70005C13.6 4.60005 13.3 4.60005 13.1 4.60005C12 4.60005 11.1 5.50005 11.1 6.60005C11.1 7.60005 12 8.50005 13.1 8.50005Z" fill="#002F79"/>
<path d="M5.1 6.19985C5.1 6.29985 5.1 6.39985 5.1 6.49985C5.1 7.59985 6 8.49985 7.1 8.49985C8.2 8.49985 9.1 7.59985 9.1 6.49985C9.1 5.39985 8.2 4.49985 7.1 4.49985C6.9 4.49985 6.6 4.59985 6.4 4.59985L2.2 1.19985C1.7 0.899855 1.1 0.899855 0.8 1.39985C0.4 1.79985 0.5 2.39985 0.9 2.79985L5.1 6.19985Z" fill="#002F79"/>
</svg>
