<svg width="58" height="38" viewBox="0 0 58 38" fill="none" xmlns="http://www.w3.org/2000/svg">
<path d="M53.7533 37.1668H20.6162C18.7391 37.1668 17.2178 35.6728 17.2178 33.8296V13.528C17.2178 11.6848 18.7391 10.1908 20.6162 10.1908H53.7533C55.6303 10.1908 57.1517 11.6848 57.1517 13.528V33.8296C57.1517 35.6728 55.6303 37.1668 53.7533 37.1668Z" fill="#F4FBFF"/>
<path d="M53.7578 10.1908H52.915V31.8395C52.915 32.4835 52.3825 33.0064 51.7266 33.0064H17.2178V33.834C17.2178 35.675 18.7369 37.1668 20.6117 37.1668H53.7578C55.6326 37.1668 57.1517 35.675 57.1517 33.834V13.5236C57.1517 11.6837 55.6326 10.1908 53.7578 10.1908Z" fill="#E4F6FF"/>
<path d="M17.2174 17.0088H57.1514V24.9325H17.2163L17.2174 17.0088Z" fill="#9FBFF8"/>
<path d="M37.3852 27.8092H4.24707C2.37 27.8092 0.848633 26.3152 0.848633 24.472V4.17043C0.848633 2.32716 2.37 0.833191 4.24707 0.833191H37.3841C39.2612 0.833191 40.7825 2.32716 40.7825 4.17043V24.472C40.7837 26.3152 39.2612 27.8092 37.3852 27.8092Z" fill="#4CC2DE"/>
<path d="M37.3886 0.833191H36.5458V22.4819C36.5458 23.1259 36.0134 23.6488 35.3575 23.6488H0.848633V24.4764C0.848633 26.3174 2.36773 27.8092 4.24254 27.8092H37.3886C39.2634 27.8092 40.7825 26.3174 40.7825 24.4764V4.16598C40.7837 2.32494 39.2634 0.833191 37.3886 0.833191Z" fill="#0000DA"/>
<path d="M13.6105 17.2958H7.06055C6.12258 17.2958 5.36133 16.5483 5.36133 15.6272V11.1675C5.36133 10.2464 6.12258 9.4989 7.06055 9.4989H13.6105C14.5484 9.4989 15.3097 10.2464 15.3097 11.1675V15.6272C15.3097 16.5483 14.5496 17.2958 13.6105 17.2958Z" fill="#FFE07D"/>
<path d="M13.6127 9.4989H13.2004V14.6694C13.2004 14.9764 12.9466 15.2245 12.6351 15.2245H5.36133V15.6294C5.36133 16.5494 6.12145 17.2958 7.05828 17.2958H13.6127C14.5496 17.2958 15.3097 16.5494 15.3097 15.6294V11.1653C15.3097 10.2453 14.5507 9.4989 13.6127 9.4989Z" fill="#FFD064"/>
<path d="M52.915 17.0088H57.1518V24.9325H52.915V17.0088Z" fill="#5A90F4"/>
<path d="M53.7576 9.35761H41.632V4.16598C41.632 1.86885 39.7277 0 37.3885 0H4.24238C1.90313 0 0 1.86885 0 4.16598V6.63331C0 7.09385 0.379492 7.46651 0.848477 7.46651C1.31746 7.46651 1.69695 7.09385 1.69695 6.63331V4.16598C1.69695 2.7877 2.83883 1.66639 4.24238 1.66639H37.3885C38.792 1.66639 39.9339 2.7877 39.9339 4.16598V24.4764C39.9339 25.8547 38.792 26.976 37.3885 26.976H4.24238C2.83883 26.976 1.69695 25.8547 1.69695 24.4764V10.5245C1.69695 10.064 1.31746 9.69133 0.848477 9.69133C0.379492 9.69133 0 10.064 0 10.5245V24.4764C0 26.7735 1.90313 28.6424 4.24238 28.6424H16.368V33.834C16.368 36.1311 18.2711 38 20.6104 38H26.6007C27.0697 38 27.4492 37.6273 27.4492 37.1668C27.4492 36.7063 27.0697 36.3336 26.6007 36.3336H20.6104C19.2068 36.3336 18.065 35.2123 18.065 33.834V28.6424H37.3885C39.2701 28.6424 40.8673 27.4332 41.4224 25.7657H56.303V33.834C56.303 35.2123 55.1612 36.3336 53.7576 36.3336H30.4964C30.0275 36.3336 29.648 36.7063 29.648 37.1668C29.648 37.6273 30.0275 38 30.4964 38H53.7576C56.0969 38 58 36.1311 58 33.834V13.5236C58 11.2265 56.0969 9.35761 53.7576 9.35761ZM56.303 16.1756H44.3881C43.9191 16.1756 43.5396 16.5482 43.5396 17.0088C43.5396 17.4693 43.9191 17.842 44.3881 17.842H56.3019V24.0993H41.6309V11.024H53.7565C55.16 11.024 56.3019 12.1453 56.3019 13.5236L56.303 16.1756Z" fill="black"/>
<path d="M13.6131 8.66565H7.05861C5.65506 8.66565 4.51318 9.78696 4.51318 11.1652V15.6293C4.51318 17.0076 5.65506 18.1289 7.05861 18.1289H13.6131C15.0166 18.1289 16.1585 17.0076 16.1585 15.6293V11.1652C16.1585 9.78696 15.0166 8.66565 13.6131 8.66565ZM6.21014 15.6293V14.2344H7.33615C7.80514 14.2344 8.18576 13.8606 8.18576 13.4001C8.18576 12.9395 7.80514 12.5658 7.33615 12.5658H6.21014V11.1652C6.21014 10.7058 6.59076 10.332 7.05861 10.332H9.50096V16.4625H7.05861C6.59076 16.4625 6.21014 16.0888 6.21014 15.6293ZM13.6131 16.4625H11.2002V10.332H13.6131C14.0809 10.332 14.4615 10.7058 14.4615 11.1652V12.5658H13.2517C12.7827 12.5658 12.4021 12.9395 12.4021 13.4001C12.4021 13.8606 12.7827 14.2344 13.2517 14.2344H14.4615V15.6293C14.4615 16.0888 14.0809 16.4625 13.6131 16.4625Z" fill="black"/>
<path d="M5.60189 20.4261C5.13291 20.4261 4.75342 20.7988 4.75342 21.2593C4.75342 21.7199 5.13291 22.0925 5.60189 22.0925H10.4356C10.9046 22.0925 11.2841 21.7199 11.2841 21.2593C11.2841 20.7988 10.9046 20.4261 10.4356 20.4261H5.60189Z" fill="black"/>
<path d="M13.3354 21.2593C13.3354 21.7199 13.7149 22.0925 14.1839 22.0925H19.0176C19.4866 22.0925 19.8661 21.7199 19.8661 21.2593C19.8661 20.7988 19.4866 20.4261 19.0176 20.4261H14.1839C13.7149 20.4261 13.3354 20.7999 13.3354 21.2593Z" fill="black"/>
<path d="M27.5997 22.0936C28.0687 22.0936 28.4481 21.721 28.4481 21.2604C28.4481 20.7999 28.0687 20.4272 27.5997 20.4272H22.766C22.297 20.4272 21.9175 20.7999 21.9175 21.2604C21.9175 21.721 22.297 22.0936 22.766 22.0936H27.5997Z" fill="black"/>
<path d="M30.4985 21.2593C30.4985 21.7199 30.878 22.0925 31.347 22.0925H36.1807C36.6497 22.0925 37.0292 21.7199 37.0292 21.2593C37.0292 20.7988 36.6497 20.4261 36.1807 20.4261H31.347C30.8792 20.4261 30.4985 20.7999 30.4985 21.2593Z" fill="black"/>
<path d="M50.0362 30.2098C50.5052 30.2098 50.8847 29.8371 50.8847 29.3766C50.8847 28.9161 50.5052 28.5434 50.0362 28.5434H45.2025C44.7335 28.5434 44.354 28.9161 44.354 29.3766C44.354 29.8371 44.7335 30.2098 45.2025 30.2098H50.0362Z" fill="black"/>
<path d="M32.2556 5.01587C30.4545 5.01587 28.9897 6.45422 28.9897 8.22295C28.9897 9.99169 30.4545 11.43 32.2556 11.43C34.0568 11.43 35.5215 9.99169 35.5215 8.22295C35.5215 6.45422 34.0557 5.01587 32.2556 5.01587ZM32.2556 9.76253C31.3902 9.76253 30.6867 9.07172 30.6867 8.22184C30.6867 7.37196 31.3902 6.68115 32.2556 6.68115C33.1211 6.68115 33.8246 7.37196 33.8246 8.22184C33.8246 9.07172 33.12 9.76253 32.2556 9.76253Z" fill="black"/>
</svg>
