<svg width="58" height="58" viewBox="0 0 58 58" fill="none" xmlns="http://www.w3.org/2000/svg">
<path d="M43.2608 57.1492H14.7389C7.06859 57.1492 0.850586 50.9312 0.850586 43.2609V14.739C0.850586 7.06872 7.06859 0.850708 14.7389 0.850708H43.262C50.9322 0.850708 57.1502 7.06872 57.1502 14.739V43.2621C57.1491 50.9312 50.9311 57.1492 43.2608 57.1492Z" fill="#F4FBFF"/>
<path d="M48.0684 1.70825C48.6234 3.20923 48.927 4.83255 48.927 6.5261V40.8152C48.927 45.2955 45.2952 48.9273 40.815 48.9273H6.52586C4.8323 48.9273 3.20898 48.6237 1.70801 48.0686C3.66777 53.3702 8.76656 57.1492 14.7489 57.1492H43.2505C50.9264 57.1492 57.1501 50.9267 57.1501 43.2496V14.7492C57.149 8.76681 53.3699 3.66802 48.0684 1.70825Z" fill="#E4F6FF"/>
<path d="M37.9739 36.8152H20.0256C11.5091 36.8152 4.49586 43.2473 3.57715 51.5191C6.10898 54.9345 10.1712 57.1492 14.7489 57.1492H43.2505C47.8293 57.1492 51.8905 54.9345 54.4223 51.5191C53.5036 43.2484 46.4903 36.8152 37.9739 36.8152Z" fill="#4CC2DE"/>
<path d="M48.9225 40.9557C48.8466 45.3703 45.2465 48.9262 40.8138 48.9262H6.52586C5.71137 48.9262 4.91273 48.8548 4.13676 48.7211C3.87281 49.624 3.68363 50.5597 3.57715 51.5192C6.10898 54.9346 10.1712 57.1492 14.7489 57.1492H43.2505C47.8293 57.1492 51.8905 54.9346 54.4223 51.5192C53.9567 47.3255 51.9233 43.6053 48.9225 40.9557Z" fill="#0000DA"/>
<path d="M31.4684 42.852H26.5328C23.6611 42.852 21.332 40.5241 21.332 37.6513V27.5149H36.6692V37.6513C36.668 40.5241 34.3401 42.852 31.4684 42.852Z" fill="#FFB983"/>
<path d="M32.2443 6.18628H19.9691C18.1589 6.18628 16.6919 7.65327 16.6919 9.46237V21.025H41.3068V15.2488C41.3068 10.2429 37.2502 6.18628 32.2443 6.18628Z" fill="#2B4D66"/>
<path d="M19.5679 27.7913H18.6719C16.4663 27.7913 14.6787 26.0037 14.6787 23.7981V22.9259C14.6787 21.5767 15.7719 20.4835 17.1211 20.4835H17.1245C18.4736 20.4835 19.5668 21.5767 19.5668 22.9259L19.5679 27.7913Z" fill="#FFB983"/>
<path d="M38.4316 27.7913H39.3277C41.5333 27.7913 43.3209 26.0037 43.3209 23.7981V22.9259C43.3209 21.5767 42.2277 20.4835 40.8785 20.4835H40.8751C39.5259 20.4835 38.4328 21.5767 38.4328 22.9259L38.4316 27.7913Z" fill="#FFB983"/>
<path d="M36.9396 32.6635L34.222 35.7414C31.4489 38.8827 26.5495 38.8827 23.7763 35.7414L21.0587 32.6635C19.2643 30.6324 18.2754 28.0156 18.2754 25.3048V18.5283C18.2754 16.0237 20.3054 13.9937 22.81 13.9937H35.1883C37.6929 13.9937 39.7229 16.0237 39.7229 18.5283V25.3048C39.7241 28.0156 38.734 30.6313 36.9396 32.6635Z" fill="#FCD0A3"/>
<path d="M25.3229 28.0258C24.9944 28.0258 24.7712 28.3667 24.9083 28.6658C25.6219 30.2121 27.1852 31.2849 29 31.2849C30.8147 31.2849 32.378 30.2121 33.0917 28.6658C33.2299 28.3667 33.0067 28.0258 32.6771 28.0258H25.3229Z" fill="#F4FBFF"/>
<path d="M43.2508 0H14.7492C6.61676 0 0 6.61676 0 14.7492V30.6188C0 31.0878 0.380625 31.4695 0.850742 31.4695C1.32086 31.4695 1.70148 31.0889 1.70148 30.6188V14.7492C1.70148 7.55473 7.55473 1.70035 14.7504 1.70035H43.2519C50.4475 1.70035 56.3008 7.55359 56.3008 14.7492V43.2508C56.3008 45.3873 55.7842 47.4059 54.87 49.1879C54.648 48.2873 54.3512 47.4071 53.9876 46.5529C53.9434 46.4272 53.8788 46.3105 53.8301 46.187L53.8279 46.1882C51.0083 39.9679 44.8243 35.9657 37.9764 35.9657H37.521V33.299C37.521 33.2968 37.521 33.2945 37.521 33.2934L37.5799 33.2265C38.7739 31.8739 39.6348 30.2835 40.1197 28.5763C42.451 28.1946 44.1729 26.1929 44.1729 23.7947V22.9281C44.1729 21.5654 43.3414 20.394 42.1599 19.8922V15.2556C42.1599 13.0239 41.436 10.9169 40.0676 9.16105C39.7787 8.79063 39.244 8.72492 38.8747 9.01379C38.5043 9.30266 38.4386 9.83621 38.7275 10.2066C39.8614 11.6612 40.4607 13.4068 40.4607 15.2556V17.4125C39.9452 14.9769 37.7793 13.144 35.1931 13.144H22.8103C20.2241 13.144 18.0582 14.978 17.5427 17.4125V9.46465C17.5427 8.12566 18.6325 7.0359 19.9715 7.0359H32.2376C33.589 7.0359 34.9291 7.37121 36.1129 8.00445C36.5264 8.22649 37.0418 8.07016 37.2639 7.65668C37.4859 7.2432 37.3296 6.72777 36.9161 6.50574C35.4865 5.73996 33.8688 5.33555 32.2387 5.33555H19.9715C17.6945 5.33555 15.8424 7.1877 15.8424 9.46465V19.8922C14.6609 20.3929 13.8294 21.5654 13.8294 22.9281V23.7947C13.8294 26.1929 15.5513 28.1946 17.8826 28.5763C18.3674 30.2835 19.2284 31.8739 20.4223 33.2265L20.4813 33.2934C20.4813 33.2956 20.4813 33.2979 20.4813 33.299V35.9657H20.0259C15.8061 35.9657 11.7359 37.495 8.5652 40.2726C5.87023 42.6334 3.9807 45.752 3.13109 49.189C2.21691 47.4071 1.70035 45.3884 1.70035 43.2508V34.5576C1.70035 34.0886 1.31973 33.7068 0.849609 33.7068C0.379492 33.7068 0 34.0875 0 34.5564V43.2496C0 51.3832 6.61676 58 14.7492 58H43.2508C51.3832 58 58 51.3832 58 43.2508V14.7492C58 6.61676 51.3832 0 43.2508 0ZM40.5739 25.3048V21.3626C40.6725 21.3433 40.7733 21.3331 40.8764 21.3331C41.7555 21.3331 42.4703 22.0479 42.4703 22.927V23.7936C42.4703 25.1179 41.6603 26.2575 40.4867 26.7196C40.5434 26.2529 40.5739 25.7805 40.5739 25.3048ZM15.5297 23.7947V22.9281C15.5297 22.0491 16.2445 21.3343 17.1236 21.3343C17.2267 21.3343 17.3275 21.3467 17.4261 21.3648V25.3048C17.4261 25.7805 17.4566 26.2529 17.5133 26.7208C16.3386 26.2597 15.5297 25.1201 15.5297 23.7947ZM19.1264 25.3048V18.5283C19.1264 16.4971 20.7792 14.8444 22.8114 14.8444H35.1897C37.2208 14.8444 38.8736 16.4971 38.8736 18.5283V25.3048C38.8736 27.8094 37.9605 30.2223 36.3032 32.1005L33.5856 35.1784C32.4245 36.4924 30.7536 37.2469 29 37.2469C27.2464 37.2469 25.5755 36.4936 24.4144 35.1784L21.6968 32.1005C20.0395 30.2223 19.1264 27.8094 19.1264 25.3048ZM35.8184 35.218V37.6479C35.8184 40.0483 33.8654 42.0024 31.4639 42.0024H26.5361C24.1357 42.0024 22.1816 40.0495 22.1816 37.6479V35.218L23.14 36.3032C24.6228 37.9832 26.7593 38.9461 29 38.9461C31.2407 38.9461 33.3772 37.9821 34.86 36.3032L35.8184 35.218ZM4.45648 51.262C4.46555 51.2269 4.47461 51.1907 4.48027 51.1544C4.70344 49.5719 5.16449 48.0698 5.82152 46.6821L6.01977 46.8758C8.55953 49.3476 10.363 52.4254 11.2783 55.8307C8.54027 55.0728 6.1591 53.445 4.45648 51.262ZM46.7229 55.8295C47.4184 53.2411 48.6271 50.8418 50.2821 48.754C50.5484 48.4187 50.5291 47.9406 50.2323 47.6336C49.8755 47.2632 49.2739 47.2927 48.9534 47.6959C46.9811 50.1813 45.5923 53.0745 44.882 56.1977C44.3473 56.2645 43.8025 56.2996 43.2508 56.2996H14.7492C14.1975 56.2996 13.6538 56.2645 13.1191 56.1977C12.2049 52.1773 10.1647 48.5387 7.20469 45.658L6.66547 45.1335C9.46012 40.6317 14.4626 37.666 20.0247 37.666H20.4813C20.4914 40.9965 23.2023 43.7028 26.535 43.7028H31.4627C34.7955 43.7028 37.5074 40.9965 37.5165 37.666H37.973C44.2057 37.666 49.8313 41.3409 52.3439 47.0378C52.9386 48.3858 53.3407 49.8075 53.5356 51.2711C51.8352 53.4484 49.4575 55.0739 46.7229 55.8295Z" fill="black"/>
<path d="M23.8401 23.9284C24.5334 23.9284 25.0953 23.3665 25.0953 22.6732C25.0953 21.98 24.5334 21.4181 23.8401 21.4181C23.1468 21.4181 22.585 21.98 22.585 22.6732C22.585 23.3665 23.1468 23.9284 23.8401 23.9284Z" fill="black"/>
<path d="M34.1599 23.9284C34.8532 23.9284 35.4151 23.3665 35.4151 22.6732C35.4151 21.98 34.8532 21.4181 34.1599 21.4181C33.4667 21.4181 32.9048 21.98 32.9048 22.6732C32.9048 23.3665 33.4667 23.9284 34.1599 23.9284Z" fill="black"/>
<path d="M24.2215 27.7788C23.9813 28.1538 23.9496 28.6194 24.1354 29.0226C25.0088 30.9144 26.9175 32.1356 28.9985 32.1356C31.0795 32.1356 32.9894 30.9133 33.8617 29.0226C34.0475 28.6194 34.0158 28.1538 33.7756 27.7788C33.5343 27.4016 33.1231 27.1761 32.6756 27.1761H25.3203C24.8751 27.1761 24.4639 27.4016 24.2215 27.7788ZM31.9926 28.8765C31.3151 29.8394 30.1993 30.4353 28.9997 30.4353C27.8 30.4353 26.6842 29.8394 26.0068 28.8765H31.9926Z" fill="black"/>
</svg>
