<svg width="58" height="65" viewBox="0 0 58 65" fill="none" xmlns="http://www.w3.org/2000/svg">
<g id="icon/ss_color">
<g id="Group 28">
<path id="Fill 1" fill-rule="evenodd" clip-rule="evenodd" d="M42.0683 53.8335H16.0851C14.677 53.8335 13.2214 52.7763 13.2214 51.4751V3.77702C13.2214 2.32435 14.5045 1.30518 15.6993 1.30518H44.0305L55.2898 12.8336V51.7173C55.2898 52.9176 54.4802 53.8335 53.2861 53.8335H48.078" fill="#EDF1F7"/>
<path id="Fill 3" fill-rule="evenodd" clip-rule="evenodd" d="M53.2859 55.041H48.2383C47.5748 55.041 47.0364 54.5001 47.0364 53.8335C47.0364 53.1669 47.5748 52.626 48.2383 52.626H53.2859C53.8166 52.626 54.0876 52.2498 54.0876 51.7173V13.3342L43.5327 2.51275H15.6997C15.1588 2.51275 14.4232 2.99275 14.4232 3.77705V51.5621L14.4911 51.6484C14.4671 51.8145 14.6155 51.9527 14.7105 52.0632C15.0103 52.4116 15.5993 52.626 16.0849 52.626H42.2286C42.8926 52.626 43.4305 53.1669 43.4305 53.8335C43.4305 54.5001 42.8926 55.041 42.2286 55.041H16.0849C14.8986 55.041 13.6107 54.523 12.8528 53.6439C12.2783 52.9767 12.0193 52.2021 12.0193 51.4009V3.77705C12.0193 1.74596 13.7255 0.0976562 15.6997 0.0976562H44.5279L56.4915 12.3337V51.7173C56.4915 53.5817 55.1417 55.041 53.2859 55.041Z" fill="#1F1F1F"/>
<path id="Fill 5" fill-rule="evenodd" clip-rule="evenodd" d="M55.45 14.645H46.5496C45.0928 14.645 44.0315 13.6941 44.0315 12.2299V3.17334" fill="#98C8FF"/>
<path id="Fill 7" fill-rule="evenodd" clip-rule="evenodd" d="M55.4501 15.8526H46.5496C44.3945 15.8526 42.8296 14.3293 42.8296 12.23V3.17337C42.8296 2.5068 43.3681 1.96582 44.0315 1.96582C44.695 1.96582 45.2335 2.5068 45.2335 3.17337V12.23C45.2335 13.3506 46.2413 13.4375 46.5496 13.4375H55.4501C56.1136 13.4375 56.652 13.9785 56.652 14.6451C56.652 15.3116 56.1136 15.8526 55.4501 15.8526Z" fill="#1F1F1F"/>
<path id="Fill 9" fill-rule="evenodd" clip-rule="evenodd" d="M38.321 62.8901H40.6654C41.8601 62.8901 42.669 61.9742 42.669 60.7739V21.8903L31.4097 10.3618H3.07851C1.88437 10.3618 1.20166 11.381 1.20166 12.8337V60.5318C1.20166 62.0038 2.05685 62.8901 3.46434 62.8901H29.9073H38.321Z" fill="#F8F9FB"/>
<g id="Group 13">
<mask id="mask0" mask-type="alpha" maskUnits="userSpaceOnUse" x="0" y="9" width="44" height="56">
<path id="Clip 12" fill-rule="evenodd" clip-rule="evenodd" d="M0 9.1543H43.871V64.0977H0V9.1543Z" fill="white"/>
</mask>
<g mask="url(#mask0)">
<path id="Fill 11" fill-rule="evenodd" clip-rule="evenodd" d="M40.6654 64.0977H3.46438C1.45712 64.0977 -0.000244141 62.7326 -0.000244141 60.5318V34.5695C-0.000244141 33.903 0.53823 33.362 1.20171 33.362C1.86579 33.362 2.40366 33.903 2.40366 34.5695V60.5318C2.40366 61.7394 3.1056 61.6826 3.46438 61.6826H40.6654C41.1961 61.6826 41.4671 61.3064 41.4671 60.7739V22.3908L30.9122 11.5694H3.07916C2.91209 11.5694 2.40366 11.6261 2.40366 12.8337V20.079C2.40366 20.7461 1.86579 21.2865 1.20171 21.2865C0.53823 21.2865 -0.000244141 20.7461 -0.000244141 20.079V12.8337C-0.000244141 10.1626 1.66807 9.1543 3.07916 9.1543H31.9074L43.871 21.3904V60.7739C43.871 62.6384 42.5212 64.0977 40.6654 64.0977Z" fill="#1F1F1F"/>
</g>
</g>
<path id="Fill 14" fill-rule="evenodd" clip-rule="evenodd" d="M1.20195 30.3432C0.538475 30.3432 0 29.8022 0 29.1356V24.9092C0 24.2426 0.538475 23.7017 1.20195 23.7017C1.86543 23.7017 2.4039 24.2426 2.4039 24.9092V29.1356C2.4039 29.8022 1.86543 30.3432 1.20195 30.3432Z" fill="#1F1F1F"/>
<path id="Fill 16" fill-rule="evenodd" clip-rule="evenodd" d="M42.8294 23.7017H33.929C32.4722 23.7017 31.4109 22.7507 31.4109 21.2866V12.23" fill="#98C8FF"/>
<path id="Fill 18" fill-rule="evenodd" clip-rule="evenodd" d="M42.8295 24.9093H33.929C31.7739 24.9093 30.209 23.3859 30.209 21.2866V12.23C30.209 11.5634 30.7475 11.0225 31.4109 11.0225C32.0744 11.0225 32.6129 11.5634 32.6129 12.23V21.2866C32.6129 22.4072 33.6207 22.4942 33.929 22.4942H42.8295C43.493 22.4942 44.0314 23.0351 44.0314 23.7017C44.0314 24.3683 43.493 24.9093 42.8295 24.9093Z" fill="#1F1F1F"/>
<path id="Fill 20" fill-rule="evenodd" clip-rule="evenodd" d="M35.0167 32.0977H8.57378C7.9103 32.0977 7.37183 31.5567 7.37183 30.8902C7.37183 30.2236 7.9103 29.6826 8.57378 29.6826H35.0167C35.6802 29.6826 36.2187 30.2236 36.2187 30.8902C36.2187 31.5567 35.6802 32.0977 35.0167 32.0977Z" fill="#1F1F1F"/>
<path id="Fill 22" fill-rule="evenodd" clip-rule="evenodd" d="M27.204 42.3619H8.57378C7.9103 42.3619 7.37183 41.8209 7.37183 41.1543C7.37183 40.4878 7.9103 39.9468 8.57378 39.9468H27.204C27.8675 39.9468 28.406 40.4878 28.406 41.1543C28.406 41.8209 27.8675 42.3619 27.204 42.3619Z" fill="#1F1F1F"/>
<path id="Fill 24" fill-rule="evenodd" clip-rule="evenodd" d="M22.3962 21.8336H8.57378C7.9103 21.8336 7.37183 21.2926 7.37183 20.626C7.37183 19.9594 7.9103 19.4185 8.57378 19.4185H22.3962C23.0597 19.4185 23.5982 19.9594 23.5982 20.626C23.5982 21.2926 23.0597 21.8336 22.3962 21.8336Z" fill="#1F1F1F"/>
<path id="Fill 26" fill-rule="evenodd" clip-rule="evenodd" d="M32.0118 53.2298H8.57378C7.9103 53.2298 7.37183 52.6888 7.37183 52.0222C7.37183 51.3557 7.9103 50.8147 8.57378 50.8147H32.0118C32.6753 50.8147 33.2138 51.3557 33.2138 52.0222C33.2138 52.6888 32.6753 53.2298 32.0118 53.2298Z" fill="#1F1F1F"/>
</g>
</g>
</svg>
