<svg width="30" height="41" viewBox="0 0 30 41" fill="none" xmlns="http://www.w3.org/2000/svg">
<g id="Icon/line/teambuilding">
<path id="Shape" fill-rule="evenodd" clip-rule="evenodd" d="M27.7909 35.8539L26.3208 35.1263C26.3066 35.1181 26.2983 35.1015 26.2983 35.085V34.2087C27.0596 33.6465 27.5544 32.7536 27.5544 31.745V30.5049C27.5544 29.1491 26.4453 28.0578 25.0822 28.0578H23.8261H23.786V27.5452C23.786 26.8425 23.3949 26.2224 22.7664 25.9083L21.2955 25.1807C21.2821 25.1725 21.2738 25.1642 21.2738 25.1477V24.2631C22.0351 23.7092 22.5299 22.808 22.5299 21.7994V20.5593C22.5299 19.4101 21.7259 18.4511 20.6453 18.1866V16.1694H20.6863C21.7025 16.1694 22.5299 15.3509 22.5299 14.3505C22.5299 13.3419 21.7025 12.5235 20.6863 12.5235H20.6453V2.50345H27.2719L26.4412 4.14865C26.3584 4.314 26.3584 4.50414 26.4412 4.66949L27.2719 6.31469H22.57C22.2457 6.31469 21.9825 6.57098 21.9825 6.8934C21.9825 7.21583 22.2457 7.47212 22.57 7.47212H28.223C28.426 7.47212 28.6158 7.37291 28.7227 7.1993C28.8297 7.02568 28.8397 6.81073 28.7486 6.62885L27.6237 4.40494L28.7486 2.18102C28.8397 1.99914 28.8297 1.78419 28.7227 1.61885C28.6158 1.44523 28.426 1.33776 28.223 1.33776H20.6453V0.67637C20.6453 0.353944 20.3829 0.0976562 20.0578 0.0976562C19.7335 0.0976562 19.4702 0.353944 19.4702 0.67637V12.6227C18.7406 12.8624 18.2141 13.5486 18.2141 14.3505C18.2141 15.1525 18.7406 15.8304 19.4702 16.0784V18.1122H18.8017C18.7883 18.1122 18.7749 18.1122 18.7615 18.1204V17.5996C18.7615 16.9051 18.3704 16.2768 17.7419 15.9709L16.271 15.2434C16.2577 15.2351 16.2493 15.2186 16.2493 15.2021V14.3257C17.0107 13.7636 17.5054 12.8707 17.5054 11.8621V10.622C17.5054 9.2744 16.3964 8.17484 15.0333 8.17484H13.7772C12.4141 8.17484 11.3051 9.2744 11.3051 10.622V11.8621C11.3051 12.8707 11.7998 13.7636 12.5612 14.3257V15.2021C12.5612 15.2186 12.5528 15.2351 12.5395 15.2434L11.0685 15.9709C10.4392 16.2768 10.0489 16.9051 10.0489 17.5996V18.1204C10.0356 18.1122 10.0222 18.1122 10.0088 18.1122H8.75271C7.38962 18.1122 6.28059 19.2117 6.28059 20.5593V21.7994C6.28059 22.808 6.77535 23.7092 7.53671 24.2631V25.1477C7.53671 25.1642 7.52835 25.1725 7.51414 25.1807L6.04408 25.9083C5.41476 26.2224 5.02447 26.8425 5.02447 27.5452V28.0578H4.98436H3.72824C2.36515 28.0578 1.25612 29.1491 1.25612 30.5049V31.745C1.25612 32.7536 1.75088 33.6465 2.51224 34.2087V35.085C2.51224 35.1015 2.50388 35.1181 2.48967 35.1263L1.0196 35.8539C0.390291 36.1598 0 36.7881 0 37.4825V39.2021C0 39.5246 0.263258 39.7809 0.587526 39.7809C0.911793 39.7809 1.17505 39.5246 1.17505 39.2021V37.4825C1.17505 37.2262 1.31713 37.003 1.54445 36.8873L2.56489 36.383L3.49674 37.3089C3.72573 37.5321 4.03161 37.6561 4.35588 37.6561C4.68098 37.6561 4.98603 37.5321 5.21586 37.3089L6.14687 36.383L7.16731 36.8873C7.39547 37.003 7.53671 37.2262 7.53671 37.4825V39.2021C7.53671 39.5246 7.79997 39.7809 8.12424 39.7809C8.44934 39.7809 8.71176 39.5246 8.71176 39.2021V37.4825C8.71176 36.7881 8.32147 36.1598 7.69299 35.8539L6.22209 35.1263C6.20872 35.1181 6.19952 35.1015 6.19952 35.085V34.2087C6.96088 33.6465 7.45564 32.7536 7.45564 31.745V30.5049C7.45564 29.5872 6.94918 28.7936 6.19952 28.3719V27.5452C6.19952 27.2889 6.3416 27.0657 6.56892 26.95L7.58936 26.4456L8.52121 27.3633C8.75773 27.6031 9.06946 27.7188 9.38035 27.7188C9.69208 27.7188 10.003 27.6031 10.2403 27.3633L11.1713 26.4456L12.1918 26.95C12.4199 27.0657 12.5612 27.2889 12.5612 27.5452V28.3719C11.8124 28.7936 11.3051 29.5872 11.3051 30.5049V31.745C11.3051 32.7536 11.7998 33.6465 12.5612 34.2087V35.085C12.5612 35.1015 12.5528 35.1181 12.5386 35.1263L11.0685 35.8539C10.4392 36.1598 10.0489 36.7881 10.0489 37.4825V39.2021C10.0489 39.5246 10.3122 39.7809 10.6365 39.7809C10.9616 39.7809 11.224 39.5246 11.224 39.2021V37.4825C11.224 37.2262 11.3661 37.003 11.5942 36.8873L12.6138 36.383L13.5457 37.3089C13.7755 37.5321 14.0806 37.6561 14.4048 37.6561C14.7299 37.6561 15.035 37.5321 15.2648 37.3089L16.1958 36.383L17.2163 36.8873C17.4444 37.003 17.5857 37.2262 17.5857 37.4825V39.2021C17.5857 39.5246 17.8489 39.7809 18.1732 39.7809C18.4983 39.7809 18.7615 39.5246 18.7615 39.2021V37.4825C18.7615 36.7881 18.3704 36.1598 17.7419 35.8539L16.271 35.1263C16.2577 35.1181 16.2493 35.1015 16.2493 35.085V34.2087C17.0107 33.6465 17.5046 32.7536 17.5046 31.745V30.5049C17.5046 29.5872 16.9981 28.7936 16.2493 28.3719V27.5452C16.2493 27.2889 16.3905 27.0657 16.6187 26.95L17.6391 26.4456L18.5702 27.3633C18.8067 27.6031 19.1184 27.7188 19.4293 27.7188C19.741 27.7188 20.0519 27.6031 20.2893 27.3633L21.2203 26.4456L22.2407 26.95C22.4689 27.0657 22.6101 27.2889 22.6101 27.5452V28.3719C21.8613 28.7936 21.354 29.5872 21.354 30.5049V31.745C21.354 32.7536 21.8488 33.6465 22.6101 34.2087V35.085C22.6101 35.1015 22.6018 35.1181 22.5884 35.1263L21.1175 35.8539C20.489 36.1598 20.0979 36.7881 20.0979 37.4825V39.2021C20.0979 39.5246 20.3611 39.7809 20.6863 39.7809C21.0105 39.7809 21.2738 39.5246 21.2738 39.2021V37.4825C21.2738 37.2262 21.415 37.003 21.6432 36.8873L22.6636 36.383L23.5946 37.3089C23.832 37.5404 24.1429 37.6561 24.4546 37.6561C24.7655 37.6561 25.0772 37.5404 25.3137 37.3089L26.2456 36.383L27.2652 36.8873C27.4934 37.003 27.6354 37.2262 27.6354 37.4825V39.2021C27.6354 39.5246 27.8979 39.7809 28.223 39.7809C28.5472 39.7809 28.8105 39.5246 28.8105 39.2021V37.4825C28.8105 36.7881 28.4202 36.1598 27.7909 35.8539ZM4.38432 36.4822C4.38182 36.4905 4.37262 36.4987 4.35591 36.4987C4.33919 36.4987 4.33084 36.4905 4.32749 36.4822L3.52435 35.6885C3.62881 35.5149 3.68731 35.3082 3.68731 35.085V34.8122H5.0245V35.085C5.0245 35.3082 5.083 35.5149 5.1883 35.6885L4.38432 36.4822ZM6.28063 31.745V30.5049C6.28063 29.7939 5.69895 29.2152 4.98439 29.2152H3.72828C3.01288 29.2152 2.43121 29.7939 2.43121 30.5049V31.745C2.43121 32.795 3.29453 33.6465 4.35592 33.6465C5.41731 33.6465 6.28063 32.795 6.28063 31.745ZM19.3891 14.3505C19.3891 13.9868 19.6892 13.6892 20.0577 13.6892H20.6862C21.0548 13.6892 21.3548 13.9868 21.3548 14.3505C21.3548 14.7143 21.0548 15.0119 20.6862 15.0119H20.0577C19.6892 15.0119 19.3891 14.7143 19.3891 14.3505ZM12.4809 10.622V11.8621C12.4809 12.912 13.3442 13.7636 14.4056 13.7636C15.4662 13.7636 16.3295 12.912 16.3295 11.8621V10.622C16.3295 9.91098 15.7478 9.34054 15.0333 9.34054H13.7772C13.0618 9.34054 12.4809 9.91098 12.4809 10.622ZM15.2373 15.8056L14.4341 16.6075C14.4331 16.6075 14.4315 16.6083 14.4293 16.6094C14.4244 16.6118 14.4164 16.6158 14.4049 16.6158C14.3933 16.6158 14.3858 16.6118 14.3811 16.6094C14.379 16.6083 14.3775 16.6075 14.3765 16.6075L13.5733 15.8056C13.6786 15.632 13.7363 15.4253 13.7363 15.2021V14.9293H15.0735V15.2021C15.0735 15.4253 15.132 15.632 15.2373 15.8056ZM9.35192 26.5449C9.3678 26.5614 9.39371 26.5614 9.40959 26.5449L10.2127 25.7512C10.1074 25.5693 10.0489 25.3626 10.0489 25.1477V24.8666H8.71258V25.1477C8.71258 25.3626 8.65408 25.5693 8.54878 25.7512L9.35192 26.5449ZM9.38036 23.7092C8.31981 23.7092 7.45649 22.8494 7.45649 21.7994V20.5593C7.45649 19.8566 8.03733 19.2779 8.75272 19.2779H10.0088C10.7234 19.2779 11.3051 19.8566 11.3051 20.5593V21.7994C11.3051 22.8494 10.4418 23.7092 9.38036 23.7092ZM14.4049 36.4987C14.4216 36.4987 14.4308 36.4905 14.4341 36.4822L15.2373 35.6885C15.132 35.5149 15.0735 35.3082 15.0735 35.085V34.8122H13.7363V35.085C13.7363 35.3082 13.6786 35.5149 13.5733 35.6885L14.3765 36.4822C14.3798 36.4905 14.3882 36.4987 14.4049 36.4987ZM16.3303 30.5049V31.745H16.3295C16.3295 32.795 15.4662 33.6465 14.4056 33.6465C13.3442 33.6465 12.4809 32.795 12.4809 31.745V30.5049C12.4809 29.7939 13.0626 29.2152 13.7772 29.2152H15.0333C15.7487 29.2152 16.3303 29.7939 16.3303 30.5049ZM17.5639 25.1807C17.5773 25.1725 17.5865 25.1642 17.5865 25.1477V24.2631C16.8243 23.7092 16.3303 22.808 16.3303 21.7994V20.5593C16.3303 19.6499 16.8368 18.8562 17.5865 18.4346V17.5996C17.5865 17.3516 17.4444 17.1201 17.2162 17.0126L16.1958 16.5083L15.2648 17.426C15.0349 17.6492 14.7299 17.7815 14.4048 17.7815C14.0805 17.7815 13.7755 17.6492 13.5456 17.426L12.6146 16.5083L11.5942 17.0126C11.366 17.1201 11.224 17.3516 11.224 17.5996V18.4346C11.9736 18.8562 12.4809 19.6499 12.4809 20.5593V21.7994C12.4809 22.808 11.9862 23.7092 11.224 24.2631V25.1477C11.224 25.1642 11.2332 25.1725 11.2465 25.1807L12.7174 25.9083C13.3459 26.2224 13.7362 26.8425 13.7362 27.5452V28.0578H13.7771H15.0333H15.0734V27.5452C15.0734 26.8425 15.4645 26.2224 16.093 25.9083L17.5639 25.1807ZM19.4586 26.5449C19.4427 26.5614 19.4168 26.5614 19.4009 26.5449L18.5977 25.7512C18.703 25.5693 18.7615 25.3626 18.7615 25.1477V24.8666H20.0979V25.1477C20.0979 25.3626 20.1564 25.5693 20.2617 25.7512L19.4586 26.5449ZM17.5055 21.7994C17.5055 22.8494 18.3688 23.7092 19.4302 23.7092C20.4907 23.7092 21.3549 22.8494 21.3549 21.7994V20.5593C21.3549 19.8566 20.7732 19.2779 20.0578 19.2779H18.8017C18.0871 19.2779 17.5055 19.8566 17.5055 20.5593V21.7994ZM24.483 36.4822C24.4671 36.4987 24.442 36.4987 24.4261 36.4822L23.6222 35.6885C23.7275 35.5149 23.786 35.3082 23.786 35.085V34.8122H25.1232V35.085C25.1232 35.3082 25.1808 35.5149 25.2861 35.6885L24.483 36.4822ZM22.5299 31.745C22.5299 32.795 23.3932 33.6465 24.4546 33.6465C25.516 33.6465 26.3793 32.795 26.3793 31.745V30.5049C26.3793 29.7939 25.7976 29.2152 25.0822 29.2152H23.8261C23.1116 29.2152 22.5299 29.7939 22.5299 30.5049V31.745Z" fill="#414141"/>
</g>
</svg>
