<svg width="32" height="32" viewBox="0 0 32 32" fill="none" xmlns="http://www.w3.org/2000/svg">
<path d="M7.04545 21.5C13.1818 23.6818 20.6818 18.0909 25.8636 21.7727C26.2727 22.0455 26.8182 21.9091 26.9545 21.3636C28.1818 15.9091 30.2273 6.5 30.6364 4.45455C30.6364 4.18182 30.6364 3.90909 30.3636 3.77273C24.6364 -0.727273 15.7727 6.90909 9.22727 2.13636C8.81818 1.86364 8.13636 2 8.13636 2.54545L2 30.6364" stroke="white" stroke-width="1.5" stroke-miterlimit="10" stroke-linecap="round" stroke-linejoin="round"/>
<path d="M19.9999 7.86362V10.3182C19.9999 10.5909 20.1363 10.8636 20.409 11L22.7272 11.6818C23.2726 11.8182 23.2726 12.6363 22.7272 12.7727L20.5454 13.5909C20.2726 13.7273 20.1363 14 20.1363 14.2727V16.7273C20.1363 17.2727 19.4545 17.5454 19.1817 17.1363L17.6817 15.2273C17.5454 14.9545 17.2726 14.9545 16.8635 14.9545L14.5454 15.7727C13.9999 15.9091 13.5908 15.3636 13.9999 14.9545L15.3635 12.9091C15.4999 12.6363 15.4999 12.3636 15.3635 12.0909L13.8635 10.0454C13.5908 9.63635 13.9999 9.09089 14.5454 9.22725L16.8635 9.90907C17.1363 10.0454 17.409 9.90907 17.5454 9.63635L18.909 7.59089C19.3181 7.1818 19.9999 7.31816 19.9999 7.86362Z" stroke="white" stroke-width="1.5" stroke-miterlimit="10"/>
</svg>
