<svg width="24" height="24" viewBox="0 0 24 24" fill="none" xmlns="http://www.w3.org/2000/svg">
<g clip-path="url(#clip0)">
<path d="M21.1845 0H3.16505C2.54369 0 2 0.543689 2 1.16505V1.78641C2 2.40777 2.54369 2.95146 3.16505 2.95146H21.1845C21.8058 2.95146 22.3495 2.40777 22.3495 1.78641V1.16505C22.3495 0.543689 21.8058 0 21.1845 0ZM21.5728 1.78641C21.5728 2.01942 21.4175 2.17476 21.1845 2.17476H3.16505C2.93204 2.17476 2.7767 2.01942 2.7767 1.78641V1.16505C2.7767 0.932039 2.93204 0.776699 3.16505 0.776699H21.1845C21.4175 0.776699 21.5728 0.932039 21.5728 1.16505V1.78641Z" fill="#010101"/>
<path d="M6.73819 12.7376L7.20421 12.9706L7.51489 12.2716L7.04887 12.0386C6.66052 11.8056 6.11683 11.6502 5.57314 11.6502V5.90268H7.9809V5.12598H2.38867V5.90268H4.79644V11.6502C4.25275 11.7279 3.78673 11.8056 3.24304 12.0386L2.77702 12.2716L3.0877 12.9706L3.55372 12.7376C4.6411 12.2716 5.80615 12.2716 6.73819 12.7376Z" fill="#010101"/>
<path d="M14.0386 13.9034C13.5726 13.6704 13.0289 13.515 12.4852 13.515V7.68979H14.893V6.91309H9.30078V7.68979H11.7085V13.4374C11.1649 13.515 10.6988 13.5927 10.1552 13.8257L9.7668 14.0587L10.0775 14.7577L10.5435 14.5247C11.5532 14.0587 12.7183 14.0587 13.6503 14.5247L14.1163 14.7577L14.427 14.0587L14.0386 13.9034Z" fill="#010101"/>
<path d="M16.2911 5.90268H18.6988V11.6502C18.1552 11.7279 17.6891 11.8056 17.1455 12.0386L16.7571 12.2716L17.0678 12.9706L17.5338 12.7376C18.5435 12.2716 19.7086 12.2716 20.6406 12.7376L21.1066 12.9706L21.4173 12.2716L20.9513 12.0386C20.4853 11.8056 19.9416 11.6502 19.3979 11.6502V5.90268H21.8056V5.12598H16.1357V5.90268H16.2911Z" fill="#010101"/>
<path d="M4.25293 17.0101H6.6607V22.7577C6.11701 22.8353 5.65099 22.913 5.1073 23.146L4.64128 23.379L4.95196 24.0781L5.41798 23.8451C6.42769 23.379 7.59274 23.379 8.52477 23.8451L8.99079 24.0781L9.30147 23.379L8.99079 23.146C8.52477 22.913 7.98109 22.7577 7.4374 22.7577V17.0101H9.84516V16.2334H4.25293V17.0101Z" fill="#010101"/>
<path d="M14.4268 17.0101H16.8345V22.7577C16.2908 22.8353 15.8248 22.913 15.2811 23.146L14.8151 23.379L15.1258 24.0781L15.5918 23.8451C16.6015 23.379 17.7666 23.379 18.6986 23.8451L19.1646 24.0781L19.4753 23.379L19.0093 23.146C18.5433 22.913 17.9996 22.7577 17.4559 22.7577V17.0101H19.8637V16.2334H14.4268V17.0101Z" fill="#010101"/>
</g>
<defs>
<clipPath id="clip0">
<rect width="24" height="24" fill="white"/>
</clipPath>
</defs>
</svg>
