<svg width="40" height="40" viewBox="0 0 40 40" fill="none" xmlns="http://www.w3.org/2000/svg">
<circle cx="20" cy="20" r="20" fill="#EEEEEE"/>
<path d="M25.3332 26V24.6667C25.3332 23.9594 25.0522 23.2811 24.5521 22.781C24.052 22.281 23.3737 22 22.6665 22H17.3332C16.6259 22 15.9476 22.281 15.4476 22.781C14.9475 23.2811 14.6665 23.9594 14.6665 24.6667V26" stroke="#AFAFAF" stroke-width="1.5" stroke-linecap="round" stroke-linejoin="round"/>
<path d="M20.0002 19.3333C21.4729 19.3333 22.6668 18.1394 22.6668 16.6667C22.6668 15.1939 21.4729 14 20.0002 14C18.5274 14 17.3335 15.1939 17.3335 16.6667C17.3335 18.1394 18.5274 19.3333 20.0002 19.3333Z" stroke="#AFAFAF" stroke-width="1.5" stroke-linecap="round" stroke-linejoin="round"/>
</svg>
