<svg width="24" height="24" viewBox="0 0 24 24" fill="none" xmlns="http://www.w3.org/2000/svg">
<g clip-path="url(#clip0)">
<path fill-rule="evenodd" clip-rule="evenodd" d="M12.0061 3.6001C19.3023 3.6001 22.8959 9.58952 23.7671 11.3319C24.0938 11.9853 24.0938 12.8565 23.6582 13.401C23.3315 14.1633 22.6781 15.2523 21.807 16.3412C21.4803 16.7768 20.718 16.7768 20.2824 16.4501C19.8468 16.1234 19.8468 15.3612 20.1735 14.9256C21.0447 13.8366 21.5892 12.8565 21.807 12.4209V12.2031C21.0447 10.6785 18.1044 5.66917 12.0061 5.66917C5.90775 5.66917 2.96749 10.6785 2.2052 12.2031V12.4209C2.96749 13.9455 5.90775 18.9548 12.0061 18.9548C14.184 18.9548 16.1442 18.3014 17.8866 17.1035C18.4311 16.7768 19.0845 16.8857 19.4112 17.3213C19.7379 17.8658 19.629 18.5192 19.1934 18.8459C17.0154 20.3705 14.6196 21.1328 12.0061 21.1328C4.60097 21.1328 1.11621 15.2523 0.245022 13.401C-0.081674 12.7476 -0.081674 11.9853 0.245022 11.3319C1.11621 9.58952 4.70987 3.6001 12.0061 3.6001ZM12.0061 16.7769C9.61035 16.7769 7.65018 14.8167 7.65018 12.421C7.65018 10.0252 9.61035 8.06503 12.0061 8.06503C14.4019 8.06503 16.3621 10.0252 16.3621 12.421C16.3621 14.8167 14.4019 16.7769 12.0061 16.7769ZM12.0061 14.5989C13.204 14.5989 14.1841 13.6189 14.1841 12.421C14.1841 11.2231 13.204 10.243 12.0061 10.243C10.8082 10.243 9.82815 11.2231 9.82815 12.421C9.82815 13.6189 10.8082 14.5989 12.0061 14.5989Z" fill="#002F79"/>
</g>
<defs>
<clipPath id="clip0">
<rect width="24" height="24" fill="white"/>
</clipPath>
</defs>
</svg>
