<svg width="32" height="32" viewBox="0 0 32 32" fill="none" xmlns="http://www.w3.org/2000/svg">
<path fill-rule="evenodd" clip-rule="evenodd" d="M0 15.6887C0 7.0207 7.02442 0 15.69 0C24.3556 0 31.38 7.0207 31.38 15.6887C31.38 24.3567 24.3556 31.3774 15.69 31.3774C7.02442 31.3774 0 24.3567 0 15.6887Z" fill="#FF0000"/>
<path fill-rule="evenodd" clip-rule="evenodd" d="M23.7084 11.8138C23.5162 11.0764 22.949 10.4959 22.2289 10.292C20.9234 9.93896 15.69 9.93896 15.69 9.93896C15.69 9.93896 10.4566 9.93896 9.15123 10.292C8.43106 10.4959 7.86465 11.0764 7.67166 11.8138C7.32178 13.1551 7.32178 15.9477 7.32178 15.9477C7.32178 15.9477 7.32178 18.7482 7.67166 20.0896C7.86465 20.8269 8.43106 21.4074 9.15123 21.6035C10.4566 21.9644 15.69 21.9644 15.69 21.9644C15.69 21.9644 20.9234 21.9644 22.2289 21.6035C22.949 21.4074 23.5162 20.8269 23.7084 20.0896C24.0583 18.7482 24.0583 15.9477 24.0583 15.9477C24.0583 15.9477 24.0583 13.1551 23.7084 11.8138Z" fill="white"/>
<path fill-rule="evenodd" clip-rule="evenodd" d="M14.1211 18.8264V13.5942L18.3048 16.2143L14.1211 18.8264Z" fill="#FF0000"/>
</svg>
