<svg width="20" height="20" viewBox="0 0 20 20" fill="none" xmlns="http://www.w3.org/2000/svg">
<mask id="mask0" mask-type="alpha" maskUnits="userSpaceOnUse" x="0" y="0" width="20" height="20">
<path fill-rule="evenodd" clip-rule="evenodd" d="M0.0664062 9.96677V19.9335H20V9.96677V0H0.0664062V9.96677Z" fill="white"/>
</mask>
<g mask="url(#mask0)">
<path fill-rule="evenodd" clip-rule="evenodd" d="M12.5273 17.4923C10.981 17.4923 9.51611 17.1662 8.207 16.5837C8.17744 16.5706 8.14415 16.5686 8.11332 16.5785L4.64727 17.6892C4.60036 17.7042 4.55398 17.6647 4.56129 17.6159L5.03969 14.4442C5.04581 14.4038 5.03278 14.3631 5.00461 14.3335C3.42269 12.6708 2.46136 10.4805 2.46136 8.07993C2.46136 4.64731 4.42674 1.64425 7.36235 0H2.94508C1.35524 0 0.0664062 1.28884 0.0664062 2.8786V17.0549C0.0664062 18.6447 1.35524 19.9335 2.94508 19.9335H17.1214C18.7111 19.9335 20 18.6447 20 17.0549V14.3857C18.1578 16.2933 15.4924 17.4923 12.5273 17.4923Z" fill="#008DE8"/>
</g>
<path fill-rule="evenodd" clip-rule="evenodd" d="M20 14.3857V2.8786C20 1.28884 18.7113 0 17.1214 0H7.36242C4.42681 1.64425 2.46143 4.64731 2.46143 8.07993C2.46143 10.4805 3.42275 12.6708 5.00468 14.3336C5.03285 14.3631 5.04588 14.4038 5.03983 14.4442L4.56136 17.6159C4.55405 17.6647 4.60043 17.7042 4.64734 17.6892L8.11338 16.5785C8.14421 16.5686 8.1775 16.5706 8.20707 16.5837C9.51617 17.1662 10.981 17.4923 12.5273 17.4923C15.4924 17.4923 18.1579 16.2933 20 14.3857Z" fill="white"/>
<path fill-rule="evenodd" clip-rule="evenodd" d="M6.81705 9.71674C7.43645 9.71674 8.01452 9.71315 8.59253 9.71813C8.91725 9.72086 9.09279 9.85913 9.12263 10.1149C9.1605 10.4386 8.9716 10.6535 8.62083 10.6574C7.95931 10.6649 7.29758 10.6603 6.63598 10.6603C6.44495 10.6603 6.25352 10.667 6.06316 10.656C5.82575 10.6423 5.59359 10.5954 5.48004 10.3504C5.36628 10.105 5.44529 9.88471 5.60243 9.68491C6.23472 8.88079 6.86774 8.07734 7.50037 7.27355C7.53791 7.22584 7.57426 7.17707 7.61073 7.12936C7.57213 7.05953 7.51073 7.09076 7.46309 7.09049C7.0197 7.08777 6.57632 7.09089 6.13299 7.08737C6.03166 7.08651 5.92735 7.0784 5.82987 7.05282C5.62416 6.99893 5.49931 6.83422 5.49764 6.63787C5.49605 6.44113 5.61711 6.27448 5.8223 6.21667C5.91924 6.1893 6.02396 6.17986 6.12529 6.17946C6.85512 6.17647 7.58495 6.17667 8.31485 6.17907C8.44376 6.17953 8.57366 6.18279 8.69884 6.22604C8.97558 6.32159 9.09738 6.57661 8.98489 6.84677C8.88688 7.08192 8.7308 7.28179 8.57492 7.48019C8.03977 8.16119 7.50269 8.84053 6.96661 9.52073C6.92495 9.57355 6.88495 9.62764 6.81705 9.71674Z" fill="#008DE8"/>
<path fill-rule="evenodd" clip-rule="evenodd" d="M10.1183 9.05873C10.1222 9.19953 10.1687 9.3889 10.2905 9.55315C10.5554 9.91049 11.0991 9.90943 11.3638 9.55242C11.5932 9.24292 11.5921 8.7295 11.3624 8.42039C11.241 8.25707 11.0789 8.17142 10.8767 8.15959C10.428 8.13315 10.1137 8.48033 10.1183 9.05873ZM11.5651 7.56228C11.6648 7.43676 11.7637 7.31862 11.9322 7.2842C12.2538 7.21869 12.5588 7.42766 12.563 7.75457C12.5738 8.57271 12.5698 9.39105 12.5649 10.2093C12.5636 10.4328 12.4259 10.6041 12.2246 10.6725C12.0135 10.7443 11.7936 10.692 11.6526 10.514C11.5837 10.427 11.5541 10.412 11.4579 10.49C11.0851 10.7922 10.6647 10.8452 10.2103 10.6978C9.48128 10.4612 9.18108 9.89317 9.10201 9.19742C9.01696 8.45005 9.26574 7.80872 9.93471 7.4155C10.4901 7.08899 11.0542 7.11643 11.5651 7.56228Z" fill="#008DE8"/>
<path fill-rule="evenodd" clip-rule="evenodd" d="M15.4308 8.98262C15.4297 9.19206 15.479 9.38741 15.6053 9.55711C15.864 9.90515 16.4021 9.90794 16.6661 9.56475C16.9042 9.25538 16.905 8.72967 16.6701 8.41698C16.5476 8.25392 16.3849 8.16993 16.1831 8.15917C15.7411 8.13571 15.4326 8.47379 15.4308 8.98262ZM14.4014 9.08149C14.3702 8.0304 15.0597 7.24515 16.0405 7.21492C17.0826 7.18296 17.8472 7.88369 17.8783 8.90528C17.9098 9.9397 17.2752 10.6735 16.2966 10.7717C15.2334 10.8782 14.3861 10.1036 14.4014 9.08149Z" fill="#008DE8"/>
<path fill-rule="evenodd" clip-rule="evenodd" d="M14.0434 8.26767C14.0434 8.90183 14.0466 9.53591 14.0421 10.17C14.0395 10.5327 13.7195 10.7779 13.3754 10.6911C13.1687 10.639 13.0142 10.4196 13.0138 10.1642C13.0123 9.08003 13.0132 7.99585 13.0132 6.91179C13.0132 6.72083 13.0106 6.52987 13.0139 6.33904C13.0193 6.02435 13.2197 5.8201 13.5207 5.81711C13.8317 5.81405 14.0403 6.01904 14.0423 6.34488C14.0462 6.98581 14.0434 7.62674 14.0434 8.26767Z" fill="#008DE8"/>
<g opacity="0.1">
<mask id="mask1" mask-type="alpha" maskUnits="userSpaceOnUse" x="4" y="12" width="16" height="8">
<path fill-rule="evenodd" clip-rule="evenodd" d="M4.63672 19.9336H19.9996V12.5269H4.63672V19.9336Z" fill="white"/>
</mask>
<g mask="url(#mask1)">
<path fill-rule="evenodd" clip-rule="evenodd" d="M19.9996 12.5269V14.3858C18.1575 16.2934 15.4921 17.4923 12.5269 17.4923C10.9806 17.4923 9.51579 17.1663 8.20668 16.5838C8.17712 16.5706 8.14383 16.5686 8.113 16.5786L4.64695 17.6892C4.64356 17.6903 4.64011 17.6906 4.63672 17.6911L6.89957 19.9336H17.121C18.7109 19.9336 19.9996 18.6447 19.9996 17.0549V12.5269Z" fill="black"/>
</g>
</g>
</svg>
