<svg width="66" height="66" viewBox="0 0 66 66" fill="none" xmlns="http://www.w3.org/2000/svg">
<g filter="url(#filter0_d)">
<path fill-rule="evenodd" clip-rule="evenodd" d="M33 53C46.2548 53 57 42.2548 57 29C57 15.7452 46.2548 5 33 5C19.7452 5 9 15.7452 9 29C9 42.2548 19.7452 53 33 53Z" fill="#008DE8"/>
</g>
<path fill-rule="evenodd" clip-rule="evenodd" d="M32.9852 13.1289C30.0279 13.1289 27.2588 13.9204 24.8827 15.2983L24.8 15.2888C20.2144 17.9813 17.1185 22.8581 17.0053 28.4525C17.0051 28.462 17.0051 28.4714 17.0048 28.481C17.003 28.577 17 28.6728 17 28.7694C17 28.7857 17.0005 28.8018 17.0005 28.8181C17.0005 28.8332 17 28.8482 17 28.8632C17 32.9104 18.5528 36.6001 21.1035 39.3881L20.3421 44.6793C20.3304 44.7606 20.4042 44.8265 20.4789 44.8014L25.9122 42.9763C28.0447 44.0137 30.4455 44.5976 32.9852 44.5976C41.8136 44.5976 48.9704 37.5531 48.9704 28.8632C48.9704 20.1733 41.8136 13.1289 32.9852 13.1289Z" fill="white"/>
<path fill-rule="evenodd" clip-rule="evenodd" d="M24.1631 31.6789C25.293 31.6789 26.3475 31.672 27.402 31.6816C27.9944 31.6869 28.3145 31.9512 28.369 32.4403C28.4381 33.0593 28.0934 33.4703 27.4536 33.4778C26.2467 33.4923 25.0397 33.4834 23.8327 33.4834C23.4843 33.4834 23.1351 33.4961 22.7878 33.4751C22.3547 33.4489 21.9311 33.3592 21.7241 32.8907C21.5165 32.4213 21.6607 32.0001 21.9473 31.618C23.1007 30.0803 24.2556 28.5438 25.4096 27.0067C25.4781 26.9154 25.5443 26.8223 25.611 26.7309C25.5405 26.5974 25.4285 26.6571 25.3415 26.6567C24.5328 26.6514 23.7239 26.6574 22.9152 26.6506C22.7302 26.649 22.5399 26.6335 22.3622 26.5845C21.9868 26.4815 21.7591 26.1665 21.7562 25.791C21.7532 25.4149 21.9741 25.0961 22.3484 24.9855C22.5253 24.9333 22.7163 24.9153 22.901 24.9144C24.2325 24.9087 25.5639 24.909 26.8953 24.9137C27.1306 24.9145 27.3676 24.9207 27.5959 25.0035C28.1007 25.1862 28.323 25.6739 28.1178 26.1905C27.939 26.6402 27.6541 27.0224 27.3698 27.4018C26.3936 28.7041 25.4139 30.0033 24.4358 31.304C24.3599 31.4051 24.2868 31.5085 24.1631 31.6789Z" fill="#008DE8"/>
<path fill-rule="evenodd" clip-rule="evenodd" d="M30.1854 30.4184C30.1926 30.6877 30.2773 31.0498 30.4995 31.3639C30.9829 32.0473 31.9745 32.0453 32.4574 31.3625C32.876 30.7707 32.8739 29.7888 32.4549 29.1978C32.2334 28.8854 31.9378 28.7216 31.5688 28.699C30.7503 28.6485 30.1771 29.3123 30.1854 30.4184ZM32.8249 27.5568C33.0067 27.3167 33.1872 27.0908 33.4947 27.025C34.0813 26.8997 34.6375 27.2993 34.6454 27.9245C34.6649 29.4891 34.6576 31.054 34.6489 32.6187C34.6465 33.0462 34.3953 33.3737 34.0279 33.5046C33.643 33.6419 33.2417 33.542 32.9845 33.2016C32.8587 33.0351 32.8048 33.0065 32.6293 33.1558C31.9493 33.7336 31.1824 33.8349 30.3534 33.5529C29.0234 33.1006 28.4759 32.0143 28.3316 30.6837C28.1764 29.2545 28.6304 28.0281 29.8506 27.2761C30.8637 26.6517 31.8929 26.7041 32.8249 27.5568Z" fill="#008DE8"/>
<path fill-rule="evenodd" clip-rule="evenodd" d="M39.8776 30.273C39.8757 30.6735 39.9656 31.0471 40.1959 31.3717C40.6679 32.0372 41.6495 32.0425 42.1312 31.3863C42.5655 30.7946 42.5671 29.7893 42.1385 29.1913C41.915 28.8795 41.618 28.7188 41.25 28.6983C40.4436 28.6534 39.881 29.2999 39.8776 30.273ZM37.9999 30.4621C37.9429 28.452 39.2009 26.9503 40.99 26.8926C42.8911 26.8314 44.2857 28.1714 44.3426 30.1251C44.4001 32.1033 43.2425 33.5066 41.4571 33.6943C39.5177 33.8979 37.972 32.4166 37.9999 30.4621Z" fill="#008DE8"/>
<path fill-rule="evenodd" clip-rule="evenodd" d="M37.3455 28.9091C37.3455 30.1218 37.3513 31.3345 37.3432 32.5471C37.3386 33.2406 36.7547 33.7095 36.1269 33.5436C35.7498 33.4438 35.468 33.0244 35.4674 32.5358C35.4645 30.4626 35.4662 28.3894 35.4662 26.3161C35.4662 25.951 35.4613 25.5858 35.4674 25.2208C35.4773 24.6192 35.8428 24.2284 36.392 24.2227C36.9593 24.2169 37.3398 24.609 37.3434 25.2321C37.3506 26.4577 37.3455 27.6834 37.3455 28.9091Z" fill="#008DE8"/>
<defs>
<filter id="filter0_d" x="0" y="0" width="66" height="66" filterUnits="userSpaceOnUse" color-interpolation-filters="sRGB">
<feFlood flood-opacity="0" result="BackgroundImageFix"/>
<feColorMatrix in="SourceAlpha" type="matrix" values="0 0 0 0 0 0 0 0 0 0 0 0 0 0 0 0 0 0 127 0"/>
<feOffset dy="4"/>
<feGaussianBlur stdDeviation="4.5"/>
<feColorMatrix type="matrix" values="0 0 0 0 0 0 0 0 0 0 0 0 0 0 0 0 0 0 0.140087 0"/>
<feBlend mode="normal" in2="BackgroundImageFix" result="effect1_dropShadow"/>
<feBlend mode="normal" in="SourceGraphic" in2="effect1_dropShadow" result="shape"/>
</filter>
</defs>
</svg>
