<svg width="20" height="20" viewBox="0 0 20 20" fill="none" xmlns="http://www.w3.org/2000/svg">
<g clip-path="url(#clip0)">
<path d="M1.35037 0.0769391C0.848406 0.216392 0.332873 0.721306 0.124851 1.28393L0.0163173 1.56283L0.00275064 9.85785C-0.0062938 15.662 0.00727286 18.2298 0.0389284 18.4029C0.161028 19.0233 0.554462 19.5474 1.11522 19.8263L1.41821 19.9802L7.01672 19.9946C13.0901 20.009 12.9137 20.0138 13.4157 19.7446C13.8995 19.4849 14.2704 18.9559 14.397 18.3452C14.4512 18.0856 14.4693 17.8163 14.4558 17.321C14.4422 16.5852 14.4151 16.5083 14.1302 16.2823C13.9538 16.1428 13.5287 16.1428 13.3523 16.2823C13.0629 16.5083 13.0403 16.5804 13.0177 17.3835C12.9996 18.0327 12.986 18.1336 12.9046 18.225C12.6876 18.4751 12.977 18.4654 7.16143 18.4654C3.53913 18.4654 1.72119 18.451 1.66241 18.4174C1.42725 18.2827 1.44082 18.7203 1.44082 10.0021C1.44082 1.28393 1.42725 1.72152 1.66241 1.58687C1.72119 1.55321 3.15474 1.53879 5.93591 1.53879H10.1235V2.77943C10.1235 3.97199 10.128 4.02489 10.2275 4.23166C10.4039 4.60193 10.4626 4.61636 11.8284 4.61636H13.0132L13.0267 5.52521C13.0403 6.35711 13.0494 6.44848 13.1353 6.5687C13.3116 6.82356 13.4564 6.9005 13.7413 6.9005C14.0262 6.9005 14.1709 6.82356 14.3472 6.5687C14.4377 6.44367 14.4422 6.36673 14.4558 4.98663L14.4648 3.5344L12.7011 1.7648L10.9375 -2.92588e-07L6.27055 0.00480842C2.33622 0.00480842 1.55839 0.0192345 1.35037 0.0769391ZM11.8645 3.02949C11.8826 3.05834 11.8238 3.07757 11.7334 3.07757C11.5842 3.07757 11.5706 3.06796 11.5706 2.9285V2.78424L11.7063 2.88523C11.7786 2.93812 11.851 3.00544 11.8645 3.02949Z" fill="white"/>
<path d="M3.22709 4.71254C2.94671 4.86161 2.86531 5.01548 2.86531 5.38576C2.86531 5.75603 2.95123 5.90991 3.23161 6.05898C3.40798 6.15034 3.49842 6.15515 5.71883 6.15515C7.86688 6.15515 8.0342 6.14553 8.20605 6.06378C8.72158 5.81373 8.73062 4.98663 8.21961 4.71254C8.05229 4.62117 7.94376 4.61636 5.72787 4.61636C3.48938 4.61636 3.40345 4.62117 3.22709 4.71254Z" fill="white"/>
<path d="M17.0379 5.304C16.9475 5.34247 16.8028 5.4146 16.7214 5.47231C16.6355 5.53001 15.3738 6.8476 13.9131 8.40081L11.2631 11.2283L10.9013 12.5267L10.544 13.825L6.93079 13.8491C3.53008 13.8731 3.30849 13.8779 3.18187 13.9597C2.93767 14.1184 2.86531 14.2722 2.86531 14.6185C2.86531 14.9887 2.95123 15.1426 3.22709 15.2917C3.40798 15.3831 3.50294 15.3879 7.50059 15.3879H11.5932L12.9725 14.9599L14.3472 14.5271L17.0741 11.6275C20.0859 8.42966 19.9955 8.53546 20 7.93437C20 7.41983 19.9005 7.25634 19.0413 6.33307C18.173 5.40018 18.0057 5.28477 17.5173 5.25591C17.3228 5.2463 17.1374 5.26553 17.0379 5.304ZM17.9921 7.38136L18.5122 7.93437L18.1504 8.31906L17.7886 8.70376L17.2731 8.15557L16.7576 7.60257L17.0832 7.21787C17.2641 7.00148 17.4269 6.82836 17.4449 6.82836C17.4585 6.82836 17.7072 7.07842 17.9921 7.38136ZM16.2646 9.24714L16.7711 9.78572L15.1748 11.4784L13.583 13.1711L12.8594 13.4067C12.4615 13.5413 12.1313 13.6423 12.1223 13.6327C12.1132 13.6279 12.2082 13.2528 12.3348 12.8104L12.5609 11.9977L14.1347 10.3531C14.9984 9.44911 15.7175 8.70857 15.731 8.70376C15.7446 8.70376 15.9843 8.949 16.2646 9.24714Z" fill="white"/>
<path d="M3.22709 9.32889C2.94671 9.47796 2.86531 9.63184 2.86531 10.0021C2.86531 10.3724 2.95123 10.5263 3.23161 10.6753C3.40798 10.7667 3.49842 10.7715 6.44239 10.7715C9.29592 10.7715 9.47681 10.7619 9.65317 10.6801C10.1687 10.4301 10.1778 9.60299 9.66674 9.32889C9.49942 9.23753 9.39089 9.23272 6.45144 9.23272C3.48486 9.23272 3.40346 9.23753 3.22709 9.32889Z" fill="white"/>
</g>
<defs>
<clipPath id="clip0">
<rect width="20" height="20" fill="white"/>
</clipPath>
</defs>
</svg>
