<svg width="20" height="20" viewBox="0 0 20 20" fill="none" xmlns="http://www.w3.org/2000/svg">
<g clip-path="url(#clip0)">
<path d="M4.75969 0.0407149C4.70602 0.0602489 4.59867 0.148152 4.53036 0.236055L4.39862 0.392327V1.83785C4.39862 3.42499 4.4035 3.4494 4.6865 3.63986C4.87679 3.76683 5.0622 3.78148 5.30128 3.68381C5.60868 3.55196 5.61844 3.48847 5.61844 1.85738C5.61844 0.431395 5.61356 0.392327 5.51109 0.260473C5.33544 0.0358314 5.00853 -0.0618388 4.75969 0.0407149Z" fill="white"/>
<path d="M11.0052 0.0407149C10.9515 0.0602489 10.8442 0.148152 10.7758 0.236055L10.6441 0.392327V1.83785C10.6441 3.42499 10.649 3.4494 10.932 3.63986C11.1223 3.76683 11.3077 3.78148 11.5468 3.68381C11.8542 3.55196 11.8639 3.48847 11.8639 1.85738C11.8639 0.431395 11.859 0.392327 11.7566 0.260473C11.5809 0.0358314 11.254 -0.0618388 11.0052 0.0407149Z" fill="white"/>
<path d="M1.49061 1.3495C0.778241 1.59856 0.256161 2.1797 0.0805076 2.93176C-0.0268359 3.40057 -0.0268359 16.6153 0.0805076 17.0793C0.236644 17.7288 0.656259 18.2611 1.25153 18.5541L1.59308 18.7201L4.55478 18.7348L7.52137 18.7494V18.139V17.5286L4.77923 17.5139C2.04197 17.4993 2.03221 17.4993 1.82728 17.3918C1.59795 17.2697 1.41742 17.0451 1.3296 16.796C1.29056 16.6739 1.27592 14.828 1.27592 10.0031C1.27592 5.17817 1.29056 3.33221 1.3296 3.21012C1.41742 2.96106 1.59795 2.73642 1.82728 2.61433C2.01269 2.51666 2.11516 2.50689 2.90071 2.49224L3.76434 2.47271V1.86715V1.2616H2.75434C1.91511 1.26648 1.69554 1.28113 1.49061 1.3495Z" fill="white"/>
<path d="M6.25274 1.87205V2.48248H8.13125H10.0098V1.87205V1.26161H8.13125H6.25274V1.87205Z" fill="white"/>
<path d="M12.4982 1.86716V2.48248H13.2594C13.6741 2.48248 14.1133 2.5069 14.2255 2.5362C14.4987 2.60457 14.7573 2.81944 14.8842 3.08315C14.9818 3.28826 14.9866 3.3664 14.9866 5.08539V6.87764H15.621H16.2553V5.03167C16.2553 3.03432 16.2406 2.88293 15.982 2.37505C15.8015 2.01367 15.3916 1.62787 15.0013 1.4423L14.6695 1.28602L13.5863 1.27137L12.4982 1.25672V1.86716Z" fill="white"/>
<path d="M2.85191 6.31604C2.64698 6.40394 2.52988 6.5944 2.525 6.85322C2.52012 7.10717 2.6421 7.30251 2.89095 7.42459C3.0422 7.50761 3.33984 7.5125 6.90169 7.5125C11.0783 7.5125 10.971 7.51738 11.1564 7.23902C11.2686 7.06321 11.2735 6.73114 11.1613 6.56021C11.1174 6.49184 11.01 6.38929 10.9222 6.34045C10.7709 6.24767 10.649 6.24278 6.88705 6.24278C3.69602 6.24767 2.97877 6.25744 2.85191 6.31604Z" fill="white"/>
<path d="M13.7668 8.78709C12.547 8.91406 11.415 9.44636 10.5172 10.3059C9.97073 10.8333 9.67798 11.2288 9.35107 11.8832C8.15077 14.3006 8.85338 17.2648 11.01 18.8862C11.4491 19.2182 12.3079 19.6382 12.8544 19.7945C14.6451 20.2975 16.6163 19.8629 18.0459 18.6469C19.6853 17.2502 20.3831 14.9354 19.7927 12.8502C19.6365 12.3032 19.2169 11.4437 18.8851 11.0042C17.9434 9.74914 16.4943 8.93848 14.9085 8.7822C14.3621 8.72849 14.3377 8.72849 13.7668 8.78709ZM15.4843 10.1447C16.6944 10.4621 17.7239 11.2923 18.285 12.4058C18.7876 13.402 18.8803 14.7108 18.529 15.7558C18.0703 17.0988 17.0993 18.0706 15.7575 18.5297C14.7134 18.8813 13.4057 18.7885 12.4104 18.2855C10.1757 17.1574 9.35107 14.3836 10.6002 12.1665C10.8929 11.6488 11.6492 10.887 12.1664 10.5989C12.6007 10.3498 13.113 10.1642 13.596 10.0714C14.0644 9.97866 15.0012 10.0177 15.4843 10.1447Z" fill="white"/>
<path d="M14.1767 11.9125C14.0986 11.9369 13.9766 12.0102 13.9083 12.0834L13.7912 12.2104L13.7766 13.7243L13.7619 15.2382L13.9522 15.4286L14.1474 15.6191H15.3184H16.4894L16.6407 15.497C16.9334 15.2431 16.9481 14.8084 16.6651 14.5398C16.548 14.4275 16.5041 14.4226 15.7771 14.3982L15.011 14.3738L14.9866 13.3239C14.9671 12.4302 14.9476 12.2495 14.8793 12.1372C14.7378 11.9223 14.4499 11.8295 14.1767 11.9125Z" fill="white"/>
<path d="M2.8373 10.0959C2.72019 10.1594 2.63725 10.2521 2.57382 10.4084C2.48599 10.6233 2.48111 10.6379 2.56406 10.8577C2.72019 11.263 2.59821 11.2484 5.55016 11.263C7.55554 11.2728 8.18008 11.263 8.32646 11.2142C8.68264 11.097 8.84854 10.6477 8.66801 10.2961C8.51187 9.99819 8.56554 10.0031 5.65751 10.0031C3.16421 10.0031 2.99831 10.008 2.8373 10.0959Z" fill="white"/>
<path d="M2.83241 13.8366C2.46159 14.0368 2.41767 14.5838 2.74458 14.8573L2.89584 14.9842H4.35962C5.62823 14.9842 5.84292 14.9745 5.96002 14.9061C6.34548 14.6766 6.35036 14.0368 5.96002 13.8366C5.75997 13.7341 3.02758 13.7292 2.83241 13.8366Z" fill="white"/>
</g>
<defs>
<clipPath id="clip0">
<rect width="20" height="20" fill="white"/>
</clipPath>
</defs>
</svg>
