<svg width="20" height="20" viewBox="0 0 20 20" fill="none" xmlns="http://www.w3.org/2000/svg">
<g clip-path="url(#clip0)">
<path d="M9.23807 0.0159691C7.1827 0.186075 5.33236 0.921532 3.72457 2.20483C3.292 2.55005 2.56186 3.2805 2.2143 3.71577C1.42666 4.69888 0.809049 5.8546 0.453985 7.00532C-0.453679 9.93964 0.0139054 13.0916 1.72921 15.6157C2.08678 16.141 2.44934 16.5763 2.93443 17.0641C3.74708 17.8746 4.55722 18.4599 5.56491 18.9603C8.51294 20.4212 11.9886 20.3386 14.8641 18.7376C15.2792 18.5075 15.8743 18.1047 16.2768 17.7845C16.7094 17.4393 17.442 16.7064 17.7821 16.2786C18.4247 15.4706 18.9273 14.6125 19.2974 13.6845C20.3976 10.9178 20.1975 7.74328 18.7548 5.15417C18.5072 4.70889 18.1097 4.12102 17.7871 3.71577C17.442 3.283 16.7094 2.55005 16.2768 2.20483C14.7416 0.976567 12.9787 0.251115 11.0134 0.0384831C10.6733 0.000959747 9.57563 -0.0140496 9.23807 0.0159691ZM11.2134 1.66199C13.0137 1.93967 14.5915 2.72265 15.8618 3.96342C17.217 5.29175 18.0347 6.88774 18.3322 8.79393C18.3822 9.11413 18.3872 9.25171 18.3897 9.98217C18.3897 10.8802 18.3722 11.0578 18.2247 11.7558C17.8996 13.2942 17.1395 14.7151 16.0293 15.8558C14.6215 17.3017 12.8137 18.1698 10.7783 18.3749C10.4458 18.4074 9.55562 18.4074 9.22306 18.3749C7.26521 18.1773 5.5424 17.3818 4.14215 16.0234C2.70189 14.6326 1.82923 12.8064 1.6242 10.7727C1.59169 10.44 1.59169 9.5494 1.6242 9.21669C1.79173 7.55566 2.37183 6.10476 3.40952 4.76642C3.67957 4.41621 4.4422 3.65573 4.79977 3.38056C5.95248 2.48751 7.23521 1.92215 8.62546 1.69201C9.15305 1.60446 9.33559 1.59195 10.1132 1.60196C10.7283 1.60696 10.9259 1.61947 11.2134 1.66199Z" fill="#00FF19"/>
<path d="M15.3517 5.29675C15.2842 5.31677 14.444 6.14228 11.7185 8.86647L8.17288 12.4087L6.47507 10.7001C5.29736 9.51688 4.74976 8.98154 4.68475 8.95403C4.56473 8.904 4.35719 8.904 4.23467 8.95653C4.11715 9.00656 2.92693 10.1798 2.82941 10.3449C2.7444 10.485 2.7369 10.7301 2.80941 10.8702C2.83441 10.9177 3.64956 11.7558 4.62224 12.7339C5.59241 13.7095 6.70261 14.8277 7.08768 15.2179C7.47275 15.6082 7.83281 15.9534 7.88782 15.9859C8.02285 16.0659 8.14787 16.0835 8.3054 16.0484C8.43792 16.0184 8.44292 16.0134 12.7962 11.6607C15.1941 9.26672 17.172 7.27548 17.192 7.23796C17.247 7.13039 17.262 6.95779 17.227 6.8252C17.197 6.71764 17.1295 6.64009 16.5319 6.03721C16.1618 5.66448 15.8293 5.34929 15.7792 5.32677C15.6692 5.27424 15.4692 5.25923 15.3517 5.29675Z" fill="#00FF19"/>
</g>
<defs>
<clipPath id="clip0">
<rect width="20" height="20" fill="white"/>
</clipPath>
</defs>
</svg>
