<svg width="40" height="40" viewBox="0 0 40 40" fill="none" xmlns="http://www.w3.org/2000/svg">
<g clip-path="url(#clip0)">
<path d="M8.1291 13.9141C5.93556 13.9141 3.22588 13.9141 0.645233 13.9141C0.645233 15.9786 2.32265 17.656 4.38717 17.656C6.45168 17.656 8.1291 15.9786 8.1291 13.9141Z" fill="#010101"/>
<path d="M18.5806 13.9141C16.387 13.9141 13.6773 13.9141 11.0967 13.9141C11.0967 15.9786 12.7741 17.656 14.8386 17.656C16.9031 17.656 18.5806 15.9786 18.5806 13.9141Z" fill="#010101"/>
<path d="M28.9032 13.9141C26.7096 13.9141 24 13.9141 21.4193 13.9141C21.4193 15.9786 23.0967 17.656 25.1612 17.656C27.2258 17.656 28.9032 15.9786 28.9032 13.9141Z" fill="#010101"/>
<path d="M39.3548 13.9141C37.1613 13.9141 34.4516 13.9141 31.871 13.9141C31.871 15.9786 33.5484 17.656 35.6129 17.656C37.6774 17.656 39.3548 15.9786 39.3548 13.9141Z" fill="#010101"/>
<path d="M38.0645 3.33325H1.93548C0.903226 3.33325 0 4.23648 0 5.26874V8.75261C0 9.78486 0.903226 10.6881 1.93548 10.6881H38.0645C39.0968 10.6881 40 9.78486 40 8.75261V5.26874C40 4.23648 39.0968 3.33325 38.0645 3.33325ZM1.29032 8.75261V5.26874C1.29032 4.88164 1.54839 4.62357 1.93548 4.62357H19.3548V9.39777H1.93548C1.54839 9.39777 1.29032 9.1397 1.29032 8.75261ZM38.7097 8.75261C38.7097 9.1397 38.4516 9.39777 38.0645 9.39777H20.6452V4.62357H38.0645C38.4516 4.62357 38.7097 4.88164 38.7097 5.26874V8.75261Z" fill="#010101"/>
<path d="M4.38717 37.5268C6.45168 37.5268 8.1291 35.8494 8.1291 33.7849C5.93556 33.7849 3.22588 33.7849 0.645233 33.7849C0.645233 35.8494 2.32265 37.5268 4.38717 37.5268Z" fill="#010101"/>
<path d="M14.8386 37.5268C16.9031 37.5268 18.5806 35.8494 18.5806 33.7849C16.387 33.7849 13.6773 33.7849 11.0967 33.7849C11.0967 35.8494 12.7741 37.5268 14.8386 37.5268Z" fill="#010101"/>
<path d="M25.1612 37.5268C27.2258 37.5268 28.9032 35.8494 28.9032 33.7849C26.7096 33.7849 24 33.7849 21.4193 33.7849C21.4193 35.8494 23.0967 37.5268 25.1612 37.5268Z" fill="#010101"/>
<path d="M35.6129 37.5268C37.6774 37.5268 39.3548 35.8494 39.3548 33.7849C37.1613 33.7849 34.4516 33.7849 31.871 33.7849C31.871 35.8494 33.5484 37.5268 35.6129 37.5268Z" fill="#010101"/>
<path d="M38.0645 23.0752H1.93548C0.903226 23.0752 0 23.9784 0 25.0107V28.4946C0 29.5268 0.903226 30.43 1.93548 30.43H38.0645C39.0968 30.43 40 29.5268 40 28.4946V25.0107C40 23.9784 39.0968 23.0752 38.0645 23.0752ZM1.29032 28.4946V25.0107C1.29032 24.6236 1.54839 24.3655 1.93548 24.3655H19.3548V29.1397H1.93548C1.54839 29.1397 1.29032 28.8816 1.29032 28.4946ZM38.7097 28.4946C38.7097 28.8816 38.4516 29.1397 38.0645 29.1397H20.6452V24.3655H38.0645C38.4516 24.3655 38.7097 24.6236 38.7097 25.0107V28.4946Z" fill="#010101"/>
</g>
<defs>
<clipPath id="clip0">
<rect width="40" height="40" fill="white"/>
</clipPath>
</defs>
</svg>
