<svg width="40" height="40" viewBox="0 0 40 40" fill="none" xmlns="http://www.w3.org/2000/svg">
<circle cx="20" cy="20" r="20" fill="#276EF1"/>
<path d="M20 9C26.0751 9 31 13.9249 31 20V21.375C31 23.6532 29.1532 25.5 26.875 25.5H26.4167C25.9104 25.5 25.5 25.0896 25.5 24.5833V20C25.5 18.4812 26.7312 17.25 28.25 17.25C28.4249 17.25 28.596 17.2663 28.7618 17.2975C27.6085 13.554 24.122 10.8333 20 10.8333C15.878 10.8333 12.3915 13.554 11.2382 17.2975C11.404 17.2663 11.5751 17.25 11.75 17.25C13.2688 17.25 14.5 18.4812 14.5 20V24.5833C14.5 25.0896 14.0896 25.5 13.5833 25.5H13.125C12.9574 25.5 12.7971 25.49 12.644 25.4706C13.7932 27.0133 15.4162 28.1822 17.2975 28.7618C17.2663 28.596 17.25 28.4249 17.25 28.25C17.25 26.7312 18.4812 25.5 20 25.5C21.5188 25.5 22.75 26.7312 22.75 28.25C22.75 29.7688 21.5188 31 20 31C13.9249 31 9 26.0751 9 20C9 13.9249 13.9249 9 20 9ZM20 27.3333C19.4937 27.3333 19.0833 27.7437 19.0833 28.25C19.0833 28.7563 19.4937 29.1667 20 29.1667C20.5063 29.1667 20.9167 28.7563 20.9167 28.25C20.9167 27.7437 20.5063 27.3333 20 27.3333ZM28.25 19.0833C27.7437 19.0833 27.3333 19.4937 27.3333 20V23.6208C28.3794 23.4085 29.1667 22.4837 29.1667 21.375V20C29.1667 19.4937 28.7563 19.0833 28.25 19.0833ZM11.75 19.0833C11.2437 19.0833 10.8333 19.4937 10.8333 20V21.375C10.8333 22.4837 11.6206 23.4085 12.6667 23.6208V20C12.6667 19.4937 12.2563 19.0833 11.75 19.0833ZM23.7288 13.7454C24.1456 14.0329 24.2504 14.6037 23.9629 15.0205C23.6754 15.4372 23.1046 15.542 22.6878 15.2546C21.2293 14.2485 18.7707 14.2485 17.3122 15.2546C16.8954 15.542 16.3246 15.4372 16.0371 15.0205C15.7496 14.6037 15.8544 14.0329 16.2712 13.7454C18.3564 12.3071 21.6436 12.3071 23.7288 13.7454Z" fill="white"/>
</svg>
