<svg width="20" height="20" viewBox="0 0 20 20" fill="none" xmlns="http://www.w3.org/2000/svg">
<g clip-path="url(#clip0)">
<path d="M7.5167 3.02653C7.02607 3.09253 6.63808 3.21397 6.16999 3.44894C5.2288 3.92414 4.45031 4.7848 4.07233 5.77217C4.03228 5.8725 3.93966 6.19986 3.86707 6.50083C3.6518 7.37204 3.6518 7.37468 3.01599 7.5014C2.28006 7.65188 1.65927 7.99509 1.15113 8.53102C0.497802 9.21743 0.127332 10.1124 0.0221992 11.2371C-0.052896 12.0581 0.0597468 12.734 0.402681 13.4943C1.08104 14.9938 2.3902 16.005 4.07483 16.3297C4.15494 16.3429 4.15494 16.3429 4.15243 16.2452C4.15243 16.1924 4.1274 15.8387 4.09736 15.4638L4.04229 14.78L3.79198 14.7219C3.1011 14.5582 2.56042 14.2652 2.1499 13.8375C1.5992 13.262 1.33386 12.4488 1.40145 11.538C1.46653 10.6378 1.71685 9.98304 2.16742 9.53159C2.51286 9.18839 2.82826 9.03263 3.43903 8.91118C3.98973 8.79766 4.31764 8.6287 4.60801 8.29869C4.90589 7.96341 5.02604 7.6862 5.21128 6.90739C5.34144 6.35562 5.42404 6.13914 5.61178 5.83818C5.73694 5.63489 6.06235 5.27057 6.2576 5.11216C6.60054 4.83496 7.05611 4.61848 7.49917 4.52871C8.21008 4.38087 9.23638 4.58944 9.81211 5.00128C10.145 5.23889 10.3152 5.46065 10.553 5.97282C10.6582 6.19722 10.7959 6.46123 10.8584 6.55891C11.2639 7.19516 11.9949 7.51724 12.8284 7.4222C13.1288 7.38788 13.1939 7.3958 13.6294 7.54628C13.9173 7.64396 14.07 7.73109 14.3804 7.97661C14.8785 8.36734 15.0387 8.42014 15.8322 8.44918C16.5281 8.47822 16.8085 8.5495 17.3166 8.83462C17.9649 9.19895 18.3479 9.57648 18.5357 10.0332L18.5832 10.1494L19.0488 10.1335C19.3041 10.123 19.617 10.115 19.7447 10.115C19.9424 10.115 19.975 10.1098 19.975 10.0728C19.975 10.0042 19.7197 9.46823 19.562 9.20423C19.3467 8.84518 19.164 8.59966 18.8886 8.29605C18.3304 7.6862 17.7121 7.32452 16.8335 7.08692C16.6132 7.02883 16.5106 7.01827 15.9924 7.00243L15.4017 6.98659L15.2165 6.84139C14.6608 6.41106 14.3378 6.23682 13.702 6.0309C13.4868 5.96226 13.4567 5.95962 12.891 5.95962L12.3028 5.95698L12.1726 5.88306L12.0399 5.81177L11.8297 5.35241C11.5793 4.80592 11.4267 4.55775 11.1538 4.25943C10.6732 3.73142 10.0274 3.35654 9.24889 3.15589C8.70821 3.01597 7.9898 2.96317 7.5167 3.02653Z" fill="white"/>
<path d="M6.87085 11.2529C6.05732 11.3559 5.35894 11.81 4.95843 12.4937C4.61049 13.0904 4.46531 13.8903 4.55793 14.6955C4.63803 15.374 4.93841 15.9997 5.36645 16.3746C5.57672 16.5594 5.93717 16.7627 6.22253 16.8551C6.79325 17.0452 7.60928 17.0478 8.36023 16.8656L8.49791 16.834L8.50542 16.3878C8.51042 15.9707 8.50792 15.9443 8.46787 15.9627C8.23758 16.0552 7.71191 16.1344 7.31391 16.1344C6.39525 16.1344 5.82953 15.7014 5.60425 14.8275C5.55669 14.648 5.54918 14.5477 5.54918 14.1543C5.54918 13.6184 5.58673 13.423 5.76195 13.0455C5.90463 12.7419 6.18498 12.4409 6.46033 12.2984C6.7482 12.1505 6.986 12.0951 7.34895 12.0951C7.65434 12.0951 8.0974 12.1584 8.34271 12.2376L8.46036 12.2746V11.8416V11.4113L8.33019 11.3691C7.96473 11.2556 7.28387 11.2001 6.87085 11.2529Z" fill="white"/>
<path d="M9.51169 14.1147V16.8999H9.98729H10.4629L10.4679 15.8228L10.4754 14.7483L10.8008 14.7404L11.1287 14.7325L11.8522 15.8175L12.5731 16.8999H13.1463C13.4592 16.8999 13.717 16.8947 13.717 16.8867C13.717 16.8788 13.3716 16.3746 12.951 15.7621C12.5305 15.1496 12.1801 14.6348 12.1751 14.6163C12.165 14.5952 12.2076 14.5661 12.2952 14.5371C13.0437 14.281 13.4617 13.6527 13.4041 12.866C13.3415 11.9816 12.7658 11.472 11.7045 11.3585C11.5543 11.3427 10.9986 11.3295 10.4704 11.3295H9.51169V14.1147ZM11.5543 12.2007C11.9673 12.2403 12.2026 12.3617 12.3278 12.5993C12.3953 12.7287 12.4028 12.7656 12.4028 12.9795C12.4028 13.3623 12.2802 13.5761 11.9773 13.7213C11.757 13.8269 11.5117 13.8665 10.971 13.8824L10.4629 13.8982V13.0534C10.4629 12.5888 10.4704 12.2007 10.4804 12.1928C10.5029 12.1664 11.2589 12.1716 11.5543 12.2007Z" fill="white"/>
<path d="M14.5732 14.1068L14.5807 16.8867L15.0663 16.8947L15.5494 16.8999L15.5369 14.8618C15.5294 13.7398 15.5143 12.7815 15.5043 12.734C15.4943 12.6838 15.4993 12.6495 15.5143 12.6495C15.5269 12.6495 15.5969 12.8422 15.6695 13.0772C15.7897 13.4758 15.9299 13.8877 16.7008 16.1027L16.9787 16.9026L17.2916 16.8947L17.6045 16.8867L18.1752 15.2499C18.4906 14.3497 18.811 13.4045 18.8886 13.1511C18.9662 12.8977 19.0413 12.6785 19.0513 12.6627C19.0638 12.6495 19.0663 12.8818 19.0563 13.2039C19.0438 13.5154 19.0363 14.4711 19.0363 15.3291V16.8867L19.5194 16.8947L20 16.8999V14.1147V11.3295H19.3217H18.6458L18.6133 11.414C18.4981 11.7096 17.5319 14.582 17.4343 14.9199C17.3692 15.1443 17.3066 15.3476 17.2966 15.3661C17.2841 15.3925 17.2591 15.3423 17.224 15.2077C17.1014 14.7668 16.8736 14.0672 16.4155 12.7366L15.9324 11.3295H15.249H14.5681L14.5732 14.1068Z" fill="white"/>
</g>
<defs>
<clipPath id="clip0">
<rect width="20" height="20" fill="white"/>
</clipPath>
</defs>
</svg>
