<svg width="20" height="20" viewBox="0 0 20 20" fill="none" xmlns="http://www.w3.org/2000/svg">
<path d="M11.2727 10L19.7273 1.54545C20.0909 1.18182 20.0909 0.636364 19.7273 0.272727C19.3636 -0.0909091 18.8182 -0.0909091 18.4545 0.272727L10 8.72727L1.54545 0.272727C1.18182 -0.0909091 0.636364 -0.0909091 0.272727 0.272727C-0.0909091 0.636364 -0.0909091 1.18182 0.272727 1.54545L8.72727 10L0.272727 18.4545C-0.0909091 18.8182 -0.0909091 19.3636 0.272727 19.7273C0.454545 19.9091 0.636364 20 0.909091 20C1.18182 20 1.36364 19.9091 1.54545 19.7273L10 11.2727L18.4545 19.7273C18.6364 19.9091 18.9091 20 19.0909 20C19.2727 20 19.5455 19.9091 19.7273 19.7273C20.0909 19.3636 20.0909 18.8182 19.7273 18.4545L11.2727 10Z" fill="#757575"/>
</svg>
