<svg width="20" height="20" viewBox="0 0 20 20" fill="none" xmlns="http://www.w3.org/2000/svg">
<g clip-path="url(#clip0)">
<path d="M9.76759 0.00174288C6.10391 0.0767775 2.74692 2.19442 1.08343 5.47927C0.116667 7.38514 -0.210031 9.50612 0.133335 11.6254C0.570043 14.3133 2.10352 16.7194 4.36707 18.2685C5.81888 19.2623 7.50237 19.8492 9.28754 19.9826C9.64258 20.0093 10.436 20.0043 10.8094 19.9743C12.7012 19.8209 14.498 19.1406 15.9982 18.0084C17.25 17.0646 18.2501 15.8657 18.9418 14.4817C20.1236 12.1207 20.3253 9.40441 19.5019 6.90993C19.3868 6.56143 19.2402 6.17959 19.1251 5.92781L19.0601 5.78774L18.2584 6.83823C17.8167 7.41516 17.445 7.90372 17.4333 7.92206C17.4167 7.95041 17.4217 7.99543 17.4733 8.21219C17.6467 8.93586 17.71 9.57449 17.6833 10.3248C17.5817 13.1328 15.9098 15.6856 13.3596 16.9245C12.8696 17.1613 12.4512 17.3181 11.9511 17.4464C9.64424 18.0434 7.24401 17.5648 5.35217 16.1308C4.19372 15.2538 3.29197 14.0415 2.78692 12.6793C2.15186 10.9685 2.15186 9.03591 2.78692 7.32678C3.67367 4.94235 5.7022 3.13152 8.16077 2.53124C8.73916 2.38951 9.20587 2.32948 9.81759 2.31281C10.8677 2.28613 11.8978 2.47121 12.8679 2.86139C13.2746 3.0248 13.8946 3.34995 14.2363 3.58006L14.278 3.6084L15.2231 2.88307C15.7432 2.48455 16.1699 2.1544 16.1699 2.14773C16.1715 2.11605 15.4781 1.63083 15.1431 1.42907C13.7263 0.577008 12.0478 0.0667728 10.4927 0.0150824C10.0259 -0.00159199 9.95927 -0.00159199 9.76759 0.00174288Z" fill="white"/>
<path d="M18.8085 2.11435C18.6768 2.15604 18.5401 2.24441 18.2851 2.45284C16.7699 3.69342 14.433 5.66433 11.1511 8.46729C10.6543 8.89248 10.606 8.92917 10.5593 8.92083C10.146 8.84913 9.82759 8.8458 9.49589 8.91083C7.77405 9.24431 6.8273 11.1185 7.58404 12.6909C7.90573 13.3595 8.45912 13.8514 9.14919 14.0799C9.39255 14.1616 9.54756 14.1933 9.80092 14.2133C10.3093 14.255 10.8327 14.1416 11.2877 13.8915C11.9561 13.5263 12.4562 12.8593 12.6179 12.1173C12.6912 11.7788 12.6979 11.4587 12.6395 11.1068C12.6145 10.9484 12.6145 10.9434 12.6462 10.9067C12.6845 10.8634 13.3063 10.1381 14.2614 9.01921C16.1949 6.75483 17.8017 4.83895 18.8968 3.49332C19.3118 2.98309 19.4019 2.84302 19.4369 2.65127C19.4785 2.42116 19.3802 2.2094 19.1935 2.12269C19.1152 2.08601 18.9135 2.081 18.8085 2.11435Z" fill="white"/>
<path d="M9.8026 3.10147C9.58257 3.15983 9.40422 3.3099 9.30421 3.51999C9.25087 3.63504 9.24254 3.66672 9.23754 3.80845C9.23254 3.93851 9.23754 3.9852 9.26754 4.07357C9.43422 4.56713 10.001 4.76221 10.431 4.47542C10.8194 4.2153 10.8777 3.66172 10.5527 3.3199C10.3527 3.10981 10.0743 3.0281 9.8026 3.10147Z" fill="white"/>
<path d="M6.73897 3.86683C6.6923 3.88017 6.61729 3.90685 6.57229 3.92853C6.46061 3.98023 6.28559 4.16032 6.22892 4.28039C6.04723 4.66893 6.20892 5.12084 6.59396 5.30427C6.70563 5.35763 6.74397 5.36763 6.87232 5.37264C7.05567 5.38264 7.19568 5.34762 7.33069 5.26091C7.57572 5.10082 7.69406 4.86737 7.68073 4.56887C7.67573 4.43547 7.6674 4.40045 7.61406 4.29039C7.45571 3.95521 7.08234 3.77512 6.73897 3.86683Z" fill="white"/>
<path d="M12.8895 3.8667C12.5845 3.95175 12.3661 4.19521 12.3161 4.50204C12.2795 4.7255 12.3561 4.96229 12.5212 5.13572C12.6728 5.29747 12.8562 5.37584 13.0762 5.37584C13.2962 5.37584 13.4796 5.29747 13.6313 5.13572C14.0096 4.7355 13.8546 4.08849 13.3346 3.89005C13.2162 3.84503 13.0045 3.83335 12.8895 3.8667Z" fill="white"/>
<path d="M4.37538 6.19122C4.2487 6.23624 4.19869 6.26625 4.10535 6.34963C3.92033 6.51637 3.84199 6.70813 3.85366 6.96658C3.85866 7.10665 3.867 7.13666 3.92367 7.25005C4.16202 7.73361 4.77541 7.83865 5.15212 7.46181C5.55715 7.05662 5.39714 6.37797 4.85375 6.19455C4.72041 6.14953 4.49539 6.14787 4.37538 6.19122Z" fill="white"/>
<path d="M3.662 9.25426C3.18696 9.36932 2.94194 9.89459 3.15863 10.3382C3.23197 10.4882 3.37364 10.6266 3.52866 10.7C3.637 10.7517 3.652 10.7534 3.84368 10.7534C4.04204 10.7534 4.04537 10.7534 4.17038 10.69C4.49874 10.5283 4.66709 10.1931 4.59375 9.8479C4.56208 9.69115 4.49874 9.57609 4.38373 9.45937C4.19372 9.26593 3.92536 9.19089 3.662 9.25426Z" fill="white"/>
<path d="M16.0015 9.2443C15.7282 9.30099 15.4798 9.53611 15.4115 9.8029C15.2831 10.2931 15.6448 10.7617 16.1516 10.7617C16.4633 10.7617 16.7116 10.6033 16.8466 10.3198C17.0066 9.97965 16.8933 9.57946 16.5716 9.35769C16.4266 9.25764 16.1766 9.20928 16.0015 9.2443Z" fill="white"/>
</g>
<defs>
<clipPath id="clip0">
<rect width="20" height="20" fill="white"/>
</clipPath>
</defs>
</svg>
