<svg width="19" height="20" viewBox="0 0 19 20" fill="none" xmlns="http://www.w3.org/2000/svg">
<path d="M13.6665 2.49993C13.8854 2.28106 14.1452 2.10744 14.4312 1.98899C14.7171 1.87054 15.0236 1.80957 15.3332 1.80957C15.6427 1.80957 15.9492 1.87054 16.2352 1.98899C16.5211 2.10744 16.781 2.28106 16.9998 2.49993C17.2187 2.7188 17.3923 2.97863 17.5108 3.2646C17.6292 3.55057 17.6902 3.85706 17.6902 4.16659C17.6902 4.47612 17.6292 4.78262 17.5108 5.06859C17.3923 5.35455 17.2187 5.61439 16.9998 5.83326L5.74984 17.0833L1.1665 18.3333L2.4165 13.7499L13.6665 2.49993Z" stroke="#276EF1" stroke-width="2" stroke-linecap="round" stroke-linejoin="round"/>
</svg>
