<svg width="16" height="16" viewBox="0 0 16 16" fill="none" xmlns="http://www.w3.org/2000/svg">
<mask id="mask0" mask-type="alpha" maskUnits="userSpaceOnUse" x="0" y="0" width="16" height="16">
<path d="M8 16C12.4183 16 16 12.4183 16 8C16 3.58172 12.4183 0 8 0C3.58172 0 0 3.58172 0 8C0 12.4183 3.58172 16 8 16Z" fill="white"/>
</mask>
<g mask="url(#mask0)">
<path d="M8 16C12.4183 16 16 12.4183 16 8C16 3.58172 12.4183 0 8 0C3.58172 0 0 3.58172 0 8C0 12.4183 3.58172 16 8 16Z" fill="#252F6C"/>
<path d="M10.1818 -6.54614H5.81818V22.5448H10.1818V-6.54614Z" fill="white"/>
<path d="M22.5455 5.81848V10.1821L-6.54543 10.1821V5.81848L22.5455 5.81848Z" fill="white"/>
<path d="M9.45456 -2.18152H6.54547V18.1821H9.45456V-2.18152Z" fill="#E51D35"/>
<path d="M17.2567 -3.31445L19.3137 -1.25742L-1.25669 19.313L-3.31373 17.2559L17.2567 -3.31445Z" fill="white"/>
<path d="M-3.31372 -1.25598L-1.25668 -3.31302L19.3137 17.2574L17.2567 19.3144L-3.31372 -1.25598Z" fill="white"/>
<path d="M17.7709 -2.79944L18.7995 -1.77092L-1.77093 18.7995L-2.79944 17.7709L17.7709 -2.79944Z" fill="#E51D35"/>
<path d="M9.45456 -6.54614H6.54547V22.5448H9.45456V-6.54614Z" fill="#E51D35"/>
<path d="M22.5455 6.54614V9.45523L-6.54543 9.45523V6.54614L22.5455 6.54614Z" fill="#E51D35"/>
<path d="M-2.7995 -1.771L-1.77098 -2.79952L18.7994 17.7709L17.7709 18.7994L-2.7995 -1.771Z" fill="#E51D35"/>
</g>
</svg>
