<svg width="20" height="20" viewBox="0 0 20 20" fill="none" xmlns="http://www.w3.org/2000/svg">
<path d="M18.5405 8.22617C19.3523 7.23396 19.7131 6.33195 19.8033 6.24175C19.9837 5.79074 19.8033 5.24953 19.3523 5.06913C18.9013 4.88873 18.3601 5.06913 18.1797 5.52014C18.1797 5.61034 15.9247 10.4812 9.97141 10.4812C6.72417 10.4812 4.55934 9.03798 3.29653 7.68496C2.30431 6.60255 1.85331 5.61034 1.76311 5.52014C1.5827 5.06913 1.0415 4.88873 0.590492 5.06913C0.139487 5.24953 -0.0409154 5.79074 0.139487 6.24175C0.139487 6.33195 0.590492 7.23396 1.4925 8.31637L0.229688 9.75959C-0.131117 10.1204 -0.0409154 10.7518 0.319889 11.0224C0.500291 11.2028 0.770895 11.2028 0.951297 11.2028C1.2219 11.2028 1.4925 11.1126 1.67291 10.9322L2.75532 9.66939C3.38673 10.2106 4.01814 10.6616 4.82995 11.1126L4.19854 12.7362C4.01813 13.1872 4.28874 13.7284 4.73974 13.9088C4.82994 13.9088 4.92015 13.999 5.10055 13.999C5.46135 13.999 5.82216 13.8186 5.91236 13.4578L6.54377 11.9244C7.26537 12.0146 8.16739 12.195 9.0694 12.2852V13.999C9.0694 14.5402 9.4302 14.9011 9.97141 14.9011C10.5126 14.9011 10.8734 14.5402 10.8734 13.999V12.2852C11.8656 12.195 12.7676 12.0146 13.5795 11.744L14.2109 13.2774C14.3913 13.6382 14.6619 13.8186 15.0227 13.8186C15.1129 13.8186 15.2031 13.8186 15.3835 13.7284C15.8345 13.548 16.1051 13.0068 15.9247 12.5558L15.2933 10.9322C16.1051 10.4812 16.8267 9.93999 17.3679 9.48899L18.3601 10.842C18.5405 11.1126 18.8111 11.2028 19.0817 11.2028C19.2621 11.2028 19.4425 11.1126 19.6229 11.0224C19.9837 10.7518 20.1641 10.2106 19.8033 9.75959L18.5405 8.22617Z" fill="#1F1F1F"/>
</svg>
