<svg width="20" height="20" viewBox="0 0 20 20" fill="none" xmlns="http://www.w3.org/2000/svg">
<path fill-rule="evenodd" clip-rule="evenodd" d="M10.0051 3C16.0852 3 19.0799 7.99119 19.8059 9.44317C20.0782 9.98766 20.0782 10.7137 19.7152 11.1674C19.4429 11.8026 18.8985 12.7101 18.1725 13.6176C17.9002 13.9806 17.265 13.9806 16.902 13.7084C16.539 13.4361 16.539 12.8009 16.8112 12.4379C17.5372 11.5304 17.991 10.7137 18.1725 10.3507V10.1692C17.5372 8.89868 15.087 4.72423 10.0051 4.72423C4.92313 4.72423 2.47291 8.89868 1.83766 10.1692V10.3507C2.47291 11.6211 4.92313 15.7956 10.0051 15.7956C11.82 15.7956 13.4535 15.2511 14.9055 14.2529C15.3592 13.9806 15.9037 14.0714 16.176 14.4344C16.4482 14.8881 16.3575 15.4326 15.9945 15.7048C14.1795 16.9753 12.183 17.6106 10.0051 17.6106C3.83414 17.6106 0.930176 12.7101 0.204185 11.1674C-0.0680616 10.6229 -0.0680616 9.98766 0.204185 9.44317C0.930176 7.99119 3.92489 3 10.0051 3ZM10.0051 13.9807C8.00861 13.9807 6.37513 12.3472 6.37513 10.3507C6.37513 8.35427 8.00861 6.72079 10.0051 6.72079C12.0016 6.72079 13.635 8.35427 13.635 10.3507C13.635 12.3472 12.0016 13.9807 10.0051 13.9807ZM10.0051 12.1657C11.0033 12.1657 11.8201 11.349 11.8201 10.3507C11.8201 9.35251 11.0033 8.53577 10.0051 8.53577C9.00685 8.53577 8.19011 9.35251 8.19011 10.3507C8.19011 11.349 9.00685 12.1657 10.0051 12.1657Z" fill="#1F1F1F"/>
</svg>
