<svg width="20" height="20" viewBox="0 0 20 20" fill="none" xmlns="http://www.w3.org/2000/svg">
<path d="M8.33337 10.8334C8.69125 11.3118 9.14784 11.7077 9.67217 11.9941C10.1965 12.2806 10.7763 12.451 11.3722 12.4936C11.9682 12.5363 12.5664 12.4503 13.1262 12.2415C13.686 12.0327 14.1943 11.7059 14.6167 11.2834L17.1167 8.78336C17.8757 7.99752 18.2957 6.94501 18.2862 5.85253C18.2767 4.76004 17.8385 3.71499 17.066 2.94245C16.2934 2.16992 15.2484 1.73172 14.1559 1.72222C13.0634 1.71273 12.0109 2.13271 11.225 2.8917L9.79171 4.3167" stroke="white" stroke-width="2" stroke-linecap="round" stroke-linejoin="round"/>
<path d="M11.6667 9.16665C11.3088 8.68821 10.8522 8.29233 10.3279 8.00587C9.80353 7.7194 9.22373 7.54905 8.62777 7.50637C8.03182 7.46369 7.43366 7.54968 6.87386 7.7585C6.31406 7.96732 5.80572 8.29409 5.38332 8.71665L2.88332 11.2167C2.12432 12.0025 1.70435 13.055 1.71384 14.1475C1.72334 15.24 2.16154 16.285 2.93407 17.0576C3.70661 17.8301 4.75166 18.2683 5.84415 18.2778C6.93663 18.2873 7.98914 17.8673 8.77498 17.1083L10.2 15.6833" stroke="white" stroke-width="2" stroke-linecap="round" stroke-linejoin="round"/>
</svg>
