<svg width="20" height="20" viewBox="0 0 20 20" fill="none" xmlns="http://www.w3.org/2000/svg">
<g clip-path="url(#clip0)">
<path d="M6.74247 0.0100078L5.26802 0.0275208L5.11808 0.0900674C4.75322 0.240179 4.36836 0.565422 2.99388 1.8739C2.22167 2.60944 0.654755 4.18312 0.454829 4.41829C0.367362 4.52337 0.234912 4.70851 0.164938 4.8311L0.0324878 5.05377V7.57064C0.0324878 8.95417 0.0249906 12.2141 0.0174934 14.8135L0 19.5396L0.182432 19.7522C0.282394 19.8698 0.374859 19.9724 0.392353 19.9824C0.459828 20.0274 14.2422 19.9774 14.697 19.9298C14.8744 19.9123 14.9144 19.8998 14.9794 19.8373C15.0219 19.7972 15.0693 19.7122 15.0893 19.6396C15.1768 19.3394 15.1843 18.9866 15.1993 14.6434L15.2143 10.3502L16.7012 8.81407C17.5184 7.97094 18.3531 7.1128 18.553 6.90514C19.1003 6.33972 19.6026 5.79932 19.7651 5.60418C19.975 5.34648 20 5.28143 20 4.95119V4.67098L19.2328 3.93293C18.8079 3.52513 18.3856 3.12983 18.2881 3.05227C17.8733 2.72203 17.6159 2.687 17.281 2.92218C17.0386 3.0923 16.8762 3.24742 16.0465 4.10056C15.6041 4.55589 15.2318 4.93117 15.2218 4.93618C15.2118 4.94118 15.2018 3.92793 15.2018 2.6845V0.425317L15.0269 0.217662L14.8494 0.0125096H12.9926C11.973 0.0125096 10.4786 0.0075059 9.67637 0.00250218C8.87417 -0.00250155 7.55467 3.12582e-07 6.74247 0.0100078ZM14.2921 0.452838L14.7195 0.467849L14.7345 1.6112C14.7445 2.23917 14.752 3.36 14.752 4.10306L14.7495 5.45406L13.6974 6.54237C12.7727 7.49809 11.0783 9.2544 10.3786 9.98244C9.62139 10.7705 8.76421 11.6962 8.64426 11.8538C8.56679 11.9539 8.47682 12.1866 8.25191 12.8421C7.88454 13.9254 7.62964 14.831 7.62964 15.0587C7.62964 15.1863 7.63714 15.2063 7.7296 15.3014L7.82956 15.4065L8.05948 15.3915C8.24941 15.3815 8.41185 15.3439 8.94165 15.1913C9.71636 14.9662 10.781 14.6209 10.9909 14.5233C11.0983 14.4733 11.2383 14.3657 11.4907 14.133C11.908 13.7502 12.9551 12.7045 13.9998 11.6337L14.7545 10.8606L14.7445 15.0737C14.7345 18.9416 14.7245 19.487 14.672 19.5421C14.6045 19.6096 5.75534 19.6546 2.63151 19.6046C0.684743 19.5721 0.542297 19.5646 0.519805 19.5045C0.474822 19.3869 0.457329 17.388 0.45233 11.6962L0.444833 5.37901L2.43159 5.364C4.49581 5.34899 4.73572 5.33648 4.95564 5.2389C5.18306 5.13883 5.27052 4.99872 5.333 4.64096C5.35049 4.53338 5.36549 3.78032 5.37299 2.44432L5.38298 0.410306L9.62389 0.425317C11.9555 0.432823 14.0572 0.445332 14.2921 0.452838ZM4.94565 3.07729C4.93815 3.84787 4.92066 4.53838 4.90816 4.61344C4.89317 4.68599 4.86318 4.76855 4.84068 4.79357C4.74322 4.90115 4.68574 4.90365 2.65151 4.90365C0.814695 4.90365 0.707235 4.90115 0.664751 4.85862C0.622267 4.81609 0.659753 4.77356 1.64438 3.79533C2.68899 2.75705 3.83856 1.63872 4.5308 0.988237L4.91816 0.625466L4.93815 1.15086C4.94814 1.43857 4.95314 2.30672 4.94565 3.07729ZM17.8383 3.25743C18.0582 3.40254 18.3906 3.70276 18.9254 4.24066C19.5302 4.84611 19.6401 4.97871 19.6151 5.07378C19.5902 5.18136 19.2203 5.59167 18.0257 6.8426C16.0865 8.87411 13.8323 11.1933 12.4928 12.5368L10.9409 14.088L10.7035 14.1806C10.1737 14.3857 9.48144 14.5984 9.3465 14.5984C9.21654 14.5984 8.93165 14.3432 8.60927 13.9329C8.42934 13.7077 8.42684 13.6927 8.49182 13.435C8.60677 12.9822 8.85918 12.2842 8.96414 12.134C9.0566 12.0014 9.66388 11.3259 10.2287 10.733C10.536 10.4103 13.2325 7.61317 13.7898 7.04275C14.0222 6.80257 14.4396 6.37475 14.7145 6.09204C15.7766 4.99872 17.271 3.50011 17.4485 3.34749C17.5509 3.25993 17.6584 3.18988 17.6859 3.18988C17.7159 3.18988 17.7833 3.2199 17.8383 3.25743ZM8.5368 14.5183L8.8067 14.7885L8.48682 14.8936C8.31188 14.9486 8.13445 15.0037 8.09446 15.0137C8.02449 15.0312 8.02449 15.0287 8.04198 14.9461C8.05698 14.8636 8.15694 14.4933 8.20942 14.3282C8.22192 14.2856 8.24191 14.2481 8.24941 14.2481C8.2594 14.2481 8.38935 14.3707 8.5368 14.5183Z" fill="white"/>
<path d="M3.56616 6.91767C3.26377 6.92767 2.97638 6.94769 2.9264 6.9652C2.77396 7.01524 2.74897 7.17286 2.88142 7.24291C2.99138 7.30045 3.96601 7.31796 7.57967 7.31796C11.2008 7.31796 12.143 7.30295 12.2529 7.24291C12.3854 7.17286 12.3654 7.02024 12.2179 6.9677C12.1755 6.95269 11.8381 6.93018 11.4657 6.91767C10.696 6.89015 4.40335 6.89265 3.56616 6.91767Z" fill="white"/>
<path d="M4.08347 9.59464C3.32625 9.61966 2.88642 9.65719 2.83894 9.70222C2.79645 9.74225 2.77396 9.87485 2.80145 9.91488C2.85393 9.99244 3.11633 9.99994 5.89279 10.0125C8.48431 10.0225 9.70136 10.0049 9.87379 9.95491C9.94377 9.9349 9.96876 9.84483 9.92377 9.75476C9.88129 9.66469 9.82881 9.65469 9.26402 9.61966C8.69923 9.58463 4.99313 9.56712 4.08347 9.59464Z" fill="white"/>
<path d="M2.99138 12.4943C2.78396 12.5193 2.77396 12.5293 2.78646 12.677C2.79395 12.742 2.80645 12.8045 2.81395 12.8121C2.82144 12.8221 3.87355 12.8296 5.14807 12.8321C7.67961 12.8346 7.60714 12.8396 7.62463 12.697C7.63963 12.5669 7.59215 12.5469 7.24228 12.5193C6.83993 12.4893 3.2013 12.4668 2.99138 12.4943Z" fill="white"/>
<path d="M3.12133 15.2238C2.90391 15.2389 2.86893 15.2464 2.82644 15.2964C2.77896 15.3564 2.76896 15.439 2.80145 15.4915C2.84644 15.5616 3.07635 15.5766 4.31838 15.5891C5.81281 15.6066 6.66749 15.5791 6.76495 15.5141C6.84242 15.464 6.84992 15.379 6.78494 15.2989C6.74496 15.2489 6.70497 15.2414 6.45257 15.2213C6.1152 15.1988 3.4787 15.1988 3.12133 15.2238Z" fill="white"/>
<path d="M17.8733 4.69601C17.6659 4.83111 15.909 6.58992 14.1772 8.39376C13.4575 9.14432 12.7527 9.87486 12.6153 10.02C11.1183 11.5736 10.3611 12.4293 10.3111 12.6194C10.2936 12.6895 10.3286 12.757 10.3861 12.767C10.4461 12.7795 10.7735 12.4693 11.978 11.2534C14.4271 8.78655 17.3885 5.67924 18.0282 4.91117C18.1557 4.75855 18.1682 4.72103 18.1257 4.63846C18.0882 4.57091 18.0507 4.57842 17.8733 4.69601Z" fill="white"/>
</g>
<defs>
<clipPath id="clip0">
<rect width="20" height="20" fill="white"/>
</clipPath>
</defs>
</svg>
