<svg width="109" height="24" viewBox="0 0 109 24" fill="none" xmlns="http://www.w3.org/2000/svg">
<g clip-path="url(#clip0)">
<path d="M49.737 2.5207C49.737 1.52165 50.702 0.704239 51.8827 0.704239H57.6272C60.9196 0.704239 63.7124 1.79412 65.9148 3.93981C68.1513 6.08551 69.2753 8.77614 69.2753 12.0458C69.2753 15.3154 68.1513 18.0401 65.9148 20.1858C63.701 22.3315 60.9196 23.3873 57.6272 23.3873H51.8827C50.702 23.3873 49.737 22.5699 49.737 21.5708V2.5207ZM62.6906 6.95968C61.2942 5.54057 59.6026 4.81398 57.6386 4.81398H54.0397V19.2776H57.6386C59.6026 19.2776 61.2942 18.585 62.6906 17.1546C64.1097 15.7355 64.8136 14.0439 64.8136 12.0458C64.8022 10.0817 64.1097 8.39014 62.6906 6.95968ZM72.1589 21.5708C72.1589 22.5699 73.1239 23.3873 74.3046 23.3873H87.2469C88.246 23.3873 89.0634 22.445 89.0634 21.3324C89.0634 20.2085 88.246 19.2776 87.2469 19.2776H76.4503V14.0779H85.158C86.157 14.0779 86.9744 13.1356 86.9744 12.0231C86.9744 10.9105 86.157 9.96819 85.158 9.96819H76.4503V4.81398H87.2469C88.246 4.81398 89.0634 3.87169 89.0634 2.75911C89.0634 1.63518 88.246 0.704239 87.2469 0.704239H74.3046C73.1239 0.704239 72.1589 1.52165 72.1589 2.5207V21.5708ZM99.6783 19.7884C97.6234 19.7884 95.841 19.2094 94.3538 18.0969C93.6272 17.586 92.4125 17.8812 91.7199 18.7326C91.0842 19.7317 91.175 20.9124 91.9924 21.5141L92.0832 21.6049C94.297 23.1489 96.806 23.9095 99.6783 23.9095C102.131 23.9095 104.151 23.2738 105.786 21.9682C107.455 20.6626 108.261 18.9483 108.261 16.8253C108.261 12.8632 105.48 10.2861 100.916 9.71843C98.9517 9.44596 97.6461 9.08267 97.0444 8.68532C96.4427 8.26526 96.1362 7.6295 96.1703 6.74397C96.2043 5.25675 97.5894 4.29175 99.6783 4.29175C101.37 4.29175 103.039 4.80263 104.64 5.80168C105.491 6.28986 106.581 5.85845 107.183 4.8594C107.762 3.86034 107.546 2.77046 106.694 2.20282C104.674 0.851827 102.312 0.193359 99.6783 0.193359C97.4418 0.193359 95.5345 0.795062 93.9905 2.04388C92.4465 3.25864 91.6972 4.82534 91.6972 6.76668C91.6972 10.7856 93.9678 12.9426 99.0766 13.5784C101.131 13.8168 102.494 14.3391 103.073 14.9748C103.675 15.6106 103.799 16.0988 103.799 16.848C103.799 18.6418 102.131 19.7884 99.6783 19.7884ZM34.2289 17.0637C34.9669 16.3258 35.8978 15.883 36.8628 15.7355L31.561 1.48759C31.1637 0.613416 29.9602 0.216065 28.8363 0.579357C27.7464 1.03347 27.1674 2.12335 27.508 3.05429L33.4002 18.1763C33.6159 17.779 33.8883 17.4043 34.2289 17.0637ZM46.263 0.579357C45.1391 0.216065 43.9356 0.613416 43.5383 1.48759L38.2365 15.7355C39.2015 15.8717 40.1324 16.3145 40.8704 17.0637C41.211 17.4043 41.4834 17.779 41.6991 18.1877L47.5913 3.06564C47.9205 2.12335 47.3529 1.03347 46.263 0.579357ZM35.3415 18.165C34.1154 19.3911 34.1154 21.3665 35.3415 22.5812C36.5676 23.8074 38.543 23.8074 39.7578 22.5812C40.9839 21.3551 40.9839 19.3797 39.7578 18.165C38.543 16.9502 36.5563 16.9502 35.3415 18.165Z" fill="url(#paint0_linear)"/>
<path d="M20.4806 20.4806C17.7559 23.2053 14.0549 24.3406 10.5128 23.9092C11.7389 22.5695 12.3747 20.8893 12.4087 19.1864C14.1116 19.0842 15.7919 18.3917 17.0861 17.0861C19.9016 14.2706 19.9016 9.71807 17.0861 6.90255C14.2706 4.08704 9.71807 4.08704 6.90256 6.90255C5.52886 8.27625 4.83633 10.0587 4.80227 11.8411C3.11069 11.9319 1.45317 12.6244 0.147592 13.9073C-0.442758 10.2403 0.681177 6.34626 3.5194 3.51939C5.85809 1.16935 8.92337 0 12 0C15.0766 0 18.1419 1.16935 20.4806 3.51939C25.1693 8.19678 25.1693 15.8032 20.4806 20.4806Z" fill="url(#paint1_linear)"/>
<path d="M1.81654 15.6441C-0.0566854 17.5173 -0.0566854 20.5599 1.81654 22.4331C3.68977 24.3063 6.73234 24.3063 8.60557 22.4331C10.4788 20.5599 10.4788 17.5173 8.60557 15.6441C7.66328 14.7018 6.43716 14.2363 5.21105 14.2363C3.98494 14.2363 2.75883 14.7131 1.81654 15.6441Z" fill="url(#paint2_linear)"/>
<path opacity="0.1" d="M5.21107 14.2363C3.98495 14.2363 2.75884 14.7018 1.81655 15.6441C1.47597 15.9847 1.2035 16.3593 0.987793 16.7567C2.25932 19.6857 4.65478 22.0131 7.64058 23.1711C7.98117 22.9667 8.3104 22.7169 8.60558 22.4218C10.4788 20.5485 10.4788 17.506 8.60558 15.6327C7.66329 14.7131 6.43718 14.2363 5.21107 14.2363Z" fill="white"/>
<path opacity="0.1" d="M10.0017 18.8573C9.95632 17.688 9.49085 16.5413 8.60533 15.6558C7.67439 14.7249 6.44828 14.248 5.22217 14.248C5.96011 16.4619 7.75386 18.1989 10.0017 18.8573Z" fill="white"/>
</g>
<defs>
<linearGradient id="paint0_linear" x1="27.4111" y1="12.0471" x2="108.275" y2="12.0471" gradientUnits="userSpaceOnUse">
<stop stop-color="#0000DA"/>
<stop offset="1" stop-color="#4CC2DE"/>
</linearGradient>
<linearGradient id="paint1_linear" x1="5.11757" y1="18.8801" x2="20.4833" y2="3.5144" gradientUnits="userSpaceOnUse">
<stop stop-color="#0000DA"/>
<stop offset="1" stop-color="#4CC2DE"/>
</linearGradient>
<linearGradient id="paint2_linear" x1="1.81693" y1="22.4348" x2="8.60466" y2="15.647" gradientUnits="userSpaceOnUse">
<stop stop-color="#4437FD"/>
<stop offset="1" stop-color="#CB43FE"/>
</linearGradient>
<clipPath id="clip0">
<rect width="108.272" height="24" fill="white"/>
</clipPath>
</defs>
</svg>
