<svg width="40" height="40" viewBox="0 0 40 40" fill="none" xmlns="http://www.w3.org/2000/svg">
<g clip-path="url(#clip0)">
<path d="M6.66663 4.3872C6.66663 6.45171 8.34405 8.12913 10.4086 8.12913C10.4086 5.93559 10.4086 3.22591 10.4086 0.645264C8.34405 0.645264 6.66663 2.32268 6.66663 4.3872Z" fill="#010101"/>
<path d="M6.66663 14.8389C6.66663 16.9034 8.34405 18.5808 10.4086 18.5808C10.4086 16.3872 10.4086 13.6776 10.4086 11.0969C8.34405 11.0969 6.66663 12.7743 6.66663 14.8389Z" fill="#010101"/>
<path d="M6.66663 25.1614C6.66663 27.2259 8.34405 28.9033 10.4086 28.9033C10.4086 26.7098 10.4086 24.0001 10.4086 21.4194C8.34405 21.4194 6.66663 23.0969 6.66663 25.1614Z" fill="#010101"/>
<path d="M6.66663 35.6128C6.66663 37.6773 8.34405 39.3547 10.4086 39.3547C10.4086 37.1612 10.4086 34.4515 10.4086 31.8708C8.34405 31.8708 6.66663 33.5483 6.66663 35.6128Z" fill="#010101"/>
<path d="M25.1181 0H15.5698C14.5375 0 13.6343 0.903226 13.6343 1.93548V38.0645C13.6343 39.0968 14.5375 40 15.5698 40H25.1181C26.1504 40 27.0536 39.0968 27.0536 38.0645V1.93548C27.0536 0.903226 26.1504 0 25.1181 0ZM25.7633 38.0645C25.7633 38.4516 25.5052 38.7097 25.1181 38.7097H15.5698C15.1827 38.7097 14.9246 38.4516 14.9246 38.0645V1.93548C14.9246 1.54839 15.1827 1.29032 15.5698 1.29032H25.1181C25.5052 1.29032 25.7633 1.54839 25.7633 1.93548V38.0645Z" fill="#010101"/>
<path d="M30.4084 31.8708C30.4084 34.0644 30.4084 36.7741 30.4084 39.3547C32.473 39.3547 34.1504 37.6773 34.1504 35.6128C34.1504 33.5483 32.473 31.8708 30.4084 31.8708Z" fill="#010101"/>
<path d="M30.4084 21.4194C30.4084 23.613 30.4084 26.3227 30.4084 28.9033C32.473 28.9033 34.1504 27.2259 34.1504 25.1614C34.1504 23.0969 32.473 21.4194 30.4084 21.4194Z" fill="#010101"/>
<path d="M30.4084 11.0969C30.4084 13.2905 30.4084 16.0001 30.4084 18.5808C32.473 18.5808 34.1504 16.9034 34.1504 14.8389C34.1504 12.7743 32.473 11.0969 30.4084 11.0969Z" fill="#010101"/>
<path d="M34.1504 4.3872C34.1504 2.32268 32.473 0.645264 30.4084 0.645264C30.4084 2.83881 30.4084 5.54849 30.4084 8.12913C32.473 8.12913 34.1504 6.45171 34.1504 4.3872Z" fill="#010101"/>
</g>
<defs>
<clipPath id="clip0">
<rect width="40" height="40" fill="white"/>
</clipPath>
</defs>
</svg>
