<svg width="40" height="40" viewBox="0 0 40 40" fill="none" xmlns="http://www.w3.org/2000/svg">
<g clip-path="url(#clip0)">
<path d="M6.66669 4.3872C6.66669 6.45171 8.34411 8.12913 10.4086 8.12913C10.4086 5.93559 10.4086 3.22591 10.4086 0.645264C8.34411 0.645264 6.66669 2.32268 6.66669 4.3872Z" fill="#010101"/>
<path d="M6.66669 14.8389C6.66669 16.9034 8.34411 18.5808 10.4086 18.5808C10.4086 16.3872 10.4086 13.6776 10.4086 11.0969C8.34411 11.0969 6.66669 12.7743 6.66669 14.8389Z" fill="#010101"/>
<path d="M6.66669 25.1611C6.66669 27.2256 8.34411 28.9031 10.4086 28.9031C10.4086 26.7095 10.4086 23.9998 10.4086 21.4192C8.34411 21.4192 6.66669 23.0966 6.66669 25.1611Z" fill="#010101"/>
<path d="M6.66669 35.6128C6.66669 37.6773 8.34411 39.3547 10.4086 39.3547C10.4086 37.1612 10.4086 34.4515 10.4086 31.8708C8.34411 31.8708 6.66669 33.5483 6.66669 35.6128Z" fill="#010101"/>
<path d="M25.1183 0H15.5699C14.5377 0 13.6345 0.903226 13.6345 1.93548V38.0645C13.6345 39.0968 14.5377 40 15.5699 40H25.1183C26.1506 40 27.0538 39.0968 27.0538 38.0645V1.93548C27.0538 0.903226 26.1506 0 25.1183 0ZM25.7635 1.93548V19.3548H20.9893V1.29032H25.1183C25.5054 1.29032 25.7635 1.54839 25.7635 1.93548ZM15.5699 1.29032H19.699V19.3548H14.9248V1.93548C14.9248 1.54839 15.1828 1.29032 15.5699 1.29032ZM14.9248 38.0645V20.6452H19.699V38.7097H15.5699C15.1828 38.7097 14.9248 38.4516 14.9248 38.0645ZM25.1183 38.7097H20.9893V20.6452H25.7635V38.0645C25.7635 38.4516 25.5054 38.7097 25.1183 38.7097Z" fill="#010101"/>
<path d="M30.4086 31.8708C30.4086 34.0644 30.4086 36.7741 30.4086 39.3547C32.4731 39.3547 34.1506 37.6773 34.1506 35.6128C34.1506 33.5483 32.4731 31.8708 30.4086 31.8708Z" fill="#010101"/>
<path d="M30.4086 21.4192C30.4086 23.6127 30.4086 26.3224 30.4086 28.9031C32.4731 28.9031 34.1506 27.2256 34.1506 25.1611C34.1506 23.0966 32.4731 21.4192 30.4086 21.4192Z" fill="#010101"/>
<path d="M30.4086 11.0969C30.4086 13.2905 30.4086 16.0001 30.4086 18.5808C32.4731 18.5808 34.1506 16.9034 34.1506 14.8389C34.1506 12.7743 32.4731 11.0969 30.4086 11.0969Z" fill="#010101"/>
<path d="M34.1506 4.3872C34.1506 2.32268 32.4731 0.645264 30.4086 0.645264C30.4086 2.83881 30.4086 5.54849 30.4086 8.12913C32.4731 8.12913 34.1506 6.45171 34.1506 4.3872Z" fill="#010101"/>
</g>
<defs>
<clipPath id="clip0">
<rect width="40" height="40" fill="white"/>
</clipPath>
</defs>
</svg>
