<svg width="40" height="40" viewBox="0 0 40 40" fill="none" xmlns="http://www.w3.org/2000/svg">
<g clip-path="url(#clip0)">
<path d="M3.86667 38C6 38 7.73333 36.2666 7.73333 34.1333C5.46667 34.1333 2.66667 34.1333 0 34.1333C0 36.2666 1.73333 38 3.86667 38Z" fill="#010101"/>
<path d="M14.6666 38C16.8 38 18.5333 36.2666 18.5333 34.1333C16.2666 34.1333 13.4666 34.1333 10.8 34.1333C10.8 36.2666 12.5333 38 14.6666 38Z" fill="#010101"/>
<path d="M25.3332 38C27.4666 38 29.1999 36.2666 29.1999 34.1333C26.9332 34.1333 24.1332 34.1333 21.4666 34.1333C21.4666 36.2666 23.1999 38 25.3332 38Z" fill="#010101"/>
<path d="M36.1334 38C38.2667 38 40.0001 36.2666 40.0001 34.1333C37.7334 34.1333 34.9334 34.1333 32.2668 34.1333C32.2668 36.2666 34.0001 38 36.1334 38Z" fill="#010101"/>
<path d="M3.86667 27.7331C6 27.7331 7.73333 25.9998 7.73333 23.8665C5.46667 23.8665 2.66667 23.8665 0 23.8665C0 25.9998 1.73333 27.7331 3.86667 27.7331Z" fill="#010101"/>
<path d="M14.6666 27.7331C16.8 27.7331 18.5333 25.9998 18.5333 23.8665C16.2666 23.8665 13.4666 23.8665 10.8 23.8665C10.8 25.9998 12.5333 27.7331 14.6666 27.7331Z" fill="#010101"/>
<path d="M25.3332 27.7331C27.4666 27.7331 29.1999 25.9998 29.1999 23.8665C26.9332 23.8665 24.1332 23.8665 21.4666 23.8665C21.4666 25.9998 23.1999 27.7331 25.3332 27.7331Z" fill="#010101"/>
<path d="M36.1334 27.7331C38.2667 27.7331 40.0001 25.9998 40.0001 23.8665C37.7334 23.8665 34.9334 23.8665 32.2668 23.8665C32.2668 25.9998 34.0001 27.7331 36.1334 27.7331Z" fill="#010101"/>
<path d="M3.86667 17.4668C6 17.4668 7.73333 15.7334 7.73333 13.6001C5.46667 13.6001 2.66667 13.6001 0 13.6001C0 15.7334 1.73333 17.4668 3.86667 17.4668Z" fill="#010101"/>
<path d="M14.6666 17.4668C16.8 17.4668 18.5333 15.7334 18.5333 13.6001C16.2666 13.6001 13.4666 13.6001 10.8 13.6001C10.8 15.7334 12.5333 17.4668 14.6666 17.4668Z" fill="#010101"/>
<path d="M25.3332 17.4668C27.4666 17.4668 29.1999 15.7334 29.1999 13.6001C26.9332 13.6001 24.1332 13.6001 21.4666 13.6001C21.4666 15.7334 23.1999 17.4668 25.3332 17.4668Z" fill="#010101"/>
<path d="M36.1334 17.4668C38.2667 17.4668 40.0001 15.7334 40.0001 13.6001C37.7334 13.6001 34.9334 13.6001 32.2668 13.6001C32.2668 15.7334 34.0001 17.4668 36.1334 17.4668Z" fill="#010101"/>
<path d="M3.86667 7.19992C6 7.19992 7.73333 5.46658 7.73333 3.33325C5.46667 3.33325 2.66667 3.33325 0 3.33325C0 5.46658 1.73333 7.19992 3.86667 7.19992Z" fill="#010101"/>
<path d="M14.6666 7.19992C16.8 7.19992 18.5333 5.46658 18.5333 3.33325C16.1333 3.33325 13.3333 3.33325 10.8 3.33325C10.8 5.46658 12.5333 7.19992 14.6666 7.19992Z" fill="#010101"/>
<path d="M25.3332 7.19992C27.4666 7.19992 29.1999 5.46658 29.1999 3.33325C26.9332 3.33325 24.1332 3.33325 21.4666 3.33325C21.4666 5.46658 23.1999 7.19992 25.3332 7.19992Z" fill="#010101"/>
<path d="M36.1334 7.19992C38.2667 7.19992 40.0001 5.46658 40.0001 3.33325C37.7334 3.33325 34.9334 3.33325 32.2668 3.33325C32.2668 5.46658 34.0001 7.19992 36.1334 7.19992Z" fill="#010101"/>
</g>
<defs>
<clipPath id="clip0">
<rect width="40" height="40" fill="white"/>
</clipPath>
</defs>
</svg>
