<svg width="20" height="20" viewBox="0 0 20 20" fill="none" xmlns="http://www.w3.org/2000/svg">
<path d="M12.6809 14.0603C13.3981 13.3456 12.3993 11.1806 10.45 9.22468C8.50068 7.26877 6.33908 6.26259 5.62191 6.97733C4.90474 7.69207 5.90358 9.85707 7.85286 11.813C9.80215 13.7689 11.9637 14.7751 12.6809 14.0603Z" stroke="white" stroke-width="1.5" stroke-miterlimit="10" stroke-linecap="round" stroke-linejoin="round"/>
<path d="M13.3334 3.83398C12.8334 4.33398 12.0834 4.33398 11.5834 3.83398C11.0834 3.33398 11.0834 2.58398 11.5834 2.08398C12.0834 1.58398 12.8334 1.58398 13.3334 2.08398" stroke="white" stroke-width="1.5" stroke-miterlimit="10" stroke-linecap="round" stroke-linejoin="round"/>
<path d="M15.0833 6.16699C15.5833 6.66699 15.5833 7.41699 15.0833 7.91699C14.5833 8.41699 13.8333 8.41699 13.3333 7.91699C12.8333 7.41699 12.8333 6.66699 13.3333 6.16699" stroke="white" stroke-width="1.5" stroke-miterlimit="10" stroke-linecap="round" stroke-linejoin="round"/>
<path d="M17.1667 3.16731C17.1667 3.16731 19.5834 4.58398 17.5 7.16731" stroke="white" stroke-width="1.5" stroke-miterlimit="10" stroke-linecap="round" stroke-linejoin="round"/>
<path d="M6.16664 4.83391C6.16664 4.83391 5.24997 4.16724 5.66664 3.25058C6.08331 2.16724 7.99998 1.91724 8.83331 3.83391C9.66664 5.75058 8.66664 7.83391 7.99998 8.91724" stroke="white" stroke-width="1.5" stroke-miterlimit="10" stroke-linecap="round" stroke-linejoin="round"/>
<path d="M14.6667 13.916C14.6667 13.916 15.25 14.9994 16.25 14.666C17.4167 14.3327 18 12.416 16.0834 11.2494C14.1667 10.0827 11.8334 10.916 10.5834 11.416" stroke="white" stroke-width="1.5" stroke-miterlimit="10" stroke-linecap="round" stroke-linejoin="round"/>
<path d="M12.5 14.1667L2.08334 18.8333C1.33334 19.1667 0.583342 18.3333 0.916675 17.5833L4.33334 10" stroke="white" stroke-width="1.5" stroke-miterlimit="10" stroke-linecap="round" stroke-linejoin="round"/>
</svg>
