<svg width="20" height="20" viewBox="0 0 20 20" fill="none" xmlns="http://www.w3.org/2000/svg">
<g clip-path="url(#clip0)">
<path d="M16.5893 2.08421C16.4984 2.13942 16.0328 2.45691 15.5672 2.81581C14.3067 3.76827 14.1931 3.78207 12.8304 3.03667C11.5585 2.33267 10.9907 2.24985 10.3207 2.65016C9.9232 2.89863 9.91185 2.89863 9.48031 2.62255C8.83301 2.22224 7.96994 2.26365 6.99331 2.76059C6.00532 3.25753 5.40345 3.25753 4.50631 2.76059C3.76816 2.36028 3.1095 2.30507 2.6439 2.59495C2.29186 2.81581 0.304527 5.50755 0.111473 6.0321C-0.172432 6.7775 0.0546917 7.27444 1.15624 8.42015L2.18965 9.48305L1.7354 10.049C1.48557 10.3527 1.22438 10.753 1.15624 10.9186C0.872336 11.595 1.12217 12.5613 1.68998 12.9754C1.97388 13.1687 2.00795 13.2791 2.00795 13.8727C1.9966 14.4662 2.04202 14.6043 2.41678 15.0598C2.78017 15.5015 2.91645 15.5843 3.35934 15.5843C3.74545 15.5843 3.89308 15.6395 3.9385 15.819C4.10884 16.4678 5.19904 17.0889 5.64193 16.7853C5.81227 16.6748 5.92583 16.7577 6.26652 17.2132C6.65263 17.7515 6.73212 17.7929 7.2545 17.7929C7.7996 17.7929 7.87909 17.7515 8.39012 17.1304C8.90115 16.523 8.95793 16.4816 9.10556 16.7024C9.51438 17.3098 10.3775 18 10.7181 18C11.1724 18 11.7856 17.5583 11.956 17.1028C12.1036 16.7024 12.1944 16.6748 12.3988 16.9923C12.6941 17.4064 13.2733 17.6135 13.7048 17.4478C14.1023 17.2822 14.6587 16.592 14.6587 16.2607C14.6587 16.1365 14.7836 16.0675 15.0562 16.0675C15.6126 16.0675 16.3394 15.2668 16.4303 14.5352C16.4757 14.1901 16.5779 13.9831 16.7142 13.9279C16.8278 13.8865 17.0776 13.6242 17.2593 13.3619C17.7362 12.7131 17.7476 11.9815 17.282 11.3466L16.9527 10.891L18.4176 8.9309C19.9053 6.91554 20.121 6.47382 19.9507 5.6732C19.8712 5.24528 18.1224 2.52593 17.7476 2.23605C17.4523 1.98758 16.93 1.93236 16.5893 2.08421ZM18.3495 4.29282C18.9854 5.27289 19.3148 5.90786 19.3148 6.12872C19.3148 6.39099 18.94 6.99836 17.9293 8.33733C17.1684 9.35881 16.5098 10.2008 16.4644 10.2008C16.4189 10.2008 15.9533 9.74532 15.4309 9.17936C14.5111 8.17169 13.5231 7.24683 12.2853 6.22535C11.479 5.54896 10.809 5.52135 9.91185 6.14253C9.20776 6.62566 8.92386 6.57044 8.57182 5.92166C8.41283 5.61798 8.40148 5.54896 8.54911 5.25908C8.65131 5.09344 9.19641 4.56889 9.77557 4.08576C10.5364 3.46459 10.9225 3.22992 11.1951 3.22992C11.3995 3.22992 12.0127 3.49219 12.5692 3.80968C14.0228 4.65171 14.4089 4.63791 15.8057 3.60262C16.3962 3.17471 16.9867 2.81581 17.123 2.81581C17.3161 2.81581 17.634 3.20231 18.3495 4.29282ZM9.18505 3.35416C9.30997 3.43698 9.19641 3.60262 8.66267 4.03054C7.93587 4.63791 7.64061 5.27289 7.78824 5.88025C7.94723 6.48762 8.41283 7.08119 8.86708 7.24683C9.28726 7.39867 9.37811 7.38487 10.0254 6.98456C11.0929 6.30817 11.2859 6.34958 12.819 7.70236C13.5458 8.33733 14.7723 9.56587 15.5445 10.4079C17.0095 12.0506 17.1571 12.368 16.7369 12.9202C16.3622 13.4309 16.0328 13.2377 14.6247 11.6502C13.8865 10.8082 13.2392 10.1318 13.1938 10.1318C13.1484 10.1318 13.0234 10.2423 12.9099 10.3941C12.7282 10.6288 12.785 10.7254 14.2045 12.2852C15.0108 13.1963 15.7149 14.0383 15.7489 14.1901C15.8398 14.5352 15.4423 15.1564 15.1016 15.2116C14.8858 15.2392 14.4997 14.8803 13.4095 13.6656L11.99 12.0782L11.7629 12.3542L11.5358 12.6303L12.819 14.1073C13.5118 14.9218 14.0909 15.6948 14.0909 15.8328C14.0909 16.1365 13.5912 16.7577 13.3528 16.7577C13.2506 16.7577 12.5919 16.1089 11.8878 15.3221L10.6046 13.8727L10.3547 14.1901L10.1163 14.5076L10.7976 15.2254C11.5471 16.0123 11.6266 16.3297 11.2292 16.8543C10.8771 17.3236 10.6046 17.2546 9.96863 16.523C9.41218 15.9018 9.40082 15.8466 9.42353 15.2116C9.44624 14.6043 9.41218 14.4938 9.06013 14.0659C8.84437 13.8036 8.51504 13.5414 8.33334 13.5C8.10622 13.4447 7.95859 13.2653 7.78824 12.8374C7.66333 12.5337 7.40213 12.1472 7.22043 11.9953C6.93653 11.7745 6.86839 11.6364 6.86839 11.1809C6.85704 10.7254 6.77754 10.5459 6.39143 10.1042C6.10753 9.78673 5.81227 9.57967 5.63057 9.57967C5.42616 9.57967 5.34667 9.51066 5.34667 9.3174C5.34667 8.97231 4.9492 8.37874 4.55174 8.13027C4.00664 7.78518 3.5751 7.868 3.08679 8.40635L2.65525 8.88948L1.75812 7.96463C1.2698 7.45389 0.826911 6.97075 0.781487 6.90174C0.577075 6.54284 0.758774 6.17013 1.83761 4.74834C3.14357 3.00906 3.24578 2.96765 4.39275 3.58882C5.34667 4.11337 6.16431 4.09956 7.27722 3.5198C8.12893 3.09188 8.71945 3.03667 9.18505 3.35416ZM4.4041 9.05513C4.55174 9.22078 4.6653 9.48305 4.6653 9.63489C4.65394 9.99379 2.71204 12.4785 2.43949 12.4785C2.16694 12.4785 1.71269 11.9401 1.71269 11.6088C1.71269 11.2223 3.60917 8.75145 3.90443 8.75145C4.02935 8.75145 4.25647 8.88948 4.4041 9.05513ZM6.06211 10.8496C6.28923 11.2085 6.28923 11.2361 6.08482 11.6088C5.97126 11.8159 5.35802 12.6303 4.73343 13.4171C3.82494 14.5629 3.54104 14.8251 3.31391 14.7975C2.93916 14.7423 2.55305 14.0935 2.68932 13.7346C2.7461 13.5828 3.34798 12.7684 4.02935 11.9263C5.38074 10.2423 5.61922 10.118 6.06211 10.8496ZM7.0728 12.8512C7.48163 13.2929 7.334 13.707 6.34601 14.9218C5.82363 15.5567 5.33531 16.0675 5.24446 16.0675C4.98327 16.0675 4.55174 15.5015 4.55174 15.1426C4.55174 14.9356 4.847 14.4524 5.4148 13.7208C6.33465 12.5475 6.65263 12.3818 7.0728 12.8512ZM8.50368 14.4938C8.90115 14.8251 8.82165 15.3083 8.23113 16.1503C7.62926 16.9923 7.29993 17.1718 6.87975 16.8405C6.41415 16.4678 6.505 15.9846 7.20908 15.0598C7.85638 14.2316 8.0835 14.1349 8.50368 14.4938Z" fill="white"/>
</g>
<defs>
<clipPath id="clip0">
<rect width="20" height="20" fill="white"/>
</clipPath>
</defs>
</svg>
