<svg width="20" height="20" viewBox="0 0 20 20" fill="none" xmlns="http://www.w3.org/2000/svg">
<path d="M19.0909 9.09091H10.9091V0.909091C10.9091 0.363636 10.5455 0 10 0C9.45455 0 9.09091 0.363636 9.09091 0.909091V9.09091H0.909091C0.363636 9.09091 0 9.45455 0 10C0 10.5455 0.363636 10.9091 0.909091 10.9091H9.09091V19.0909C9.09091 19.6364 9.45455 20 10 20C10.5455 20 10.9091 19.6364 10.9091 19.0909V10.9091H19.0909C19.6364 10.9091 20 10.5455 20 10C20 9.45455 19.6364 9.09091 19.0909 9.09091Z" fill="white"/>
</svg>
