<svg width="40" height="40" viewBox="0 0 40 40" fill="none" xmlns="http://www.w3.org/2000/svg">
<circle cx="20" cy="20" r="20" fill="#276EF1"/>
<path d="M26.8327 20.3334H22.0827V18.9167C22.0827 18.1667 22.416 17.3334 22.9993 16.5C23.4993 15.9167 23.7493 15.1667 23.7493 14.3334C23.7493 13.25 23.2493 12.1667 22.416 11.5C21.5827 10.8334 20.416 10.5834 19.3327 10.8334C17.916 11.25 16.8327 12.25 16.5827 13.5834C16.3327 14.6667 16.5827 15.6667 17.166 16.5C17.7493 17.3334 18.0827 18.1667 18.0827 18.9167V20.25H13.3327C12.416 20.25 11.666 21 11.666 21.9167V24.6667C11.666 25.3334 12.166 25.8334 12.7493 25.9167V26.6667C12.7493 28 13.8327 29.0834 15.0827 29.0834H24.9993C26.3327 29.0834 27.3327 28 27.3327 26.6667V25.9167C27.916 25.8334 28.416 25.3334 28.416 24.6667V21.9167C28.4993 21.0834 27.7493 20.3334 26.8327 20.3334ZM18.4993 15.5834C18.166 15.0834 18.0827 14.5834 18.166 14C18.3327 13.25 18.916 12.75 19.5827 12.5834C20.166 12.4167 20.8327 12.5834 21.2493 12.9167C21.7493 13.25 21.9993 13.8334 21.9993 14.4167C21.9993 14.8334 21.8327 15.25 21.5827 15.5834C20.7493 16.6667 20.3327 17.8334 20.3327 18.9167V20.3334H19.7493V19C19.7493 17.8334 19.3327 16.6667 18.4993 15.5834ZM13.3327 22H26.8327V24.3334H13.3327V22ZM25.0827 27.5H15.166C14.7493 27.5 14.4993 27.1667 14.4993 26.75V26H25.8327V26.75C25.7493 27.1667 25.416 27.5 25.0827 27.5Z" fill="white"/>
</svg>
