<svg width="20" height="20" viewBox="0 0 20 20" fill="none" xmlns="http://www.w3.org/2000/svg">
<g clip-path="url(#clip0)">
<path d="M11.8542 1.15614C10.3068 4.29502 7.50389 7.19152 4.35066 8.93669L3.09521 9.61537L4.13169 11.0939C4.68642 11.9059 5.16817 12.5846 5.18276 12.6088C5.19736 12.6209 5.79589 12.3907 6.51121 12.0998C8.11701 11.4454 10.1462 10.9 11.9564 10.6455C13.6206 10.4152 17.2409 10.391 18.8759 10.6213C19.4891 10.7061 20 10.7546 20 10.7303C20 10.6697 12.6863 0.126001 12.5549 0.00480845C12.5111 -0.0557878 12.1899 0.46534 11.8542 1.15614Z" fill="white"/>
<path d="M15.7081 3.64057C15.6351 3.74964 17.5475 6.57343 17.7081 6.57343C17.7665 6.57343 17.9417 6.39164 18.1022 6.17349C18.6862 5.38574 18.3358 4.29501 17.3431 3.786C16.8614 3.54361 15.8541 3.45878 15.7081 3.64057Z" fill="white"/>
<path d="M1.6792 10.1607C0.073389 10.7909 -0.349961 11.5544 0.277765 12.6936C0.701114 13.4572 1.32884 13.8692 2.17554 13.9419C2.84706 13.9904 2.94925 13.954 3.85434 13.4208C4.37988 13.1057 4.81782 12.827 4.81782 12.7906C4.81782 12.7421 2.78867 9.80926 2.73027 9.7729C2.71567 9.76078 2.24853 9.94257 1.6792 10.1607Z" fill="white"/>
<path d="M5.43095 12.9603C4.93461 13.2027 4.32148 13.542 4.08791 13.7238L3.64996 14.0268L5.63532 16.8748C6.71559 18.4382 7.70827 19.8076 7.82506 19.9046C8.00024 20.05 8.10242 20.0379 8.68635 19.8076C9.89801 19.3229 10.5111 18.9472 10.5111 18.6806C10.5111 18.4866 6.80318 12.9603 6.43823 12.6088C6.37983 12.5603 5.92729 12.7179 5.43095 12.9603Z" fill="white"/>
</g>
<defs>
<clipPath id="clip0">
<rect width="20" height="20" fill="white"/>
</clipPath>
</defs>
</svg>
