<svg width="20" height="20" viewBox="0 0 20 20" fill="none" xmlns="http://www.w3.org/2000/svg">
<path d="M10.0001 18.3346C14.6025 18.3346 18.3334 14.6037 18.3334 10.0013C18.3334 5.39893 14.6025 1.66797 10.0001 1.66797C5.39771 1.66797 1.66675 5.39893 1.66675 10.0013C1.66675 14.6037 5.39771 18.3346 10.0001 18.3346Z" stroke="#276EF1" stroke-width="2" stroke-linecap="round" stroke-linejoin="round"/>
<path d="M7.57495 7.49852C7.77087 6.94158 8.15758 6.47194 8.66658 6.1728C9.17558 5.87365 9.77403 5.7643 10.3559 5.86411C10.9378 5.96393 11.4656 6.26646 11.8458 6.71813C12.2261 7.1698 12.4342 7.74146 12.4333 8.33186C12.4333 9.99852 9.93328 10.8319 9.93328 10.8319" stroke="#276EF1" stroke-width="2" stroke-linecap="round" stroke-linejoin="round"/>
<path d="M10 14.168H10.0083" stroke="#276EF1" stroke-width="2" stroke-linecap="round" stroke-linejoin="round"/>
</svg>
