<svg width="20" height="20" viewBox="0 0 20 20" fill="none" xmlns="http://www.w3.org/2000/svg">
<g clip-path="url(#clip0)">
<path d="M3.0209 9.96648L3.05224 19.9441L10.0313 19.9777L17 20V10V-4.47035e-08H10H3L3.0209 9.96648ZM16.1433 9.96648L16.1642 18.6592H10.0522H3.9403V9.94413V1.22905L10.0313 1.2514L16.1119 1.28492L16.1433 9.96648Z" fill="white"/>
<path d="M9.79106 2.89386C9.79106 3.03911 9.69703 3.11732 9.48807 3.16201C8.95523 3.27375 8.52688 3.78771 8.46419 4.35755C8.39106 5.13967 8.71494 5.57542 9.61344 5.92179C9.87464 6.02235 9.89553 6.07822 9.89553 6.59218C9.89553 6.89386 9.87464 7.15084 9.84329 7.15084C9.81195 7.15084 9.55076 7.02794 9.26867 6.87151L8.75673 6.59218L8.54777 6.91621C8.4224 7.09498 8.32837 7.29609 8.32837 7.35196C8.32837 7.47486 9.05971 7.8771 9.50897 7.98883C9.73882 8.05587 9.79106 8.13408 9.79106 8.39107C9.79106 8.68157 9.8224 8.71509 10.1567 8.71509C10.4911 8.71509 10.5224 8.69274 10.5224 8.37989C10.5224 8.15643 10.5746 8.0447 10.6791 8.0447C10.9821 8.0447 11.6299 7.62012 11.7761 7.31844C11.9746 6.92738 11.9537 6.22347 11.7343 5.8771C11.6508 5.72067 11.3373 5.48604 11.0448 5.34079C10.5224 5.0838 10.5224 5.0838 10.5224 4.54749V4.02235L10.9194 4.23464L11.3269 4.4581L11.5463 4.03352L11.7761 3.59777L11.4314 3.43017C11.2537 3.32961 10.9717 3.21788 10.8149 3.18436C10.6269 3.1285 10.5224 3.02794 10.5224 2.89386C10.5224 2.72626 10.4493 2.68157 10.1567 2.68157C9.86419 2.68157 9.79106 2.72626 9.79106 2.89386ZM9.89553 4.46928C9.89553 4.9609 9.81195 5.01676 9.54031 4.70391C9.39404 4.53632 9.38359 4.43576 9.47762 4.25699C9.67613 3.85475 9.89553 3.96648 9.89553 4.46928ZM10.8776 6.51397C10.9612 6.64805 10.9612 6.75978 10.8776 6.89386C10.6582 7.26257 10.5224 7.18436 10.5224 6.70391C10.5224 6.22347 10.6582 6.14526 10.8776 6.51397Z" fill="white"/>
<path d="M6.13434 11.1732V11.6201H10.2612H14.3881V11.1732V10.7263H10.2612H6.13434V11.1732Z" fill="white"/>
<path d="M6.13434 12.905V13.4078H10.2612H14.3881V12.905V12.4022H10.2612H6.13434V12.905Z" fill="white"/>
<path d="M6.13434 14.6928V15.1956H10.2612H14.3881V14.6928V14.19H10.2612H6.13434V14.6928Z" fill="white"/>
<path d="M6.13434 16.4804V16.9832H10.2612H14.3881V16.4804V15.9776H10.2612H6.13434V16.4804Z" fill="white"/>
</g>
<defs>
<clipPath id="clip0">
<rect width="20" height="20" fill="white"/>
</clipPath>
</defs>
</svg>
