<svg width="20" height="20" viewBox="0 0 20 20" fill="none" xmlns="http://www.w3.org/2000/svg">
<g clip-path="url(#clip0)">
<path d="M6.42411 0.03027C6.26601 0.0501028 5.98998 0.0947266 5.81181 0.131913C2.74028 0.739292 0.406525 3.24318 0.0376412 6.32718C-0.0125471 6.7511 -0.0125471 7.5692 0.0376412 7.98817C0.366375 10.735 2.25095 13.0431 4.89085 13.9355C6.9285 14.6247 9.16188 14.3917 11.0013 13.2959C11.1518 13.2067 11.2798 13.1323 11.2848 13.1323C11.2899 13.1323 11.2924 13.162 11.2924 13.1992C11.2924 13.2934 11.3752 13.4199 11.4655 13.467C11.5634 13.5166 11.6713 13.5141 11.7817 13.462C11.8294 13.4397 11.872 13.4248 11.8771 13.4323C11.9022 13.462 13.2322 14.9767 15.0314 17.0245C15.2046 17.2228 15.724 17.8128 16.1857 18.3384C17.7165 20.0812 17.6412 19.9994 17.7064 19.9994C17.9775 19.9994 18.5923 19.5606 19.2246 18.9136C19.576 18.5541 19.7968 18.2739 19.9248 18.026C20.0653 17.7509 20.1757 17.8798 18.6274 16.4865C17.8721 15.8072 16.8482 14.885 16.3514 14.4363C15.852 13.9901 15.0038 13.2265 14.4643 12.7406L13.4806 11.858L13.5308 11.7614C13.6286 11.5779 13.5508 11.3821 13.3501 11.3052C13.2874 11.2829 13.2347 11.2631 13.2296 11.2606C13.2271 11.2581 13.2974 11.1391 13.3877 10.9978C14.921 8.59059 14.8909 5.53387 13.3125 3.20351C12.9912 2.73001 12.7955 2.49201 12.3965 2.10032C11.8043 1.51525 11.2397 1.11116 10.5145 0.751687C9.81433 0.407093 9.10667 0.183974 8.3413 0.0649774C7.88459 -0.00443731 6.86074 -0.021791 6.42411 0.03027ZM8.03013 0.922745C9.14431 1.0591 10.1682 1.46815 11.0916 2.14742C11.4053 2.37798 12.005 2.95065 12.2259 3.22831C12.9837 4.18772 13.4229 5.21902 13.581 6.41395C13.6211 6.71639 13.6211 7.59895 13.581 7.9014C13.4455 8.92279 13.0841 9.87476 12.527 10.678C12.2585 11.0623 12.1079 11.2432 11.734 11.6077C10.7779 12.5497 9.65874 13.1174 8.2886 13.3579C7.86702 13.4323 6.96865 13.4521 6.49939 13.3951C3.79173 13.0678 1.62359 11.1193 1.03137 8.48151C0.848183 7.67085 0.848183 6.6445 1.03137 5.83384C1.24467 4.88186 1.66374 4.00426 2.266 3.25558C3.30741 1.96397 4.79299 1.13843 6.46175 0.922745C6.82059 0.878121 7.65121 0.878121 8.03013 0.922745Z" fill="white"/>
<path d="M6.96111 4.20755C6.45923 4.27449 5.95735 4.5695 5.60603 5.01078C5.19449 5.52396 4.99876 6.14621 5.02636 6.84779C5.05647 7.55682 5.27228 8.07743 5.77165 8.64514C6.1581 9.08146 6.20327 9.16575 6.15057 9.35912C6.11544 9.48308 5.94229 9.70619 5.8645 9.72107C4.86576 9.9194 3.94982 10.3111 3.23715 10.8416C3.10666 10.9408 2.97115 11.0499 2.93853 11.0846L2.87831 11.1466L3.10164 11.3746C4.02761 12.3117 5.3049 12.9241 6.62234 13.0604C7.01883 13.1001 7.86199 13.0753 8.20578 13.0133C9.16437 12.8348 10.0151 12.4679 10.7453 11.9126C10.9937 11.7217 11.5684 11.1837 11.5684 11.1391C11.5684 11.0994 11.1945 10.8094 10.9009 10.621C10.5998 10.4251 10.1481 10.1971 9.7867 10.0582C9.49059 9.94419 8.90841 9.77561 8.72272 9.74834C8.4517 9.70619 8.22083 9.35416 8.3187 9.12361C8.36136 9.02196 8.43162 8.93519 8.73024 8.59556C9.05396 8.22865 9.23714 7.88902 9.36261 7.41551C9.41531 7.21718 9.42284 7.14281 9.42033 6.71144C9.42033 6.17596 9.39524 6.04457 9.2246 5.62808C8.96613 5.00087 8.43413 4.48521 7.85446 4.29432C7.54078 4.19268 7.28232 4.16789 6.96111 4.20755Z" fill="white"/>
</g>
<defs>
<clipPath id="clip0">
<rect width="20" height="20" fill="white"/>
</clipPath>
</defs>
</svg>
