<svg width="40" height="40" viewBox="0 0 40 40" fill="none" xmlns="http://www.w3.org/2000/svg">
<g clip-path="url(#clip0)">
<path d="M5.8667 20C5.8667 27.7334 12.1334 34.1334 20 34.1334C27.7334 34.1334 34.1334 27.8667 34.1334 20C34.1334 12.1334 27.7334 5.8667 20 5.8667C12.2667 5.8667 5.8667 12.2667 5.8667 20ZM20 7.20003C27.0667 7.20003 32.8 12.9334 32.8 20C32.8 27.0667 27.0667 32.8 20 32.8C12.9334 32.8 7.20003 27.0667 7.20003 20C7.20003 12.9334 12.9334 7.20003 20 7.20003Z" fill="#010101"/>
<path d="M36.0001 16.0002C36.0001 18.4002 36.0001 21.2002 36.0001 23.8669C38.1335 23.8669 40.0001 22.1336 40.0001 19.8669C40.0001 17.6002 38.2668 16.0002 36.0001 16.0002Z" fill="#010101"/>
<path d="M0 20.0002C0 22.1336 1.73333 24.0002 4 24.0002C4 21.6002 4 18.6669 4 16.0002C1.73333 16.0002 0 17.8669 0 20.0002Z" fill="#010101"/>
<path d="M20.0001 40.0002C22.1334 40.0002 24.0001 38.2669 24.0001 36.0002C21.6001 36.0002 18.8001 36.0002 16.1334 36.0002C16.0001 38.2669 17.8668 40.0002 20.0001 40.0002Z" fill="#010101"/>
<path d="M20.0001 0C17.8668 0 16.0001 1.73333 16.0001 4C18.4001 4 21.3335 4 24.0001 4C24.0001 1.73333 22.1335 0 20.0001 0Z" fill="#010101"/>
<path d="M28.5336 34.1334C30.1336 35.7334 32.5336 35.7334 34.1336 34.1334C35.7336 32.5334 35.7336 30.1334 34.1336 28.5334C32.5336 30.2668 30.4002 32.2668 28.5336 34.1334Z" fill="#010101"/>
<path d="M11.4668 5.8665C9.86675 4.2665 7.46675 4.2665 5.86675 5.8665C4.26675 7.4665 4.26675 9.8665 5.86675 11.4665C7.46675 9.73317 9.60008 7.73317 11.4668 5.8665Z" fill="#010101"/>
<path d="M28.5336 5.8665C30.1336 7.4665 32.2669 9.59984 34.1336 11.4665C35.7336 9.8665 35.7336 7.4665 34.1336 5.8665C32.5336 4.2665 30.1336 4.2665 28.5336 5.8665Z" fill="#010101"/>
<path d="M5.86675 34.1334C7.46675 35.7334 9.86675 35.7334 11.4668 34.1334C9.86675 32.5334 7.73342 30.4001 5.86675 28.5334C4.26675 30.1334 4.26675 32.6668 5.86675 34.1334Z" fill="#010101"/>
</g>
<defs>
<clipPath id="clip0">
<rect width="40" height="40" fill="white"/>
</clipPath>
</defs>
</svg>
