<svg width="40" height="40" viewBox="0 0 40 40" fill="none" xmlns="http://www.w3.org/2000/svg">
<g clip-path="url(#clip0)">
<path d="M35.3074 0H5.27506C4.23946 0 3.33331 0.906149 3.33331 1.94175V2.97735C3.33331 4.01295 4.23946 4.91909 5.27506 4.91909H35.3074C36.343 4.91909 37.2492 4.01295 37.2492 2.97735V1.94175C37.2492 0.906149 36.343 0 35.3074 0ZM35.9547 2.97735C35.9547 3.3657 35.6958 3.6246 35.3074 3.6246H5.27506C4.88671 3.6246 4.62781 3.3657 4.62781 2.97735V1.94175C4.62781 1.5534 4.88671 1.2945 5.27506 1.2945H35.3074C35.6958 1.2945 35.9547 1.5534 35.9547 1.94175V2.97735Z" fill="#010101"/>
<path d="M11.2298 21.2295L12.0065 21.6179L12.5243 20.4528L11.7476 20.0645C11.1003 19.6761 10.1942 19.4172 9.28803 19.4172V9.83796H13.301V8.54346H3.98059V9.83796H7.99354V19.4172C7.08739 19.5467 6.31069 19.6761 5.40454 20.0645L4.62784 20.4528L5.14564 21.6179L5.92234 21.2295C7.73464 20.4528 9.67638 20.4528 11.2298 21.2295Z" fill="#010101"/>
<path d="M23.3981 23.1715C22.6214 22.7831 21.7152 22.5242 20.8091 22.5242V12.8155H24.822V11.521H15.5016V12.8155H19.5146V22.3948C18.6084 22.5242 17.8317 22.6537 16.9256 23.042L16.2783 23.4304L16.7961 24.5954L17.5728 24.2071C19.2557 23.4304 21.1974 23.4304 22.7508 24.2071L23.5275 24.5954L24.0453 23.4304L23.3981 23.1715Z" fill="#010101"/>
<path d="M27.1521 9.83796H31.1651V19.4172C30.2589 19.5467 29.4822 19.6761 28.5761 20.0645L27.9288 20.4528L28.4466 21.6179L29.2233 21.2295C30.9062 20.4528 32.8479 20.4528 34.4013 21.2295L35.178 21.6179L35.6958 20.4528L34.9191 20.0645C34.1424 19.6761 33.2363 19.4172 32.3301 19.4172V9.83796H36.3431V8.54346H26.8932V9.83796H27.1521Z" fill="#010101"/>
<path d="M7.0874 28.3494H11.1003V37.9287C10.1942 38.0582 9.4175 38.1876 8.51135 38.576L7.73465 38.9643L8.25245 40.1294L9.02915 39.741C10.712 38.9643 12.6537 38.9643 14.2071 39.741L14.9838 40.1294L15.5016 38.9643L14.9838 38.576C14.2071 38.1876 13.301 37.9287 12.3948 37.9287V28.3494H16.4078V27.0549H7.0874V28.3494Z" fill="#010101"/>
<path d="M24.0453 28.3494H28.0583V37.9287C27.1521 38.0582 26.3754 38.1876 25.4693 38.576L24.6926 38.9643L25.2104 40.1294L25.9871 39.741C27.6699 38.9643 29.6117 38.9643 31.1651 39.741L31.9418 40.1294L32.4596 38.9643L31.6829 38.576C30.9062 38.1876 30 37.9287 29.0939 37.9287V28.3494H33.1068V27.0549H24.0453V28.3494Z" fill="#010101"/>
</g>
<defs>
<clipPath id="clip0">
<rect width="40" height="40" fill="white"/>
</clipPath>
</defs>
</svg>
