<svg width="20" height="20" viewBox="0 0 20 20" fill="none" xmlns="http://www.w3.org/2000/svg">
<path d="M0 7.6V13.9556H0.4H0.8V7.95555V1.95555H9.37778H17.9556V1.6V1.24444H8.97778H0V7.6Z" fill="white"/>
<path d="M1.60001 9.19999V15.5556H6.80001H12L12.0533 15.8044C12.2578 16.7556 12.6045 17.4222 13.1911 18.0089C15.4933 20.3111 19.3956 19.0222 19.9289 15.7867C20.0622 15.0044 19.92 14.1867 19.5111 13.3689L19.2 12.7289V7.78666V2.84444H10.4H1.60001V9.19999ZM18.3911 4.06222V4.57777L14.96 7.55555C13.0845 9.19111 11.3778 10.6222 11.1822 10.7289C10.4356 11.1467 9.87556 10.9511 8.62223 9.86666C8.16001 9.45777 6.5689 8.07111 5.09334 6.77333L2.40001 4.42666V3.9911V3.55555H10.4H18.4L18.3911 4.06222ZM4.78223 7.55555C5.92001 8.54222 6.84445 9.38666 6.82667 9.43111C6.80001 9.49333 5.91112 10.2133 3.18223 12.3644L2.40001 12.9778V9.23555C2.40001 5.67111 2.4089 5.49333 2.56001 5.61777C2.64001 5.68888 3.64445 6.55999 4.78223 7.55555ZM18.4 8.78222V11.9644L17.7956 11.6711C16.6133 11.0844 15.4667 11.0667 14.2667 11.6356C13.2711 12.0978 12.3378 13.2444 12.1333 14.2222C12 14.9067 12.3645 14.8444 8.67556 14.8444C6.85334 14.8444 4.69334 14.8178 3.88445 14.7822L2.40001 14.7289V14.3556V13.9822L4.86223 12.0356C6.21334 10.9689 7.37779 10.0533 7.4489 10.0089C7.53779 9.95555 7.68001 10.0356 7.94667 10.2933C9.44001 11.7244 10.3911 12.0178 11.5556 11.4222C11.7778 11.3067 13.3956 9.95555 15.1556 8.40888C16.9156 6.87111 18.3645 5.60888 18.3822 5.60888C18.3911 5.59999 18.4 7.03111 18.4 8.78222ZM17.3511 12.3022C18.1156 12.6667 18.7911 13.44 19.0311 14.2311C19.2622 14.9956 19.2267 15.8222 18.9422 16.4711C18.6933 17.0578 17.9467 17.8133 17.3422 18.1067C16.9067 18.3289 16.7378 18.3556 16 18.3556C15.2533 18.3556 15.0933 18.3289 14.6489 18.1067C12.8533 17.2267 12.24 14.9244 13.3867 13.3689C13.7956 12.8178 14.3822 12.3644 14.96 12.16C15.6356 11.92 16.6756 11.9822 17.3511 12.3022Z" fill="white"/>
<path d="M15.7511 12.9156C15.6978 12.9778 15.6356 13.4311 15.6267 13.92L15.6 14.8L14.72 14.8267C13.8133 14.8533 13.6 14.9244 13.6 15.2C13.6 15.5378 13.8845 15.6444 14.7822 15.6444H15.6445V16.5244C15.6445 17.4844 15.7245 17.6622 16.1245 17.5644C16.3911 17.5022 16.4445 17.2978 16.4445 16.3733V15.6444H17.28C18.1333 15.6444 18.4 15.5467 18.4 15.2444C18.4 14.9333 18.1422 14.8444 17.2356 14.8444H16.3556V13.9111C16.3556 13.0844 16.3378 12.9778 16.1867 12.8889C15.9556 12.7733 15.8667 12.7733 15.7511 12.9156Z" fill="white"/>
</svg>
