<svg width="20" height="20" viewBox="0 0 20 20" fill="none" xmlns="http://www.w3.org/2000/svg">
<g clip-path="url(#clip0)">
<path d="M7.73612 2.5634C7.48153 2.6836 7.4592 2.77375 7.4592 3.75679V4.63681H5.95396C4.87751 4.6411 4.40852 4.65398 4.32366 4.69262C4.19412 4.74842 0.268001 8.41874 0.0982705 8.64196L5.69717e-06 8.77504V11.6126C5.69717e-06 14.6604 -0.00446089 14.5703 0.236734 14.742C0.348399 14.8193 0.442197 14.8364 1.01392 14.8536L1.66604 14.8751L1.72857 15.1283C1.97423 16.1715 3.04621 16.9957 4.15839 17C5.34204 17.0043 6.43188 16.1758 6.66414 15.1069L6.71774 14.8536H9.1431H11.5684V14.9609C11.5684 15.1155 11.7605 15.592 11.9302 15.8667C12.2786 16.4205 13.0022 16.8712 13.699 16.9656C14.7933 17.1159 15.8474 16.5836 16.3388 15.6349C16.4415 15.4374 16.5353 15.1841 16.5532 15.0639L16.5844 14.8536H18.0897C19.5815 14.8536 19.5949 14.8536 19.7468 14.7549C19.8272 14.7034 19.921 14.6089 19.9522 14.5531C19.9969 14.4673 20.0058 13.2266 19.9969 8.6205L19.988 2.79092L19.8406 2.65355L19.6976 2.51189L13.7883 2.50331C8.40164 2.49472 7.87012 2.49901 7.73612 2.5634ZM18.8936 8.67201V13.7804H17.6966H16.4951L16.3254 13.4499C15.9234 12.6643 14.9854 12.1062 14.0697 12.1062C13.1541 12.1062 12.2161 12.6643 11.8141 13.4499L11.6444 13.7804H10.1079H8.57584V8.67201V3.56362H13.7347H18.8936V8.67201ZM7.43686 9.74521V13.7589L7.0304 13.7718L6.62394 13.7847L6.45868 13.4584C6.34255 13.2309 6.19962 13.0421 5.98522 12.836C4.76138 11.6598 2.73355 11.9689 1.9385 13.4542L1.76431 13.7804H1.44271H1.11665V11.4709V9.16568L2.94795 7.4357L4.77925 5.71L6.11029 5.71859L7.43686 5.73147V9.74521ZM4.71225 13.2953C5.02938 13.3941 5.40903 13.7675 5.51623 14.0809C5.75296 14.7677 5.4537 15.4718 4.78818 15.7851C4.27899 16.0255 3.61794 15.9139 3.19808 15.519C2.66655 15.0167 2.64869 14.1453 3.16234 13.6387C3.59114 13.2095 4.09586 13.0979 4.71225 13.2953ZM14.637 13.3082C14.905 13.4198 15.2132 13.7117 15.3516 13.9908C15.5169 14.3084 15.5258 14.7635 15.374 15.0897C15.24 15.3687 14.9184 15.6821 14.6325 15.8023C14.3154 15.9397 13.8241 15.9397 13.5025 15.8023C13.2256 15.6821 12.895 15.3644 12.761 15.0768C12.6315 14.7978 12.6315 14.3084 12.761 14.0337C12.8682 13.8019 13.1228 13.5185 13.3283 13.3941C13.6945 13.1794 14.2395 13.1408 14.637 13.3082Z" fill="white"/>
<path d="M5.20358 6.26377C5.14998 6.28523 5.08745 6.33245 5.05171 6.3668C4.92218 6.51704 3.34101 9.16997 3.31868 9.273C3.30528 9.35456 3.33208 9.42324 3.41694 9.52198L3.53754 9.65935H5.09638H6.65968L6.76688 9.55203L6.87855 9.449V7.968V6.48699L6.77135 6.3668L6.66415 6.2466L5.9763 6.23801C5.6011 6.23372 5.25271 6.24231 5.20358 6.26377ZM6.11923 7.94224V8.92958H5.24824C4.77032 8.92958 4.37726 8.92099 4.37726 8.91241C4.37726 8.89953 4.64079 8.45737 4.96238 7.92507L5.5475 6.95491H5.83337H6.11923V7.94224Z" fill="white"/>
</g>
<defs>
<clipPath id="clip0">
<rect width="20" height="20" fill="white"/>
</clipPath>
</defs>
</svg>
