<svg width="32" height="32" viewBox="0 0 32 32" fill="none" xmlns="http://www.w3.org/2000/svg">
<path fill-rule="evenodd" clip-rule="evenodd" d="M0 16C0 7.16344 7.16344 0 16 0C24.8366 0 32 7.16344 32 16C32 24.8366 24.8366 32 16 32C7.16344 32 0 24.8366 0 16Z" fill="#1DA1F2"/>
<path d="M23.6239 12.0136C23.2767 12.4476 22.8716 12.8237 22.4376 13.142C22.4087 13.1709 22.3797 13.1998 22.3797 13.2577C22.4087 13.7495 22.3797 14.2414 22.3219 14.7043C22.2061 15.717 21.9168 16.7007 21.4828 17.6266C21.0199 18.5814 20.4412 19.4494 19.7179 20.2306C18.4738 21.5326 16.9693 22.3716 15.2043 22.7477C14.5967 22.8924 13.9892 22.9503 13.3816 22.9792C11.472 23.0371 9.73599 22.5741 8.11573 21.5615C8.05787 21.5615 8.02893 21.5326 8 21.5326C9.15732 21.6483 10.2278 21.5036 11.2984 21.0696C11.8481 20.8382 12.3689 20.5488 12.8608 20.1438C11.1537 20.0859 10.0832 18.8707 9.79385 17.858C10.2568 17.9448 10.7486 17.9448 11.2116 17.8291C11.2116 17.8291 11.2405 17.8291 11.2694 17.8002C10.3436 17.5977 9.62025 17.0769 9.12839 16.2957C8.81013 15.7749 8.63653 15.1962 8.63653 14.5597C9.09946 14.8201 9.59132 14.9358 10.1121 14.9647C9.41772 14.4729 8.95479 13.8074 8.75226 12.9684C8.54973 12.1293 8.66546 11.3192 9.09946 10.5669C10.8644 12.679 13.1212 13.8074 15.8698 14.0099C15.8409 13.8942 15.8409 13.7785 15.8119 13.6627C15.7251 12.8816 15.8698 12.1582 16.3038 11.5217C16.8246 10.7116 17.5769 10.1908 18.5316 10.0461C19.6311 9.87251 20.6148 10.1908 21.425 10.972C21.4828 11.0298 21.5118 11.0298 21.5986 11.0298C22.264 10.8273 22.9005 10.5958 23.5081 10.2486C23.5371 10.2486 23.5371 10.2197 23.566 10.2197C23.566 10.2197 23.566 10.2197 23.5949 10.2197C23.3345 10.972 22.8716 11.5796 22.1772 12.0136C22.8137 11.9557 23.4213 11.7821 24 11.5217C24 11.5217 24 11.5217 24 11.5506C23.8843 11.6953 23.7685 11.8689 23.6239 12.0136Z" fill="white"/>
</svg>
