<svg width="40" height="40" viewBox="0 0 40 40" fill="none" xmlns="http://www.w3.org/2000/svg">
<g clip-path="url(#clip0)">
<path d="M8.37212 38.4775C9.9668 38.4775 11.1628 37.2815 11.1628 35.6868C9.56813 35.6868 7.44189 35.6868 5.58142 35.6868C5.71431 37.2815 6.91033 38.4775 8.37212 38.4775Z" fill="#010101"/>
<path d="M16.0798 38.4775C17.6744 38.4775 18.8705 37.2815 18.8705 35.6868C17.2758 35.6868 15.1495 35.6868 13.2891 35.6868C13.2891 37.2815 14.618 38.4775 16.0798 38.4775Z" fill="#010101"/>
<path d="M23.7873 38.4775C25.382 38.4775 26.578 37.2815 26.578 35.6868C24.9833 35.6868 22.857 35.6868 20.9966 35.6868C20.9966 37.2815 22.3255 38.4775 23.7873 38.4775Z" fill="#010101"/>
<path d="M31.495 38.4775C33.0897 38.4775 34.2857 37.2815 34.2857 35.6868C32.6911 35.6868 30.5648 35.6868 28.7043 35.6868C28.7043 37.2815 30.0333 38.4775 31.495 38.4775Z" fill="#010101"/>
<path d="M32.9568 27.7131H7.04316C5.98004 27.7131 5.0498 28.6434 5.0498 29.7065V31.567C5.0498 32.6301 5.98004 33.5603 7.04316 33.5603H32.9568C34.0199 33.5603 34.9501 32.6301 34.9501 31.567V29.7065C34.9501 28.5105 34.0199 27.7131 32.9568 27.7131ZM6.37871 31.4341V29.5736C6.37871 29.1749 6.64449 28.9091 7.04316 28.9091H19.402V32.0985H7.04316C6.64449 32.0985 6.37871 31.8327 6.37871 31.4341ZM33.6212 31.4341C33.6212 31.8327 33.3555 32.0985 32.9568 32.0985H20.598V28.9091H32.9568C33.3555 28.9091 33.6212 29.1749 33.6212 29.5736V31.4341Z" fill="#010101"/>
<path d="M0 13.3613C0 14.9559 1.19601 16.152 2.7907 16.152C2.7907 14.5573 2.7907 12.431 2.7907 10.5706C1.19601 10.5706 0 11.7666 0 13.3613Z" fill="#010101"/>
<path d="M0 5.65349C0 7.24818 1.19601 8.44419 2.7907 8.44419C2.7907 6.8495 2.7907 4.72326 2.7907 2.86279C1.19601 2.86279 0 4.05881 0 5.65349Z" fill="#010101"/>
<path d="M0 21.0688C0 22.6635 1.19601 23.8595 2.7907 23.8595C2.7907 22.2648 2.7907 20.1385 2.7907 18.2781C1.19601 18.2781 0 19.4741 0 21.0688Z" fill="#010101"/>
<path d="M6.91035 25.0555H8.77081C9.83394 25.0555 10.7642 24.1252 10.7642 23.0621V3.6601C10.7642 2.59698 9.83394 1.66675 8.77081 1.66675H6.91035C5.84722 1.66675 4.91699 2.59698 4.91699 3.6601V23.0621C4.91699 24.1252 5.84722 25.0555 6.91035 25.0555ZM6.2459 3.6601C6.2459 3.26143 6.64457 2.99565 6.91035 2.99565H8.77081C9.16948 2.99565 9.43526 3.26143 9.43526 3.6601V23.0621C9.43526 23.4608 9.16948 23.7265 8.77081 23.7265H6.91035C6.51168 23.7265 6.2459 23.4608 6.2459 23.0621V3.6601Z" fill="#010101"/>
<path d="M37.2094 10.5706C37.2094 12.1652 37.2094 14.2915 37.2094 16.152C38.804 16.152 40 14.9559 40 13.3613C40 11.7666 38.804 10.5706 37.2094 10.5706Z" fill="#010101"/>
<path d="M37.2094 18.2781C37.2094 19.8728 37.2094 21.999 37.2094 23.8595C38.804 23.8595 40 22.6635 40 21.0688C40 19.4741 38.804 18.2781 37.2094 18.2781Z" fill="#010101"/>
<path d="M40 5.65349C40 4.05881 38.804 2.86279 37.2094 2.86279C37.2094 4.45748 37.2094 6.58372 37.2094 8.44419C38.804 8.44419 40 7.11529 40 5.65349Z" fill="#010101"/>
<path d="M33.0897 1.66675H31.2292C30.1661 1.66675 29.2358 2.59698 29.2358 3.6601V23.0621C29.2358 24.1252 30.1661 25.0555 31.2292 25.0555H33.0897C34.1528 25.0555 35.083 24.1252 35.083 23.0621V3.6601C35.083 2.59698 34.1528 1.66675 33.0897 1.66675ZM33.7541 23.0621C33.7541 23.4608 33.4883 23.7265 33.0897 23.7265H31.2292C30.8305 23.7265 30.5647 23.4608 30.5647 23.0621V3.6601C30.5647 3.26143 30.8305 2.99565 31.2292 2.99565H33.0897C33.4883 2.99565 33.7541 3.26143 33.7541 3.6601V23.0621Z" fill="#010101"/>
</g>
<defs>
<clipPath id="clip0">
<rect width="40" height="40" fill="white"/>
</clipPath>
</defs>
</svg>
