<svg width="4" height="12" viewBox="0 0 4 12" fill="none" xmlns="http://www.w3.org/2000/svg">
<path fill-rule="evenodd" clip-rule="evenodd" d="M0.666504 1.33333C0.666504 0.596954 1.26346 0 1.99984 0C2.73622 0 3.33317 0.596954 3.33317 1.33333C3.33317 2.06971 2.73622 2.66667 1.99984 2.66667C1.26346 2.66667 0.666504 2.06971 0.666504 1.33333ZM0.666504 6C0.666504 5.26362 1.26346 4.66667 1.99984 4.66667C2.73622 4.66667 3.33317 5.26362 3.33317 6C3.33317 6.73638 2.73622 7.33333 1.99984 7.33333C1.26346 7.33333 0.666504 6.73638 0.666504 6ZM1.99984 9.33333C1.26346 9.33333 0.666504 9.93029 0.666504 10.6667C0.666504 11.403 1.26346 12 1.99984 12C2.73622 12 3.33317 11.403 3.33317 10.6667C3.33317 9.93029 2.73622 9.33333 1.99984 9.33333Z" fill="white"/>
</svg>
