<svg width="20" height="20" viewBox="0 0 20 20" fill="none" xmlns="http://www.w3.org/2000/svg">
<path d="M4.83854 3.57842L4.83852 3.57847C4.70262 3.95558 4.6155 4.50098 4.58798 5.05824C4.56046 5.61535 4.59278 6.17882 4.69261 6.59176C5.00275 7.86314 6.06313 9.26963 7.18398 9.88717C7.18405 9.88721 7.18412 9.88725 7.18419 9.88729L7.66306 10.1458L7.76787 10.2024L7.65408 10.2376L6.99065 10.4427C6.11111 10.7176 4.73362 11.411 3.98234 11.9608L3.98223 11.9609C1.72666 13.6028 0.259925 16.23 0.0858014 18.9355L0.085804 18.9355L0.0857663 18.936C0.0532865 19.3717 0.0402818 19.5923 0.0577725 19.7171C0.0661976 19.7773 0.0810351 19.8088 0.099746 19.8306C0.119674 19.8538 0.148227 19.8712 0.196759 19.8958L0.196774 19.8958L0.198349 19.8966C0.316417 19.962 0.417308 19.9665 0.508998 19.9147L0.508949 19.9146L0.5118 19.9132C0.541572 19.8988 0.56453 19.8803 0.584227 19.8516C0.604656 19.8218 0.622966 19.779 0.639493 19.714C0.672815 19.5828 0.695625 19.3755 0.723349 19.0356C1.00159 15.1319 3.90298 11.832 7.87641 10.8727L7.87656 10.8727C9.04542 10.5943 10.9519 10.5943 12.1208 10.8727L12.1209 10.8727C16.1223 11.841 18.9587 15.0786 19.2739 19.0798C19.3017 19.3973 19.3245 19.5937 19.3567 19.7195C19.3882 19.8428 19.4261 19.8873 19.4775 19.9138L19.4776 19.9139C19.5798 19.9672 19.6817 19.9615 19.799 19.8966L19.799 19.8966L19.8006 19.8958C19.8491 19.8712 19.8777 19.8538 19.8978 19.8305C19.9167 19.8086 19.9318 19.7769 19.9408 19.7167C19.9594 19.5918 19.9486 19.3712 19.9207 18.9355C19.8199 17.3564 19.2514 15.679 18.3441 14.3484L18.3441 14.3483C18.0979 13.9864 17.5198 13.3288 17.0693 12.8838C15.84 11.6852 14.4923 10.8865 12.8598 10.3983L12.8595 10.3982L12.3342 10.2376L12.222 10.2033L12.3244 10.1461L12.8037 9.8785L12.8043 9.87818C13.1531 9.68961 13.5547 9.36327 13.9201 8.98953C14.2855 8.61594 14.6117 8.19814 14.8116 7.82876C15.2407 7.03336 15.4323 6.28326 15.4323 5.31895C15.4323 3.83435 14.959 2.73203 13.8347 1.64375L13.8344 1.64347C13.2659 1.08427 12.9481 0.856346 12.4204 0.618582L12.4203 0.618513C11.3677 0.140091 10.2346 -0.0449753 9.26874 0.0961132C7.20222 0.414831 5.49527 1.75081 4.83854 3.57842ZM11.2652 0.863743L11.2658 0.863924C13.7497 1.57531 15.2897 4.0804 14.6551 6.42927L14.655 6.42929C14.152 8.28671 12.5779 9.66566 10.6322 9.936L10.6322 9.93601C7.81095 10.3236 5.2023 8.11609 5.2023 5.31895C5.2023 2.79173 7.34615 0.728266 9.96163 0.719255H9.9618C10.4255 0.719255 10.9648 0.781952 11.2652 0.863743ZM12.828 9.92213L12.828 9.92215L12.828 9.92213Z" fill="black" stroke="black" stroke-width="0.1"/>
</svg>
