<svg width="20" height="20" viewBox="0 0 20 20" fill="none" xmlns="http://www.w3.org/2000/svg">
<g clip-path="url(#clip0)">
<path d="M9.49042 0.959252C9.07387 0.987191 8.60433 1.09196 8.19019 1.25262C8.0722 1.29918 7.93014 1.3504 7.87717 1.36903C7.82419 1.38766 7.764 1.41792 7.74233 1.43655C7.72306 1.45518 7.69176 1.46915 7.67491 1.46915C7.65805 1.46915 7.60508 1.49476 7.55692 1.52735C7.50876 1.55995 7.46061 1.58556 7.45098 1.58556C7.40041 1.58556 6.85865 1.96507 6.6299 2.16065C6.22538 2.50524 5.78715 3.01047 5.58971 3.35506C5.49099 3.52968 5.26947 3.97439 5.24298 4.0582C5.22613 4.1071 5.20205 4.15134 5.19001 4.15832C5.17797 4.16763 5.16834 4.1979 5.16834 4.22584C5.16834 4.25611 5.15148 4.3213 5.12981 4.3702C5.03591 4.5844 4.95404 5.0128 4.90347 5.56228C4.87458 5.88591 4.89143 6.26775 4.96367 6.80093C5.02627 7.25727 5.13704 7.78347 5.20686 7.93713C5.22613 7.97904 5.24057 8.02794 5.24057 8.04656C5.24057 8.08382 5.39708 8.54947 5.43079 8.61234C5.44283 8.63562 5.49099 8.74505 5.53674 8.86147C5.65713 9.15949 5.75585 9.383 5.81364 9.49476C5.85217 9.56461 5.85698 9.59255 5.83531 9.60186C5.81846 9.60652 5.6162 9.61117 5.38504 9.61117C5.15389 9.61117 4.90347 9.61816 4.83124 9.62747C4.68918 9.6461 4.46043 9.7532 4.3906 9.83702C4.31114 9.92782 4.18353 10.1187 4.10888 10.2584C4.07999 10.3097 3.99812 10.4447 3.92589 10.5611C3.85606 10.6752 3.70918 10.9173 3.60083 11.0966C3.49488 11.2759 3.31429 11.5693 3.20353 11.7485C3.09277 11.9255 3.00127 12.0745 3.00127 12.0792C3.00127 12.0815 2.94108 12.1816 2.86643 12.3003C2.79179 12.4191 2.7027 12.5634 2.66899 12.6217C2.55823 12.8149 2.00924 13.7276 1.92978 13.844C1.88885 13.9069 1.8118 14.0326 1.75883 14.1187C1.70826 14.2072 1.64084 14.3166 1.61195 14.3632C1.58305 14.4121 1.54212 14.4796 1.52045 14.5192C1.49878 14.5565 1.45062 14.6356 1.4121 14.6938C1.37357 14.752 1.32541 14.8289 1.30374 14.8685C1.28207 14.9057 1.24114 14.9779 1.21224 15.0244C1.15446 15.1176 0.944973 15.4622 0.889592 15.5553C0.870329 15.5879 0.795686 15.7066 0.723451 15.823C0.653623 15.9371 0.504337 16.1816 0.395984 16.3632C0.193724 16.7008 0.123897 16.8149 0.0468457 16.9406C-0.020574 17.0501 -0.0133504 17.4645 0.0564771 17.5949C0.128713 17.7276 0.335787 17.8999 0.45618 17.9325C0.51156 17.9464 0.581388 17.9674 0.61269 17.979C0.643992 17.9907 4.52544 18 9.98644 18C18.4356 18 19.3168 17.9977 19.43 17.9627C19.613 17.9092 19.6564 17.8836 19.784 17.7672C19.8731 17.6857 19.9092 17.6275 19.9477 17.5064C20.0007 17.3481 20.0175 17.1292 19.979 17.1059C19.967 17.099 19.9501 17.0594 19.9429 17.0175C19.9333 16.9756 19.8899 16.8824 19.8442 16.8126C19.7984 16.7427 19.7334 16.631 19.6997 16.5681C19.666 16.5029 19.613 16.4098 19.5793 16.3586C19.548 16.3073 19.4734 16.1886 19.418 16.0931C19.3096 15.9139 19.2904 15.8859 19.0977 15.5739C19.0327 15.4668 18.9629 15.3551 18.946 15.3225C18.9292 15.2899 18.8425 15.1478 18.7534 15.0035C18.6643 14.8615 18.5343 14.6473 18.4621 14.5262C18.3898 14.4074 18.2574 14.1909 18.1659 14.0466C18.0768 13.9022 18.0022 13.7788 18.0022 13.7742C18.0022 13.7648 17.641 13.1711 17.4869 12.9243C17.458 12.8801 17.4219 12.8219 17.405 12.7963C17.3906 12.7707 17.3496 12.7031 17.3183 12.6449C17.287 12.5867 17.2172 12.4726 17.1642 12.3888C17.1089 12.305 16.9933 12.1164 16.9066 11.9697C16.8199 11.823 16.7212 11.6601 16.6875 11.6088C16.6562 11.5576 16.5863 11.4412 16.531 11.3527C16.478 11.2619 16.4106 11.1525 16.3841 11.1083C16.3552 11.064 16.307 10.9849 16.2781 10.9336C16.1842 10.7776 16.1264 10.6822 16.0638 10.5844C16.0301 10.5332 15.9579 10.4144 15.9001 10.3213C15.6449 9.8929 15.5919 9.82305 15.4571 9.73923C15.2933 9.63679 15.1561 9.61816 14.6023 9.61816H14.1231L14.1376 9.56461C14.1472 9.53667 14.1954 9.42957 14.2459 9.32712C14.3784 9.05238 14.4867 8.79627 14.4867 8.75669C14.4867 8.73574 14.4963 8.71013 14.5108 8.69616C14.5373 8.67055 14.6095 8.47497 14.6769 8.24447C14.7034 8.16065 14.7612 7.9674 14.8069 7.81373C14.8527 7.66007 14.8984 7.47846 14.9057 7.40861C14.9153 7.33876 14.9322 7.26426 14.9442 7.2433C14.9731 7.18975 15.0405 6.67287 15.067 6.30035C15.0887 5.98603 15.0718 5.26426 15.0405 5.18277C15.0309 5.15716 15.014 5.06868 15.0044 4.98486C14.9948 4.90105 14.9659 4.77299 14.9418 4.69616C14.9153 4.62165 14.896 4.53783 14.896 4.50989C14.896 4.48428 14.8744 4.41443 14.8479 4.35855C14.8214 4.30267 14.7997 4.24447 14.7997 4.22584C14.7997 4.17928 14.5638 3.67404 14.453 3.48312C14.2748 3.17345 14.1183 2.95692 13.8438 2.63329C13.668 2.42607 13.2202 2.03492 12.9674 1.86496C12.6014 1.61816 12.4376 1.52735 11.9946 1.32945C11.8718 1.27357 11.5828 1.16647 11.5564 1.16647C11.5467 1.16647 11.4673 1.14551 11.3806 1.12223C11.0555 1.02677 10.7786 0.980206 10.4295 0.956923C10.025 0.931312 9.90457 0.931312 9.49042 0.959252ZM10.5258 2.42607C10.8171 2.45867 11.2313 2.5844 11.5612 2.73806C12.7242 3.28288 13.4899 4.40978 13.5838 5.70663C13.603 5.94412 13.5741 6.30035 13.4971 6.77765C13.4513 7.078 13.4297 7.1688 13.3526 7.42957C13.3285 7.51339 13.2948 7.63213 13.2804 7.69732C13.2635 7.76018 13.237 7.83935 13.2202 7.87194C13.2033 7.90454 13.172 7.98836 13.1504 8.05821C13.0227 8.461 12.4858 9.55762 12.245 9.89755C12.2233 9.93015 12.1752 10.007 12.1366 10.0675C12.0379 10.2282 11.9801 10.3166 11.9007 10.4354C11.8622 10.4913 11.7923 10.596 11.7442 10.6659C11.6984 10.7357 11.6479 10.8056 11.6334 10.8219C11.6214 10.8359 11.5491 10.929 11.4769 11.0268C11.3059 11.2596 11.1494 11.4598 11.1085 11.5041C11.0916 11.5227 11.0387 11.5856 10.9929 11.6438C10.8822 11.7858 10.5162 12.2026 10.4487 12.2654C10.4174 12.2934 10.3934 12.326 10.3934 12.3353C10.391 12.3446 10.2995 12.447 10.1863 12.5634L9.98162 12.773L9.92865 12.7031C9.89976 12.6659 9.81548 12.5704 9.74084 12.4936C9.5145 12.2631 9.34836 12.0792 9.27372 11.9814C9.23519 11.9302 9.18463 11.8673 9.16055 11.8417C9.12202 11.8021 8.83308 11.4482 8.72232 11.3062C8.45264 10.9616 8.28891 10.7381 8.24075 10.6473C8.21908 10.6077 8.19259 10.5728 8.18296 10.5728C8.17333 10.5728 8.1348 10.5192 8.09387 10.454C8.01682 10.3329 7.87957 10.1187 7.7664 9.94645C7.72788 9.89057 7.67491 9.79744 7.64601 9.7369C7.61712 9.67869 7.57859 9.6135 7.56174 9.59488C7.52562 9.5553 7.07054 8.6752 7.07054 8.64726C7.07054 8.63795 7.04887 8.58673 7.02238 8.5355C6.91643 8.32363 6.70695 7.7532 6.65157 7.52037C6.63472 7.44819 6.61305 7.37834 6.60341 7.36438C6.59378 7.35041 6.5673 7.23632 6.54081 7.11059C6.51673 6.98486 6.48302 6.8312 6.47098 6.77066C6.39152 6.41909 6.3843 5.52736 6.45654 5.22235C6.54081 4.86845 6.57211 4.75669 6.61545 4.66822C6.63953 4.61699 6.6612 4.56577 6.6612 4.55646C6.6612 4.52852 6.79604 4.26775 6.86587 4.15832C6.89717 4.1071 6.94292 4.03259 6.96459 3.99534C7.08258 3.79278 7.4582 3.37602 7.68935 3.19208C7.89402 3.0291 8.378 2.72642 8.43338 2.72642C8.44542 2.72642 8.49357 2.7078 8.53932 2.68451C8.63323 2.63562 8.91254 2.54016 9.12925 2.48195C9.49283 2.38649 10.0009 2.36554 10.5258 2.42607ZM6.84901 11.2759C6.93088 11.3946 7.05127 11.5646 7.11869 11.6554C7.18371 11.7439 7.26798 11.8603 7.3041 11.9115C7.33781 11.9627 7.37874 12.0163 7.39319 12.0326C7.42449 12.0675 7.43894 12.0838 7.7038 12.4168C7.94218 12.7171 8.25279 13.0873 8.36837 13.213C8.60915 13.4715 8.84994 13.7159 9.1774 14.0373C9.61322 14.4657 9.68546 14.5076 10.0009 14.5076C10.2995 14.5076 10.3741 14.4633 10.8292 14.021C11.0339 13.8207 11.2795 13.5739 11.3685 13.4715C11.46 13.369 11.578 13.241 11.631 13.1874C11.6816 13.1339 11.7394 13.0664 11.7586 13.0407C11.7779 13.0151 11.8164 12.9686 11.8453 12.9406C11.9103 12.8778 12.0331 12.7311 12.1968 12.5285C12.3582 12.326 12.3461 12.3423 12.4256 12.2375C12.4665 12.1863 12.505 12.1397 12.5147 12.1327C12.5267 12.1234 12.7723 11.7858 12.9746 11.5041C12.9987 11.4715 13.054 11.3923 13.1022 11.3295C13.1479 11.2643 13.1865 11.2014 13.1865 11.1874C13.1865 11.1735 13.2105 11.1409 13.2418 11.1129C13.2972 11.0617 13.3093 11.0617 13.9594 11.0664L14.6191 11.0733L14.6793 11.1828C14.713 11.2433 14.7925 11.3783 14.8599 11.4854C14.9996 11.7136 15.0501 11.7974 15.0935 11.8766C15.1103 11.9092 15.1609 11.993 15.2091 12.0629C15.2548 12.1327 15.3126 12.2282 15.3343 12.2724C15.3583 12.3166 15.3872 12.3702 15.4017 12.3888C15.4523 12.4587 15.693 12.8522 15.8953 13.1921C16.0109 13.383 16.1578 13.6298 16.2252 13.7392C16.2926 13.8487 16.4539 14.1141 16.5863 14.3329C16.7212 14.5495 16.8464 14.7544 16.8705 14.787C16.8921 14.8196 16.9788 14.9639 17.0655 15.1083C17.1498 15.2549 17.2365 15.3993 17.2557 15.4272C17.275 15.4575 17.3689 15.6112 17.4628 15.7695C17.5567 15.9278 17.694 16.1583 17.7686 16.2817C17.8432 16.4051 17.9058 16.5122 17.9058 16.5192C17.9058 16.5285 14.3422 16.5332 9.98403 16.5332C5.62824 16.5332 2.06221 16.5262 2.06221 16.5192C2.06221 16.5006 2.42339 15.9022 2.75327 15.3737C2.85199 15.2154 2.90496 15.1292 3.08073 14.8312C3.14334 14.7241 3.21557 14.6077 3.23724 14.5728C3.2854 14.5006 3.40579 14.3003 3.7453 13.7392C3.88014 13.5157 4.00053 13.3155 4.01257 13.2969C4.02461 13.2782 4.0824 13.1851 4.13778 13.092C4.19557 12.9988 4.26299 12.8871 4.28947 12.8428C4.40023 12.6636 4.56156 12.3958 4.6049 12.3213C4.62898 12.2771 4.66028 12.2282 4.66991 12.2165C4.70121 12.1723 5.26706 11.241 5.31522 11.1478L5.36096 11.0617H6.03275H6.70214L6.84901 11.2759Z" fill="white"/>
<path d="M9.49761 3.31082C8.92455 3.41093 8.4502 3.66704 8.01679 4.10709C7.73026 4.40046 7.47744 4.83817 7.39557 5.18043C7.37872 5.2596 7.35223 5.36437 7.33778 5.41559C7.32334 5.46681 7.3113 5.66472 7.3113 5.85331C7.3113 6.22118 7.36186 6.52386 7.45818 6.72176C7.48225 6.77531 7.50392 6.83119 7.50633 6.84982C7.50633 6.88474 7.60265 7.05936 7.75675 7.30383C7.87714 7.49708 8.33222 7.92782 8.52725 8.03492C8.60671 8.07683 8.68858 8.12572 8.70784 8.13969C8.75118 8.17694 9.04734 8.29103 9.26164 8.35622C9.34832 8.38416 9.54577 8.41676 9.70228 8.43306C9.94306 8.45867 10.0297 8.45867 10.3042 8.42607C10.4776 8.40512 10.6967 8.36786 10.7882 8.33992C10.9423 8.29569 11.3878 8.09312 11.4576 8.03725C11.4744 8.02328 11.5708 7.94877 11.6695 7.87427C11.8404 7.74388 12.1053 7.46681 12.2281 7.28986C12.3726 7.08032 12.4833 6.84283 12.5965 6.49825C12.6471 6.34458 12.6759 5.62048 12.6374 5.43887C12.5483 5.0128 12.3966 4.65657 12.1607 4.33294C11.8139 3.85796 11.1759 3.45284 10.5787 3.32944C10.2513 3.25959 9.81785 3.25261 9.49761 3.31082ZM10.2489 4.75668C10.4993 4.81489 10.6871 4.91967 10.8484 5.08963C10.9736 5.22467 11.0988 5.45052 11.1398 5.61815C11.1686 5.74854 11.1686 5.96972 11.1373 6.10244C11.1012 6.25145 10.9592 6.5192 10.8604 6.61932C10.6726 6.81489 10.4463 6.93131 10.1814 6.97787C10.0008 7.00814 9.95991 7.00814 9.77692 6.97555C9.25442 6.88009 8.84749 6.44237 8.81138 5.9348C8.79934 5.78346 8.80656 5.72525 8.86194 5.55296C8.93899 5.31547 9.00641 5.20372 9.17737 5.04074C9.35555 4.86844 9.61559 4.75436 9.89972 4.72409C9.94065 4.71943 9.98881 4.71478 10.0081 4.71245C10.0273 4.71012 10.1357 4.73107 10.2489 4.75668Z" fill="white"/>
</g>
<defs>
<clipPath id="clip0">
<rect width="20" height="20" fill="white"/>
</clipPath>
</defs>
</svg>
