<svg width="16" height="16" viewBox="0 0 16 16" fill="none" xmlns="http://www.w3.org/2000/svg">
<g clip-path="url(#clip0)">
<path fill-rule="evenodd" clip-rule="evenodd" d="M8.71906 0.0332242C8.71884 0.0331048 8.71863 0.0329854 8.71841 0.032866C8.48156 0.0118899 8.24207 0 7.99981 0C4.5197 0 1.56014 2.22269 0.459651 5.32571L0.457118 5.33267C0.162067 6.16702 0 7.06437 0 8.00005C0 8.92381 0.15852 9.81015 0.446511 10.6356C0.44815 10.6402 0.449686 10.6448 0.451237 10.6495C0.452213 10.6524 0.453196 10.6554 0.454213 10.6583C1.55038 13.7694 4.51399 15.9998 7.99978 15.9998C8.24207 15.9998 8.48156 15.9879 8.71837 15.9667C8.75014 15.9493 8.78161 15.9309 8.81277 15.9116C8.78195 15.9311 8.75056 15.9496 8.71859 15.9671C11.8886 15.6847 14.5259 13.5533 15.5458 10.6587C15.5469 10.6556 15.5479 10.6525 15.5489 10.6495C15.5504 10.6449 15.5518 10.6404 15.5535 10.636C15.8415 9.81049 16 8.92402 16 8.0004C15.9999 7.06465 15.8378 6.1673 15.5427 5.33295L15.5402 5.32599C14.5164 2.43927 11.883 0.31535 8.71906 0.0332242Z" fill="#FF0000"/>
<path d="M7.92834 3.89929L8.87862 6.82423H11.9543L9.46598 8.63162L10.4164 11.5569L7.92834 9.74903L5.44018 11.5569L6.39059 8.63162L3.9024 6.82423H6.97796L7.92834 3.89929Z" fill="#FFC043"/>
</g>
<defs>
<clipPath id="clip0">
<rect width="16" height="16" fill="white"/>
</clipPath>
</defs>
</svg>
