<svg width="20" height="20" viewBox="0 0 20 20" fill="none" xmlns="http://www.w3.org/2000/svg">
<path d="M9.99984 18.3333C14.6022 18.3333 18.3332 14.6024 18.3332 9.99999C18.3332 5.39762 14.6022 1.66666 9.99984 1.66666C5.39746 1.66666 1.6665 5.39762 1.6665 9.99999C1.6665 14.6024 5.39746 18.3333 9.99984 18.3333Z" stroke="#0A8080" stroke-width="2" stroke-linecap="round" stroke-linejoin="round"/>
<path d="M7.5752 7.50002C7.77112 6.94307 8.15782 6.47344 8.66682 6.17429C9.17583 5.87515 9.77427 5.7658 10.3562 5.86561C10.9381 5.96542 11.4659 6.26795 11.8461 6.71962C12.2263 7.17129 12.4344 7.74295 12.4335 8.33335C12.4335 10 9.93353 10.8334 9.93353 10.8334" stroke="#0A8080" stroke-width="2" stroke-linecap="round" stroke-linejoin="round"/>
<path d="M10 14.1667H10.0083" stroke="#0A8080" stroke-width="2" stroke-linecap="round" stroke-linejoin="round"/>
</svg>
