<svg width="18" height="20" viewBox="0 0 18 20" fill="none" xmlns="http://www.w3.org/2000/svg">
<path d="M14 19.1667H4.00002C2.16669 19.1667 0.666687 17.6667 0.666687 15.8334V6.08341C0.666687 5.50008 1.00002 4.91674 1.58335 4.58341L8.25002 1.00008C8.75002 0.750076 9.33335 0.750076 9.83335 1.00008L16.5 4.58341C17.0834 4.83341 17.4167 5.41674 17.4167 6.08341V15.8334C17.3334 17.6667 15.8334 19.1667 14 19.1667ZM9.00002 2.50008L2.33335 6.08341V15.8334C2.33335 16.7501 3.08335 17.5001 4.00002 17.5001H14C14.9167 17.5001 15.6667 16.7501 15.6667 15.8334V6.08341L9.00002 2.50008Z" fill="white"/>
</svg>
