<svg width="20" height="20" viewBox="0 0 20 20" fill="none" xmlns="http://www.w3.org/2000/svg">
<g clip-path="url(#clip0)">
<path d="M1.02222 0.168888C0.595556 0.364444 0.32 0.648888 0.133333 1.08444C0.0177778 1.37778 0 2.45333 0 10.0178C0 18.1778 0.00888889 18.64 0.168889 18.9778C0.364445 19.4222 0.782222 19.7867 1.22667 19.9111C1.44 19.9644 4.48889 20 10.0889 20C18.1956 20 18.64 19.9911 18.9778 19.8311C19.4044 19.6356 19.68 19.3511 19.8667 18.9156C19.9822 18.6222 20 17.5556 20 10.0711C20 4.48889 19.9644 1.44 19.9111 1.22667C19.7867 0.782221 19.4222 0.364444 18.9778 0.168888C18.64 0.00888811 18.1778 -7.82311e-07 10 -7.82311e-07C1.80444 -7.82311e-07 1.36 0.00888811 1.02222 0.168888ZM18.7556 0.782221C19.1733 0.986666 19.3778 1.42222 19.3778 2.10667V2.66667H10H0.622222V2.10667C0.622222 1.42222 0.826667 0.986666 1.24444 0.782221C1.53778 0.63111 2.14222 0.622221 10 0.622221C17.8578 0.622221 18.4622 0.63111 18.7556 0.782221ZM19.36 10.8889C19.3778 17.9378 19.3689 18.4622 19.2267 18.7556C18.8889 19.4133 19.44 19.3778 10 19.3778C2.14222 19.3778 1.53778 19.3689 1.24444 19.2178C0.586667 18.8978 0.622222 19.3333 0.622222 10.9244C0.622222 6.79111 0.648889 3.37778 0.684445 3.35111C0.711111 3.31555 4.92445 3.29778 10.0356 3.30667L19.3333 3.33333L19.36 10.8889Z" fill="white"/>
<path d="M1.77777 1.46666C1.56444 1.72444 1.70666 1.91111 2.15111 1.93778C2.50666 1.96444 2.56889 1.93778 2.62222 1.77778C2.65777 1.67111 2.63111 1.53778 2.57777 1.46666C2.43555 1.29778 1.92 1.29778 1.77777 1.46666Z" fill="white"/>
<path d="M3.48444 1.41333C3.41333 1.44888 3.37777 1.58222 3.39555 1.69777C3.43111 1.99111 3.86666 2.05333 3.95555 1.77777C4.05333 1.45777 3.76 1.23555 3.48444 1.41333Z" fill="white"/>
<path d="M4.81778 1.41333C4.74667 1.44888 4.71112 1.58222 4.7289 1.69777C4.76445 1.99111 5.20001 2.05333 5.2889 1.77777C5.38667 1.45777 5.09334 1.23555 4.81778 1.41333Z" fill="white"/>
<path d="M6.4 1.52C6.16 1.96444 6.05333 1.95555 12.3733 1.95555C17.7156 1.95555 18.2311 1.94666 18.2845 1.81333C18.3111 1.73333 18.3022 1.6 18.2489 1.52C18.1689 1.39555 17.5822 1.37778 12.3289 1.35111C6.50667 1.33333 6.49778 1.33333 6.4 1.52Z" fill="white"/>
<path d="M8.57778 4.83555C7.25333 5.13778 6.09778 5.80444 5.17333 6.8C4.43555 7.6 4.05333 8.22222 3.70666 9.21778C3.33333 10.2933 3.26222 11.7778 3.54666 12.8978C3.85778 14.1422 4.35555 15.0311 5.28889 15.9556C6.18667 16.8533 6.89778 17.3067 7.95555 17.6622C8.59555 17.8844 8.79111 17.9022 10 17.9111C11.2711 17.9111 11.3689 17.9022 12.1156 17.6356C13.2178 17.2356 13.8044 16.8622 14.6667 16C15.5289 15.1378 15.9022 14.5511 16.3022 13.4489C16.56 12.7022 16.5778 12.6044 16.5778 11.3333C16.5778 10.0622 16.56 9.96444 16.3022 9.21778C15.9022 8.11555 15.5289 7.52889 14.6667 6.66666C13.7956 5.79555 13.2089 5.42222 12.1156 5.04C11.44 4.80889 11.1822 4.76444 10.2222 4.74666C9.50222 4.72 8.92444 4.75555 8.57778 4.83555ZM9.68889 6.88889V8.35555H9.46667C9.19111 8.35555 7.91111 8.09778 7.76 8.00889C7.61778 7.93778 7.96444 7.08444 8.39111 6.43555C8.71111 5.96444 9.33333 5.42222 9.57333 5.42222C9.66222 5.42222 9.68889 5.71555 9.68889 6.88889ZM10.9156 5.68889C11.3511 6 11.84 6.70222 12.1333 7.43111C12.2933 7.81333 12.32 7.97333 12.24 8.00889C12.0889 8.09778 10.8089 8.35555 10.5333 8.35555H10.3111V6.88889C10.3111 5.23555 10.3111 5.24444 10.9156 5.68889ZM7.90222 6.00889C7.75111 6.23111 7.48444 6.71111 7.31555 7.07555L7.01333 7.74222L6.68444 7.54666C6.50667 7.43111 6.24 7.27111 6.09778 7.17333L5.84889 6.99555L6.18667 6.70222C6.47111 6.45333 8 5.6 8.14222 5.6C8.16889 5.6 8.06222 5.78666 7.90222 6.00889ZM12.8889 6.09778C13.2089 6.26666 13.6178 6.54222 13.8133 6.70222L14.1511 6.99555L13.9022 7.17333C13.76 7.27111 13.4933 7.43111 13.3156 7.54666L12.9867 7.74222L12.6844 7.07555C12.5156 6.71111 12.2489 6.23111 12.0978 6.00889L11.8133 5.6L12.0622 5.69778C12.1956 5.74222 12.5689 5.92889 12.8889 6.09778ZM6.38222 8.10666C6.77333 8.32889 6.85333 8.41778 6.80889 8.56889C6.76444 8.73778 6.65778 9.47555 6.52444 10.64L6.48 11.0222H5.22667H3.98222L4.04444 10.5511C4.14222 9.81333 4.56 8.71111 4.97778 8.06222L5.36889 7.47555L5.63555 7.65333C5.78667 7.75111 6.12444 7.95555 6.38222 8.10666ZM15.3333 8.63111C15.6533 9.25333 15.8667 9.92889 15.9644 10.5956L16.0178 11.0222H14.7733H13.52L13.4756 10.5956C13.4489 10.3644 13.36 9.77778 13.2889 9.28889C13.1733 8.48 13.1733 8.39111 13.2978 8.31111C13.3778 8.25778 13.7067 8.05333 14.0267 7.84889L14.6133 7.48444L14.8267 7.76C14.9422 7.92 15.1733 8.31111 15.3333 8.63111ZM8.44444 8.84444C8.76444 8.91555 9.17333 8.97778 9.36 8.97778H9.68889V10V11.0222H8.43555H7.17333L7.22667 10.2844C7.25333 9.88444 7.32444 9.34222 7.37778 9.08444C7.47555 8.65778 7.50222 8.61333 7.68 8.65778C7.77778 8.69333 8.12444 8.77333 8.44444 8.84444ZM12.6222 9.08444C12.6756 9.34222 12.7467 9.88444 12.7733 10.2844L12.8267 11.0222H11.5644H10.3111V10.0089V9.00444L10.9156 8.95111C11.2444 8.91555 11.6889 8.83555 11.9111 8.76444C12.5067 8.57778 12.5067 8.58666 12.6222 9.08444ZM6.52444 11.92C6.55111 12.0711 6.57778 12.3467 6.57778 12.5244C6.58667 12.7022 6.64 13.1644 6.71111 13.5556C6.82667 14.2044 6.82667 14.2756 6.69333 14.3556C6.61333 14.4 6.29333 14.6133 5.97333 14.8267C5.31555 15.2533 5.40444 15.28 4.85333 14.4C4.49778 13.84 4.13333 12.7911 4.04444 12.1067L3.98222 11.6444H5.22667H6.47111L6.52444 11.92ZM9.68889 12.6578V13.6622L9.09333 13.7244C8.75555 13.7511 8.26667 13.84 8 13.9111C7.73333 13.9822 7.51111 14.0267 7.49333 14.0089C7.41333 13.9289 7.2 12.5422 7.2 12.1244V11.6444H8.44444H9.68889V12.6578ZM12.8 12.1244C12.8 12.5422 12.5867 13.9289 12.5067 14.0089C12.4889 14.0267 12.2667 13.9822 12 13.9111C11.7333 13.84 11.2444 13.7511 10.9156 13.7244L10.3111 13.6622V12.6578V11.6444H11.5556H12.8V12.1244ZM15.9644 12.0622C15.8311 13.0133 15.2622 14.4 14.7644 14.9956L14.5956 15.2L14.0267 14.8178C13.7067 14.6133 13.3867 14.4 13.2978 14.3556C13.1556 14.2756 13.1556 14.2044 13.2889 13.3778C13.36 12.8889 13.4489 12.3022 13.4756 12.0622L13.52 11.6444H14.7733H16.0178L15.9644 12.0622ZM9.68889 15.7778C9.68889 16.7467 9.65333 17.2444 9.6 17.2444C9.09333 17.2444 8.24 16.2311 7.81333 15.12L7.65333 14.6844L8.20444 14.5422C8.80889 14.3911 9.07555 14.3378 9.44889 14.32L9.68889 14.3111V15.7778ZM11.8844 14.5689L12.3467 14.7111L12.1333 15.2356C11.8311 15.9733 11.3511 16.6667 10.9156 16.9778C10.3111 17.4222 10.3111 17.4311 10.3111 15.7689V14.2933L10.8711 14.3556C11.1733 14.3911 11.6267 14.4889 11.8844 14.5689ZM7.32444 15.5911C7.49333 15.9556 7.75111 16.4356 7.90222 16.6578L8.18667 17.0667L7.93778 16.9689C7.44889 16.7822 6.52444 16.2489 6.18667 15.9644L5.83111 15.6622L6.40889 15.2978C6.72 15.1022 6.98667 14.9333 6.99555 14.9333C7.00444 14.9333 7.15555 15.2267 7.32444 15.5911ZM13.8933 15.4933C14.0889 15.6267 14.1156 15.6889 14.0356 15.7867C13.8489 16.0178 12.7644 16.6933 12.2844 16.88L11.8133 17.0667L12.0889 16.6578C12.2489 16.4356 12.5156 15.9556 12.6844 15.5911L12.9867 14.9244L13.3156 15.12C13.4933 15.2356 13.76 15.3956 13.8933 15.4933Z" fill="white"/>
</g>
<defs>
<clipPath id="clip0">
<rect width="20" height="20" fill="white"/>
</clipPath>
</defs>
</svg>
