<svg width="260" height="80" viewBox="0 0 260 80" fill="none" xmlns="http://www.w3.org/2000/svg">
<g clip-path="url(#clip0)">
<path d="M75.737 30.5207C75.737 29.5216 76.702 28.7042 77.8827 28.7042H83.6272C86.9196 28.7042 89.7124 29.7941 91.9148 31.9398C94.1513 34.0855 95.2753 36.7761 95.2753 40.0458C95.2753 43.3154 94.1513 46.0401 91.9148 48.1858C89.701 50.3315 86.9196 51.3873 83.6272 51.3873H77.8827C76.702 51.3873 75.737 50.5699 75.737 49.5708V30.5207ZM88.6906 34.9597C87.2942 33.5406 85.6026 32.814 83.6386 32.814H80.0397V47.2776H83.6386C85.6026 47.2776 87.2942 46.585 88.6906 45.1546C90.1097 43.7355 90.8136 42.0439 90.8136 40.0458C90.8022 38.0817 90.1097 36.3901 88.6906 34.9597ZM98.1589 49.5708C98.1589 50.5699 99.1239 51.3873 100.305 51.3873H113.247C114.246 51.3873 115.063 50.445 115.063 49.3324C115.063 48.2085 114.246 47.2776 113.247 47.2776H102.45V42.0779H111.158C112.157 42.0779 112.974 41.1356 112.974 40.0231C112.974 38.9105 112.157 37.9682 111.158 37.9682H102.45V32.814H113.247C114.246 32.814 115.063 31.8717 115.063 30.7591C115.063 29.6352 114.246 28.7042 113.247 28.7042H100.305C99.1239 28.7042 98.1589 29.5216 98.1589 30.5207V49.5708ZM125.678 47.7884C123.623 47.7884 121.841 47.2094 120.354 46.0969C119.627 45.586 118.412 45.8812 117.72 46.7326C117.084 47.7317 117.175 48.9124 117.992 49.5141L118.083 49.6049C120.297 51.1489 122.806 51.9095 125.678 51.9095C128.131 51.9095 130.151 51.2738 131.786 49.9682C133.455 48.6626 134.261 46.9483 134.261 44.8253C134.261 40.8632 131.48 38.2861 126.916 37.7184C124.952 37.446 123.646 37.0827 123.044 36.6853C122.443 36.2653 122.136 35.6295 122.17 34.744C122.204 33.2567 123.589 32.2918 125.678 32.2918C127.37 32.2918 129.039 32.8026 130.64 33.8017C131.491 34.2899 132.581 33.8584 133.183 32.8594C133.762 31.8603 133.546 30.7705 132.694 30.2028C130.674 28.8518 128.312 28.1934 125.678 28.1934C123.442 28.1934 121.535 28.7951 119.991 30.0439C118.447 31.2586 117.697 32.8253 117.697 34.7667C117.697 38.7856 119.968 40.9426 125.077 41.5784C127.131 41.8168 128.494 42.3391 129.073 42.9748C129.675 43.6106 129.799 44.0988 129.799 44.848C129.799 46.6418 128.131 47.7884 125.678 47.7884ZM60.2289 45.0637C60.9669 44.3258 61.8978 43.883 62.8628 43.7355L57.561 29.4876C57.1637 28.6134 55.9602 28.2161 54.8363 28.5794C53.7464 29.0335 53.1674 30.1233 53.508 31.0543L59.4002 46.1763C59.6159 45.779 59.8883 45.4043 60.2289 45.0637ZM72.263 28.5794C71.139 28.2161 69.9356 28.6134 69.5383 29.4876L64.2365 43.7355C65.2015 43.8717 66.1324 44.3145 66.8704 45.0637C67.211 45.4043 67.4834 45.779 67.6991 46.1877L73.5913 31.0656C73.9205 30.1233 73.3529 29.0335 72.263 28.5794ZM61.3415 46.165C60.1154 47.3911 60.1154 49.3665 61.3415 50.5812C62.5676 51.8074 64.543 51.8074 65.7578 50.5812C66.9839 49.3551 66.9839 47.3797 65.7578 46.165C64.543 44.9502 62.5563 44.9502 61.3415 46.165Z" fill="white"/>
<path d="M46.4806 48.4806C43.7559 51.2053 40.0549 52.3406 36.5128 51.9092C37.7389 50.5695 38.3747 48.8893 38.4087 47.1864C40.1116 47.0842 41.7919 46.3917 43.0861 45.0861C45.9016 42.2706 45.9016 37.7181 43.0861 34.9026C40.2706 32.087 35.7181 32.087 32.9026 34.9026C31.5289 36.2763 30.8363 38.0587 30.8023 39.8411C29.1107 39.9319 27.4532 40.6244 26.1476 41.9073C25.5572 38.2403 26.6812 34.3463 29.5194 31.5194C31.8581 29.1693 34.9234 28 38 28C41.0766 28 44.1419 29.1693 46.4806 31.5194C51.1693 36.1968 51.1693 43.8032 46.4806 48.4806Z" fill="white"/>
<path d="M27.8165 43.6441C25.9433 45.5173 25.9433 48.5599 27.8165 50.4331C29.6898 52.3063 32.7323 52.3063 34.6056 50.4331C36.4788 48.5599 36.4788 45.5173 34.6056 43.6441C33.6633 42.7018 32.4372 42.2363 31.2111 42.2363C29.9849 42.2363 28.7588 42.7131 27.8165 43.6441Z" fill="white"/>
<path opacity="0.1" d="M31.2111 42.2363C29.985 42.2363 28.7588 42.7018 27.8166 43.6441C27.476 43.9847 27.2035 44.3593 26.9878 44.7567C28.2593 47.6857 30.6548 50.0131 33.6406 51.1711C33.9812 50.9667 34.3104 50.7169 34.6056 50.4218C36.4788 48.5485 36.4788 45.506 34.6056 43.6327C33.6633 42.7131 32.4372 42.2363 31.2111 42.2363Z" fill="white"/>
<path opacity="0.1" d="M36.0017 46.8573C35.9563 45.688 35.4909 44.5413 34.6053 43.6558C33.6744 42.7249 32.4483 42.248 31.2222 42.248C31.9601 44.4619 33.7539 46.1989 36.0017 46.8573Z" fill="white"/>
</g>
<defs>
<clipPath id="clip0">
<rect x="26" y="28" width="108.272" height="24" fill="white"/>
</clipPath>
</defs>
</svg>
