<svg width="40" height="40" viewBox="0 0 40 40" fill="none" xmlns="http://www.w3.org/2000/svg">
<circle cx="20" cy="20" r="20" fill="#FEF3EF"/>
<path d="M14 16H15.3333H26" stroke="#D44333" stroke-width="2" stroke-linecap="round" stroke-linejoin="round"/>
<path d="M17.334 15.9997V14.6663C17.334 14.3127 17.4745 13.9736 17.7245 13.7235C17.9746 13.4735 18.3137 13.333 18.6673 13.333H21.334C21.6876 13.333 22.0267 13.4735 22.2768 13.7235C22.5268 13.9736 22.6673 14.3127 22.6673 14.6663V15.9997M24.6673 15.9997V25.333C24.6673 25.6866 24.5268 26.0258 24.2768 26.2758C24.0267 26.5259 23.6876 26.6663 23.334 26.6663H16.6673C16.3137 26.6663 15.9746 26.5259 15.7245 26.2758C15.4745 26.0258 15.334 25.6866 15.334 25.333V15.9997H24.6673Z" stroke="#D44333" stroke-width="2" stroke-linecap="round" stroke-linejoin="round"/>
</svg>
