<svg width="40" height="40" viewBox="0 0 40 40" fill="none" xmlns="http://www.w3.org/2000/svg">
<circle cx="20" cy="20" r="20" fill="#F6F6F6"/>
<path d="M23.334 14.0005C23.5091 13.8254 23.7169 13.6865 23.9457 13.5918C24.1745 13.497 24.4197 13.4482 24.6673 13.4482C24.9149 13.4482 25.1601 13.497 25.3889 13.5918C25.6177 13.6865 25.8256 13.8254 26.0007 14.0005C26.1757 14.1756 26.3146 14.3835 26.4094 14.6123C26.5042 14.841 26.5529 15.0862 26.5529 15.3339C26.5529 15.5815 26.5042 15.8267 26.4094 16.0555C26.3146 16.2842 26.1757 16.4921 26.0007 16.6672L17.0007 25.6672L13.334 26.6672L14.334 23.0005L23.334 14.0005Z" stroke="#757575" stroke-width="2" stroke-linecap="round" stroke-linejoin="round"/>
</svg>
